G04 #@! TF.GenerationSoftware,KiCad,Pcbnew,8.0.4*
G04 #@! TF.CreationDate,2024-08-03T17:02:50+02:00*
G04 #@! TF.ProjectId,koyomi-keyboard-adapter,6b6f796f-6d69-42d6-9b65-79626f617264,rev?*
G04 #@! TF.SameCoordinates,Original*
G04 #@! TF.FileFunction,Copper,L2,Bot*
G04 #@! TF.FilePolarity,Positive*
%FSLAX46Y46*%
G04 Gerber Fmt 4.6, Leading zero omitted, Abs format (unit mm)*
G04 Created by KiCad (PCBNEW 8.0.4) date 2024-08-03 17:02:50*
%MOMM*%
%LPD*%
G01*
G04 APERTURE LIST*
G04 #@! TA.AperFunction,ComponentPad*
%ADD10R,1.700000X1.700000*%
G04 #@! TD*
G04 #@! TA.AperFunction,ComponentPad*
%ADD11O,1.700000X1.700000*%
G04 #@! TD*
G04 #@! TA.AperFunction,ViaPad*
%ADD12C,0.600000*%
G04 #@! TD*
G04 #@! TA.AperFunction,Conductor*
%ADD13C,0.200000*%
G04 #@! TD*
G04 APERTURE END LIST*
D10*
X21700000Y-15860000D03*
D11*
X21700000Y-18400000D03*
X19160000Y-15860000D03*
X19160000Y-18400000D03*
X16620000Y-15860000D03*
X16620000Y-18400000D03*
X14080000Y-15860000D03*
X14080000Y-18400000D03*
D10*
X50225000Y-38400000D03*
D11*
X52765000Y-38400000D03*
D10*
X30425000Y-14000000D03*
D11*
X32965000Y-14000000D03*
D10*
X60000000Y-31380000D03*
D11*
X60000000Y-33920000D03*
X60000000Y-36460000D03*
X60000000Y-39000000D03*
D10*
X60000000Y-22100000D03*
D11*
X60000000Y-19560000D03*
X60000000Y-17020000D03*
X60000000Y-14480000D03*
D12*
X45100000Y-38400000D03*
X40400000Y-35600000D03*
X50600000Y-23100000D03*
X30000000Y-35200000D03*
X30900000Y-22100000D03*
X30100000Y-22100000D03*
X50600000Y-24000000D03*
X41500000Y-34600000D03*
X38300000Y-14000000D03*
X49500000Y-21200000D03*
X42600000Y-28400000D03*
X43400000Y-27600000D03*
X43400000Y-28400000D03*
X43400000Y-26800000D03*
X29200000Y-35200000D03*
X43400000Y-29200000D03*
X28500000Y-22100000D03*
X34800000Y-37700000D03*
X44200000Y-28400000D03*
X38300000Y-15100000D03*
X45900000Y-37600000D03*
X40300000Y-14000000D03*
X45000000Y-26800000D03*
X45000000Y-28400000D03*
X36500000Y-38700000D03*
X42600000Y-26800000D03*
X45000000Y-27600000D03*
X41000000Y-35100000D03*
X50600000Y-22100000D03*
X42600000Y-29200000D03*
X28400000Y-35200000D03*
X39300000Y-14000000D03*
X44200000Y-26800000D03*
X42600000Y-27600000D03*
X50600000Y-21200000D03*
X44200000Y-29200000D03*
X40300000Y-38400000D03*
X45000000Y-29200000D03*
X44200000Y-27600000D03*
X22800000Y-34500000D03*
X40300000Y-15000000D03*
X29300000Y-22100000D03*
X40300000Y-39200000D03*
X34800000Y-38500000D03*
X34800000Y-34000000D03*
X43500000Y-35600000D03*
X48540000Y-20900000D03*
X39100000Y-24300000D03*
X42600000Y-20900000D03*
X22800000Y-29700000D03*
X49900000Y-28400000D03*
X55400000Y-26900000D03*
X23400000Y-26100000D03*
X50600000Y-28000000D03*
X23500000Y-29200000D03*
X49900000Y-31300000D03*
X27500000Y-33300000D03*
X47300000Y-36200000D03*
X21600000Y-34300000D03*
X22100000Y-25000000D03*
X56000000Y-25400000D03*
X52000000Y-27200000D03*
X17400000Y-29200000D03*
X52000000Y-29900000D03*
X22100000Y-30100000D03*
X55800000Y-26200000D03*
X22800000Y-25500000D03*
X51300000Y-27600000D03*
X18300100Y-29200000D03*
X52700100Y-26800100D03*
X16500000Y-29200000D03*
X17599800Y-30399900D03*
X50600000Y-30800000D03*
X22800000Y-33600000D03*
X22800000Y-32800000D03*
X21600000Y-32100000D03*
X35400000Y-35200000D03*
X16899800Y-29999900D03*
X51300000Y-30400000D03*
X46700000Y-33600000D03*
X18299800Y-30799900D03*
X46000000Y-35600000D03*
X46000000Y-34700000D03*
D13*
X41900000Y-34000000D02*
X43500000Y-35600000D01*
X48540000Y-20900000D02*
X42600000Y-20900000D01*
X39100000Y-21600000D02*
X39800000Y-20900000D01*
X34800000Y-34000000D02*
X41900000Y-34000000D01*
X39100000Y-24300000D02*
X39100000Y-21600000D01*
X39800000Y-20900000D02*
X42600000Y-20900000D01*
X49667157Y-28632843D02*
X49900000Y-28400000D01*
X49332843Y-28632843D02*
X49667157Y-28632843D01*
X26337256Y-31400000D02*
X46565686Y-31400000D01*
X22900000Y-29800000D02*
X24737256Y-29800000D01*
X46565686Y-31400000D02*
X49332843Y-28632843D01*
X22800000Y-29700000D02*
X22900000Y-29800000D01*
X24737256Y-29800000D02*
X26337256Y-31400000D01*
X23800000Y-25700000D02*
X23400000Y-26100000D01*
X55400000Y-26900000D02*
X54200000Y-25700000D01*
X54200000Y-25700000D02*
X23800000Y-25700000D01*
X23500000Y-29200000D02*
X24702942Y-29200000D01*
X49548529Y-27851471D02*
X49548529Y-27848529D01*
X49548529Y-27848529D02*
X49597058Y-27800000D01*
X24702942Y-29200000D02*
X26502942Y-31000000D01*
X26502942Y-31000000D02*
X46400000Y-31000000D01*
X46400000Y-31000000D02*
X49548529Y-27851471D01*
X50400000Y-27800000D02*
X50600000Y-28000000D01*
X49597058Y-27800000D02*
X50400000Y-27800000D01*
X48997058Y-31300000D02*
X49900000Y-31300000D01*
X28000000Y-33300000D02*
X28300000Y-33000000D01*
X28300000Y-33000000D02*
X47297058Y-33000000D01*
X47297058Y-33000000D02*
X48997058Y-31300000D01*
X27500000Y-33300000D02*
X28000000Y-33300000D01*
X46700000Y-36800000D02*
X23200000Y-36800000D01*
X23200000Y-36800000D02*
X21600000Y-35200000D01*
X21600000Y-35200000D02*
X21600000Y-34300000D01*
X47300000Y-36200000D02*
X46700000Y-36800000D01*
X55500000Y-24900000D02*
X22200000Y-24900000D01*
X56000000Y-25400000D02*
X55500000Y-24900000D01*
X22200000Y-24900000D02*
X22100000Y-25000000D01*
X17400000Y-29200000D02*
X18400000Y-28200000D01*
X24834314Y-28200000D02*
X26834314Y-30200000D01*
X26834314Y-30200000D02*
X46065686Y-30200000D01*
X49265686Y-27000000D02*
X51800000Y-27000000D01*
X46065686Y-30200000D02*
X49265686Y-27000000D01*
X18400000Y-28200000D02*
X24834314Y-28200000D01*
X51800000Y-27000000D02*
X52000000Y-27200000D01*
X22300000Y-30300000D02*
X22100000Y-30100000D01*
X51500000Y-29400000D02*
X49200000Y-29400000D01*
X26171570Y-31800000D02*
X24671570Y-30300000D01*
X24671570Y-30300000D02*
X22300000Y-30300000D01*
X46800000Y-31800000D02*
X26171570Y-31800000D01*
X49200000Y-29400000D02*
X46800000Y-31800000D01*
X52000000Y-29900000D02*
X51500000Y-29400000D01*
X23000000Y-25300000D02*
X22800000Y-25500000D01*
X54900000Y-25300000D02*
X23000000Y-25300000D01*
X55800000Y-26200000D02*
X54900000Y-25300000D01*
X24668628Y-28600000D02*
X26668628Y-30600000D01*
X19500000Y-29200000D02*
X20100000Y-28600000D01*
X51300000Y-27600000D02*
X51100000Y-27400000D01*
X49431372Y-27400000D02*
X46231372Y-30600000D01*
X51100000Y-27400000D02*
X49431372Y-27400000D01*
X46231372Y-30600000D02*
X26668628Y-30600000D01*
X20100000Y-28600000D02*
X24668628Y-28600000D01*
X18300100Y-29200000D02*
X19500000Y-29200000D01*
X17900000Y-27800000D02*
X25000000Y-27800000D01*
X16500000Y-29200000D02*
X17900000Y-27800000D01*
X49100000Y-26600000D02*
X52500000Y-26600000D01*
X45900000Y-29800000D02*
X49100000Y-26600000D01*
X52500000Y-26600000D02*
X52700100Y-26800100D01*
X25000000Y-27800000D02*
X27000000Y-29800000D01*
X27000000Y-29800000D02*
X45900000Y-29800000D01*
X25834314Y-32600000D02*
X47131372Y-32600000D01*
X17599800Y-30399900D02*
X17600100Y-30399900D01*
X21600000Y-31100000D02*
X24334314Y-31100000D01*
X17800000Y-30200000D02*
X20700000Y-30200000D01*
X24334314Y-31100000D02*
X25834314Y-32600000D01*
X49531372Y-30200000D02*
X50000000Y-30200000D01*
X20700000Y-30200000D02*
X21600000Y-31100000D01*
X17600100Y-30399900D02*
X17800000Y-30200000D01*
X47131372Y-32600000D02*
X49531372Y-30200000D01*
X50000000Y-30200000D02*
X50600000Y-30800000D01*
X15500000Y-31265686D02*
X15500000Y-28700000D01*
X18000000Y-17020000D02*
X19160000Y-15860000D01*
X18000000Y-26200000D02*
X18000000Y-17020000D01*
X19800000Y-31799900D02*
X16034214Y-31799900D01*
X22800000Y-33600000D02*
X21600000Y-33600000D01*
X21600000Y-33600000D02*
X19800000Y-31800000D01*
X19800000Y-31800000D02*
X19800000Y-31799900D01*
X16034214Y-31799900D02*
X15500000Y-31265686D01*
X15500000Y-28700000D02*
X18000000Y-26200000D01*
X19999900Y-31399900D02*
X21400000Y-32800000D01*
X15900000Y-28900000D02*
X15900000Y-31100000D01*
X15900000Y-31100000D02*
X16199900Y-31399900D01*
X21400000Y-32800000D02*
X22800000Y-32800000D01*
X16199900Y-31399900D02*
X19999900Y-31399900D01*
X19160000Y-18400000D02*
X19160000Y-25640000D01*
X19160000Y-25640000D02*
X15900000Y-28900000D01*
X34800000Y-35800000D02*
X35400000Y-35200000D01*
X21600000Y-32100000D02*
X23000000Y-32100000D01*
X23000000Y-32100000D02*
X23400000Y-32500000D01*
X23400000Y-35300000D02*
X23900000Y-35800000D01*
X23400000Y-32500000D02*
X23400000Y-35300000D01*
X23900000Y-35800000D02*
X34800000Y-35800000D01*
X50700000Y-29800000D02*
X49365686Y-29800000D01*
X20900000Y-29800000D02*
X17099700Y-29800000D01*
X26000000Y-32200000D02*
X24500000Y-30700000D01*
X21800000Y-30700000D02*
X20900000Y-29800000D01*
X49365686Y-29800000D02*
X46965686Y-32200000D01*
X24500000Y-30700000D02*
X21800000Y-30700000D01*
X46965686Y-32200000D02*
X26000000Y-32200000D01*
X17099700Y-29800000D02*
X16899800Y-29999900D01*
X51300000Y-30400000D02*
X50700000Y-29800000D01*
X21434314Y-31500000D02*
X20534314Y-30600000D01*
X24168628Y-31500000D02*
X21434314Y-31500000D01*
X18300100Y-30799900D02*
X18299800Y-30799900D01*
X28000000Y-33900000D02*
X26568628Y-33900000D01*
X46700000Y-33600000D02*
X46500000Y-33400000D01*
X26568628Y-33900000D02*
X24168628Y-31500000D01*
X28500000Y-33400000D02*
X28000000Y-33900000D01*
X20534314Y-30600000D02*
X18500000Y-30600000D01*
X18500000Y-30600000D02*
X18300100Y-30799900D01*
X46500000Y-33400000D02*
X28500000Y-33400000D01*
X46000000Y-35600000D02*
X59140000Y-35600000D01*
X59140000Y-35600000D02*
X60000000Y-36460000D01*
X59220000Y-34700000D02*
X60000000Y-33920000D01*
X46000000Y-34700000D02*
X59220000Y-34700000D01*
G04 #@! TA.AperFunction,Conductor*
G36*
X60905512Y-12701121D02*
G01*
X61000073Y-12711775D01*
X61021669Y-12716705D01*
X61106202Y-12746283D01*
X61126168Y-12755899D01*
X61164079Y-12779720D01*
X61201987Y-12803540D01*
X61219319Y-12817361D01*
X61282638Y-12880680D01*
X61296459Y-12898012D01*
X61344098Y-12973828D01*
X61353717Y-12993801D01*
X61357793Y-13005448D01*
X61383293Y-13078326D01*
X61388225Y-13099938D01*
X61398877Y-13194470D01*
X61399500Y-13205555D01*
X61399500Y-39994444D01*
X61398877Y-40005529D01*
X61388225Y-40100061D01*
X61383293Y-40121673D01*
X61353718Y-40206196D01*
X61344098Y-40226171D01*
X61296459Y-40301987D01*
X61282638Y-40319319D01*
X61219319Y-40382638D01*
X61201987Y-40396459D01*
X61126171Y-40444098D01*
X61106196Y-40453718D01*
X61021673Y-40483293D01*
X61000061Y-40488225D01*
X60905529Y-40498877D01*
X60894444Y-40499500D01*
X13205556Y-40499500D01*
X13194471Y-40498877D01*
X13099938Y-40488225D01*
X13078326Y-40483293D01*
X12993803Y-40453718D01*
X12973828Y-40444098D01*
X12898012Y-40396459D01*
X12880680Y-40382638D01*
X12817361Y-40319319D01*
X12803540Y-40301987D01*
X12755901Y-40226171D01*
X12746283Y-40206202D01*
X12716705Y-40121669D01*
X12711775Y-40100073D01*
X12701121Y-40005512D01*
X12700500Y-39994444D01*
X12700500Y-37530253D01*
X49174500Y-37530253D01*
X49174500Y-39269746D01*
X49174501Y-39269758D01*
X49186132Y-39328227D01*
X49186134Y-39328233D01*
X49217228Y-39374767D01*
X49230448Y-39394552D01*
X49296769Y-39438867D01*
X49341231Y-39447711D01*
X49355241Y-39450498D01*
X49355246Y-39450498D01*
X49355252Y-39450500D01*
X49355253Y-39450500D01*
X51094747Y-39450500D01*
X51094748Y-39450500D01*
X51153231Y-39438867D01*
X51219552Y-39394552D01*
X51263867Y-39328231D01*
X51275500Y-39269748D01*
X51275500Y-38249998D01*
X51724692Y-38249998D01*
X51724694Y-38250000D01*
X52287555Y-38250000D01*
X52265000Y-38334174D01*
X52265000Y-38465826D01*
X52287555Y-38550000D01*
X51724694Y-38550000D01*
X51724692Y-38550001D01*
X51730191Y-38605833D01*
X51730190Y-38605833D01*
X51790232Y-38803762D01*
X51790234Y-38803767D01*
X51887724Y-38986160D01*
X51887731Y-38986170D01*
X52018940Y-39146050D01*
X52018949Y-39146059D01*
X52178829Y-39277268D01*
X52178839Y-39277275D01*
X52361232Y-39374765D01*
X52361237Y-39374767D01*
X52559166Y-39434808D01*
X52614998Y-39440307D01*
X52615000Y-39440306D01*
X52615000Y-38877445D01*
X52699174Y-38900000D01*
X52830826Y-38900000D01*
X52915000Y-38877445D01*
X52915000Y-39440306D01*
X52915001Y-39440307D01*
X52970833Y-39434808D01*
X53168762Y-39374767D01*
X53168767Y-39374765D01*
X53351160Y-39277275D01*
X53351170Y-39277268D01*
X53511050Y-39146059D01*
X53511059Y-39146050D01*
X53642268Y-38986170D01*
X53642275Y-38986160D01*
X53715054Y-38849998D01*
X58959692Y-38849998D01*
X58959694Y-38850000D01*
X59522555Y-38850000D01*
X59500000Y-38934174D01*
X59500000Y-39065826D01*
X59522555Y-39150000D01*
X58959694Y-39150000D01*
X58959692Y-39150001D01*
X58965191Y-39205833D01*
X58965190Y-39205833D01*
X59025232Y-39403762D01*
X59025234Y-39403767D01*
X59122724Y-39586160D01*
X59122731Y-39586170D01*
X59253940Y-39746050D01*
X59253949Y-39746059D01*
X59413829Y-39877268D01*
X59413839Y-39877275D01*
X59596232Y-39974765D01*
X59596237Y-39974767D01*
X59794166Y-40034808D01*
X59849998Y-40040307D01*
X59850000Y-40040306D01*
X59850000Y-39477445D01*
X59934174Y-39500000D01*
X60065826Y-39500000D01*
X60150000Y-39477445D01*
X60150000Y-40040306D01*
X60150001Y-40040307D01*
X60205833Y-40034808D01*
X60403762Y-39974767D01*
X60403767Y-39974765D01*
X60586160Y-39877275D01*
X60586170Y-39877268D01*
X60746050Y-39746059D01*
X60746059Y-39746050D01*
X60877268Y-39586170D01*
X60877275Y-39586160D01*
X60974765Y-39403767D01*
X60974767Y-39403762D01*
X61034808Y-39205833D01*
X61040307Y-39150001D01*
X61040306Y-39150000D01*
X60477445Y-39150000D01*
X60500000Y-39065826D01*
X60500000Y-38934174D01*
X60477445Y-38850000D01*
X61040306Y-38850000D01*
X61040307Y-38849998D01*
X61034808Y-38794166D01*
X61034809Y-38794166D01*
X60974767Y-38596237D01*
X60974765Y-38596232D01*
X60877275Y-38413839D01*
X60877268Y-38413829D01*
X60746059Y-38253949D01*
X60746050Y-38253940D01*
X60586170Y-38122731D01*
X60586160Y-38122724D01*
X60403767Y-38025234D01*
X60403762Y-38025232D01*
X60205843Y-37965194D01*
X60205832Y-37965191D01*
X60150000Y-37959692D01*
X60150000Y-38522554D01*
X60065826Y-38500000D01*
X59934174Y-38500000D01*
X59850000Y-38522554D01*
X59850000Y-37959692D01*
X59794167Y-37965191D01*
X59794156Y-37965194D01*
X59596237Y-38025232D01*
X59596232Y-38025234D01*
X59413839Y-38122724D01*
X59413829Y-38122731D01*
X59253949Y-38253940D01*
X59253940Y-38253949D01*
X59122731Y-38413829D01*
X59122724Y-38413839D01*
X59025234Y-38596232D01*
X59025232Y-38596237D01*
X58965191Y-38794166D01*
X58959692Y-38849998D01*
X53715054Y-38849998D01*
X53739765Y-38803767D01*
X53739767Y-38803762D01*
X53799808Y-38605833D01*
X53805307Y-38550001D01*
X53805306Y-38550000D01*
X53242445Y-38550000D01*
X53265000Y-38465826D01*
X53265000Y-38334174D01*
X53242445Y-38250000D01*
X53805306Y-38250000D01*
X53805307Y-38249998D01*
X53799808Y-38194166D01*
X53799809Y-38194166D01*
X53739767Y-37996237D01*
X53739765Y-37996232D01*
X53642275Y-37813839D01*
X53642268Y-37813829D01*
X53511059Y-37653949D01*
X53511050Y-37653940D01*
X53351170Y-37522731D01*
X53351160Y-37522724D01*
X53168767Y-37425234D01*
X53168762Y-37425232D01*
X52970843Y-37365194D01*
X52970832Y-37365191D01*
X52915000Y-37359692D01*
X52915000Y-37922554D01*
X52830826Y-37900000D01*
X52699174Y-37900000D01*
X52615000Y-37922554D01*
X52615000Y-37359692D01*
X52559167Y-37365191D01*
X52559156Y-37365194D01*
X52361237Y-37425232D01*
X52361232Y-37425234D01*
X52178839Y-37522724D01*
X52178829Y-37522731D01*
X52018949Y-37653940D01*
X52018940Y-37653949D01*
X51887731Y-37813829D01*
X51887724Y-37813839D01*
X51790234Y-37996232D01*
X51790232Y-37996237D01*
X51730191Y-38194166D01*
X51724692Y-38249998D01*
X51275500Y-38249998D01*
X51275500Y-37530252D01*
X51263867Y-37471769D01*
X51219552Y-37405448D01*
X51159309Y-37365194D01*
X51153233Y-37361134D01*
X51153231Y-37361133D01*
X51153228Y-37361132D01*
X51153227Y-37361132D01*
X51094758Y-37349501D01*
X51094748Y-37349500D01*
X49355252Y-37349500D01*
X49355251Y-37349500D01*
X49355241Y-37349501D01*
X49296772Y-37361132D01*
X49296766Y-37361134D01*
X49230451Y-37405445D01*
X49230445Y-37405451D01*
X49186134Y-37471766D01*
X49186132Y-37471772D01*
X49174501Y-37530241D01*
X49174500Y-37530253D01*
X12700500Y-37530253D01*
X12700500Y-28660435D01*
X15199500Y-28660435D01*
X15199500Y-28660438D01*
X15199500Y-31305248D01*
X15219979Y-31381675D01*
X15230848Y-31400500D01*
X15259540Y-31450197D01*
X15849703Y-32040360D01*
X15849705Y-32040361D01*
X15849707Y-32040363D01*
X15918222Y-32079920D01*
X15918220Y-32079920D01*
X15918224Y-32079921D01*
X15918226Y-32079922D01*
X15994652Y-32100400D01*
X16073776Y-32100400D01*
X19634421Y-32100400D01*
X19692612Y-32119307D01*
X19704425Y-32129396D01*
X21318375Y-33743346D01*
X21346152Y-33797863D01*
X21336581Y-33858295D01*
X21301896Y-33896633D01*
X21268873Y-33917856D01*
X21268872Y-33917856D01*
X21268872Y-33917857D01*
X21221747Y-33972242D01*
X21174622Y-34026628D01*
X21114834Y-34157543D01*
X21094353Y-34299997D01*
X21094353Y-34300002D01*
X21114834Y-34442456D01*
X21144060Y-34506450D01*
X21174623Y-34573373D01*
X21255239Y-34666410D01*
X21273509Y-34687494D01*
X21271471Y-34689259D01*
X21296925Y-34731458D01*
X21299500Y-34753893D01*
X21299500Y-35239564D01*
X21319977Y-35315985D01*
X21319979Y-35315990D01*
X21345121Y-35359538D01*
X21359538Y-35384508D01*
X21359540Y-35384511D01*
X23015489Y-37040460D01*
X23015491Y-37040461D01*
X23015493Y-37040463D01*
X23084008Y-37080020D01*
X23084006Y-37080020D01*
X23084010Y-37080021D01*
X23084012Y-37080022D01*
X23160438Y-37100500D01*
X23160440Y-37100500D01*
X46739563Y-37100500D01*
X46739563Y-37100499D01*
X46815989Y-37080021D01*
X46884511Y-37040460D01*
X46912485Y-37012485D01*
X46940461Y-36984511D01*
X47195473Y-36729497D01*
X47249990Y-36701719D01*
X47265477Y-36700500D01*
X47371959Y-36700500D01*
X47371961Y-36700500D01*
X47510053Y-36659953D01*
X47631128Y-36582143D01*
X47725377Y-36473373D01*
X47785165Y-36342457D01*
X47805647Y-36200000D01*
X47805646Y-36199996D01*
X47785165Y-36057543D01*
X47777440Y-36040627D01*
X47770465Y-35979840D01*
X47800551Y-35926563D01*
X47856207Y-35901145D01*
X47867493Y-35900500D01*
X58942738Y-35900500D01*
X59000929Y-35919407D01*
X59036893Y-35968907D01*
X59036893Y-36030093D01*
X59030048Y-36046166D01*
X59024768Y-36056046D01*
X59024766Y-36056050D01*
X59024766Y-36056052D01*
X58964699Y-36254065D01*
X58964698Y-36254070D01*
X58944417Y-36459996D01*
X58944417Y-36460003D01*
X58964698Y-36665929D01*
X58964699Y-36665934D01*
X59024768Y-36863954D01*
X59122316Y-37046452D01*
X59166672Y-37100500D01*
X59253590Y-37206410D01*
X59253595Y-37206414D01*
X59413547Y-37337683D01*
X59413548Y-37337683D01*
X59413550Y-37337685D01*
X59596046Y-37435232D01*
X59716484Y-37471766D01*
X59794065Y-37495300D01*
X59794070Y-37495301D01*
X59999997Y-37515583D01*
X60000000Y-37515583D01*
X60000003Y-37515583D01*
X60205929Y-37495301D01*
X60205934Y-37495300D01*
X60403954Y-37435232D01*
X60586450Y-37337685D01*
X60746410Y-37206410D01*
X60877685Y-37046450D01*
X60975232Y-36863954D01*
X61035300Y-36665934D01*
X61035301Y-36665929D01*
X61055583Y-36460003D01*
X61055583Y-36459996D01*
X61035301Y-36254070D01*
X61035300Y-36254065D01*
X61017078Y-36193997D01*
X60975232Y-36056046D01*
X60877685Y-35873550D01*
X60877538Y-35873371D01*
X60746414Y-35713595D01*
X60746410Y-35713590D01*
X60730460Y-35700500D01*
X60586452Y-35582316D01*
X60403954Y-35484768D01*
X60205934Y-35424699D01*
X60205929Y-35424698D01*
X60000003Y-35404417D01*
X59999997Y-35404417D01*
X59794070Y-35424698D01*
X59794065Y-35424699D01*
X59596052Y-35484766D01*
X59596049Y-35484766D01*
X59596046Y-35484768D01*
X59596044Y-35484768D01*
X59596044Y-35484769D01*
X59565453Y-35501120D01*
X59505220Y-35511874D01*
X59450169Y-35485171D01*
X59448784Y-35483812D01*
X59324511Y-35359540D01*
X59294921Y-35342456D01*
X59294920Y-35342456D01*
X59255988Y-35319978D01*
X59179564Y-35299500D01*
X59179562Y-35299500D01*
X46447083Y-35299500D01*
X46388892Y-35280593D01*
X46372270Y-35265337D01*
X46331128Y-35217857D01*
X46331123Y-35217854D01*
X46328505Y-35214832D01*
X46304687Y-35158472D01*
X46318545Y-35098877D01*
X46328505Y-35085168D01*
X46331123Y-35082145D01*
X46331128Y-35082143D01*
X46372266Y-35034666D01*
X46424660Y-35003073D01*
X46447083Y-35000500D01*
X59259563Y-35000500D01*
X59259563Y-35000499D01*
X59335989Y-34980021D01*
X59404511Y-34940460D01*
X59448784Y-34896186D01*
X59503298Y-34868410D01*
X59563730Y-34877981D01*
X59565454Y-34878881D01*
X59596040Y-34895229D01*
X59596046Y-34895232D01*
X59733997Y-34937078D01*
X59794065Y-34955300D01*
X59794070Y-34955301D01*
X59999997Y-34975583D01*
X60000000Y-34975583D01*
X60000003Y-34975583D01*
X60205929Y-34955301D01*
X60205934Y-34955300D01*
X60403954Y-34895232D01*
X60586450Y-34797685D01*
X60746410Y-34666410D01*
X60877685Y-34506450D01*
X60975232Y-34323954D01*
X61035300Y-34125934D01*
X61035301Y-34125929D01*
X61055583Y-33920003D01*
X61055583Y-33919996D01*
X61035301Y-33714070D01*
X61035300Y-33714065D01*
X61000547Y-33599500D01*
X60975232Y-33516046D01*
X60877685Y-33333550D01*
X60872003Y-33326627D01*
X60746414Y-33173595D01*
X60746410Y-33173590D01*
X60699115Y-33134776D01*
X60586452Y-33042316D01*
X60403954Y-32944768D01*
X60205934Y-32884699D01*
X60205929Y-32884698D01*
X60000003Y-32864417D01*
X59999997Y-32864417D01*
X59794070Y-32884698D01*
X59794065Y-32884699D01*
X59596045Y-32944768D01*
X59413547Y-33042316D01*
X59253595Y-33173585D01*
X59253585Y-33173595D01*
X59122316Y-33333547D01*
X59024768Y-33516045D01*
X58964699Y-33714065D01*
X58964698Y-33714070D01*
X58944417Y-33919996D01*
X58944417Y-33920003D01*
X58964698Y-34125929D01*
X58964699Y-34125934D01*
X59008936Y-34271762D01*
X59007735Y-34332936D01*
X58970806Y-34381720D01*
X58914199Y-34399500D01*
X46447083Y-34399500D01*
X46388892Y-34380593D01*
X46372264Y-34365331D01*
X46331128Y-34317857D01*
X46298182Y-34296684D01*
X46210057Y-34240049D01*
X46210054Y-34240047D01*
X46210053Y-34240047D01*
X46210050Y-34240046D01*
X46071964Y-34199500D01*
X46071961Y-34199500D01*
X45928039Y-34199500D01*
X45928035Y-34199500D01*
X45789949Y-34240046D01*
X45789942Y-34240049D01*
X45668873Y-34317855D01*
X45574622Y-34426628D01*
X45514834Y-34557543D01*
X45494353Y-34699997D01*
X45494353Y-34700002D01*
X45514834Y-34842456D01*
X45553275Y-34926628D01*
X45574623Y-34973373D01*
X45627608Y-35034521D01*
X45671494Y-35085169D01*
X45695311Y-35141529D01*
X45681452Y-35201124D01*
X45671494Y-35214831D01*
X45574622Y-35326628D01*
X45514835Y-35457541D01*
X45494353Y-35599997D01*
X45494353Y-35600002D01*
X45514834Y-35742456D01*
X45574622Y-35873371D01*
X45574623Y-35873373D01*
X45668870Y-35982141D01*
X45668873Y-35982144D01*
X45783877Y-36056052D01*
X45789947Y-36059953D01*
X45858297Y-36080022D01*
X45928035Y-36100499D01*
X45928036Y-36100499D01*
X45928039Y-36100500D01*
X45928041Y-36100500D01*
X46071959Y-36100500D01*
X46071961Y-36100500D01*
X46210053Y-36059953D01*
X46331128Y-35982143D01*
X46372264Y-35934668D01*
X46424660Y-35903073D01*
X46447083Y-35900500D01*
X46732507Y-35900500D01*
X46790698Y-35919407D01*
X46826662Y-35968907D01*
X46826662Y-36030093D01*
X46822560Y-36040627D01*
X46814834Y-36057543D01*
X46794353Y-36199996D01*
X46794353Y-36199997D01*
X46794353Y-36200000D01*
X46797442Y-36221483D01*
X46787007Y-36281772D01*
X46769453Y-36305574D01*
X46604526Y-36470503D01*
X46550010Y-36498281D01*
X46534522Y-36499500D01*
X23365479Y-36499500D01*
X23307288Y-36480593D01*
X23295475Y-36470504D01*
X21929496Y-35104525D01*
X21901719Y-35050008D01*
X21900500Y-35034521D01*
X21900500Y-34753893D01*
X21919407Y-34695702D01*
X21926741Y-34687711D01*
X21926491Y-34687494D01*
X21944757Y-34666414D01*
X22025377Y-34573373D01*
X22085165Y-34442457D01*
X22091992Y-34394971D01*
X22105647Y-34300002D01*
X22105647Y-34299997D01*
X22085165Y-34157543D01*
X22031771Y-34040627D01*
X22024796Y-33979840D01*
X22054882Y-33926563D01*
X22110538Y-33901145D01*
X22121824Y-33900500D01*
X22352917Y-33900500D01*
X22411108Y-33919407D01*
X22427733Y-33934667D01*
X22468872Y-33982143D01*
X22589947Y-34059953D01*
X22673585Y-34084511D01*
X22728035Y-34100499D01*
X22728036Y-34100499D01*
X22728039Y-34100500D01*
X22728041Y-34100500D01*
X22871959Y-34100500D01*
X22871961Y-34100500D01*
X22972610Y-34070947D01*
X23033769Y-34072694D01*
X23082222Y-34110057D01*
X23099500Y-34165937D01*
X23099500Y-35339564D01*
X23119977Y-35415985D01*
X23119979Y-35415990D01*
X23143968Y-35457541D01*
X23143969Y-35457541D01*
X23143970Y-35457543D01*
X23159540Y-35484511D01*
X23715489Y-36040460D01*
X23715491Y-36040461D01*
X23715493Y-36040463D01*
X23784008Y-36080020D01*
X23784006Y-36080020D01*
X23784010Y-36080021D01*
X23784012Y-36080022D01*
X23860438Y-36100500D01*
X23860440Y-36100500D01*
X34839563Y-36100500D01*
X34839563Y-36100499D01*
X34915989Y-36080021D01*
X34984511Y-36040460D01*
X35012485Y-36012485D01*
X35040461Y-35984511D01*
X35295473Y-35729497D01*
X35349990Y-35701719D01*
X35365477Y-35700500D01*
X35471959Y-35700500D01*
X35471961Y-35700500D01*
X35610053Y-35659953D01*
X35731128Y-35582143D01*
X35825377Y-35473373D01*
X35885165Y-35342457D01*
X35903515Y-35214831D01*
X35905647Y-35200002D01*
X35905647Y-35199997D01*
X35885165Y-35057543D01*
X35859114Y-35000500D01*
X35825377Y-34926627D01*
X35731128Y-34817857D01*
X35731127Y-34817856D01*
X35731126Y-34817855D01*
X35610057Y-34740049D01*
X35610054Y-34740047D01*
X35610053Y-34740047D01*
X35610050Y-34740046D01*
X35471964Y-34699500D01*
X35471961Y-34699500D01*
X35328039Y-34699500D01*
X35328035Y-34699500D01*
X35189949Y-34740046D01*
X35189942Y-34740049D01*
X35068873Y-34817855D01*
X34974622Y-34926628D01*
X34914834Y-35057543D01*
X34894353Y-35199996D01*
X34894353Y-35199997D01*
X34894353Y-35200000D01*
X34897442Y-35221483D01*
X34887007Y-35281772D01*
X34869453Y-35305574D01*
X34704526Y-35470503D01*
X34650010Y-35498281D01*
X34634522Y-35499500D01*
X24065479Y-35499500D01*
X24007288Y-35480593D01*
X23995475Y-35470504D01*
X23729496Y-35204525D01*
X23701719Y-35150008D01*
X23700500Y-35134521D01*
X23700500Y-32460437D01*
X23700499Y-32460435D01*
X23680021Y-32384011D01*
X23680019Y-32384007D01*
X23640460Y-32315489D01*
X23584511Y-32259539D01*
X23584511Y-32259540D01*
X23294475Y-31969504D01*
X23266698Y-31914987D01*
X23276269Y-31854555D01*
X23319534Y-31811290D01*
X23364479Y-31800500D01*
X24003149Y-31800500D01*
X24061340Y-31819407D01*
X24073153Y-31829496D01*
X26384117Y-34140460D01*
X26384119Y-34140461D01*
X26384120Y-34140462D01*
X26384121Y-34140463D01*
X26452636Y-34180020D01*
X26452634Y-34180020D01*
X26452638Y-34180021D01*
X26452640Y-34180022D01*
X26529066Y-34200500D01*
X26529068Y-34200500D01*
X28039563Y-34200500D01*
X28039563Y-34200499D01*
X28115989Y-34180021D01*
X28184511Y-34140460D01*
X28240460Y-34084511D01*
X28595475Y-33729496D01*
X28649992Y-33701719D01*
X28665479Y-33700500D01*
X34232507Y-33700500D01*
X34290698Y-33719407D01*
X34326662Y-33768907D01*
X34326662Y-33830093D01*
X34322560Y-33840627D01*
X34314834Y-33857543D01*
X34294353Y-33999997D01*
X34294353Y-34000002D01*
X34314834Y-34142456D01*
X34359403Y-34240046D01*
X34374623Y-34273373D01*
X34468870Y-34382141D01*
X34468873Y-34382144D01*
X34589942Y-34459950D01*
X34589947Y-34459953D01*
X34696403Y-34491211D01*
X34728035Y-34500499D01*
X34728036Y-34500499D01*
X34728039Y-34500500D01*
X34728041Y-34500500D01*
X34871959Y-34500500D01*
X34871961Y-34500500D01*
X35010053Y-34459953D01*
X35131128Y-34382143D01*
X35172264Y-34334668D01*
X35224660Y-34303073D01*
X35247083Y-34300500D01*
X41734521Y-34300500D01*
X41792712Y-34319407D01*
X41804525Y-34329496D01*
X42969453Y-35494424D01*
X42997230Y-35548941D01*
X42997441Y-35578514D01*
X42994354Y-35599997D01*
X42994353Y-35600002D01*
X43014834Y-35742456D01*
X43074622Y-35873371D01*
X43074623Y-35873373D01*
X43168870Y-35982141D01*
X43168873Y-35982144D01*
X43283877Y-36056052D01*
X43289947Y-36059953D01*
X43358297Y-36080022D01*
X43428035Y-36100499D01*
X43428036Y-36100499D01*
X43428039Y-36100500D01*
X43428041Y-36100500D01*
X43571959Y-36100500D01*
X43571961Y-36100500D01*
X43710053Y-36059953D01*
X43831128Y-35982143D01*
X43925377Y-35873373D01*
X43985165Y-35742457D01*
X44005647Y-35600000D01*
X44003104Y-35582316D01*
X43985165Y-35457541D01*
X43925377Y-35326628D01*
X43925377Y-35326627D01*
X43831128Y-35217857D01*
X43831127Y-35217856D01*
X43831126Y-35217855D01*
X43710057Y-35140049D01*
X43710054Y-35140047D01*
X43710053Y-35140047D01*
X43710050Y-35140046D01*
X43571964Y-35099500D01*
X43571961Y-35099500D01*
X43465479Y-35099500D01*
X43407288Y-35080593D01*
X43395475Y-35070504D01*
X42825470Y-34500499D01*
X42194472Y-33869501D01*
X42166697Y-33814987D01*
X42176268Y-33754555D01*
X42219533Y-33711290D01*
X42264478Y-33700500D01*
X46132051Y-33700500D01*
X46190242Y-33719407D01*
X46222103Y-33758371D01*
X46274623Y-33873373D01*
X46368870Y-33982141D01*
X46368873Y-33982144D01*
X46438092Y-34026628D01*
X46489947Y-34059953D01*
X46573585Y-34084511D01*
X46628035Y-34100499D01*
X46628036Y-34100499D01*
X46628039Y-34100500D01*
X46628041Y-34100500D01*
X46771959Y-34100500D01*
X46771961Y-34100500D01*
X46910053Y-34059953D01*
X47031128Y-33982143D01*
X47125377Y-33873373D01*
X47185165Y-33742457D01*
X47205647Y-33600000D01*
X47205575Y-33599500D01*
X47185165Y-33457543D01*
X47177440Y-33440627D01*
X47170465Y-33379840D01*
X47200551Y-33326563D01*
X47256207Y-33301145D01*
X47267493Y-33300500D01*
X47336621Y-33300500D01*
X47336621Y-33300499D01*
X47413047Y-33280021D01*
X47481569Y-33240460D01*
X47537518Y-33184511D01*
X49092533Y-31629496D01*
X49147050Y-31601719D01*
X49162537Y-31600500D01*
X49452917Y-31600500D01*
X49511108Y-31619407D01*
X49527733Y-31634667D01*
X49568872Y-31682143D01*
X49689947Y-31759953D01*
X49792129Y-31789956D01*
X49828035Y-31800499D01*
X49828036Y-31800499D01*
X49828039Y-31800500D01*
X49828041Y-31800500D01*
X49971959Y-31800500D01*
X49971961Y-31800500D01*
X50110053Y-31759953D01*
X50231128Y-31682143D01*
X50325377Y-31573373D01*
X50385165Y-31442457D01*
X50394276Y-31379085D01*
X50421271Y-31324180D01*
X50475385Y-31295626D01*
X50520161Y-31298186D01*
X50528039Y-31300500D01*
X50528040Y-31300500D01*
X50671959Y-31300500D01*
X50671961Y-31300500D01*
X50810053Y-31259953D01*
X50931128Y-31182143D01*
X51025377Y-31073373D01*
X51083319Y-30946498D01*
X51124689Y-30901423D01*
X51184656Y-30889272D01*
X51201260Y-30892637D01*
X51220133Y-30898178D01*
X51228035Y-30900499D01*
X51228036Y-30900499D01*
X51228039Y-30900500D01*
X51228040Y-30900500D01*
X51371959Y-30900500D01*
X51371961Y-30900500D01*
X51510053Y-30859953D01*
X51631128Y-30782143D01*
X51725377Y-30673373D01*
X51785165Y-30542457D01*
X51789795Y-30510253D01*
X58949500Y-30510253D01*
X58949500Y-32249746D01*
X58949501Y-32249758D01*
X58961132Y-32308227D01*
X58961134Y-32308233D01*
X59005445Y-32374548D01*
X59005448Y-32374552D01*
X59071769Y-32418867D01*
X59116231Y-32427711D01*
X59130241Y-32430498D01*
X59130246Y-32430498D01*
X59130252Y-32430500D01*
X59130253Y-32430500D01*
X60869747Y-32430500D01*
X60869748Y-32430500D01*
X60928231Y-32418867D01*
X60994552Y-32374552D01*
X61038867Y-32308231D01*
X61050500Y-32249748D01*
X61050500Y-30510252D01*
X61038867Y-30451769D01*
X60994552Y-30385448D01*
X60989458Y-30382044D01*
X60928233Y-30341134D01*
X60928231Y-30341133D01*
X60928228Y-30341132D01*
X60928227Y-30341132D01*
X60869758Y-30329501D01*
X60869748Y-30329500D01*
X59130252Y-30329500D01*
X59130251Y-30329500D01*
X59130241Y-30329501D01*
X59071772Y-30341132D01*
X59071766Y-30341134D01*
X59005451Y-30385445D01*
X59005445Y-30385451D01*
X58961134Y-30451766D01*
X58961132Y-30451772D01*
X58949501Y-30510241D01*
X58949500Y-30510253D01*
X51789795Y-30510253D01*
X51794276Y-30479085D01*
X51821271Y-30424180D01*
X51875385Y-30395626D01*
X51920161Y-30398186D01*
X51928039Y-30400500D01*
X51928040Y-30400500D01*
X52071959Y-30400500D01*
X52071961Y-30400500D01*
X52210053Y-30359953D01*
X52331128Y-30282143D01*
X52425377Y-30173373D01*
X52485165Y-30042457D01*
X52494285Y-29979024D01*
X52505647Y-29900002D01*
X52505647Y-29899997D01*
X52485165Y-29757543D01*
X52459114Y-29700500D01*
X52425377Y-29626627D01*
X52331128Y-29517857D01*
X52331127Y-29517856D01*
X52331126Y-29517855D01*
X52210057Y-29440049D01*
X52210054Y-29440047D01*
X52210053Y-29440047D01*
X52210050Y-29440046D01*
X52071964Y-29399500D01*
X52071961Y-29399500D01*
X51965479Y-29399500D01*
X51907288Y-29380593D01*
X51895476Y-29370504D01*
X51684510Y-29159539D01*
X51651464Y-29140460D01*
X51651462Y-29140459D01*
X51615989Y-29119979D01*
X51615986Y-29119978D01*
X51539564Y-29099500D01*
X51539562Y-29099500D01*
X49829357Y-29099500D01*
X49771166Y-29080593D01*
X49735202Y-29031093D01*
X49735202Y-28969907D01*
X49771166Y-28920407D01*
X49779856Y-28914764D01*
X49781588Y-28913764D01*
X49831089Y-28900500D01*
X49971959Y-28900500D01*
X49971961Y-28900500D01*
X50110053Y-28859953D01*
X50231128Y-28782143D01*
X50325377Y-28673373D01*
X50383319Y-28546498D01*
X50424689Y-28501423D01*
X50484656Y-28489272D01*
X50501260Y-28492637D01*
X50520133Y-28498178D01*
X50528035Y-28500499D01*
X50528036Y-28500499D01*
X50528039Y-28500500D01*
X50528040Y-28500500D01*
X50671959Y-28500500D01*
X50671961Y-28500500D01*
X50810053Y-28459953D01*
X50931128Y-28382143D01*
X51025377Y-28273373D01*
X51083319Y-28146498D01*
X51124689Y-28101423D01*
X51184656Y-28089272D01*
X51201260Y-28092637D01*
X51220133Y-28098178D01*
X51228035Y-28100499D01*
X51228036Y-28100499D01*
X51228039Y-28100500D01*
X51228040Y-28100500D01*
X51371959Y-28100500D01*
X51371961Y-28100500D01*
X51510053Y-28059953D01*
X51631128Y-27982143D01*
X51725377Y-27873373D01*
X51783319Y-27746498D01*
X51824689Y-27701423D01*
X51884656Y-27689272D01*
X51901260Y-27692637D01*
X51920133Y-27698178D01*
X51928035Y-27700499D01*
X51928036Y-27700499D01*
X51928039Y-27700500D01*
X51928040Y-27700500D01*
X52071959Y-27700500D01*
X52071961Y-27700500D01*
X52210053Y-27659953D01*
X52331128Y-27582143D01*
X52425377Y-27473373D01*
X52483290Y-27346561D01*
X52524660Y-27301486D01*
X52584627Y-27289335D01*
X52601233Y-27292699D01*
X52628139Y-27300600D01*
X52628140Y-27300600D01*
X52772059Y-27300600D01*
X52772061Y-27300600D01*
X52910153Y-27260053D01*
X53031228Y-27182243D01*
X53125477Y-27073473D01*
X53185265Y-26942557D01*
X53205747Y-26800100D01*
X53203432Y-26784001D01*
X53185265Y-26657643D01*
X53140651Y-26559953D01*
X53125477Y-26526727D01*
X53031228Y-26417957D01*
X53031227Y-26417956D01*
X53031226Y-26417955D01*
X52910157Y-26340149D01*
X52910154Y-26340147D01*
X52910153Y-26340147D01*
X52910150Y-26340146D01*
X52772064Y-26299600D01*
X52772061Y-26299600D01*
X52628139Y-26299600D01*
X52628138Y-26299600D01*
X52620514Y-26301838D01*
X52612716Y-26304128D01*
X52559207Y-26304763D01*
X52539562Y-26299500D01*
X49060438Y-26299500D01*
X49060435Y-26299500D01*
X48984012Y-26319978D01*
X48949079Y-26340147D01*
X48949078Y-26340146D01*
X48915490Y-26359539D01*
X45804525Y-29470504D01*
X45750008Y-29498281D01*
X45734521Y-29499500D01*
X27165479Y-29499500D01*
X27107288Y-29480593D01*
X27095475Y-29470504D01*
X26140460Y-28515489D01*
X25184511Y-27559540D01*
X25184508Y-27559538D01*
X25164573Y-27548028D01*
X25164573Y-27548029D01*
X25115989Y-27519979D01*
X25115988Y-27519978D01*
X25115987Y-27519978D01*
X25039564Y-27499500D01*
X25039562Y-27499500D01*
X17964479Y-27499500D01*
X17906288Y-27480593D01*
X17870324Y-27431093D01*
X17870324Y-27369907D01*
X17894475Y-27330496D01*
X18182515Y-27042456D01*
X19400460Y-25824511D01*
X19406321Y-25814357D01*
X19406325Y-25814354D01*
X19406324Y-25814354D01*
X19440021Y-25755989D01*
X19460500Y-25679562D01*
X19460500Y-24999997D01*
X21594353Y-24999997D01*
X21594353Y-25000002D01*
X21614834Y-25142456D01*
X21674622Y-25273371D01*
X21674623Y-25273373D01*
X21723227Y-25329465D01*
X21768873Y-25382144D01*
X21796653Y-25399997D01*
X21889947Y-25459953D01*
X21996403Y-25491211D01*
X22028035Y-25500499D01*
X22028036Y-25500499D01*
X22028039Y-25500500D01*
X22028041Y-25500500D01*
X22171960Y-25500500D01*
X22171961Y-25500500D01*
X22179834Y-25498188D01*
X22240995Y-25499932D01*
X22289450Y-25537291D01*
X22305723Y-25579087D01*
X22314834Y-25642456D01*
X22328953Y-25673371D01*
X22374623Y-25773373D01*
X22458254Y-25869889D01*
X22468873Y-25882144D01*
X22589942Y-25959950D01*
X22589947Y-25959953D01*
X22689721Y-25989249D01*
X22728035Y-26000499D01*
X22728036Y-26000499D01*
X22728039Y-26000500D01*
X22728041Y-26000500D01*
X22795353Y-26000500D01*
X22853544Y-26019407D01*
X22889508Y-26068907D01*
X22893322Y-26092995D01*
X22893345Y-26092992D01*
X22893568Y-26094545D01*
X22894353Y-26099500D01*
X22894353Y-26100002D01*
X22914834Y-26242456D01*
X22974622Y-26373371D01*
X22974623Y-26373373D01*
X23013255Y-26417957D01*
X23068873Y-26482144D01*
X23189942Y-26559950D01*
X23189947Y-26559953D01*
X23296403Y-26591211D01*
X23328035Y-26600499D01*
X23328036Y-26600499D01*
X23328039Y-26600500D01*
X23328041Y-26600500D01*
X23471959Y-26600500D01*
X23471961Y-26600500D01*
X23610053Y-26559953D01*
X23731128Y-26482143D01*
X23825377Y-26373373D01*
X23885165Y-26242457D01*
X23901411Y-26129465D01*
X23905647Y-26100002D01*
X23905647Y-26099500D01*
X23905776Y-26099101D01*
X23906655Y-26092991D01*
X23907712Y-26093143D01*
X23924554Y-26041309D01*
X23974054Y-26005345D01*
X24004647Y-26000500D01*
X54034521Y-26000500D01*
X54092712Y-26019407D01*
X54104525Y-26029496D01*
X54869453Y-26794424D01*
X54897230Y-26848941D01*
X54897441Y-26878514D01*
X54894354Y-26899997D01*
X54894353Y-26900002D01*
X54914834Y-27042456D01*
X54974622Y-27173371D01*
X54974623Y-27173373D01*
X55049731Y-27260053D01*
X55068873Y-27282144D01*
X55169113Y-27346564D01*
X55189947Y-27359953D01*
X55296403Y-27391211D01*
X55328035Y-27400499D01*
X55328036Y-27400499D01*
X55328039Y-27400500D01*
X55328041Y-27400500D01*
X55471959Y-27400500D01*
X55471961Y-27400500D01*
X55610053Y-27359953D01*
X55731128Y-27282143D01*
X55825377Y-27173373D01*
X55885165Y-27042457D01*
X55899528Y-26942557D01*
X55905647Y-26900002D01*
X55905647Y-26899997D01*
X55888969Y-26784001D01*
X55899402Y-26723712D01*
X55943280Y-26681070D01*
X55959065Y-26674924D01*
X56010053Y-26659953D01*
X56131128Y-26582143D01*
X56225377Y-26473373D01*
X56285165Y-26342457D01*
X56305647Y-26200000D01*
X56291197Y-26099500D01*
X56285165Y-26057543D01*
X56233996Y-25945500D01*
X56227021Y-25884713D01*
X56257107Y-25831436D01*
X56270514Y-25821096D01*
X56331128Y-25782143D01*
X56425377Y-25673373D01*
X56485165Y-25542457D01*
X56491992Y-25494971D01*
X56505647Y-25400002D01*
X56505647Y-25399997D01*
X56485165Y-25257543D01*
X56425377Y-25126628D01*
X56425377Y-25126627D01*
X56331128Y-25017857D01*
X56331127Y-25017856D01*
X56331126Y-25017855D01*
X56210057Y-24940049D01*
X56210054Y-24940047D01*
X56210053Y-24940047D01*
X56210050Y-24940046D01*
X56071964Y-24899500D01*
X56071961Y-24899500D01*
X55965479Y-24899500D01*
X55907288Y-24880593D01*
X55895476Y-24870504D01*
X55684510Y-24659539D01*
X55629971Y-24628050D01*
X55629968Y-24628050D01*
X55615989Y-24619979D01*
X55615985Y-24619978D01*
X55615981Y-24619976D01*
X55539564Y-24599500D01*
X55539562Y-24599500D01*
X39667493Y-24599500D01*
X39609302Y-24580593D01*
X39573338Y-24531093D01*
X39573338Y-24469907D01*
X39577440Y-24459373D01*
X39585165Y-24442456D01*
X39605647Y-24300002D01*
X39605647Y-24299997D01*
X39585165Y-24157543D01*
X39525377Y-24026628D01*
X39525377Y-24026627D01*
X39431128Y-23917857D01*
X39431127Y-23917856D01*
X39426491Y-23912506D01*
X39428524Y-23910743D01*
X39403067Y-23868505D01*
X39400500Y-23846105D01*
X39400500Y-21765479D01*
X39419407Y-21707288D01*
X39429496Y-21695475D01*
X39895475Y-21229496D01*
X39949992Y-21201719D01*
X39965479Y-21200500D01*
X42152917Y-21200500D01*
X42211108Y-21219407D01*
X42227733Y-21234667D01*
X42268872Y-21282143D01*
X42357001Y-21338780D01*
X42389302Y-21359539D01*
X42389947Y-21359953D01*
X42496403Y-21391211D01*
X42528035Y-21400499D01*
X42528036Y-21400499D01*
X42528039Y-21400500D01*
X42528041Y-21400500D01*
X42671959Y-21400500D01*
X42671961Y-21400500D01*
X42810053Y-21359953D01*
X42931128Y-21282143D01*
X42972264Y-21234668D01*
X43024660Y-21203073D01*
X43047083Y-21200500D01*
X48092917Y-21200500D01*
X48151108Y-21219407D01*
X48167733Y-21234667D01*
X48208872Y-21282143D01*
X48297001Y-21338780D01*
X48329302Y-21359539D01*
X48329947Y-21359953D01*
X48436403Y-21391211D01*
X48468035Y-21400499D01*
X48468036Y-21400499D01*
X48468039Y-21400500D01*
X48468041Y-21400500D01*
X48611959Y-21400500D01*
X48611961Y-21400500D01*
X48750053Y-21359953D01*
X48871128Y-21282143D01*
X48916091Y-21230253D01*
X58949500Y-21230253D01*
X58949500Y-22969746D01*
X58949501Y-22969758D01*
X58961132Y-23028227D01*
X58961133Y-23028231D01*
X59005448Y-23094552D01*
X59071769Y-23138867D01*
X59116231Y-23147711D01*
X59130241Y-23150498D01*
X59130246Y-23150498D01*
X59130252Y-23150500D01*
X59130253Y-23150500D01*
X60869747Y-23150500D01*
X60869748Y-23150500D01*
X60928231Y-23138867D01*
X60994552Y-23094552D01*
X61038867Y-23028231D01*
X61050500Y-22969748D01*
X61050500Y-21230252D01*
X61038867Y-21171769D01*
X60994552Y-21105448D01*
X60994548Y-21105445D01*
X60928233Y-21061134D01*
X60928231Y-21061133D01*
X60928228Y-21061132D01*
X60928227Y-21061132D01*
X60869758Y-21049501D01*
X60869748Y-21049500D01*
X59130252Y-21049500D01*
X59130251Y-21049500D01*
X59130241Y-21049501D01*
X59071772Y-21061132D01*
X59071766Y-21061134D01*
X59005451Y-21105445D01*
X59005445Y-21105451D01*
X58961134Y-21171766D01*
X58961132Y-21171772D01*
X58949501Y-21230241D01*
X58949500Y-21230253D01*
X48916091Y-21230253D01*
X48965377Y-21173373D01*
X49025165Y-21042457D01*
X49045647Y-20900000D01*
X49025165Y-20757543D01*
X48965377Y-20626627D01*
X48871128Y-20517857D01*
X48871127Y-20517856D01*
X48871126Y-20517855D01*
X48750057Y-20440049D01*
X48750054Y-20440047D01*
X48750053Y-20440047D01*
X48750050Y-20440046D01*
X48611964Y-20399500D01*
X48611961Y-20399500D01*
X48468039Y-20399500D01*
X48468035Y-20399500D01*
X48329949Y-20440046D01*
X48329942Y-20440049D01*
X48208876Y-20517854D01*
X48208871Y-20517858D01*
X48167736Y-20565331D01*
X48115340Y-20596927D01*
X48092917Y-20599500D01*
X43047083Y-20599500D01*
X42988892Y-20580593D01*
X42972264Y-20565331D01*
X42931128Y-20517857D01*
X42898182Y-20496684D01*
X42810057Y-20440049D01*
X42810054Y-20440047D01*
X42810053Y-20440047D01*
X42810050Y-20440046D01*
X42671964Y-20399500D01*
X42671961Y-20399500D01*
X42528039Y-20399500D01*
X42528035Y-20399500D01*
X42389949Y-20440046D01*
X42389942Y-20440049D01*
X42268876Y-20517854D01*
X42268871Y-20517858D01*
X42227736Y-20565331D01*
X42175340Y-20596927D01*
X42152917Y-20599500D01*
X39760435Y-20599500D01*
X39684011Y-20619978D01*
X39684007Y-20619980D01*
X39615491Y-20659538D01*
X38915489Y-21359540D01*
X38915488Y-21359539D01*
X38859539Y-21415489D01*
X38819980Y-21484007D01*
X38819978Y-21484011D01*
X38799500Y-21560435D01*
X38799500Y-23846105D01*
X38780593Y-23904296D01*
X38773258Y-23912289D01*
X38773509Y-23912506D01*
X38674622Y-24026628D01*
X38614834Y-24157543D01*
X38594353Y-24299997D01*
X38594353Y-24300002D01*
X38614834Y-24442456D01*
X38622560Y-24459373D01*
X38629535Y-24520160D01*
X38599449Y-24573437D01*
X38543793Y-24598855D01*
X38532507Y-24599500D01*
X22431632Y-24599500D01*
X22378110Y-24583784D01*
X22310053Y-24540047D01*
X22310050Y-24540046D01*
X22171964Y-24499500D01*
X22171961Y-24499500D01*
X22028039Y-24499500D01*
X22028035Y-24499500D01*
X21889949Y-24540046D01*
X21889942Y-24540049D01*
X21768873Y-24617855D01*
X21674622Y-24726628D01*
X21614834Y-24857543D01*
X21594353Y-24999997D01*
X19460500Y-24999997D01*
X19460500Y-19480037D01*
X19479407Y-19421846D01*
X19528907Y-19385882D01*
X19530739Y-19385307D01*
X19563954Y-19375232D01*
X19746450Y-19277685D01*
X19906410Y-19146410D01*
X20037685Y-18986450D01*
X20135232Y-18803954D01*
X20195300Y-18605934D01*
X20195301Y-18605929D01*
X20215583Y-18400003D01*
X20215583Y-18399996D01*
X20644417Y-18399996D01*
X20644417Y-18400003D01*
X20664698Y-18605929D01*
X20664699Y-18605934D01*
X20724768Y-18803954D01*
X20822316Y-18986452D01*
X20910640Y-19094075D01*
X20953590Y-19146410D01*
X20953595Y-19146414D01*
X21113547Y-19277683D01*
X21113548Y-19277683D01*
X21113550Y-19277685D01*
X21296046Y-19375232D01*
X21410659Y-19409999D01*
X21494065Y-19435300D01*
X21494070Y-19435301D01*
X21699997Y-19455583D01*
X21700000Y-19455583D01*
X21700003Y-19455583D01*
X21905929Y-19435301D01*
X21905934Y-19435300D01*
X21950286Y-19421846D01*
X21989344Y-19409998D01*
X58959692Y-19409998D01*
X58959694Y-19410000D01*
X59522555Y-19410000D01*
X59500000Y-19494174D01*
X59500000Y-19625826D01*
X59522555Y-19710000D01*
X58959694Y-19710000D01*
X58959692Y-19710001D01*
X58965191Y-19765833D01*
X58965190Y-19765833D01*
X59025232Y-19963762D01*
X59025234Y-19963767D01*
X59122724Y-20146160D01*
X59122731Y-20146170D01*
X59253940Y-20306050D01*
X59253949Y-20306059D01*
X59413829Y-20437268D01*
X59413839Y-20437275D01*
X59596232Y-20534765D01*
X59596237Y-20534767D01*
X59794166Y-20594808D01*
X59849998Y-20600307D01*
X59850000Y-20600306D01*
X59850000Y-20037445D01*
X59934174Y-20060000D01*
X60065826Y-20060000D01*
X60150000Y-20037445D01*
X60150000Y-20600306D01*
X60150001Y-20600307D01*
X60205833Y-20594808D01*
X60403762Y-20534767D01*
X60403767Y-20534765D01*
X60586160Y-20437275D01*
X60586170Y-20437268D01*
X60746050Y-20306059D01*
X60746059Y-20306050D01*
X60877268Y-20146170D01*
X60877275Y-20146160D01*
X60974765Y-19963767D01*
X60974767Y-19963762D01*
X61034808Y-19765833D01*
X61040307Y-19710001D01*
X61040306Y-19710000D01*
X60477445Y-19710000D01*
X60500000Y-19625826D01*
X60500000Y-19494174D01*
X60477445Y-19410000D01*
X61040306Y-19410000D01*
X61040307Y-19409998D01*
X61034808Y-19354166D01*
X61034809Y-19354166D01*
X60974767Y-19156237D01*
X60974765Y-19156232D01*
X60877275Y-18973839D01*
X60877268Y-18973829D01*
X60746059Y-18813949D01*
X60746050Y-18813940D01*
X60586170Y-18682731D01*
X60586160Y-18682724D01*
X60403767Y-18585234D01*
X60403762Y-18585232D01*
X60205843Y-18525194D01*
X60205832Y-18525191D01*
X60150000Y-18519692D01*
X60150000Y-19082554D01*
X60065826Y-19060000D01*
X59934174Y-19060000D01*
X59850000Y-19082554D01*
X59850000Y-18519692D01*
X59794167Y-18525191D01*
X59794156Y-18525194D01*
X59596237Y-18585232D01*
X59596232Y-18585234D01*
X59413839Y-18682724D01*
X59413829Y-18682731D01*
X59253949Y-18813940D01*
X59253940Y-18813949D01*
X59122731Y-18973829D01*
X59122724Y-18973839D01*
X59025234Y-19156232D01*
X59025232Y-19156237D01*
X58965191Y-19354166D01*
X58959692Y-19409998D01*
X21989344Y-19409998D01*
X22103954Y-19375232D01*
X22286450Y-19277685D01*
X22446410Y-19146410D01*
X22577685Y-18986450D01*
X22675232Y-18803954D01*
X22735300Y-18605934D01*
X22735301Y-18605929D01*
X22755583Y-18400003D01*
X22755583Y-18399996D01*
X22735301Y-18194070D01*
X22735300Y-18194065D01*
X22699359Y-18075583D01*
X22675232Y-17996046D01*
X22577685Y-17813550D01*
X22538998Y-17766410D01*
X22446414Y-17653595D01*
X22446410Y-17653590D01*
X22388972Y-17606452D01*
X22286452Y-17522316D01*
X22103954Y-17424768D01*
X21905934Y-17364699D01*
X21905929Y-17364698D01*
X21700003Y-17344417D01*
X21699997Y-17344417D01*
X21494070Y-17364698D01*
X21494065Y-17364699D01*
X21296045Y-17424768D01*
X21113547Y-17522316D01*
X20953595Y-17653585D01*
X20953585Y-17653595D01*
X20822316Y-17813547D01*
X20724768Y-17996045D01*
X20664699Y-18194065D01*
X20664698Y-18194070D01*
X20644417Y-18399996D01*
X20215583Y-18399996D01*
X20195301Y-18194070D01*
X20195300Y-18194065D01*
X20159359Y-18075583D01*
X20135232Y-17996046D01*
X20037685Y-17813550D01*
X19998998Y-17766410D01*
X19906414Y-17653595D01*
X19906410Y-17653590D01*
X19848972Y-17606452D01*
X19746452Y-17522316D01*
X19563954Y-17424768D01*
X19365934Y-17364699D01*
X19365929Y-17364698D01*
X19160003Y-17344417D01*
X19159997Y-17344417D01*
X18954070Y-17364698D01*
X18954065Y-17364699D01*
X18756045Y-17424768D01*
X18573547Y-17522316D01*
X18573541Y-17522320D01*
X18462304Y-17613610D01*
X18405328Y-17635910D01*
X18346125Y-17620461D01*
X18307310Y-17573164D01*
X18300500Y-17537082D01*
X18300500Y-17185477D01*
X18319407Y-17127286D01*
X18329490Y-17115480D01*
X18424974Y-17019996D01*
X58944417Y-17019996D01*
X58944417Y-17020003D01*
X58964698Y-17225929D01*
X58964699Y-17225934D01*
X59024768Y-17423954D01*
X59122316Y-17606452D01*
X59253585Y-17766404D01*
X59253590Y-17766410D01*
X59253595Y-17766414D01*
X59413547Y-17897683D01*
X59413548Y-17897683D01*
X59413550Y-17897685D01*
X59596046Y-17995232D01*
X59733997Y-18037078D01*
X59794065Y-18055300D01*
X59794070Y-18055301D01*
X59999997Y-18075583D01*
X60000000Y-18075583D01*
X60000003Y-18075583D01*
X60205929Y-18055301D01*
X60205934Y-18055300D01*
X60403954Y-17995232D01*
X60586450Y-17897685D01*
X60746410Y-17766410D01*
X60877685Y-17606450D01*
X60975232Y-17423954D01*
X61035300Y-17225934D01*
X61035301Y-17225929D01*
X61055583Y-17020003D01*
X61055583Y-17019996D01*
X61035301Y-16814070D01*
X61035300Y-16814065D01*
X61009722Y-16729746D01*
X60975232Y-16616046D01*
X60877685Y-16433550D01*
X60859355Y-16411215D01*
X60746414Y-16273595D01*
X60746410Y-16273590D01*
X60734675Y-16263959D01*
X60586452Y-16142316D01*
X60403954Y-16044768D01*
X60205934Y-15984699D01*
X60205929Y-15984698D01*
X60000003Y-15964417D01*
X59999997Y-15964417D01*
X59794070Y-15984698D01*
X59794065Y-15984699D01*
X59596045Y-16044768D01*
X59413547Y-16142316D01*
X59253595Y-16273585D01*
X59253585Y-16273595D01*
X59122316Y-16433547D01*
X59024768Y-16616045D01*
X58964699Y-16814065D01*
X58964698Y-16814070D01*
X58944417Y-17019996D01*
X18424974Y-17019996D01*
X18608784Y-16836185D01*
X18663299Y-16808409D01*
X18723731Y-16817980D01*
X18725431Y-16818868D01*
X18756046Y-16835232D01*
X18893997Y-16877078D01*
X18954065Y-16895300D01*
X18954070Y-16895301D01*
X19159997Y-16915583D01*
X19160000Y-16915583D01*
X19160003Y-16915583D01*
X19365929Y-16895301D01*
X19365934Y-16895300D01*
X19563954Y-16835232D01*
X19746450Y-16737685D01*
X19906410Y-16606410D01*
X20037685Y-16446450D01*
X20135232Y-16263954D01*
X20195300Y-16065934D01*
X20195301Y-16065929D01*
X20215583Y-15860003D01*
X20215583Y-15859996D01*
X20195301Y-15654070D01*
X20195300Y-15654065D01*
X20159359Y-15535583D01*
X20135232Y-15456046D01*
X20037685Y-15273550D01*
X19998998Y-15226410D01*
X19906414Y-15113595D01*
X19906410Y-15113590D01*
X19848972Y-15066452D01*
X19756123Y-14990253D01*
X20649500Y-14990253D01*
X20649500Y-16729746D01*
X20649501Y-16729758D01*
X20661132Y-16788227D01*
X20661134Y-16788233D01*
X20705445Y-16854548D01*
X20705448Y-16854552D01*
X20771769Y-16898867D01*
X20816231Y-16907711D01*
X20830241Y-16910498D01*
X20830246Y-16910498D01*
X20830252Y-16910500D01*
X20830253Y-16910500D01*
X22569747Y-16910500D01*
X22569748Y-16910500D01*
X22628231Y-16898867D01*
X22694552Y-16854552D01*
X22738867Y-16788231D01*
X22750500Y-16729748D01*
X22750500Y-14990252D01*
X22748921Y-14982316D01*
X22747419Y-14974765D01*
X22738867Y-14931769D01*
X22694552Y-14865448D01*
X22694548Y-14865445D01*
X22628233Y-14821134D01*
X22628231Y-14821133D01*
X22628228Y-14821132D01*
X22628227Y-14821132D01*
X22569758Y-14809501D01*
X22569748Y-14809500D01*
X20830252Y-14809500D01*
X20830251Y-14809500D01*
X20830241Y-14809501D01*
X20771772Y-14821132D01*
X20771766Y-14821134D01*
X20705451Y-14865445D01*
X20705445Y-14865451D01*
X20661134Y-14931766D01*
X20661132Y-14931772D01*
X20649501Y-14990241D01*
X20649500Y-14990253D01*
X19756123Y-14990253D01*
X19746452Y-14982316D01*
X19563954Y-14884768D01*
X19365934Y-14824699D01*
X19365929Y-14824698D01*
X19160003Y-14804417D01*
X19159997Y-14804417D01*
X18954070Y-14824698D01*
X18954065Y-14824699D01*
X18756045Y-14884768D01*
X18573547Y-14982316D01*
X18413595Y-15113585D01*
X18413585Y-15113595D01*
X18282316Y-15273547D01*
X18184768Y-15456045D01*
X18124699Y-15654065D01*
X18124698Y-15654070D01*
X18104417Y-15859996D01*
X18104417Y-15860003D01*
X18124698Y-16065929D01*
X18124699Y-16065934D01*
X18184768Y-16263954D01*
X18184770Y-16263959D01*
X18201118Y-16294544D01*
X18211874Y-16354777D01*
X18185172Y-16409828D01*
X18183812Y-16411215D01*
X17815489Y-16779539D01*
X17759539Y-16835489D01*
X17719980Y-16904007D01*
X17719978Y-16904011D01*
X17699500Y-16980435D01*
X17699500Y-17795889D01*
X17680593Y-17854080D01*
X17631093Y-17890044D01*
X17569907Y-17890044D01*
X17520407Y-17854080D01*
X17513190Y-17842558D01*
X17497683Y-17813547D01*
X17366414Y-17653595D01*
X17366410Y-17653590D01*
X17308972Y-17606452D01*
X17206452Y-17522316D01*
X17023954Y-17424768D01*
X16825934Y-17364699D01*
X16825929Y-17364698D01*
X16620003Y-17344417D01*
X16619997Y-17344417D01*
X16414070Y-17364698D01*
X16414065Y-17364699D01*
X16216045Y-17424768D01*
X16033547Y-17522316D01*
X15873595Y-17653585D01*
X15873585Y-17653595D01*
X15742316Y-17813547D01*
X15644768Y-17996045D01*
X15584699Y-18194065D01*
X15584698Y-18194070D01*
X15564417Y-18399996D01*
X15564417Y-18400003D01*
X15584698Y-18605929D01*
X15584699Y-18605934D01*
X15644768Y-18803954D01*
X15742316Y-18986452D01*
X15830640Y-19094075D01*
X15873590Y-19146410D01*
X15873595Y-19146414D01*
X16033547Y-19277683D01*
X16033548Y-19277683D01*
X16033550Y-19277685D01*
X16216046Y-19375232D01*
X16330659Y-19409999D01*
X16414065Y-19435300D01*
X16414070Y-19435301D01*
X16619997Y-19455583D01*
X16620000Y-19455583D01*
X16620003Y-19455583D01*
X16825929Y-19435301D01*
X16825934Y-19435300D01*
X16870286Y-19421846D01*
X17023954Y-19375232D01*
X17206450Y-19277685D01*
X17366410Y-19146410D01*
X17497685Y-18986450D01*
X17513190Y-18957441D01*
X17557295Y-18915035D01*
X17617903Y-18906652D01*
X17671864Y-18935494D01*
X17698566Y-18990545D01*
X17699500Y-19004110D01*
X17699500Y-26034521D01*
X17680593Y-26092712D01*
X17670504Y-26104525D01*
X15315489Y-28459540D01*
X15315488Y-28459539D01*
X15259539Y-28515489D01*
X15219980Y-28584007D01*
X15219978Y-28584011D01*
X15199500Y-28660435D01*
X12700500Y-28660435D01*
X12700500Y-18399996D01*
X13024417Y-18399996D01*
X13024417Y-18400003D01*
X13044698Y-18605929D01*
X13044699Y-18605934D01*
X13104768Y-18803954D01*
X13202316Y-18986452D01*
X13290640Y-19094075D01*
X13333590Y-19146410D01*
X13333595Y-19146414D01*
X13493547Y-19277683D01*
X13493548Y-19277683D01*
X13493550Y-19277685D01*
X13676046Y-19375232D01*
X13790659Y-19409999D01*
X13874065Y-19435300D01*
X13874070Y-19435301D01*
X14079997Y-19455583D01*
X14080000Y-19455583D01*
X14080003Y-19455583D01*
X14285929Y-19435301D01*
X14285934Y-19435300D01*
X14330286Y-19421846D01*
X14483954Y-19375232D01*
X14666450Y-19277685D01*
X14826410Y-19146410D01*
X14957685Y-18986450D01*
X15055232Y-18803954D01*
X15115300Y-18605934D01*
X15115301Y-18605929D01*
X15135583Y-18400003D01*
X15135583Y-18399996D01*
X15115301Y-18194070D01*
X15115300Y-18194065D01*
X15079359Y-18075583D01*
X15055232Y-17996046D01*
X14957685Y-17813550D01*
X14918998Y-17766410D01*
X14826414Y-17653595D01*
X14826410Y-17653590D01*
X14768972Y-17606452D01*
X14666452Y-17522316D01*
X14483954Y-17424768D01*
X14285934Y-17364699D01*
X14285929Y-17364698D01*
X14080003Y-17344417D01*
X14079997Y-17344417D01*
X13874070Y-17364698D01*
X13874065Y-17364699D01*
X13676045Y-17424768D01*
X13493547Y-17522316D01*
X13333595Y-17653585D01*
X13333585Y-17653595D01*
X13202316Y-17813547D01*
X13104768Y-17996045D01*
X13044699Y-18194065D01*
X13044698Y-18194070D01*
X13024417Y-18399996D01*
X12700500Y-18399996D01*
X12700500Y-15859996D01*
X13024417Y-15859996D01*
X13024417Y-15860003D01*
X13044698Y-16065929D01*
X13044699Y-16065934D01*
X13104768Y-16263954D01*
X13202316Y-16446452D01*
X13333585Y-16606404D01*
X13333590Y-16606410D01*
X13333595Y-16606414D01*
X13493547Y-16737683D01*
X13493548Y-16737683D01*
X13493550Y-16737685D01*
X13676046Y-16835232D01*
X13813997Y-16877078D01*
X13874065Y-16895300D01*
X13874070Y-16895301D01*
X14079997Y-16915583D01*
X14080000Y-16915583D01*
X14080003Y-16915583D01*
X14285929Y-16895301D01*
X14285934Y-16895300D01*
X14483954Y-16835232D01*
X14666450Y-16737685D01*
X14826410Y-16606410D01*
X14957685Y-16446450D01*
X15055232Y-16263954D01*
X15115300Y-16065934D01*
X15115301Y-16065929D01*
X15135583Y-15860003D01*
X15135583Y-15859996D01*
X15564417Y-15859996D01*
X15564417Y-15860003D01*
X15584698Y-16065929D01*
X15584699Y-16065934D01*
X15644768Y-16263954D01*
X15742316Y-16446452D01*
X15873585Y-16606404D01*
X15873590Y-16606410D01*
X15873595Y-16606414D01*
X16033547Y-16737683D01*
X16033548Y-16737683D01*
X16033550Y-16737685D01*
X16216046Y-16835232D01*
X16353997Y-16877078D01*
X16414065Y-16895300D01*
X16414070Y-16895301D01*
X16619997Y-16915583D01*
X16620000Y-16915583D01*
X16620003Y-16915583D01*
X16825929Y-16895301D01*
X16825934Y-16895300D01*
X17023954Y-16835232D01*
X17206450Y-16737685D01*
X17366410Y-16606410D01*
X17497685Y-16446450D01*
X17595232Y-16263954D01*
X17655300Y-16065934D01*
X17655301Y-16065929D01*
X17675583Y-15860003D01*
X17675583Y-15859996D01*
X17655301Y-15654070D01*
X17655300Y-15654065D01*
X17619359Y-15535583D01*
X17595232Y-15456046D01*
X17497685Y-15273550D01*
X17458998Y-15226410D01*
X17366414Y-15113595D01*
X17366410Y-15113590D01*
X17308972Y-15066452D01*
X17206452Y-14982316D01*
X17023954Y-14884768D01*
X16825934Y-14824699D01*
X16825929Y-14824698D01*
X16620003Y-14804417D01*
X16619997Y-14804417D01*
X16414070Y-14824698D01*
X16414065Y-14824699D01*
X16216045Y-14884768D01*
X16033547Y-14982316D01*
X15873595Y-15113585D01*
X15873585Y-15113595D01*
X15742316Y-15273547D01*
X15644768Y-15456045D01*
X15584699Y-15654065D01*
X15584698Y-15654070D01*
X15564417Y-15859996D01*
X15135583Y-15859996D01*
X15115301Y-15654070D01*
X15115300Y-15654065D01*
X15079359Y-15535583D01*
X15055232Y-15456046D01*
X14957685Y-15273550D01*
X14918998Y-15226410D01*
X14826414Y-15113595D01*
X14826410Y-15113590D01*
X14768972Y-15066452D01*
X14666452Y-14982316D01*
X14483954Y-14884768D01*
X14285934Y-14824699D01*
X14285929Y-14824698D01*
X14080003Y-14804417D01*
X14079997Y-14804417D01*
X13874070Y-14824698D01*
X13874065Y-14824699D01*
X13676045Y-14884768D01*
X13493547Y-14982316D01*
X13333595Y-15113585D01*
X13333585Y-15113595D01*
X13202316Y-15273547D01*
X13104768Y-15456045D01*
X13044699Y-15654065D01*
X13044698Y-15654070D01*
X13024417Y-15859996D01*
X12700500Y-15859996D01*
X12700500Y-13205555D01*
X12701121Y-13194488D01*
X12708359Y-13130253D01*
X29374500Y-13130253D01*
X29374500Y-14869746D01*
X29374501Y-14869758D01*
X29386132Y-14928227D01*
X29386134Y-14928233D01*
X29427575Y-14990253D01*
X29430448Y-14994552D01*
X29496769Y-15038867D01*
X29541231Y-15047711D01*
X29555241Y-15050498D01*
X29555246Y-15050498D01*
X29555252Y-15050500D01*
X29555253Y-15050500D01*
X31294747Y-15050500D01*
X31294748Y-15050500D01*
X31353231Y-15038867D01*
X31419552Y-14994552D01*
X31463867Y-14928231D01*
X31475500Y-14869748D01*
X31475500Y-13849998D01*
X31924692Y-13849998D01*
X31924694Y-13850000D01*
X32487555Y-13850000D01*
X32465000Y-13934174D01*
X32465000Y-14065826D01*
X32487555Y-14150000D01*
X31924694Y-14150000D01*
X31924692Y-14150001D01*
X31930191Y-14205833D01*
X31930190Y-14205833D01*
X31990232Y-14403762D01*
X31990234Y-14403767D01*
X32087724Y-14586160D01*
X32087731Y-14586170D01*
X32218940Y-14746050D01*
X32218949Y-14746059D01*
X32378829Y-14877268D01*
X32378839Y-14877275D01*
X32561232Y-14974765D01*
X32561237Y-14974767D01*
X32759166Y-15034808D01*
X32814998Y-15040307D01*
X32815000Y-15040306D01*
X32815000Y-14477445D01*
X32899174Y-14500000D01*
X33030826Y-14500000D01*
X33115000Y-14477445D01*
X33115000Y-15040306D01*
X33115001Y-15040307D01*
X33170833Y-15034808D01*
X33368762Y-14974767D01*
X33368767Y-14974765D01*
X33551160Y-14877275D01*
X33551170Y-14877268D01*
X33711050Y-14746059D01*
X33711059Y-14746050D01*
X33842268Y-14586170D01*
X33842275Y-14586160D01*
X33899020Y-14479996D01*
X58944417Y-14479996D01*
X58944417Y-14480003D01*
X58964698Y-14685929D01*
X58964699Y-14685934D01*
X59024768Y-14883954D01*
X59122316Y-15066452D01*
X59253585Y-15226404D01*
X59253590Y-15226410D01*
X59253595Y-15226414D01*
X59413547Y-15357683D01*
X59413548Y-15357683D01*
X59413550Y-15357685D01*
X59596046Y-15455232D01*
X59733997Y-15497078D01*
X59794065Y-15515300D01*
X59794070Y-15515301D01*
X59999997Y-15535583D01*
X60000000Y-15535583D01*
X60000003Y-15535583D01*
X60205929Y-15515301D01*
X60205934Y-15515300D01*
X60403954Y-15455232D01*
X60586450Y-15357685D01*
X60746410Y-15226410D01*
X60877685Y-15066450D01*
X60975232Y-14883954D01*
X61035300Y-14685934D01*
X61035301Y-14685929D01*
X61055583Y-14480003D01*
X61055583Y-14479996D01*
X61035301Y-14274070D01*
X61035300Y-14274065D01*
X61010707Y-14192993D01*
X60975232Y-14076046D01*
X60877685Y-13893550D01*
X60806661Y-13807007D01*
X60746414Y-13733595D01*
X60746410Y-13733590D01*
X60696942Y-13692993D01*
X60586452Y-13602316D01*
X60403954Y-13504768D01*
X60205934Y-13444699D01*
X60205929Y-13444698D01*
X60000003Y-13424417D01*
X59999997Y-13424417D01*
X59794070Y-13444698D01*
X59794065Y-13444699D01*
X59596045Y-13504768D01*
X59413547Y-13602316D01*
X59253595Y-13733585D01*
X59253585Y-13733595D01*
X59122316Y-13893547D01*
X59024768Y-14076045D01*
X58964699Y-14274065D01*
X58964698Y-14274070D01*
X58944417Y-14479996D01*
X33899020Y-14479996D01*
X33939765Y-14403767D01*
X33939767Y-14403762D01*
X33999808Y-14205833D01*
X34005307Y-14150001D01*
X34005306Y-14150000D01*
X33442445Y-14150000D01*
X33465000Y-14065826D01*
X33465000Y-13934174D01*
X33442445Y-13850000D01*
X34005306Y-13850000D01*
X34005307Y-13849998D01*
X33999808Y-13794166D01*
X33999809Y-13794166D01*
X33939767Y-13596237D01*
X33939765Y-13596232D01*
X33842275Y-13413839D01*
X33842268Y-13413829D01*
X33711059Y-13253949D01*
X33711050Y-13253940D01*
X33551170Y-13122731D01*
X33551160Y-13122724D01*
X33368767Y-13025234D01*
X33368762Y-13025232D01*
X33170843Y-12965194D01*
X33170832Y-12965191D01*
X33115000Y-12959692D01*
X33115000Y-13522554D01*
X33030826Y-13500000D01*
X32899174Y-13500000D01*
X32815000Y-13522554D01*
X32815000Y-12959692D01*
X32759167Y-12965191D01*
X32759156Y-12965194D01*
X32561237Y-13025232D01*
X32561232Y-13025234D01*
X32378839Y-13122724D01*
X32378829Y-13122731D01*
X32218949Y-13253940D01*
X32218940Y-13253949D01*
X32087731Y-13413829D01*
X32087724Y-13413839D01*
X31990234Y-13596232D01*
X31990232Y-13596237D01*
X31930191Y-13794166D01*
X31924692Y-13849998D01*
X31475500Y-13849998D01*
X31475500Y-13130252D01*
X31463867Y-13071769D01*
X31419552Y-13005448D01*
X31419548Y-13005445D01*
X31353233Y-12961134D01*
X31353231Y-12961133D01*
X31353228Y-12961132D01*
X31353227Y-12961132D01*
X31294758Y-12949501D01*
X31294748Y-12949500D01*
X29555252Y-12949500D01*
X29555251Y-12949500D01*
X29555241Y-12949501D01*
X29496772Y-12961132D01*
X29496766Y-12961134D01*
X29430451Y-13005445D01*
X29430445Y-13005451D01*
X29386134Y-13071766D01*
X29386132Y-13071772D01*
X29374501Y-13130241D01*
X29374500Y-13130253D01*
X12708359Y-13130253D01*
X12711776Y-13099924D01*
X12716704Y-13078332D01*
X12746285Y-12993794D01*
X12755897Y-12973834D01*
X12803541Y-12898010D01*
X12817357Y-12880684D01*
X12880684Y-12817357D01*
X12898012Y-12803540D01*
X12973834Y-12755897D01*
X12993794Y-12746285D01*
X13078332Y-12716704D01*
X13099924Y-12711776D01*
X13194487Y-12701121D01*
X13205556Y-12700500D01*
X13265892Y-12700500D01*
X60834108Y-12700500D01*
X60894444Y-12700500D01*
X60905512Y-12701121D01*
G37*
G04 #@! TD.AperFunction*
M02*
