M48
; DRILL file {KiCad 8.0.4} date 2024-08-03T17:02:52+0200
; FORMAT={-:-/ absolute / metric / decimal}
; #@! TF.CreationDate,2024-08-03T17:02:52+02:00
; #@! TF.GenerationSoftware,Kicad,Pcbnew,8.0.4
; #@! TF.FileFunction,Plated,1,2,PTH
FMAT,2
METRIC
; #@! TA.AperFunction,Plated,PTH,ViaDrill
T1C0.300
; #@! TA.AperFunction,Plated,PTH,ComponentDrill
T2C1.000
%
G90
G05
T1
X16.5Y-29.2
X16.9Y-30.0
X17.4Y-29.2
X17.6Y-30.4
X18.3Y-30.8
X18.3Y-29.2
X21.6Y-32.1
X21.6Y-34.3
X22.1Y-25.0
X22.1Y-30.1
X22.8Y-25.5
X22.8Y-29.7
X22.8Y-32.8
X22.8Y-33.6
X22.8Y-34.5
X23.4Y-26.1
X23.5Y-29.2
X27.5Y-33.3
X28.4Y-35.2
X28.5Y-22.1
X29.2Y-35.2
X29.3Y-22.1
X30.0Y-35.2
X30.1Y-22.1
X30.9Y-22.1
X34.8Y-34.0
X34.8Y-37.7
X34.8Y-38.5
X35.4Y-35.2
X36.5Y-38.7
X38.3Y-14.0
X38.3Y-15.1
X39.1Y-24.3
X39.3Y-14.0
X40.3Y-14.0
X40.3Y-15.0
X40.3Y-38.4
X40.3Y-39.2
X40.4Y-35.6
X41.0Y-35.1
X41.5Y-34.6
X42.6Y-20.9
X42.6Y-26.8
X42.6Y-27.6
X42.6Y-28.4
X42.6Y-29.2
X43.4Y-26.8
X43.4Y-27.6
X43.4Y-28.4
X43.4Y-29.2
X43.5Y-35.6
X44.2Y-26.8
X44.2Y-27.6
X44.2Y-28.4
X44.2Y-29.2
X45.0Y-26.8
X45.0Y-27.6
X45.0Y-28.4
X45.0Y-29.2
X45.1Y-38.4
X45.9Y-37.6
X46.0Y-34.7
X46.0Y-35.6
X46.7Y-33.6
X47.3Y-36.2
X48.54Y-20.9
X49.5Y-21.2
X49.9Y-28.4
X49.9Y-31.3
X50.6Y-21.2
X50.6Y-22.1
X50.6Y-23.1
X50.6Y-24.0
X50.6Y-28.0
X50.6Y-30.8
X51.3Y-27.6
X51.3Y-30.4
X52.0Y-27.2
X52.0Y-29.9
X52.7Y-26.8
X55.4Y-26.9
X55.8Y-26.2
X56.0Y-25.4
T2
X14.08Y-15.86
X14.08Y-18.4
X16.62Y-15.86
X16.62Y-18.4
X19.16Y-15.86
X19.16Y-18.4
X21.7Y-15.86
X21.7Y-18.4
X30.425Y-14.0
X32.965Y-14.0
X50.225Y-38.4
X52.765Y-38.4
X60.0Y-14.48
X60.0Y-17.02
X60.0Y-19.56
X60.0Y-22.1
X60.0Y-31.38
X60.0Y-33.92
X60.0Y-36.46
X60.0Y-39.0
M30
