%TF.GenerationSoftware,KiCad,Pcbnew,8.0.4*%
%TF.CreationDate,2024-07-21T22:14:21+02:00*%
%TF.ProjectId,koyomi-keyboard-adapter,6b6f796f-6d69-42d6-9b65-79626f617264,rev?*%
%TF.SameCoordinates,Original*%
%TF.FileFunction,Drillmap*%
%TF.FilePolarity,Positive*%
%FSLAX45Y45*%
G04 Gerber Fmt 4.5, Leading zero omitted, Abs format (unit mm)*
G04 Created by KiCad (PCBNEW 8.0.4) date 2024-07-21 22:14:21*
%MOMM*%
%LPD*%
G01*
G04 APERTURE LIST*
%ADD10C,0.050000*%
%ADD11C,0.200000*%
G04 APERTURE END LIST*
D10*
X1320000Y-1220000D02*
X6090000Y-1220000D01*
X6090000Y-4100000D02*
X1320000Y-4100000D01*
X6090000Y-1220000D02*
G75*
G02*
X6190000Y-1320000I0J-100000D01*
G01*
X1220000Y-4000000D02*
X1220000Y-1320000D01*
X6190000Y-1320000D02*
X6190000Y-4000000D01*
X6190000Y-4000000D02*
G75*
G02*
X6090000Y-4100000I-100000J0D01*
G01*
X1320000Y-4100000D02*
G75*
G02*
X1220000Y-4000000I0J100000D01*
G01*
X1220000Y-1320000D02*
G75*
G02*
X1320000Y-1220000I100000J0D01*
G01*
D11*
X1478277Y-4413984D02*
X1478277Y-4213984D01*
X1478277Y-4213984D02*
X1525896Y-4213984D01*
X1525896Y-4213984D02*
X1554467Y-4223508D01*
X1554467Y-4223508D02*
X1573515Y-4242555D01*
X1573515Y-4242555D02*
X1583039Y-4261603D01*
X1583039Y-4261603D02*
X1592562Y-4299698D01*
X1592562Y-4299698D02*
X1592562Y-4328270D01*
X1592562Y-4328270D02*
X1583039Y-4366365D01*
X1583039Y-4366365D02*
X1573515Y-4385412D01*
X1573515Y-4385412D02*
X1554467Y-4404460D01*
X1554467Y-4404460D02*
X1525896Y-4413984D01*
X1525896Y-4413984D02*
X1478277Y-4413984D01*
X1678277Y-4413984D02*
X1678277Y-4280650D01*
X1678277Y-4318746D02*
X1687801Y-4299698D01*
X1687801Y-4299698D02*
X1697324Y-4290174D01*
X1697324Y-4290174D02*
X1716372Y-4280650D01*
X1716372Y-4280650D02*
X1735420Y-4280650D01*
X1802086Y-4413984D02*
X1802086Y-4280650D01*
X1802086Y-4213984D02*
X1792562Y-4223508D01*
X1792562Y-4223508D02*
X1802086Y-4233031D01*
X1802086Y-4233031D02*
X1811610Y-4223508D01*
X1811610Y-4223508D02*
X1802086Y-4213984D01*
X1802086Y-4213984D02*
X1802086Y-4233031D01*
X1925896Y-4413984D02*
X1906848Y-4404460D01*
X1906848Y-4404460D02*
X1897324Y-4385412D01*
X1897324Y-4385412D02*
X1897324Y-4213984D01*
X2030658Y-4413984D02*
X2011610Y-4404460D01*
X2011610Y-4404460D02*
X2002086Y-4385412D01*
X2002086Y-4385412D02*
X2002086Y-4213984D01*
X2259229Y-4413984D02*
X2259229Y-4213984D01*
X2259229Y-4213984D02*
X2325896Y-4356841D01*
X2325896Y-4356841D02*
X2392563Y-4213984D01*
X2392563Y-4213984D02*
X2392563Y-4413984D01*
X2573515Y-4413984D02*
X2573515Y-4309222D01*
X2573515Y-4309222D02*
X2563991Y-4290174D01*
X2563991Y-4290174D02*
X2544944Y-4280650D01*
X2544944Y-4280650D02*
X2506848Y-4280650D01*
X2506848Y-4280650D02*
X2487801Y-4290174D01*
X2573515Y-4404460D02*
X2554467Y-4413984D01*
X2554467Y-4413984D02*
X2506848Y-4413984D01*
X2506848Y-4413984D02*
X2487801Y-4404460D01*
X2487801Y-4404460D02*
X2478277Y-4385412D01*
X2478277Y-4385412D02*
X2478277Y-4366365D01*
X2478277Y-4366365D02*
X2487801Y-4347317D01*
X2487801Y-4347317D02*
X2506848Y-4337793D01*
X2506848Y-4337793D02*
X2554467Y-4337793D01*
X2554467Y-4337793D02*
X2573515Y-4328270D01*
X2668753Y-4280650D02*
X2668753Y-4480650D01*
X2668753Y-4290174D02*
X2687801Y-4280650D01*
X2687801Y-4280650D02*
X2725896Y-4280650D01*
X2725896Y-4280650D02*
X2744944Y-4290174D01*
X2744944Y-4290174D02*
X2754467Y-4299698D01*
X2754467Y-4299698D02*
X2763991Y-4318746D01*
X2763991Y-4318746D02*
X2763991Y-4375889D01*
X2763991Y-4375889D02*
X2754467Y-4394936D01*
X2754467Y-4394936D02*
X2744944Y-4404460D01*
X2744944Y-4404460D02*
X2725896Y-4413984D01*
X2725896Y-4413984D02*
X2687801Y-4413984D01*
X2687801Y-4413984D02*
X2668753Y-4404460D01*
X2849705Y-4394936D02*
X2859229Y-4404460D01*
X2859229Y-4404460D02*
X2849705Y-4413984D01*
X2849705Y-4413984D02*
X2840182Y-4404460D01*
X2840182Y-4404460D02*
X2849705Y-4394936D01*
X2849705Y-4394936D02*
X2849705Y-4413984D01*
X2849705Y-4290174D02*
X2859229Y-4299698D01*
X2859229Y-4299698D02*
X2849705Y-4309222D01*
X2849705Y-4309222D02*
X2840182Y-4299698D01*
X2840182Y-4299698D02*
X2849705Y-4290174D01*
X2849705Y-4290174D02*
X2849705Y-4309222D01*
M02*
