G04 #@! TF.GenerationSoftware,KiCad,Pcbnew,8.0.4*
G04 #@! TF.CreationDate,2024-07-21T22:14:28+02:00*
G04 #@! TF.ProjectId,koyomi-keyboard-adapter,6b6f796f-6d69-42d6-9b65-79626f617264,rev?*
G04 #@! TF.SameCoordinates,Original*
G04 #@! TF.FileFunction,Soldermask,Top*
G04 #@! TF.FilePolarity,Negative*
%FSLAX46Y46*%
G04 Gerber Fmt 4.6, Leading zero omitted, Abs format (unit mm)*
G04 Created by KiCad (PCBNEW 8.0.4) date 2024-07-21 22:14:28*
%MOMM*%
%LPD*%
G01*
G04 APERTURE LIST*
G04 Aperture macros list*
%AMRoundRect*
0 Rectangle with rounded corners*
0 $1 Rounding radius*
0 $2 $3 $4 $5 $6 $7 $8 $9 X,Y pos of 4 corners*
0 Add a 4 corners polygon primitive as box body*
4,1,4,$2,$3,$4,$5,$6,$7,$8,$9,$2,$3,0*
0 Add four circle primitives for the rounded corners*
1,1,$1+$1,$2,$3*
1,1,$1+$1,$4,$5*
1,1,$1+$1,$6,$7*
1,1,$1+$1,$8,$9*
0 Add four rect primitives between the rounded corners*
20,1,$1+$1,$2,$3,$4,$5,0*
20,1,$1+$1,$4,$5,$6,$7,0*
20,1,$1+$1,$6,$7,$8,$9,0*
20,1,$1+$1,$8,$9,$2,$3,0*%
G04 Aperture macros list end*
%ADD10RoundRect,0.140000X0.170000X-0.140000X0.170000X0.140000X-0.170000X0.140000X-0.170000X-0.140000X0*%
%ADD11R,1.700000X1.700000*%
%ADD12O,1.700000X1.700000*%
%ADD13RoundRect,0.150000X0.150000X-0.512500X0.150000X0.512500X-0.150000X0.512500X-0.150000X-0.512500X0*%
%ADD14RoundRect,0.135000X-0.185000X0.135000X-0.185000X-0.135000X0.185000X-0.135000X0.185000X0.135000X0*%
%ADD15RoundRect,0.050000X-0.387500X-0.050000X0.387500X-0.050000X0.387500X0.050000X-0.387500X0.050000X0*%
%ADD16RoundRect,0.050000X-0.050000X-0.387500X0.050000X-0.387500X0.050000X0.387500X-0.050000X0.387500X0*%
%ADD17R,3.200000X3.200000*%
%ADD18RoundRect,0.140000X-0.140000X-0.170000X0.140000X-0.170000X0.140000X0.170000X-0.140000X0.170000X0*%
%ADD19R,1.200000X1.400000*%
%ADD20RoundRect,0.140000X-0.170000X0.140000X-0.170000X-0.140000X0.170000X-0.140000X0.170000X0.140000X0*%
%ADD21RoundRect,0.135000X-0.135000X-0.185000X0.135000X-0.185000X0.135000X0.185000X-0.135000X0.185000X0*%
%ADD22RoundRect,0.150000X-0.650000X-0.150000X0.650000X-0.150000X0.650000X0.150000X-0.650000X0.150000X0*%
%ADD23R,1.100000X0.200000*%
%ADD24RoundRect,0.135000X0.185000X-0.135000X0.185000X0.135000X-0.185000X0.135000X-0.185000X-0.135000X0*%
G04 APERTURE END LIST*
D10*
X41900000Y-20880000D03*
X41900000Y-19920000D03*
D11*
X21700000Y-15860000D03*
D12*
X21700000Y-18400000D03*
X19160000Y-15860000D03*
X19160000Y-18400000D03*
X16620000Y-15860000D03*
X16620000Y-18400000D03*
X14080000Y-15860000D03*
X14080000Y-18400000D03*
D10*
X39300000Y-16000000D03*
X39300000Y-15040000D03*
D13*
X52750000Y-21137500D03*
X53700000Y-21137500D03*
X54650000Y-21137500D03*
X54650000Y-18862500D03*
X52750000Y-18862500D03*
D14*
X26600000Y-15780000D03*
X26600000Y-16800000D03*
D15*
X40362500Y-25400000D03*
X40362500Y-25800000D03*
X40362500Y-26200000D03*
X40362500Y-26600000D03*
X40362500Y-27000000D03*
X40362500Y-27400000D03*
X40362500Y-27800000D03*
X40362500Y-28200000D03*
X40362500Y-28600000D03*
X40362500Y-29000000D03*
X40362500Y-29400000D03*
X40362500Y-29800000D03*
X40362500Y-30200000D03*
X40362500Y-30600000D03*
D16*
X41200000Y-31437500D03*
X41600000Y-31437500D03*
X42000000Y-31437500D03*
X42400000Y-31437500D03*
X42800000Y-31437500D03*
X43200000Y-31437500D03*
X43600000Y-31437500D03*
X44000000Y-31437500D03*
X44400000Y-31437500D03*
X44800000Y-31437500D03*
X45200000Y-31437500D03*
X45600000Y-31437500D03*
X46000000Y-31437500D03*
X46400000Y-31437500D03*
D15*
X47237500Y-30600000D03*
X47237500Y-30200000D03*
X47237500Y-29800000D03*
X47237500Y-29400000D03*
X47237500Y-29000000D03*
X47237500Y-28600000D03*
X47237500Y-28200000D03*
X47237500Y-27800000D03*
X47237500Y-27400000D03*
X47237500Y-27000000D03*
X47237500Y-26600000D03*
X47237500Y-26200000D03*
X47237500Y-25800000D03*
X47237500Y-25400000D03*
D16*
X46400000Y-24562500D03*
X46000000Y-24562500D03*
X45600000Y-24562500D03*
X45200000Y-24562500D03*
X44800000Y-24562500D03*
X44400000Y-24562500D03*
X44000000Y-24562500D03*
X43600000Y-24562500D03*
X43200000Y-24562500D03*
X42800000Y-24562500D03*
X42400000Y-24562500D03*
X42000000Y-24562500D03*
X41600000Y-24562500D03*
X41200000Y-24562500D03*
D17*
X43800000Y-28000000D03*
D10*
X45900000Y-22280000D03*
X45900000Y-21320000D03*
D18*
X48540000Y-22270000D03*
X49500000Y-22270000D03*
D19*
X37500000Y-37600000D03*
X37500000Y-39800000D03*
X39200000Y-39800000D03*
X39200000Y-37600000D03*
D10*
X47200000Y-22300000D03*
X47200000Y-21340000D03*
X40500000Y-20860000D03*
X40500000Y-19900000D03*
X38100000Y-25180000D03*
X38100000Y-24220000D03*
D18*
X52720000Y-23600000D03*
X53680000Y-23600000D03*
D20*
X45000000Y-36620000D03*
X45000000Y-37580000D03*
D14*
X46600000Y-38390000D03*
X46600000Y-39410000D03*
D21*
X45990000Y-15000000D03*
X47010000Y-15000000D03*
D20*
X49600000Y-18870000D03*
X49600000Y-19830000D03*
D22*
X28600000Y-17095000D03*
X28600000Y-18365000D03*
X28600000Y-19635000D03*
X28600000Y-20905000D03*
X35800000Y-20905000D03*
X35800000Y-19635000D03*
X35800000Y-18365000D03*
X35800000Y-17095000D03*
D10*
X43300000Y-20880000D03*
X43300000Y-19920000D03*
D18*
X52220000Y-29000000D03*
X53180000Y-29000000D03*
D11*
X50225000Y-38400000D03*
D12*
X52765000Y-38400000D03*
D23*
X24799900Y-25800000D03*
X20199900Y-25800000D03*
X24800000Y-26200100D03*
X20199800Y-26200100D03*
X24800000Y-26599900D03*
X20199800Y-26600100D03*
X24800000Y-26999900D03*
X20199800Y-27000200D03*
X24800000Y-27400000D03*
X20199800Y-27400200D03*
X24800000Y-27800000D03*
X20199800Y-27800000D03*
X24800000Y-28200100D03*
X20199800Y-28200100D03*
X24800000Y-28599800D03*
X20199800Y-28600100D03*
X24800000Y-28999900D03*
X20199800Y-29000200D03*
X24800000Y-29400000D03*
X20199800Y-29400200D03*
X24800000Y-29800000D03*
X20199800Y-29800000D03*
X24800000Y-30199800D03*
X20199800Y-30200100D03*
X24800000Y-30599800D03*
X20199800Y-30600100D03*
X24800000Y-30999900D03*
X20199800Y-31000100D03*
X24800000Y-31399900D03*
X20199800Y-31399900D03*
X24800000Y-31800000D03*
X20199800Y-31800000D03*
X24800000Y-32200000D03*
X20199800Y-32200000D03*
X24800000Y-32600100D03*
X20199800Y-32600100D03*
X24800000Y-33000100D03*
X20199800Y-33000100D03*
X24800000Y-33400200D03*
X20199800Y-33400200D03*
X24800000Y-33800000D03*
X20199800Y-33800200D03*
X24800000Y-34200000D03*
X20199800Y-34200000D03*
X24800000Y-34600100D03*
X20199800Y-34600100D03*
X24800000Y-35000100D03*
X20199800Y-35000100D03*
X24799900Y-35400000D03*
X20199800Y-35400000D03*
D21*
X45990000Y-16500000D03*
X47010000Y-16500000D03*
D10*
X49500000Y-24680000D03*
X49500000Y-23720000D03*
D11*
X30425000Y-14000000D03*
D12*
X32965000Y-14000000D03*
D10*
X35800000Y-25180000D03*
X35800000Y-24220000D03*
D14*
X31200000Y-34190000D03*
X31200000Y-35210000D03*
D20*
X43400000Y-36620000D03*
X43400000Y-37580000D03*
D11*
X60000000Y-31380000D03*
D12*
X60000000Y-33920000D03*
X60000000Y-36460000D03*
X60000000Y-39000000D03*
D20*
X35700000Y-37520000D03*
X35700000Y-38480000D03*
D21*
X40990000Y-37500000D03*
X42010000Y-37500000D03*
D24*
X33500000Y-35210000D03*
X33500000Y-34190000D03*
D18*
X41020000Y-39900000D03*
X41980000Y-39900000D03*
D11*
X60000000Y-22100000D03*
D12*
X60000000Y-19560000D03*
X60000000Y-17020000D03*
X60000000Y-14480000D03*
M02*
