G04 #@! TF.GenerationSoftware,KiCad,Pcbnew,8.0.4*
G04 #@! TF.CreationDate,2024-07-21T22:14:28+02:00*
G04 #@! TF.ProjectId,koyomi-keyboard-adapter,6b6f796f-6d69-42d6-9b65-79626f617264,rev?*
G04 #@! TF.SameCoordinates,Original*
G04 #@! TF.FileFunction,Copper,L2,Bot*
G04 #@! TF.FilePolarity,Positive*
%FSLAX46Y46*%
G04 Gerber Fmt 4.6, Leading zero omitted, Abs format (unit mm)*
G04 Created by KiCad (PCBNEW 8.0.4) date 2024-07-21 22:14:28*
%MOMM*%
%LPD*%
G01*
G04 APERTURE LIST*
G04 #@! TA.AperFunction,EtchedComponent*
%ADD10C,0.000000*%
G04 #@! TD*
G04 #@! TA.AperFunction,ComponentPad*
%ADD11R,1.700000X1.700000*%
G04 #@! TD*
G04 #@! TA.AperFunction,ComponentPad*
%ADD12O,1.700000X1.700000*%
G04 #@! TD*
G04 #@! TA.AperFunction,ViaPad*
%ADD13C,0.600000*%
G04 #@! TD*
G04 #@! TA.AperFunction,Conductor*
%ADD14C,0.200000*%
G04 #@! TD*
G04 APERTURE END LIST*
D10*
G04 #@! TA.AperFunction,EtchedComponent*
G36*
X38360705Y-18155167D02*
G01*
X38360675Y-18154921D01*
X38360675Y-18154796D01*
X38360705Y-18155167D01*
G37*
G04 #@! TD.AperFunction*
G04 #@! TA.AperFunction,EtchedComponent*
G36*
X38367517Y-17755544D02*
G01*
X38367611Y-17755890D01*
X38366673Y-17752767D01*
X38367517Y-17755544D01*
G37*
G04 #@! TD.AperFunction*
G04 #@! TA.AperFunction,EtchedComponent*
G36*
X38370579Y-17796300D02*
G01*
X38370549Y-17796518D01*
X38370595Y-17796040D01*
X38370579Y-17796300D01*
G37*
G04 #@! TD.AperFunction*
G04 #@! TA.AperFunction,EtchedComponent*
G36*
X41966879Y-18332848D02*
G01*
X41966504Y-18332786D01*
X41966879Y-18332411D01*
X41966879Y-18332848D01*
G37*
G04 #@! TD.AperFunction*
G04 #@! TA.AperFunction,EtchedComponent*
G36*
X45691820Y-21754821D02*
G01*
X45691556Y-21757021D01*
X45692056Y-21750771D01*
X45691820Y-21754821D01*
G37*
G04 #@! TD.AperFunction*
G04 #@! TA.AperFunction,EtchedComponent*
G36*
X38361674Y-18167296D02*
G01*
X38361677Y-18167921D01*
X38361674Y-18168546D01*
X38361661Y-18167127D01*
X38361674Y-18167296D01*
G37*
G04 #@! TD.AperFunction*
G04 #@! TA.AperFunction,EtchedComponent*
G36*
X42149998Y-18359911D02*
G01*
X42146623Y-18359411D01*
X42147748Y-18355661D01*
X42147748Y-18354911D01*
X42149998Y-18359911D01*
G37*
G04 #@! TD.AperFunction*
G04 #@! TA.AperFunction,EtchedComponent*
G36*
X38371044Y-17783632D02*
G01*
X38371049Y-17783801D01*
X38371049Y-17785268D01*
X38370989Y-17782866D01*
X38370986Y-17782518D01*
X38371044Y-17783632D01*
G37*
G04 #@! TD.AperFunction*
G04 #@! TA.AperFunction,EtchedComponent*
G36*
X43374770Y-19331338D02*
G01*
X43374441Y-19332558D01*
X43374699Y-19331467D01*
X43375063Y-19330024D01*
X43375220Y-19329697D01*
X43374770Y-19331338D01*
G37*
G04 #@! TD.AperFunction*
G04 #@! TA.AperFunction,EtchedComponent*
G36*
X45396657Y-20290929D02*
G01*
X45396703Y-20291139D01*
X45396720Y-20291207D01*
X45396610Y-20291078D01*
X45396610Y-20290703D01*
X45396657Y-20290929D01*
G37*
G04 #@! TD.AperFunction*
G04 #@! TA.AperFunction,EtchedComponent*
G36*
X46681228Y-21866335D02*
G01*
X46680608Y-21867791D01*
X46679894Y-21869346D01*
X46679155Y-21870807D01*
X46683905Y-21858307D01*
X46681228Y-21866335D01*
G37*
G04 #@! TD.AperFunction*
G04 #@! TA.AperFunction,EtchedComponent*
G36*
X47090043Y-16394811D02*
G01*
X47091945Y-16396084D01*
X47096164Y-16399085D01*
X47100263Y-16402181D01*
X47087150Y-16393431D01*
X47090043Y-16394811D01*
G37*
G04 #@! TD.AperFunction*
G04 #@! TA.AperFunction,EtchedComponent*
G36*
X44791182Y-16981120D02*
G01*
X44791167Y-16981415D01*
X44791156Y-16981699D01*
X44791153Y-16981120D01*
X44791156Y-16980448D01*
X44791218Y-16980448D01*
X44791182Y-16981120D01*
G37*
G04 #@! TD.AperFunction*
G04 #@! TA.AperFunction,EtchedComponent*
G36*
X46673444Y-21730650D02*
G01*
X46674070Y-21732940D01*
X46674639Y-21735256D01*
X46675150Y-21737589D01*
X46675605Y-21739931D01*
X46672841Y-21728663D01*
X46673444Y-21730650D01*
G37*
G04 #@! TD.AperFunction*
G04 #@! TA.AperFunction,EtchedComponent*
G36*
X46689336Y-21816030D02*
G01*
X46689342Y-21816355D01*
X46689338Y-21816657D01*
X46689323Y-21816933D01*
X46689293Y-21817182D01*
X46689322Y-21815755D01*
X46689336Y-21816030D01*
G37*
G04 #@! TD.AperFunction*
G04 #@! TA.AperFunction,EtchedComponent*
G36*
X38371058Y-17787280D02*
G01*
X38371064Y-17787556D01*
X38371036Y-17788535D01*
X38371025Y-17787196D01*
X38371032Y-17787067D01*
X38371045Y-17786734D01*
X38371049Y-17786518D01*
X38371058Y-17787280D01*
G37*
G04 #@! TD.AperFunction*
G04 #@! TA.AperFunction,EtchedComponent*
G36*
X43374318Y-19333077D02*
G01*
X43373973Y-19334619D01*
X43373994Y-19334494D01*
X43374028Y-19334319D01*
X43374112Y-19333901D01*
X43374223Y-19333369D01*
X43374441Y-19332558D01*
X43374318Y-19333077D01*
G37*
G04 #@! TD.AperFunction*
G04 #@! TA.AperFunction,EtchedComponent*
G36*
X46932235Y-18996072D02*
G01*
X46932286Y-18996110D01*
X46932294Y-18996118D01*
X46932291Y-18996120D01*
X46932289Y-18996120D01*
X46932243Y-18996085D01*
X46931963Y-18995893D01*
X46932235Y-18996072D01*
G37*
G04 #@! TD.AperFunction*
G04 #@! TA.AperFunction,EtchedComponent*
G36*
X38361095Y-18158403D02*
G01*
X38361266Y-18160056D01*
X38361409Y-18161686D01*
X38361523Y-18163323D01*
X38361606Y-18164993D01*
X38361657Y-18166725D01*
X38361661Y-18167127D01*
X38360705Y-18155167D01*
X38361095Y-18158403D01*
G37*
G04 #@! TD.AperFunction*
G04 #@! TA.AperFunction,EtchedComponent*
G36*
X41055298Y-18478162D02*
G01*
X41055287Y-18479100D01*
X41055255Y-18480037D01*
X41055206Y-18480975D01*
X41055142Y-18481912D01*
X41054982Y-18483787D01*
X41054799Y-18485662D01*
X41055298Y-18476912D01*
X41055298Y-18478162D01*
G37*
G04 #@! TD.AperFunction*
G04 #@! TA.AperFunction,EtchedComponent*
G36*
X46689438Y-21805251D02*
G01*
X46689155Y-21809808D01*
X46689150Y-21809325D01*
X46689160Y-21808816D01*
X46689217Y-21807737D01*
X46689309Y-21806599D01*
X46689416Y-21805432D01*
X46689442Y-21805139D01*
X46689438Y-21805251D01*
G37*
G04 #@! TD.AperFunction*
G04 #@! TA.AperFunction,EtchedComponent*
G36*
X46999649Y-16369868D02*
G01*
X47001373Y-16369645D01*
X47003109Y-16369447D01*
X47004854Y-16369274D01*
X47006606Y-16369129D01*
X47008360Y-16369014D01*
X47010112Y-16368931D01*
X47011458Y-16368893D01*
X46999649Y-16369868D01*
G37*
G04 #@! TD.AperFunction*
G04 #@! TA.AperFunction,EtchedComponent*
G36*
X40433441Y-20014238D02*
G01*
X40433566Y-20014277D01*
X40433682Y-20014312D01*
X40433790Y-20014343D01*
X40433991Y-20014396D01*
X40434181Y-20014444D01*
X40435112Y-20014899D01*
X40435582Y-20015116D01*
X40433306Y-20014194D01*
X40433441Y-20014238D01*
G37*
G04 #@! TD.AperFunction*
G04 #@! TA.AperFunction,EtchedComponent*
G36*
X45397360Y-20291953D02*
G01*
X45397363Y-20292532D01*
X45397360Y-20293204D01*
X45396985Y-20292141D01*
X45396891Y-20291846D01*
X45396844Y-20291686D01*
X45396797Y-20291516D01*
X45396750Y-20291334D01*
X45396720Y-20291207D01*
X45397360Y-20291953D01*
G37*
G04 #@! TD.AperFunction*
G04 #@! TA.AperFunction,EtchedComponent*
G36*
X46689346Y-21814649D02*
G01*
X46689322Y-21815755D01*
X46689301Y-21815314D01*
X46689247Y-21814526D01*
X46689191Y-21813679D01*
X46689147Y-21812788D01*
X46689130Y-21811867D01*
X46689136Y-21811400D01*
X46689155Y-21810932D01*
X46689346Y-21814649D01*
G37*
G04 #@! TD.AperFunction*
G04 #@! TA.AperFunction,EtchedComponent*
G36*
X46878298Y-18943538D02*
G01*
X46878438Y-18943798D01*
X46878570Y-18944058D01*
X46878700Y-18944329D01*
X46878764Y-18944473D01*
X46878829Y-18944624D01*
X46878895Y-18944784D01*
X46878901Y-18944800D01*
X46878150Y-18943267D01*
X46878298Y-18943538D01*
G37*
G04 #@! TD.AperFunction*
G04 #@! TA.AperFunction,EtchedComponent*
G36*
X38370989Y-17782866D02*
G01*
X38371025Y-17787196D01*
X38370989Y-17787909D01*
X38370924Y-17789019D01*
X38370962Y-17788079D01*
X38370985Y-17787124D01*
X38370995Y-17786140D01*
X38370994Y-17785112D01*
X38370968Y-17782866D01*
X38370924Y-17780269D01*
X38370989Y-17782866D01*
G37*
G04 #@! TD.AperFunction*
G04 #@! TA.AperFunction,EtchedComponent*
G36*
X38371049Y-17790018D02*
G01*
X38371049Y-17790268D01*
X38371033Y-17790844D01*
X38370988Y-17791596D01*
X38370846Y-17793393D01*
X38370595Y-17796040D01*
X38370670Y-17794753D01*
X38370924Y-17790893D01*
X38371026Y-17788899D01*
X38371036Y-17788535D01*
X38371049Y-17790018D01*
G37*
G04 #@! TD.AperFunction*
G04 #@! TA.AperFunction,EtchedComponent*
G36*
X46931663Y-18995753D02*
G01*
X46931717Y-18995777D01*
X46931747Y-18995792D01*
X46931720Y-18995781D01*
X46931701Y-18995773D01*
X46931688Y-18995768D01*
X46931778Y-18995835D01*
X46931687Y-18995778D01*
X46931656Y-18995756D01*
X46931654Y-18995752D01*
X46931663Y-18995753D01*
G37*
G04 #@! TD.AperFunction*
G04 #@! TA.AperFunction,EtchedComponent*
G36*
X44835174Y-16896548D02*
G01*
X44837052Y-16894673D01*
X44838955Y-16892798D01*
X44840904Y-16890923D01*
X44841904Y-16889985D01*
X44842924Y-16889048D01*
X44843372Y-16888593D01*
X44843826Y-16888164D01*
X44843869Y-16888125D01*
X44845789Y-16886555D01*
X44845795Y-16886551D01*
X44835174Y-16896548D01*
G37*
G04 #@! TD.AperFunction*
G04 #@! TA.AperFunction,EtchedComponent*
G36*
X46880071Y-18947189D02*
G01*
X46880071Y-18947213D01*
X46880041Y-18947181D01*
X46879919Y-18947001D01*
X46879745Y-18946690D01*
X46879249Y-18945767D01*
X46879174Y-18945541D01*
X46879101Y-18945331D01*
X46879030Y-18945136D01*
X46878962Y-18944954D01*
X46878901Y-18944800D01*
X46880071Y-18947189D01*
G37*
G04 #@! TD.AperFunction*
G04 #@! TA.AperFunction,EtchedComponent*
G36*
X46931766Y-18995799D02*
G01*
X46931788Y-18995808D01*
X46931798Y-18995812D01*
X46931807Y-18995817D01*
X46931815Y-18995821D01*
X46931820Y-18995824D01*
X46931822Y-18995826D01*
X46931824Y-18995827D01*
X46931825Y-18995829D01*
X46931825Y-18995830D01*
X46931747Y-18995792D01*
X46931766Y-18995799D01*
G37*
G04 #@! TD.AperFunction*
G04 #@! TA.AperFunction,EtchedComponent*
G36*
X39418437Y-17509554D02*
G01*
X39418438Y-17510179D01*
X39418437Y-17510804D01*
X39417937Y-17511803D01*
X39418025Y-17511532D01*
X39418103Y-17511272D01*
X39418172Y-17511012D01*
X39418204Y-17510879D01*
X39418234Y-17510741D01*
X39418263Y-17510597D01*
X39418290Y-17510446D01*
X39418341Y-17510116D01*
X39418390Y-17509739D01*
X39418437Y-17509303D01*
X39418437Y-17509554D01*
G37*
G04 #@! TD.AperFunction*
G04 #@! TA.AperFunction,EtchedComponent*
G36*
X46262454Y-18553162D02*
G01*
X46262136Y-18552225D01*
X46261832Y-18551287D01*
X46261229Y-18549412D01*
X46261201Y-18549408D01*
X46261174Y-18549395D01*
X46261147Y-18549374D01*
X46261121Y-18549346D01*
X46261070Y-18549267D01*
X46261020Y-18549162D01*
X46260972Y-18549034D01*
X46260925Y-18548885D01*
X46260832Y-18548537D01*
X46260649Y-18547725D01*
X46260554Y-18547307D01*
X46260454Y-18546912D01*
X46262454Y-18553162D01*
G37*
G04 #@! TD.AperFunction*
G04 #@! TA.AperFunction,EtchedComponent*
G36*
X41571931Y-20288679D02*
G01*
X41571678Y-20290723D01*
X41571381Y-20292757D01*
X41571041Y-20294778D01*
X41570657Y-20296788D01*
X41570231Y-20298786D01*
X41569762Y-20300772D01*
X41569250Y-20302747D01*
X41568695Y-20304710D01*
X41568098Y-20306661D01*
X41567460Y-20308600D01*
X41566779Y-20310528D01*
X41566056Y-20312444D01*
X41565292Y-20314348D01*
X41564487Y-20316241D01*
X41563784Y-20317804D01*
X41572141Y-20286622D01*
X41571931Y-20288679D01*
G37*
G04 #@! TD.AperFunction*
G04 #@! TA.AperFunction,EtchedComponent*
G36*
X45619676Y-21597774D02*
G01*
X45621868Y-21598825D01*
X45624741Y-21600328D01*
X45628182Y-21602300D01*
X45630080Y-21603467D01*
X45632079Y-21604758D01*
X45634163Y-21606175D01*
X45636318Y-21607720D01*
X45638531Y-21609396D01*
X45640788Y-21611204D01*
X45638151Y-21609166D01*
X45635445Y-21607184D01*
X45632670Y-21605266D01*
X45629827Y-21603422D01*
X45626916Y-21601660D01*
X45623939Y-21599988D01*
X45620896Y-21598417D01*
X45619350Y-21597671D01*
X45617788Y-21596953D01*
X45619676Y-21597774D01*
G37*
G04 #@! TD.AperFunction*
G04 #@! TA.AperFunction,EtchedComponent*
G36*
X42085607Y-18244035D02*
G01*
X42087325Y-18244396D01*
X42089015Y-18244814D01*
X42090685Y-18245276D01*
X42092341Y-18245769D01*
X42095644Y-18246794D01*
X42097305Y-18247300D01*
X42098772Y-18247724D01*
X42098988Y-18248210D01*
X42099207Y-18248284D01*
X42102357Y-18255285D01*
X42100940Y-18254142D01*
X42099503Y-18253053D01*
X42098046Y-18252017D01*
X42096570Y-18251029D01*
X42095074Y-18250085D01*
X42093561Y-18249183D01*
X42092030Y-18248318D01*
X42090482Y-18247488D01*
X42087338Y-18245916D01*
X42084132Y-18244439D01*
X42080870Y-18243030D01*
X42077557Y-18241660D01*
X42085607Y-18244035D01*
G37*
G04 #@! TD.AperFunction*
G04 #@! TA.AperFunction,EtchedComponent*
G36*
X38687939Y-17869875D02*
G01*
X38687961Y-17869883D01*
X38687981Y-17869892D01*
X38687999Y-17869903D01*
X38688016Y-17869914D01*
X38688032Y-17869927D01*
X38688046Y-17869941D01*
X38688059Y-17869955D01*
X38688071Y-17869971D01*
X38688082Y-17869987D01*
X38688091Y-17870004D01*
X38688099Y-17870021D01*
X38688106Y-17870039D01*
X38688112Y-17870057D01*
X38688116Y-17870076D01*
X38688120Y-17870095D01*
X38688122Y-17870114D01*
X38688123Y-17870133D01*
X38688124Y-17870153D01*
X38688123Y-17870172D01*
X38688121Y-17870191D01*
X38688118Y-17870210D01*
X38688115Y-17870228D01*
X38688110Y-17870246D01*
X38688104Y-17870264D01*
X38688098Y-17870281D01*
X38688091Y-17870298D01*
X38688082Y-17870314D01*
X38688073Y-17870329D01*
X38688064Y-17870343D01*
X38688053Y-17870356D01*
X38688042Y-17870369D01*
X38688029Y-17870380D01*
X38688012Y-17870390D01*
X38687994Y-17870399D01*
X38687972Y-17870408D01*
X38687921Y-17870424D01*
X38687860Y-17870438D01*
X38687526Y-17870501D01*
X38687423Y-17870524D01*
X38687313Y-17870551D01*
X38687197Y-17870584D01*
X38687075Y-17870624D01*
X38686948Y-17870671D01*
X38686883Y-17870698D01*
X38686816Y-17870727D01*
X38686749Y-17870758D01*
X38686681Y-17870792D01*
X38686612Y-17870829D01*
X38686542Y-17870869D01*
X38686678Y-17870713D01*
X38686806Y-17870575D01*
X38686926Y-17870452D01*
X38687038Y-17870343D01*
X38687143Y-17870249D01*
X38687241Y-17870168D01*
X38687332Y-17870099D01*
X38687417Y-17870041D01*
X38687496Y-17869993D01*
X38687570Y-17869954D01*
X38687638Y-17869924D01*
X38687702Y-17869902D01*
X38687761Y-17869886D01*
X38687817Y-17869876D01*
X38687868Y-17869870D01*
X38687917Y-17869869D01*
X38687917Y-17869868D01*
X38687939Y-17869875D01*
G37*
G04 #@! TD.AperFunction*
D11*
X21700000Y-15860000D03*
D12*
X21700000Y-18400000D03*
X19160000Y-15860000D03*
X19160000Y-18400000D03*
X16620000Y-15860000D03*
X16620000Y-18400000D03*
X14080000Y-15860000D03*
X14080000Y-18400000D03*
D11*
X50225000Y-38400000D03*
D12*
X52765000Y-38400000D03*
D11*
X30425000Y-14000000D03*
D12*
X32965000Y-14000000D03*
D11*
X60000000Y-31380000D03*
D12*
X60000000Y-33920000D03*
X60000000Y-36460000D03*
X60000000Y-39000000D03*
D11*
X60000000Y-22100000D03*
D12*
X60000000Y-19560000D03*
X60000000Y-17020000D03*
X60000000Y-14480000D03*
D13*
X45100000Y-38400000D03*
X40400000Y-35600000D03*
X50600000Y-23100000D03*
X30000000Y-35200000D03*
X30900000Y-22100000D03*
X30100000Y-22100000D03*
X50600000Y-24000000D03*
X41500000Y-34600000D03*
X38300000Y-14000000D03*
X49500000Y-21200000D03*
X42600000Y-28400000D03*
X43400000Y-27600000D03*
X43400000Y-28400000D03*
X43400000Y-26800000D03*
X29200000Y-35200000D03*
X43400000Y-29200000D03*
X28500000Y-22100000D03*
X34800000Y-37700000D03*
X44200000Y-28400000D03*
X38300000Y-15100000D03*
X45900000Y-37600000D03*
X40300000Y-14000000D03*
X45000000Y-26800000D03*
X45000000Y-28400000D03*
X36500000Y-38700000D03*
X42600000Y-26800000D03*
X45000000Y-27600000D03*
X41000000Y-35100000D03*
X50600000Y-22100000D03*
X42600000Y-29200000D03*
X28400000Y-35200000D03*
X39300000Y-14000000D03*
X44200000Y-26800000D03*
X42600000Y-27600000D03*
X50600000Y-21200000D03*
X44200000Y-29200000D03*
X40300000Y-38400000D03*
X45000000Y-29200000D03*
X44200000Y-27600000D03*
X22800000Y-34500000D03*
X40300000Y-15000000D03*
X29300000Y-22100000D03*
X40300000Y-39200000D03*
X34800000Y-38500000D03*
X34800000Y-34000000D03*
X43500000Y-35600000D03*
X48540000Y-20900000D03*
X39100000Y-24300000D03*
X42600000Y-20900000D03*
X22800000Y-29700000D03*
X49900000Y-28400000D03*
X55400000Y-26900000D03*
X23400000Y-26100000D03*
X50600000Y-28000000D03*
X23500000Y-29200000D03*
X49900000Y-31300000D03*
X27500000Y-33300000D03*
X47300000Y-36200000D03*
X21600000Y-34300000D03*
X22100000Y-25000000D03*
X56000000Y-25400000D03*
X52000000Y-27200000D03*
X17400000Y-29200000D03*
X52000000Y-29900000D03*
X22100000Y-30100000D03*
X55800000Y-26200000D03*
X22800000Y-25500000D03*
X51300000Y-27600000D03*
X18300100Y-29200000D03*
X52700100Y-26800100D03*
X16500000Y-29200000D03*
X17599800Y-30399900D03*
X50600000Y-30800000D03*
X22800000Y-33600000D03*
X22800000Y-32800000D03*
X21600000Y-32100000D03*
X35400000Y-35200000D03*
X16899800Y-29999900D03*
X51300000Y-30400000D03*
X46700000Y-33600000D03*
X18299800Y-30799900D03*
X46000000Y-35600000D03*
X46000000Y-34700000D03*
D14*
X41900000Y-34000000D02*
X43500000Y-35600000D01*
X48540000Y-20900000D02*
X42600000Y-20900000D01*
X39100000Y-21600000D02*
X39800000Y-20900000D01*
X34800000Y-34000000D02*
X41900000Y-34000000D01*
X39100000Y-24300000D02*
X39100000Y-21600000D01*
X39800000Y-20900000D02*
X42600000Y-20900000D01*
X49667157Y-28632843D02*
X49900000Y-28400000D01*
X49332843Y-28632843D02*
X49667157Y-28632843D01*
X26337256Y-31400000D02*
X46565686Y-31400000D01*
X22900000Y-29800000D02*
X24737256Y-29800000D01*
X46565686Y-31400000D02*
X49332843Y-28632843D01*
X22800000Y-29700000D02*
X22900000Y-29800000D01*
X24737256Y-29800000D02*
X26337256Y-31400000D01*
X23800000Y-25700000D02*
X23400000Y-26100000D01*
X55400000Y-26900000D02*
X54200000Y-25700000D01*
X54200000Y-25700000D02*
X23800000Y-25700000D01*
X23500000Y-29200000D02*
X24702942Y-29200000D01*
X49548529Y-27851471D02*
X49548529Y-27848529D01*
X49548529Y-27848529D02*
X49597058Y-27800000D01*
X24702942Y-29200000D02*
X26502942Y-31000000D01*
X26502942Y-31000000D02*
X46400000Y-31000000D01*
X46400000Y-31000000D02*
X49548529Y-27851471D01*
X50400000Y-27800000D02*
X50600000Y-28000000D01*
X49597058Y-27800000D02*
X50400000Y-27800000D01*
X48997058Y-31300000D02*
X49900000Y-31300000D01*
X28000000Y-33300000D02*
X28300000Y-33000000D01*
X28300000Y-33000000D02*
X47297058Y-33000000D01*
X47297058Y-33000000D02*
X48997058Y-31300000D01*
X27500000Y-33300000D02*
X28000000Y-33300000D01*
X46700000Y-36800000D02*
X23200000Y-36800000D01*
X23200000Y-36800000D02*
X21600000Y-35200000D01*
X21600000Y-35200000D02*
X21600000Y-34300000D01*
X47300000Y-36200000D02*
X46700000Y-36800000D01*
X55500000Y-24900000D02*
X22200000Y-24900000D01*
X56000000Y-25400000D02*
X55500000Y-24900000D01*
X22200000Y-24900000D02*
X22100000Y-25000000D01*
X17400000Y-29200000D02*
X18400000Y-28200000D01*
X24834314Y-28200000D02*
X26834314Y-30200000D01*
X26834314Y-30200000D02*
X46065686Y-30200000D01*
X49265686Y-27000000D02*
X51800000Y-27000000D01*
X46065686Y-30200000D02*
X49265686Y-27000000D01*
X18400000Y-28200000D02*
X24834314Y-28200000D01*
X51800000Y-27000000D02*
X52000000Y-27200000D01*
X22300000Y-30300000D02*
X22100000Y-30100000D01*
X51500000Y-29400000D02*
X49200000Y-29400000D01*
X26171570Y-31800000D02*
X24671570Y-30300000D01*
X24671570Y-30300000D02*
X22300000Y-30300000D01*
X46800000Y-31800000D02*
X26171570Y-31800000D01*
X49200000Y-29400000D02*
X46800000Y-31800000D01*
X52000000Y-29900000D02*
X51500000Y-29400000D01*
X23000000Y-25300000D02*
X22800000Y-25500000D01*
X54900000Y-25300000D02*
X23000000Y-25300000D01*
X55800000Y-26200000D02*
X54900000Y-25300000D01*
X24668628Y-28600000D02*
X26668628Y-30600000D01*
X19500000Y-29200000D02*
X20100000Y-28600000D01*
X51300000Y-27600000D02*
X51100000Y-27400000D01*
X49431372Y-27400000D02*
X46231372Y-30600000D01*
X51100000Y-27400000D02*
X49431372Y-27400000D01*
X46231372Y-30600000D02*
X26668628Y-30600000D01*
X20100000Y-28600000D02*
X24668628Y-28600000D01*
X18300100Y-29200000D02*
X19500000Y-29200000D01*
X17900000Y-27800000D02*
X25000000Y-27800000D01*
X16500000Y-29200000D02*
X17900000Y-27800000D01*
X49100000Y-26600000D02*
X52500000Y-26600000D01*
X45900000Y-29800000D02*
X49100000Y-26600000D01*
X52500000Y-26600000D02*
X52700100Y-26800100D01*
X25000000Y-27800000D02*
X27000000Y-29800000D01*
X27000000Y-29800000D02*
X45900000Y-29800000D01*
X25834314Y-32600000D02*
X47131372Y-32600000D01*
X17599800Y-30399900D02*
X17600100Y-30399900D01*
X21600000Y-31100000D02*
X24334314Y-31100000D01*
X17800000Y-30200000D02*
X20700000Y-30200000D01*
X24334314Y-31100000D02*
X25834314Y-32600000D01*
X49531372Y-30200000D02*
X50000000Y-30200000D01*
X20700000Y-30200000D02*
X21600000Y-31100000D01*
X17600100Y-30399900D02*
X17800000Y-30200000D01*
X47131372Y-32600000D02*
X49531372Y-30200000D01*
X50000000Y-30200000D02*
X50600000Y-30800000D01*
X15500000Y-31265686D02*
X15500000Y-28700000D01*
X18000000Y-17020000D02*
X19160000Y-15860000D01*
X18000000Y-26200000D02*
X18000000Y-17020000D01*
X19800000Y-31799900D02*
X16034214Y-31799900D01*
X22800000Y-33600000D02*
X21600000Y-33600000D01*
X21600000Y-33600000D02*
X19800000Y-31800000D01*
X19800000Y-31800000D02*
X19800000Y-31799900D01*
X16034214Y-31799900D02*
X15500000Y-31265686D01*
X15500000Y-28700000D02*
X18000000Y-26200000D01*
X19999900Y-31399900D02*
X21400000Y-32800000D01*
X15900000Y-28900000D02*
X15900000Y-31100000D01*
X15900000Y-31100000D02*
X16199900Y-31399900D01*
X21400000Y-32800000D02*
X22800000Y-32800000D01*
X16199900Y-31399900D02*
X19999900Y-31399900D01*
X19160000Y-18400000D02*
X19160000Y-25640000D01*
X19160000Y-25640000D02*
X15900000Y-28900000D01*
X34800000Y-35800000D02*
X35400000Y-35200000D01*
X21600000Y-32100000D02*
X23000000Y-32100000D01*
X23000000Y-32100000D02*
X23400000Y-32500000D01*
X23400000Y-35300000D02*
X23900000Y-35800000D01*
X23400000Y-32500000D02*
X23400000Y-35300000D01*
X23900000Y-35800000D02*
X34800000Y-35800000D01*
X50700000Y-29800000D02*
X49365686Y-29800000D01*
X20900000Y-29800000D02*
X17099700Y-29800000D01*
X26000000Y-32200000D02*
X24500000Y-30700000D01*
X21800000Y-30700000D02*
X20900000Y-29800000D01*
X49365686Y-29800000D02*
X46965686Y-32200000D01*
X24500000Y-30700000D02*
X21800000Y-30700000D01*
X46965686Y-32200000D02*
X26000000Y-32200000D01*
X17099700Y-29800000D02*
X16899800Y-29999900D01*
X51300000Y-30400000D02*
X50700000Y-29800000D01*
X21434314Y-31500000D02*
X20534314Y-30600000D01*
X24168628Y-31500000D02*
X21434314Y-31500000D01*
X18300100Y-30799900D02*
X18299800Y-30799900D01*
X28000000Y-33900000D02*
X26568628Y-33900000D01*
X46700000Y-33600000D02*
X46500000Y-33400000D01*
X26568628Y-33900000D02*
X24168628Y-31500000D01*
X28500000Y-33400000D02*
X28000000Y-33900000D01*
X20534314Y-30600000D02*
X18500000Y-30600000D01*
X18500000Y-30600000D02*
X18300100Y-30799900D01*
X46500000Y-33400000D02*
X28500000Y-33400000D01*
X46000000Y-35600000D02*
X59140000Y-35600000D01*
X59140000Y-35600000D02*
X60000000Y-36460000D01*
X59220000Y-34700000D02*
X60000000Y-33920000D01*
X46000000Y-34700000D02*
X59220000Y-34700000D01*
G04 #@! TA.AperFunction,Conductor*
G36*
X60905512Y-12701121D02*
G01*
X61000073Y-12711775D01*
X61021669Y-12716705D01*
X61106202Y-12746283D01*
X61126168Y-12755899D01*
X61164079Y-12779720D01*
X61201987Y-12803540D01*
X61219319Y-12817361D01*
X61282638Y-12880680D01*
X61296459Y-12898012D01*
X61344098Y-12973828D01*
X61353717Y-12993801D01*
X61357793Y-13005448D01*
X61383293Y-13078326D01*
X61388225Y-13099938D01*
X61398877Y-13194470D01*
X61399500Y-13205555D01*
X61399500Y-39994444D01*
X61398877Y-40005529D01*
X61388225Y-40100061D01*
X61383293Y-40121673D01*
X61353718Y-40206196D01*
X61344098Y-40226171D01*
X61296459Y-40301987D01*
X61282638Y-40319319D01*
X61219319Y-40382638D01*
X61201987Y-40396459D01*
X61126171Y-40444098D01*
X61106196Y-40453718D01*
X61021673Y-40483293D01*
X61000061Y-40488225D01*
X60905529Y-40498877D01*
X60894444Y-40499500D01*
X13205556Y-40499500D01*
X13194471Y-40498877D01*
X13099938Y-40488225D01*
X13078326Y-40483293D01*
X12993803Y-40453718D01*
X12973828Y-40444098D01*
X12898012Y-40396459D01*
X12880680Y-40382638D01*
X12817361Y-40319319D01*
X12803540Y-40301987D01*
X12755901Y-40226171D01*
X12746283Y-40206202D01*
X12716705Y-40121669D01*
X12711775Y-40100073D01*
X12701121Y-40005512D01*
X12700500Y-39994444D01*
X12700500Y-37530253D01*
X49174500Y-37530253D01*
X49174500Y-39269746D01*
X49174501Y-39269758D01*
X49186132Y-39328227D01*
X49186134Y-39328233D01*
X49217228Y-39374767D01*
X49230448Y-39394552D01*
X49296769Y-39438867D01*
X49341231Y-39447711D01*
X49355241Y-39450498D01*
X49355246Y-39450498D01*
X49355252Y-39450500D01*
X49355253Y-39450500D01*
X51094747Y-39450500D01*
X51094748Y-39450500D01*
X51153231Y-39438867D01*
X51219552Y-39394552D01*
X51263867Y-39328231D01*
X51275500Y-39269748D01*
X51275500Y-38249998D01*
X51724692Y-38249998D01*
X51724694Y-38250000D01*
X52287555Y-38250000D01*
X52265000Y-38334174D01*
X52265000Y-38465826D01*
X52287555Y-38550000D01*
X51724694Y-38550000D01*
X51724692Y-38550001D01*
X51730191Y-38605833D01*
X51730190Y-38605833D01*
X51790232Y-38803762D01*
X51790234Y-38803767D01*
X51887724Y-38986160D01*
X51887731Y-38986170D01*
X52018940Y-39146050D01*
X52018949Y-39146059D01*
X52178829Y-39277268D01*
X52178839Y-39277275D01*
X52361232Y-39374765D01*
X52361237Y-39374767D01*
X52559166Y-39434808D01*
X52614998Y-39440307D01*
X52615000Y-39440306D01*
X52615000Y-38877445D01*
X52699174Y-38900000D01*
X52830826Y-38900000D01*
X52915000Y-38877445D01*
X52915000Y-39440306D01*
X52915001Y-39440307D01*
X52970833Y-39434808D01*
X53168762Y-39374767D01*
X53168767Y-39374765D01*
X53351160Y-39277275D01*
X53351170Y-39277268D01*
X53511050Y-39146059D01*
X53511059Y-39146050D01*
X53642268Y-38986170D01*
X53642275Y-38986160D01*
X53715054Y-38849998D01*
X58959692Y-38849998D01*
X58959694Y-38850000D01*
X59522555Y-38850000D01*
X59500000Y-38934174D01*
X59500000Y-39065826D01*
X59522555Y-39150000D01*
X58959694Y-39150000D01*
X58959692Y-39150001D01*
X58965191Y-39205833D01*
X58965190Y-39205833D01*
X59025232Y-39403762D01*
X59025234Y-39403767D01*
X59122724Y-39586160D01*
X59122731Y-39586170D01*
X59253940Y-39746050D01*
X59253949Y-39746059D01*
X59413829Y-39877268D01*
X59413839Y-39877275D01*
X59596232Y-39974765D01*
X59596237Y-39974767D01*
X59794166Y-40034808D01*
X59849998Y-40040307D01*
X59850000Y-40040306D01*
X59850000Y-39477445D01*
X59934174Y-39500000D01*
X60065826Y-39500000D01*
X60150000Y-39477445D01*
X60150000Y-40040306D01*
X60150001Y-40040307D01*
X60205833Y-40034808D01*
X60403762Y-39974767D01*
X60403767Y-39974765D01*
X60586160Y-39877275D01*
X60586170Y-39877268D01*
X60746050Y-39746059D01*
X60746059Y-39746050D01*
X60877268Y-39586170D01*
X60877275Y-39586160D01*
X60974765Y-39403767D01*
X60974767Y-39403762D01*
X61034808Y-39205833D01*
X61040307Y-39150001D01*
X61040306Y-39150000D01*
X60477445Y-39150000D01*
X60500000Y-39065826D01*
X60500000Y-38934174D01*
X60477445Y-38850000D01*
X61040306Y-38850000D01*
X61040307Y-38849998D01*
X61034808Y-38794166D01*
X61034809Y-38794166D01*
X60974767Y-38596237D01*
X60974765Y-38596232D01*
X60877275Y-38413839D01*
X60877268Y-38413829D01*
X60746059Y-38253949D01*
X60746050Y-38253940D01*
X60586170Y-38122731D01*
X60586160Y-38122724D01*
X60403767Y-38025234D01*
X60403762Y-38025232D01*
X60205843Y-37965194D01*
X60205832Y-37965191D01*
X60150000Y-37959692D01*
X60150000Y-38522554D01*
X60065826Y-38500000D01*
X59934174Y-38500000D01*
X59850000Y-38522554D01*
X59850000Y-37959692D01*
X59794167Y-37965191D01*
X59794156Y-37965194D01*
X59596237Y-38025232D01*
X59596232Y-38025234D01*
X59413839Y-38122724D01*
X59413829Y-38122731D01*
X59253949Y-38253940D01*
X59253940Y-38253949D01*
X59122731Y-38413829D01*
X59122724Y-38413839D01*
X59025234Y-38596232D01*
X59025232Y-38596237D01*
X58965191Y-38794166D01*
X58959692Y-38849998D01*
X53715054Y-38849998D01*
X53739765Y-38803767D01*
X53739767Y-38803762D01*
X53799808Y-38605833D01*
X53805307Y-38550001D01*
X53805306Y-38550000D01*
X53242445Y-38550000D01*
X53265000Y-38465826D01*
X53265000Y-38334174D01*
X53242445Y-38250000D01*
X53805306Y-38250000D01*
X53805307Y-38249998D01*
X53799808Y-38194166D01*
X53799809Y-38194166D01*
X53739767Y-37996237D01*
X53739765Y-37996232D01*
X53642275Y-37813839D01*
X53642268Y-37813829D01*
X53511059Y-37653949D01*
X53511050Y-37653940D01*
X53351170Y-37522731D01*
X53351160Y-37522724D01*
X53168767Y-37425234D01*
X53168762Y-37425232D01*
X52970843Y-37365194D01*
X52970832Y-37365191D01*
X52915000Y-37359692D01*
X52915000Y-37922554D01*
X52830826Y-37900000D01*
X52699174Y-37900000D01*
X52615000Y-37922554D01*
X52615000Y-37359692D01*
X52559167Y-37365191D01*
X52559156Y-37365194D01*
X52361237Y-37425232D01*
X52361232Y-37425234D01*
X52178839Y-37522724D01*
X52178829Y-37522731D01*
X52018949Y-37653940D01*
X52018940Y-37653949D01*
X51887731Y-37813829D01*
X51887724Y-37813839D01*
X51790234Y-37996232D01*
X51790232Y-37996237D01*
X51730191Y-38194166D01*
X51724692Y-38249998D01*
X51275500Y-38249998D01*
X51275500Y-37530252D01*
X51263867Y-37471769D01*
X51219552Y-37405448D01*
X51159309Y-37365194D01*
X51153233Y-37361134D01*
X51153231Y-37361133D01*
X51153228Y-37361132D01*
X51153227Y-37361132D01*
X51094758Y-37349501D01*
X51094748Y-37349500D01*
X49355252Y-37349500D01*
X49355251Y-37349500D01*
X49355241Y-37349501D01*
X49296772Y-37361132D01*
X49296766Y-37361134D01*
X49230451Y-37405445D01*
X49230445Y-37405451D01*
X49186134Y-37471766D01*
X49186132Y-37471772D01*
X49174501Y-37530241D01*
X49174500Y-37530253D01*
X12700500Y-37530253D01*
X12700500Y-28660435D01*
X15199500Y-28660435D01*
X15199500Y-28660438D01*
X15199500Y-31305248D01*
X15219979Y-31381675D01*
X15230848Y-31400500D01*
X15259540Y-31450197D01*
X15849703Y-32040360D01*
X15849705Y-32040361D01*
X15849707Y-32040363D01*
X15918222Y-32079920D01*
X15918220Y-32079920D01*
X15918224Y-32079921D01*
X15918226Y-32079922D01*
X15994652Y-32100400D01*
X16073776Y-32100400D01*
X19634421Y-32100400D01*
X19692612Y-32119307D01*
X19704425Y-32129396D01*
X21318375Y-33743346D01*
X21346152Y-33797863D01*
X21336581Y-33858295D01*
X21301896Y-33896633D01*
X21268873Y-33917856D01*
X21268872Y-33917856D01*
X21268872Y-33917857D01*
X21221747Y-33972242D01*
X21174622Y-34026628D01*
X21114834Y-34157543D01*
X21094353Y-34299997D01*
X21094353Y-34300002D01*
X21114834Y-34442456D01*
X21144060Y-34506450D01*
X21174623Y-34573373D01*
X21255239Y-34666410D01*
X21273509Y-34687494D01*
X21271471Y-34689259D01*
X21296925Y-34731458D01*
X21299500Y-34753893D01*
X21299500Y-35239564D01*
X21319977Y-35315985D01*
X21319979Y-35315990D01*
X21345121Y-35359538D01*
X21359538Y-35384508D01*
X21359540Y-35384511D01*
X23015489Y-37040460D01*
X23015491Y-37040461D01*
X23015493Y-37040463D01*
X23084008Y-37080020D01*
X23084006Y-37080020D01*
X23084010Y-37080021D01*
X23084012Y-37080022D01*
X23160438Y-37100500D01*
X23160440Y-37100500D01*
X46739563Y-37100500D01*
X46739563Y-37100499D01*
X46815989Y-37080021D01*
X46884511Y-37040460D01*
X46912485Y-37012485D01*
X46940461Y-36984511D01*
X47195473Y-36729497D01*
X47249990Y-36701719D01*
X47265477Y-36700500D01*
X47371959Y-36700500D01*
X47371961Y-36700500D01*
X47510053Y-36659953D01*
X47631128Y-36582143D01*
X47725377Y-36473373D01*
X47785165Y-36342457D01*
X47805647Y-36200000D01*
X47805646Y-36199996D01*
X47785165Y-36057543D01*
X47777440Y-36040627D01*
X47770465Y-35979840D01*
X47800551Y-35926563D01*
X47856207Y-35901145D01*
X47867493Y-35900500D01*
X58942738Y-35900500D01*
X59000929Y-35919407D01*
X59036893Y-35968907D01*
X59036893Y-36030093D01*
X59030048Y-36046166D01*
X59024768Y-36056046D01*
X59024766Y-36056050D01*
X59024766Y-36056052D01*
X58964699Y-36254065D01*
X58964698Y-36254070D01*
X58944417Y-36459996D01*
X58944417Y-36460003D01*
X58964698Y-36665929D01*
X58964699Y-36665934D01*
X59024768Y-36863954D01*
X59122316Y-37046452D01*
X59166672Y-37100500D01*
X59253590Y-37206410D01*
X59253595Y-37206414D01*
X59413547Y-37337683D01*
X59413548Y-37337683D01*
X59413550Y-37337685D01*
X59596046Y-37435232D01*
X59716484Y-37471766D01*
X59794065Y-37495300D01*
X59794070Y-37495301D01*
X59999997Y-37515583D01*
X60000000Y-37515583D01*
X60000003Y-37515583D01*
X60205929Y-37495301D01*
X60205934Y-37495300D01*
X60403954Y-37435232D01*
X60586450Y-37337685D01*
X60746410Y-37206410D01*
X60877685Y-37046450D01*
X60975232Y-36863954D01*
X61035300Y-36665934D01*
X61035301Y-36665929D01*
X61055583Y-36460003D01*
X61055583Y-36459996D01*
X61035301Y-36254070D01*
X61035300Y-36254065D01*
X61017078Y-36193997D01*
X60975232Y-36056046D01*
X60877685Y-35873550D01*
X60877538Y-35873371D01*
X60746414Y-35713595D01*
X60746410Y-35713590D01*
X60730460Y-35700500D01*
X60586452Y-35582316D01*
X60403954Y-35484768D01*
X60205934Y-35424699D01*
X60205929Y-35424698D01*
X60000003Y-35404417D01*
X59999997Y-35404417D01*
X59794070Y-35424698D01*
X59794065Y-35424699D01*
X59596052Y-35484766D01*
X59596049Y-35484766D01*
X59596046Y-35484768D01*
X59596044Y-35484768D01*
X59596044Y-35484769D01*
X59565453Y-35501120D01*
X59505220Y-35511874D01*
X59450169Y-35485171D01*
X59448784Y-35483812D01*
X59324511Y-35359540D01*
X59294921Y-35342456D01*
X59294920Y-35342456D01*
X59255988Y-35319978D01*
X59179564Y-35299500D01*
X59179562Y-35299500D01*
X46447083Y-35299500D01*
X46388892Y-35280593D01*
X46372270Y-35265337D01*
X46331128Y-35217857D01*
X46331123Y-35217854D01*
X46328505Y-35214832D01*
X46304687Y-35158472D01*
X46318545Y-35098877D01*
X46328505Y-35085168D01*
X46331123Y-35082145D01*
X46331128Y-35082143D01*
X46372266Y-35034666D01*
X46424660Y-35003073D01*
X46447083Y-35000500D01*
X59259563Y-35000500D01*
X59259563Y-35000499D01*
X59335989Y-34980021D01*
X59404511Y-34940460D01*
X59448784Y-34896186D01*
X59503298Y-34868410D01*
X59563730Y-34877981D01*
X59565454Y-34878881D01*
X59596040Y-34895229D01*
X59596046Y-34895232D01*
X59733997Y-34937078D01*
X59794065Y-34955300D01*
X59794070Y-34955301D01*
X59999997Y-34975583D01*
X60000000Y-34975583D01*
X60000003Y-34975583D01*
X60205929Y-34955301D01*
X60205934Y-34955300D01*
X60403954Y-34895232D01*
X60586450Y-34797685D01*
X60746410Y-34666410D01*
X60877685Y-34506450D01*
X60975232Y-34323954D01*
X61035300Y-34125934D01*
X61035301Y-34125929D01*
X61055583Y-33920003D01*
X61055583Y-33919996D01*
X61035301Y-33714070D01*
X61035300Y-33714065D01*
X61000547Y-33599500D01*
X60975232Y-33516046D01*
X60877685Y-33333550D01*
X60872003Y-33326627D01*
X60746414Y-33173595D01*
X60746410Y-33173590D01*
X60699115Y-33134776D01*
X60586452Y-33042316D01*
X60403954Y-32944768D01*
X60205934Y-32884699D01*
X60205929Y-32884698D01*
X60000003Y-32864417D01*
X59999997Y-32864417D01*
X59794070Y-32884698D01*
X59794065Y-32884699D01*
X59596045Y-32944768D01*
X59413547Y-33042316D01*
X59253595Y-33173585D01*
X59253585Y-33173595D01*
X59122316Y-33333547D01*
X59024768Y-33516045D01*
X58964699Y-33714065D01*
X58964698Y-33714070D01*
X58944417Y-33919996D01*
X58944417Y-33920003D01*
X58964698Y-34125929D01*
X58964699Y-34125934D01*
X59008936Y-34271762D01*
X59007735Y-34332936D01*
X58970806Y-34381720D01*
X58914199Y-34399500D01*
X46447083Y-34399500D01*
X46388892Y-34380593D01*
X46372264Y-34365331D01*
X46331128Y-34317857D01*
X46298182Y-34296684D01*
X46210057Y-34240049D01*
X46210054Y-34240047D01*
X46210053Y-34240047D01*
X46210050Y-34240046D01*
X46071964Y-34199500D01*
X46071961Y-34199500D01*
X45928039Y-34199500D01*
X45928035Y-34199500D01*
X45789949Y-34240046D01*
X45789942Y-34240049D01*
X45668873Y-34317855D01*
X45574622Y-34426628D01*
X45514834Y-34557543D01*
X45494353Y-34699997D01*
X45494353Y-34700002D01*
X45514834Y-34842456D01*
X45553275Y-34926628D01*
X45574623Y-34973373D01*
X45627608Y-35034521D01*
X45671494Y-35085169D01*
X45695311Y-35141529D01*
X45681452Y-35201124D01*
X45671494Y-35214831D01*
X45574622Y-35326628D01*
X45514835Y-35457541D01*
X45494353Y-35599997D01*
X45494353Y-35600002D01*
X45514834Y-35742456D01*
X45574622Y-35873371D01*
X45574623Y-35873373D01*
X45668870Y-35982141D01*
X45668873Y-35982144D01*
X45783877Y-36056052D01*
X45789947Y-36059953D01*
X45858297Y-36080022D01*
X45928035Y-36100499D01*
X45928036Y-36100499D01*
X45928039Y-36100500D01*
X45928041Y-36100500D01*
X46071959Y-36100500D01*
X46071961Y-36100500D01*
X46210053Y-36059953D01*
X46331128Y-35982143D01*
X46372264Y-35934668D01*
X46424660Y-35903073D01*
X46447083Y-35900500D01*
X46732507Y-35900500D01*
X46790698Y-35919407D01*
X46826662Y-35968907D01*
X46826662Y-36030093D01*
X46822560Y-36040627D01*
X46814834Y-36057543D01*
X46794353Y-36199996D01*
X46794353Y-36199997D01*
X46794353Y-36200000D01*
X46797442Y-36221483D01*
X46787007Y-36281772D01*
X46769453Y-36305574D01*
X46604526Y-36470503D01*
X46550010Y-36498281D01*
X46534522Y-36499500D01*
X23365479Y-36499500D01*
X23307288Y-36480593D01*
X23295475Y-36470504D01*
X21929496Y-35104525D01*
X21901719Y-35050008D01*
X21900500Y-35034521D01*
X21900500Y-34753893D01*
X21919407Y-34695702D01*
X21926741Y-34687711D01*
X21926491Y-34687494D01*
X21944757Y-34666414D01*
X22025377Y-34573373D01*
X22085165Y-34442457D01*
X22091992Y-34394971D01*
X22105647Y-34300002D01*
X22105647Y-34299997D01*
X22085165Y-34157543D01*
X22031771Y-34040627D01*
X22024796Y-33979840D01*
X22054882Y-33926563D01*
X22110538Y-33901145D01*
X22121824Y-33900500D01*
X22352917Y-33900500D01*
X22411108Y-33919407D01*
X22427733Y-33934667D01*
X22468872Y-33982143D01*
X22589947Y-34059953D01*
X22673585Y-34084511D01*
X22728035Y-34100499D01*
X22728036Y-34100499D01*
X22728039Y-34100500D01*
X22728041Y-34100500D01*
X22871959Y-34100500D01*
X22871961Y-34100500D01*
X22972610Y-34070947D01*
X23033769Y-34072694D01*
X23082222Y-34110057D01*
X23099500Y-34165937D01*
X23099500Y-35339564D01*
X23119977Y-35415985D01*
X23119979Y-35415990D01*
X23143968Y-35457541D01*
X23143969Y-35457541D01*
X23143970Y-35457543D01*
X23159540Y-35484511D01*
X23715489Y-36040460D01*
X23715491Y-36040461D01*
X23715493Y-36040463D01*
X23784008Y-36080020D01*
X23784006Y-36080020D01*
X23784010Y-36080021D01*
X23784012Y-36080022D01*
X23860438Y-36100500D01*
X23860440Y-36100500D01*
X34839563Y-36100500D01*
X34839563Y-36100499D01*
X34915989Y-36080021D01*
X34984511Y-36040460D01*
X35012485Y-36012485D01*
X35040461Y-35984511D01*
X35295473Y-35729497D01*
X35349990Y-35701719D01*
X35365477Y-35700500D01*
X35471959Y-35700500D01*
X35471961Y-35700500D01*
X35610053Y-35659953D01*
X35731128Y-35582143D01*
X35825377Y-35473373D01*
X35885165Y-35342457D01*
X35903515Y-35214831D01*
X35905647Y-35200002D01*
X35905647Y-35199997D01*
X35885165Y-35057543D01*
X35859114Y-35000500D01*
X35825377Y-34926627D01*
X35731128Y-34817857D01*
X35731127Y-34817856D01*
X35731126Y-34817855D01*
X35610057Y-34740049D01*
X35610054Y-34740047D01*
X35610053Y-34740047D01*
X35610050Y-34740046D01*
X35471964Y-34699500D01*
X35471961Y-34699500D01*
X35328039Y-34699500D01*
X35328035Y-34699500D01*
X35189949Y-34740046D01*
X35189942Y-34740049D01*
X35068873Y-34817855D01*
X34974622Y-34926628D01*
X34914834Y-35057543D01*
X34894353Y-35199996D01*
X34894353Y-35199997D01*
X34894353Y-35200000D01*
X34897442Y-35221483D01*
X34887007Y-35281772D01*
X34869453Y-35305574D01*
X34704526Y-35470503D01*
X34650010Y-35498281D01*
X34634522Y-35499500D01*
X24065479Y-35499500D01*
X24007288Y-35480593D01*
X23995475Y-35470504D01*
X23729496Y-35204525D01*
X23701719Y-35150008D01*
X23700500Y-35134521D01*
X23700500Y-32460437D01*
X23700499Y-32460435D01*
X23680021Y-32384011D01*
X23680019Y-32384007D01*
X23640460Y-32315489D01*
X23584511Y-32259539D01*
X23584511Y-32259540D01*
X23294475Y-31969504D01*
X23266698Y-31914987D01*
X23276269Y-31854555D01*
X23319534Y-31811290D01*
X23364479Y-31800500D01*
X24003149Y-31800500D01*
X24061340Y-31819407D01*
X24073153Y-31829496D01*
X26384117Y-34140460D01*
X26384119Y-34140461D01*
X26384120Y-34140462D01*
X26384121Y-34140463D01*
X26452636Y-34180020D01*
X26452634Y-34180020D01*
X26452638Y-34180021D01*
X26452640Y-34180022D01*
X26529066Y-34200500D01*
X26529068Y-34200500D01*
X28039563Y-34200500D01*
X28039563Y-34200499D01*
X28115989Y-34180021D01*
X28184511Y-34140460D01*
X28240460Y-34084511D01*
X28595475Y-33729496D01*
X28649992Y-33701719D01*
X28665479Y-33700500D01*
X34232507Y-33700500D01*
X34290698Y-33719407D01*
X34326662Y-33768907D01*
X34326662Y-33830093D01*
X34322560Y-33840627D01*
X34314834Y-33857543D01*
X34294353Y-33999997D01*
X34294353Y-34000002D01*
X34314834Y-34142456D01*
X34359403Y-34240046D01*
X34374623Y-34273373D01*
X34468870Y-34382141D01*
X34468873Y-34382144D01*
X34589942Y-34459950D01*
X34589947Y-34459953D01*
X34696403Y-34491211D01*
X34728035Y-34500499D01*
X34728036Y-34500499D01*
X34728039Y-34500500D01*
X34728041Y-34500500D01*
X34871959Y-34500500D01*
X34871961Y-34500500D01*
X35010053Y-34459953D01*
X35131128Y-34382143D01*
X35172264Y-34334668D01*
X35224660Y-34303073D01*
X35247083Y-34300500D01*
X41734521Y-34300500D01*
X41792712Y-34319407D01*
X41804525Y-34329496D01*
X42969453Y-35494424D01*
X42997230Y-35548941D01*
X42997441Y-35578514D01*
X42994354Y-35599997D01*
X42994353Y-35600002D01*
X43014834Y-35742456D01*
X43074622Y-35873371D01*
X43074623Y-35873373D01*
X43168870Y-35982141D01*
X43168873Y-35982144D01*
X43283877Y-36056052D01*
X43289947Y-36059953D01*
X43358297Y-36080022D01*
X43428035Y-36100499D01*
X43428036Y-36100499D01*
X43428039Y-36100500D01*
X43428041Y-36100500D01*
X43571959Y-36100500D01*
X43571961Y-36100500D01*
X43710053Y-36059953D01*
X43831128Y-35982143D01*
X43925377Y-35873373D01*
X43985165Y-35742457D01*
X44005647Y-35600000D01*
X44003104Y-35582316D01*
X43985165Y-35457541D01*
X43925377Y-35326628D01*
X43925377Y-35326627D01*
X43831128Y-35217857D01*
X43831127Y-35217856D01*
X43831126Y-35217855D01*
X43710057Y-35140049D01*
X43710054Y-35140047D01*
X43710053Y-35140047D01*
X43710050Y-35140046D01*
X43571964Y-35099500D01*
X43571961Y-35099500D01*
X43465479Y-35099500D01*
X43407288Y-35080593D01*
X43395475Y-35070504D01*
X42825470Y-34500499D01*
X42194472Y-33869501D01*
X42166697Y-33814987D01*
X42176268Y-33754555D01*
X42219533Y-33711290D01*
X42264478Y-33700500D01*
X46132051Y-33700500D01*
X46190242Y-33719407D01*
X46222103Y-33758371D01*
X46274623Y-33873373D01*
X46368870Y-33982141D01*
X46368873Y-33982144D01*
X46438092Y-34026628D01*
X46489947Y-34059953D01*
X46573585Y-34084511D01*
X46628035Y-34100499D01*
X46628036Y-34100499D01*
X46628039Y-34100500D01*
X46628041Y-34100500D01*
X46771959Y-34100500D01*
X46771961Y-34100500D01*
X46910053Y-34059953D01*
X47031128Y-33982143D01*
X47125377Y-33873373D01*
X47185165Y-33742457D01*
X47205647Y-33600000D01*
X47205575Y-33599500D01*
X47185165Y-33457543D01*
X47177440Y-33440627D01*
X47170465Y-33379840D01*
X47200551Y-33326563D01*
X47256207Y-33301145D01*
X47267493Y-33300500D01*
X47336621Y-33300500D01*
X47336621Y-33300499D01*
X47413047Y-33280021D01*
X47481569Y-33240460D01*
X47537518Y-33184511D01*
X49092533Y-31629496D01*
X49147050Y-31601719D01*
X49162537Y-31600500D01*
X49452917Y-31600500D01*
X49511108Y-31619407D01*
X49527733Y-31634667D01*
X49568872Y-31682143D01*
X49689947Y-31759953D01*
X49792129Y-31789956D01*
X49828035Y-31800499D01*
X49828036Y-31800499D01*
X49828039Y-31800500D01*
X49828041Y-31800500D01*
X49971959Y-31800500D01*
X49971961Y-31800500D01*
X50110053Y-31759953D01*
X50231128Y-31682143D01*
X50325377Y-31573373D01*
X50385165Y-31442457D01*
X50394276Y-31379085D01*
X50421271Y-31324180D01*
X50475385Y-31295626D01*
X50520161Y-31298186D01*
X50528039Y-31300500D01*
X50528040Y-31300500D01*
X50671959Y-31300500D01*
X50671961Y-31300500D01*
X50810053Y-31259953D01*
X50931128Y-31182143D01*
X51025377Y-31073373D01*
X51083319Y-30946498D01*
X51124689Y-30901423D01*
X51184656Y-30889272D01*
X51201260Y-30892637D01*
X51220133Y-30898178D01*
X51228035Y-30900499D01*
X51228036Y-30900499D01*
X51228039Y-30900500D01*
X51228040Y-30900500D01*
X51371959Y-30900500D01*
X51371961Y-30900500D01*
X51510053Y-30859953D01*
X51631128Y-30782143D01*
X51725377Y-30673373D01*
X51785165Y-30542457D01*
X51789795Y-30510253D01*
X58949500Y-30510253D01*
X58949500Y-32249746D01*
X58949501Y-32249758D01*
X58961132Y-32308227D01*
X58961134Y-32308233D01*
X59005445Y-32374548D01*
X59005448Y-32374552D01*
X59071769Y-32418867D01*
X59116231Y-32427711D01*
X59130241Y-32430498D01*
X59130246Y-32430498D01*
X59130252Y-32430500D01*
X59130253Y-32430500D01*
X60869747Y-32430500D01*
X60869748Y-32430500D01*
X60928231Y-32418867D01*
X60994552Y-32374552D01*
X61038867Y-32308231D01*
X61050500Y-32249748D01*
X61050500Y-30510252D01*
X61038867Y-30451769D01*
X60994552Y-30385448D01*
X60989458Y-30382044D01*
X60928233Y-30341134D01*
X60928231Y-30341133D01*
X60928228Y-30341132D01*
X60928227Y-30341132D01*
X60869758Y-30329501D01*
X60869748Y-30329500D01*
X59130252Y-30329500D01*
X59130251Y-30329500D01*
X59130241Y-30329501D01*
X59071772Y-30341132D01*
X59071766Y-30341134D01*
X59005451Y-30385445D01*
X59005445Y-30385451D01*
X58961134Y-30451766D01*
X58961132Y-30451772D01*
X58949501Y-30510241D01*
X58949500Y-30510253D01*
X51789795Y-30510253D01*
X51794276Y-30479085D01*
X51821271Y-30424180D01*
X51875385Y-30395626D01*
X51920161Y-30398186D01*
X51928039Y-30400500D01*
X51928040Y-30400500D01*
X52071959Y-30400500D01*
X52071961Y-30400500D01*
X52210053Y-30359953D01*
X52331128Y-30282143D01*
X52425377Y-30173373D01*
X52485165Y-30042457D01*
X52494285Y-29979024D01*
X52505647Y-29900002D01*
X52505647Y-29899997D01*
X52485165Y-29757543D01*
X52459114Y-29700500D01*
X52425377Y-29626627D01*
X52331128Y-29517857D01*
X52331127Y-29517856D01*
X52331126Y-29517855D01*
X52210057Y-29440049D01*
X52210054Y-29440047D01*
X52210053Y-29440047D01*
X52210050Y-29440046D01*
X52071964Y-29399500D01*
X52071961Y-29399500D01*
X51965479Y-29399500D01*
X51907288Y-29380593D01*
X51895476Y-29370504D01*
X51684510Y-29159539D01*
X51651464Y-29140460D01*
X51651462Y-29140459D01*
X51615989Y-29119979D01*
X51615986Y-29119978D01*
X51539564Y-29099500D01*
X51539562Y-29099500D01*
X49829357Y-29099500D01*
X49771166Y-29080593D01*
X49735202Y-29031093D01*
X49735202Y-28969907D01*
X49771166Y-28920407D01*
X49779856Y-28914764D01*
X49781588Y-28913764D01*
X49831089Y-28900500D01*
X49971959Y-28900500D01*
X49971961Y-28900500D01*
X50110053Y-28859953D01*
X50231128Y-28782143D01*
X50325377Y-28673373D01*
X50383319Y-28546498D01*
X50424689Y-28501423D01*
X50484656Y-28489272D01*
X50501260Y-28492637D01*
X50520133Y-28498178D01*
X50528035Y-28500499D01*
X50528036Y-28500499D01*
X50528039Y-28500500D01*
X50528040Y-28500500D01*
X50671959Y-28500500D01*
X50671961Y-28500500D01*
X50810053Y-28459953D01*
X50931128Y-28382143D01*
X51025377Y-28273373D01*
X51083319Y-28146498D01*
X51124689Y-28101423D01*
X51184656Y-28089272D01*
X51201260Y-28092637D01*
X51220133Y-28098178D01*
X51228035Y-28100499D01*
X51228036Y-28100499D01*
X51228039Y-28100500D01*
X51228040Y-28100500D01*
X51371959Y-28100500D01*
X51371961Y-28100500D01*
X51510053Y-28059953D01*
X51631128Y-27982143D01*
X51725377Y-27873373D01*
X51783319Y-27746498D01*
X51824689Y-27701423D01*
X51884656Y-27689272D01*
X51901260Y-27692637D01*
X51920133Y-27698178D01*
X51928035Y-27700499D01*
X51928036Y-27700499D01*
X51928039Y-27700500D01*
X51928040Y-27700500D01*
X52071959Y-27700500D01*
X52071961Y-27700500D01*
X52210053Y-27659953D01*
X52331128Y-27582143D01*
X52425377Y-27473373D01*
X52483290Y-27346561D01*
X52524660Y-27301486D01*
X52584627Y-27289335D01*
X52601233Y-27292699D01*
X52628139Y-27300600D01*
X52628140Y-27300600D01*
X52772059Y-27300600D01*
X52772061Y-27300600D01*
X52910153Y-27260053D01*
X53031228Y-27182243D01*
X53125477Y-27073473D01*
X53185265Y-26942557D01*
X53205747Y-26800100D01*
X53203432Y-26784001D01*
X53185265Y-26657643D01*
X53140651Y-26559953D01*
X53125477Y-26526727D01*
X53031228Y-26417957D01*
X53031227Y-26417956D01*
X53031226Y-26417955D01*
X52910157Y-26340149D01*
X52910154Y-26340147D01*
X52910153Y-26340147D01*
X52910150Y-26340146D01*
X52772064Y-26299600D01*
X52772061Y-26299600D01*
X52628139Y-26299600D01*
X52628138Y-26299600D01*
X52620514Y-26301838D01*
X52612716Y-26304128D01*
X52559207Y-26304763D01*
X52539562Y-26299500D01*
X49060438Y-26299500D01*
X49060435Y-26299500D01*
X48984012Y-26319978D01*
X48949079Y-26340147D01*
X48949078Y-26340146D01*
X48915490Y-26359539D01*
X45804525Y-29470504D01*
X45750008Y-29498281D01*
X45734521Y-29499500D01*
X27165479Y-29499500D01*
X27107288Y-29480593D01*
X27095475Y-29470504D01*
X26140460Y-28515489D01*
X25184511Y-27559540D01*
X25184508Y-27559538D01*
X25164573Y-27548028D01*
X25164573Y-27548029D01*
X25115989Y-27519979D01*
X25115988Y-27519978D01*
X25115987Y-27519978D01*
X25039564Y-27499500D01*
X25039562Y-27499500D01*
X17964479Y-27499500D01*
X17906288Y-27480593D01*
X17870324Y-27431093D01*
X17870324Y-27369907D01*
X17894475Y-27330496D01*
X18182515Y-27042456D01*
X19400460Y-25824511D01*
X19406321Y-25814357D01*
X19406325Y-25814354D01*
X19406324Y-25814354D01*
X19440021Y-25755989D01*
X19460500Y-25679562D01*
X19460500Y-24999997D01*
X21594353Y-24999997D01*
X21594353Y-25000002D01*
X21614834Y-25142456D01*
X21674622Y-25273371D01*
X21674623Y-25273373D01*
X21723227Y-25329465D01*
X21768873Y-25382144D01*
X21796653Y-25399997D01*
X21889947Y-25459953D01*
X21996403Y-25491211D01*
X22028035Y-25500499D01*
X22028036Y-25500499D01*
X22028039Y-25500500D01*
X22028041Y-25500500D01*
X22171960Y-25500500D01*
X22171961Y-25500500D01*
X22179834Y-25498188D01*
X22240995Y-25499932D01*
X22289450Y-25537291D01*
X22305723Y-25579087D01*
X22314834Y-25642456D01*
X22328953Y-25673371D01*
X22374623Y-25773373D01*
X22458254Y-25869889D01*
X22468873Y-25882144D01*
X22589942Y-25959950D01*
X22589947Y-25959953D01*
X22689721Y-25989249D01*
X22728035Y-26000499D01*
X22728036Y-26000499D01*
X22728039Y-26000500D01*
X22728041Y-26000500D01*
X22795353Y-26000500D01*
X22853544Y-26019407D01*
X22889508Y-26068907D01*
X22893322Y-26092995D01*
X22893345Y-26092992D01*
X22893568Y-26094545D01*
X22894353Y-26099500D01*
X22894353Y-26100002D01*
X22914834Y-26242456D01*
X22974622Y-26373371D01*
X22974623Y-26373373D01*
X23013255Y-26417957D01*
X23068873Y-26482144D01*
X23189942Y-26559950D01*
X23189947Y-26559953D01*
X23296403Y-26591211D01*
X23328035Y-26600499D01*
X23328036Y-26600499D01*
X23328039Y-26600500D01*
X23328041Y-26600500D01*
X23471959Y-26600500D01*
X23471961Y-26600500D01*
X23610053Y-26559953D01*
X23731128Y-26482143D01*
X23825377Y-26373373D01*
X23885165Y-26242457D01*
X23901411Y-26129465D01*
X23905647Y-26100002D01*
X23905647Y-26099500D01*
X23905776Y-26099101D01*
X23906655Y-26092991D01*
X23907712Y-26093143D01*
X23924554Y-26041309D01*
X23974054Y-26005345D01*
X24004647Y-26000500D01*
X54034521Y-26000500D01*
X54092712Y-26019407D01*
X54104525Y-26029496D01*
X54869453Y-26794424D01*
X54897230Y-26848941D01*
X54897441Y-26878514D01*
X54894354Y-26899997D01*
X54894353Y-26900002D01*
X54914834Y-27042456D01*
X54974622Y-27173371D01*
X54974623Y-27173373D01*
X55049731Y-27260053D01*
X55068873Y-27282144D01*
X55169113Y-27346564D01*
X55189947Y-27359953D01*
X55296403Y-27391211D01*
X55328035Y-27400499D01*
X55328036Y-27400499D01*
X55328039Y-27400500D01*
X55328041Y-27400500D01*
X55471959Y-27400500D01*
X55471961Y-27400500D01*
X55610053Y-27359953D01*
X55731128Y-27282143D01*
X55825377Y-27173373D01*
X55885165Y-27042457D01*
X55899528Y-26942557D01*
X55905647Y-26900002D01*
X55905647Y-26899997D01*
X55888969Y-26784001D01*
X55899402Y-26723712D01*
X55943280Y-26681070D01*
X55959065Y-26674924D01*
X56010053Y-26659953D01*
X56131128Y-26582143D01*
X56225377Y-26473373D01*
X56285165Y-26342457D01*
X56305647Y-26200000D01*
X56291197Y-26099500D01*
X56285165Y-26057543D01*
X56233996Y-25945500D01*
X56227021Y-25884713D01*
X56257107Y-25831436D01*
X56270514Y-25821096D01*
X56331128Y-25782143D01*
X56425377Y-25673373D01*
X56485165Y-25542457D01*
X56491992Y-25494971D01*
X56505647Y-25400002D01*
X56505647Y-25399997D01*
X56485165Y-25257543D01*
X56425377Y-25126628D01*
X56425377Y-25126627D01*
X56331128Y-25017857D01*
X56331127Y-25017856D01*
X56331126Y-25017855D01*
X56210057Y-24940049D01*
X56210054Y-24940047D01*
X56210053Y-24940047D01*
X56210050Y-24940046D01*
X56071964Y-24899500D01*
X56071961Y-24899500D01*
X55965479Y-24899500D01*
X55907288Y-24880593D01*
X55895476Y-24870504D01*
X55684510Y-24659539D01*
X55629971Y-24628050D01*
X55629968Y-24628050D01*
X55615989Y-24619979D01*
X55615985Y-24619978D01*
X55615981Y-24619976D01*
X55539564Y-24599500D01*
X55539562Y-24599500D01*
X39667493Y-24599500D01*
X39609302Y-24580593D01*
X39573338Y-24531093D01*
X39573338Y-24469907D01*
X39577440Y-24459373D01*
X39585165Y-24442456D01*
X39605647Y-24300002D01*
X39605647Y-24299997D01*
X39585165Y-24157543D01*
X39525377Y-24026628D01*
X39525377Y-24026627D01*
X39431128Y-23917857D01*
X39431127Y-23917856D01*
X39426491Y-23912506D01*
X39428524Y-23910743D01*
X39403067Y-23868505D01*
X39400500Y-23846105D01*
X39400500Y-21765479D01*
X39419407Y-21707288D01*
X39429496Y-21695475D01*
X39570146Y-21554825D01*
X45416652Y-21554825D01*
X45418292Y-21646267D01*
X45459445Y-21727941D01*
X45466557Y-21736539D01*
X45464471Y-21738264D01*
X45489710Y-21775041D01*
X45492998Y-21790773D01*
X45497101Y-21823485D01*
X45497102Y-21823490D01*
X45545197Y-21901275D01*
X45545198Y-21901275D01*
X45545199Y-21901277D01*
X45622283Y-21950493D01*
X45713088Y-21961390D01*
X45799628Y-21931809D01*
X45864763Y-21867609D01*
X45895592Y-21781505D01*
X45895856Y-21779305D01*
X45896972Y-21766776D01*
X45897208Y-21762726D01*
X45885217Y-21686175D01*
X46471781Y-21686175D01*
X46471781Y-21686176D01*
X46473258Y-21777620D01*
X46473671Y-21779305D01*
X46477203Y-21793701D01*
X46475814Y-21794041D01*
X46479146Y-21838647D01*
X46473693Y-21866798D01*
X46473694Y-21866802D01*
X46492303Y-21956344D01*
X46547921Y-22028946D01*
X46629531Y-22070225D01*
X46720967Y-22072008D01*
X46720967Y-22072007D01*
X46720969Y-22072008D01*
X46804126Y-22033940D01*
X46862531Y-21963562D01*
X46863270Y-21962101D01*
X46866648Y-21955097D01*
X46867362Y-21953542D01*
X46869680Y-21948302D01*
X46870300Y-21946846D01*
X46876175Y-21931342D01*
X46878852Y-21923314D01*
X46884835Y-21872881D01*
X46889957Y-21851133D01*
X46893318Y-21841763D01*
X46893348Y-21841514D01*
X46894520Y-21828085D01*
X46894535Y-21827809D01*
X46894820Y-21819379D01*
X46894824Y-21819077D01*
X46894812Y-21814506D01*
X46894845Y-21812542D01*
X46894746Y-21810665D01*
X46894680Y-21808760D01*
X46894648Y-21807819D01*
X46894602Y-21805950D01*
X46894575Y-21804103D01*
X46894384Y-21800386D01*
X46889967Y-21781504D01*
X46888669Y-21774963D01*
X46880053Y-21722333D01*
X46881276Y-21722132D01*
X46878538Y-21706220D01*
X46877775Y-21706281D01*
X46877332Y-21700750D01*
X46877333Y-21700740D01*
X46876878Y-21698398D01*
X46875891Y-21693620D01*
X46875380Y-21691287D01*
X46874204Y-21686226D01*
X46873635Y-21683910D01*
X46872297Y-21678752D01*
X46871671Y-21676462D01*
X46870088Y-21670974D01*
X46869485Y-21668987D01*
X46831418Y-21597958D01*
X46759003Y-21542098D01*
X46759001Y-21542097D01*
X46759000Y-21542097D01*
X46669523Y-21523190D01*
X46580699Y-21544978D01*
X46510127Y-21603146D01*
X46510126Y-21603147D01*
X46471781Y-21686175D01*
X45885217Y-21686175D01*
X45883726Y-21676657D01*
X45883726Y-21676656D01*
X45859907Y-21641341D01*
X45845418Y-21607805D01*
X45826132Y-21522447D01*
X45769267Y-21450819D01*
X45767010Y-21449011D01*
X45766999Y-21449002D01*
X45766971Y-21448980D01*
X45762627Y-21445595D01*
X45761829Y-21444991D01*
X45760387Y-21443899D01*
X45758809Y-21442736D01*
X45756067Y-21440714D01*
X45753889Y-21439153D01*
X45751487Y-21437477D01*
X45749711Y-21436237D01*
X45747627Y-21434820D01*
X45747625Y-21434819D01*
X45747577Y-21434786D01*
X45743602Y-21432152D01*
X45743590Y-21432144D01*
X45743567Y-21432129D01*
X45741568Y-21430838D01*
X45739855Y-21429758D01*
X45737740Y-21428425D01*
X45735780Y-21427220D01*
X45730373Y-21424010D01*
X45726955Y-21422051D01*
X45726935Y-21422040D01*
X45726921Y-21422032D01*
X45720000Y-21418240D01*
X45719964Y-21418221D01*
X45717130Y-21416738D01*
X45710710Y-21413521D01*
X45708557Y-21412489D01*
X45708543Y-21412482D01*
X45708523Y-21412473D01*
X45705449Y-21411068D01*
X45701635Y-21409325D01*
X45699732Y-21408498D01*
X45639853Y-21396602D01*
X45619630Y-21385283D01*
X45597432Y-21395607D01*
X45525318Y-21413433D01*
X45454849Y-21471728D01*
X45416652Y-21554825D01*
X39570146Y-21554825D01*
X39895475Y-21229496D01*
X39949992Y-21201719D01*
X39965479Y-21200500D01*
X42152917Y-21200500D01*
X42211108Y-21219407D01*
X42227733Y-21234667D01*
X42268872Y-21282143D01*
X42357001Y-21338780D01*
X42389302Y-21359539D01*
X42389947Y-21359953D01*
X42476214Y-21385283D01*
X42528035Y-21400499D01*
X42528036Y-21400499D01*
X42528039Y-21400500D01*
X42528041Y-21400500D01*
X42671959Y-21400500D01*
X42671961Y-21400500D01*
X42810053Y-21359953D01*
X42931128Y-21282143D01*
X42972264Y-21234668D01*
X43024660Y-21203073D01*
X43047083Y-21200500D01*
X45573674Y-21200500D01*
X45613520Y-21213446D01*
X45617677Y-21209603D01*
X45659145Y-21200500D01*
X48092917Y-21200500D01*
X48151108Y-21219407D01*
X48167733Y-21234667D01*
X48208872Y-21282143D01*
X48297001Y-21338780D01*
X48329302Y-21359539D01*
X48329947Y-21359953D01*
X48416214Y-21385283D01*
X48468035Y-21400499D01*
X48468036Y-21400499D01*
X48468039Y-21400500D01*
X48468041Y-21400500D01*
X48611959Y-21400500D01*
X48611961Y-21400500D01*
X48750053Y-21359953D01*
X48871128Y-21282143D01*
X48916091Y-21230253D01*
X58949500Y-21230253D01*
X58949500Y-22969746D01*
X58949501Y-22969758D01*
X58961132Y-23028227D01*
X58961133Y-23028231D01*
X59005448Y-23094552D01*
X59071769Y-23138867D01*
X59116231Y-23147711D01*
X59130241Y-23150498D01*
X59130246Y-23150498D01*
X59130252Y-23150500D01*
X59130253Y-23150500D01*
X60869747Y-23150500D01*
X60869748Y-23150500D01*
X60928231Y-23138867D01*
X60994552Y-23094552D01*
X61038867Y-23028231D01*
X61050500Y-22969748D01*
X61050500Y-21230252D01*
X61038867Y-21171769D01*
X60994552Y-21105448D01*
X60994548Y-21105445D01*
X60928233Y-21061134D01*
X60928231Y-21061133D01*
X60928228Y-21061132D01*
X60928227Y-21061132D01*
X60869758Y-21049501D01*
X60869748Y-21049500D01*
X59130252Y-21049500D01*
X59130251Y-21049500D01*
X59130241Y-21049501D01*
X59071772Y-21061132D01*
X59071766Y-21061134D01*
X59005451Y-21105445D01*
X59005445Y-21105451D01*
X58961134Y-21171766D01*
X58961132Y-21171772D01*
X58949501Y-21230241D01*
X58949500Y-21230253D01*
X48916091Y-21230253D01*
X48965377Y-21173373D01*
X49025165Y-21042457D01*
X49045647Y-20900000D01*
X49025165Y-20757543D01*
X48965377Y-20626627D01*
X48871128Y-20517857D01*
X48871127Y-20517856D01*
X48871126Y-20517855D01*
X48750057Y-20440049D01*
X48750054Y-20440047D01*
X48750053Y-20440047D01*
X48750050Y-20440046D01*
X48611964Y-20399500D01*
X48611961Y-20399500D01*
X48468039Y-20399500D01*
X48468035Y-20399500D01*
X48329949Y-20440046D01*
X48329942Y-20440049D01*
X48208876Y-20517854D01*
X48208871Y-20517858D01*
X48167736Y-20565331D01*
X48115340Y-20596927D01*
X48092917Y-20599500D01*
X45614779Y-20599500D01*
X45556588Y-20580593D01*
X45520624Y-20531093D01*
X45520624Y-20469907D01*
X45537647Y-20438438D01*
X45538583Y-20437275D01*
X45540822Y-20434492D01*
X45554645Y-20420444D01*
X45559989Y-20416001D01*
X45560449Y-20414993D01*
X45573387Y-20394030D01*
X45575924Y-20390878D01*
X45582109Y-20383193D01*
X45587307Y-20360874D01*
X45593664Y-20342226D01*
X45597966Y-20332803D01*
X45597886Y-20328967D01*
X45600449Y-20304460D01*
X45602858Y-20294121D01*
X45602861Y-20293449D01*
X45602860Y-20291467D01*
X45602857Y-20290888D01*
X45602258Y-20286403D01*
X45603980Y-20277012D01*
X45597755Y-20248593D01*
X45597535Y-20247561D01*
X45597413Y-20246974D01*
X45597298Y-20246507D01*
X45597224Y-20246168D01*
X45595889Y-20238564D01*
X45594090Y-20231862D01*
X45592394Y-20224120D01*
X45587482Y-20218114D01*
X45585974Y-20213972D01*
X45581760Y-20201542D01*
X45581759Y-20201540D01*
X45581757Y-20201538D01*
X45571160Y-20188250D01*
X45560967Y-20172657D01*
X45553328Y-20158147D01*
X45552688Y-20157401D01*
X45546783Y-20152898D01*
X45529409Y-20135896D01*
X45524736Y-20130036D01*
X45524734Y-20130034D01*
X45512274Y-20124034D01*
X45495197Y-20113561D01*
X45484479Y-20105387D01*
X45475602Y-20103432D01*
X45453949Y-20095947D01*
X45442338Y-20090355D01*
X45442337Y-20090355D01*
X45427013Y-20090355D01*
X45405715Y-20088037D01*
X45395165Y-20085713D01*
X45386739Y-20087703D01*
X45363980Y-20090355D01*
X45350879Y-20090355D01*
X45336874Y-20097100D01*
X45316686Y-20104250D01*
X45306159Y-20106737D01*
X45299416Y-20112198D01*
X45280071Y-20124455D01*
X45268485Y-20130035D01*
X45268482Y-20130037D01*
X45258950Y-20141990D01*
X45243862Y-20157193D01*
X45235089Y-20164298D01*
X45235087Y-20164301D01*
X45231193Y-20172545D01*
X45219084Y-20191979D01*
X45211461Y-20201538D01*
X45211461Y-20201539D01*
X45208209Y-20215786D01*
X45201212Y-20236028D01*
X45196032Y-20246996D01*
X45196031Y-20246999D01*
X45196106Y-20256899D01*
X45193629Y-20279664D01*
X45191110Y-20290704D01*
X45191110Y-20291087D01*
X45195922Y-20328285D01*
X45196474Y-20336377D01*
X45196738Y-20338570D01*
X45197255Y-20341401D01*
X45197752Y-20342980D01*
X45198660Y-20346053D01*
X45198662Y-20346053D01*
X45198713Y-20346233D01*
X45198737Y-20346313D01*
X45198762Y-20346406D01*
X45199675Y-20349604D01*
X45199719Y-20349756D01*
X45201103Y-20354277D01*
X45201187Y-20354540D01*
X45203191Y-20360510D01*
X45203562Y-20361564D01*
X45203570Y-20361585D01*
X45211812Y-20381535D01*
X45211813Y-20381537D01*
X45211814Y-20381539D01*
X45211815Y-20381540D01*
X45223826Y-20396740D01*
X45233882Y-20412252D01*
X45240239Y-20424414D01*
X45240350Y-20424544D01*
X45244285Y-20428251D01*
X45242423Y-20430226D01*
X45271369Y-20471703D01*
X45270206Y-20532877D01*
X45233308Y-20581684D01*
X45176650Y-20599500D01*
X43047083Y-20599500D01*
X42988892Y-20580593D01*
X42972264Y-20565331D01*
X42961459Y-20552861D01*
X42931128Y-20517857D01*
X42874965Y-20481763D01*
X42810057Y-20440049D01*
X42810054Y-20440047D01*
X42810053Y-20440047D01*
X42810050Y-20440046D01*
X42671964Y-20399500D01*
X42671961Y-20399500D01*
X42528039Y-20399500D01*
X42528035Y-20399500D01*
X42389949Y-20440046D01*
X42389942Y-20440049D01*
X42268876Y-20517854D01*
X42268871Y-20517858D01*
X42227736Y-20565331D01*
X42175340Y-20596927D01*
X42152917Y-20599500D01*
X41800932Y-20599500D01*
X41742741Y-20580593D01*
X41706777Y-20531093D01*
X41706777Y-20469907D01*
X41721945Y-20440817D01*
X41737342Y-20420439D01*
X41751200Y-20402099D01*
X41751903Y-20400536D01*
X41753598Y-20396661D01*
X41754403Y-20394768D01*
X41756011Y-20390876D01*
X41756775Y-20388972D01*
X41758323Y-20384996D01*
X41759046Y-20383080D01*
X41760547Y-20378970D01*
X41761228Y-20377042D01*
X41762665Y-20372829D01*
X41763303Y-20370890D01*
X41764604Y-20366791D01*
X41765201Y-20364840D01*
X41766443Y-20360619D01*
X41766998Y-20358656D01*
X41768174Y-20354316D01*
X41768686Y-20352341D01*
X41769761Y-20348002D01*
X41770230Y-20346016D01*
X41771213Y-20341638D01*
X41771639Y-20339640D01*
X41772506Y-20335350D01*
X41772890Y-20333340D01*
X41773693Y-20328871D01*
X41774033Y-20326850D01*
X41774725Y-20322449D01*
X41775022Y-20320415D01*
X41775622Y-20315967D01*
X41775875Y-20313923D01*
X41776368Y-20309550D01*
X41776578Y-20307493D01*
X41774060Y-20248428D01*
X41737492Y-20164601D01*
X41737491Y-20164600D01*
X41737491Y-20164599D01*
X41668177Y-20104942D01*
X41668171Y-20104939D01*
X41579840Y-20081266D01*
X41579834Y-20081266D01*
X41489974Y-20098263D01*
X41489972Y-20098264D01*
X41416386Y-20152566D01*
X41373646Y-20233424D01*
X41365287Y-20264612D01*
X41358354Y-20323173D01*
X41378962Y-20403703D01*
X41381028Y-20411774D01*
X41400334Y-20434726D01*
X41402056Y-20436773D01*
X41425044Y-20493475D01*
X41410314Y-20552861D01*
X41363490Y-20592247D01*
X41326294Y-20599500D01*
X39760435Y-20599500D01*
X39684011Y-20619978D01*
X39684007Y-20619980D01*
X39615491Y-20659538D01*
X38915489Y-21359540D01*
X38915488Y-21359539D01*
X38859539Y-21415489D01*
X38819980Y-21484007D01*
X38819978Y-21484011D01*
X38799500Y-21560435D01*
X38799500Y-23846105D01*
X38780593Y-23904296D01*
X38773258Y-23912289D01*
X38773509Y-23912506D01*
X38674622Y-24026628D01*
X38614834Y-24157543D01*
X38594353Y-24299997D01*
X38594353Y-24300002D01*
X38614834Y-24442456D01*
X38622560Y-24459373D01*
X38629535Y-24520160D01*
X38599449Y-24573437D01*
X38543793Y-24598855D01*
X38532507Y-24599500D01*
X22431632Y-24599500D01*
X22378110Y-24583784D01*
X22310053Y-24540047D01*
X22310050Y-24540046D01*
X22171964Y-24499500D01*
X22171961Y-24499500D01*
X22028039Y-24499500D01*
X22028035Y-24499500D01*
X21889949Y-24540046D01*
X21889942Y-24540049D01*
X21768873Y-24617855D01*
X21674622Y-24726628D01*
X21614834Y-24857543D01*
X21594353Y-24999997D01*
X19460500Y-24999997D01*
X19460500Y-19981351D01*
X40230447Y-19981351D01*
X40230447Y-19981353D01*
X40230447Y-19981354D01*
X40236288Y-20072624D01*
X40281150Y-20152320D01*
X40356149Y-20204659D01*
X40356877Y-20204954D01*
X40358414Y-20205577D01*
X40358417Y-20205577D01*
X40358425Y-20205581D01*
X40438923Y-20220589D01*
X40527743Y-20198791D01*
X40598310Y-20140615D01*
X40636647Y-20057581D01*
X40635160Y-19966137D01*
X40594144Y-19884394D01*
X40571599Y-19867007D01*
X40549392Y-19849880D01*
X40540718Y-19837781D01*
X40525364Y-19830277D01*
X40517550Y-19826013D01*
X40517479Y-19825970D01*
X40514918Y-19823210D01*
X40512247Y-19822506D01*
X40500328Y-19818220D01*
X40496644Y-19818392D01*
X40492682Y-19817347D01*
X40488446Y-19816129D01*
X40466814Y-19809380D01*
X40451091Y-19812954D01*
X40447658Y-19812581D01*
X40420186Y-19809113D01*
X40420180Y-19809113D01*
X40332501Y-19835117D01*
X40332500Y-19835117D01*
X40264784Y-19896588D01*
X40230447Y-19981351D01*
X19460500Y-19981351D01*
X19460500Y-19480037D01*
X19479407Y-19421846D01*
X19528907Y-19385882D01*
X19530739Y-19385307D01*
X19563954Y-19375232D01*
X19746450Y-19277685D01*
X19906410Y-19146410D01*
X20037685Y-18986450D01*
X20135232Y-18803954D01*
X20195300Y-18605934D01*
X20195301Y-18605929D01*
X20215583Y-18400003D01*
X20215583Y-18399996D01*
X20644417Y-18399996D01*
X20644417Y-18400003D01*
X20664698Y-18605929D01*
X20664699Y-18605934D01*
X20724768Y-18803954D01*
X20822316Y-18986452D01*
X20939601Y-19129364D01*
X20953590Y-19146410D01*
X20976636Y-19165323D01*
X21113547Y-19277683D01*
X21113548Y-19277683D01*
X21113550Y-19277685D01*
X21296046Y-19375232D01*
X21427524Y-19415115D01*
X21494065Y-19435300D01*
X21494070Y-19435301D01*
X21699997Y-19455583D01*
X21700000Y-19455583D01*
X21700003Y-19455583D01*
X21905929Y-19435301D01*
X21905934Y-19435300D01*
X21950286Y-19421846D01*
X22103954Y-19375232D01*
X22243630Y-19300573D01*
X43171313Y-19300573D01*
X43172817Y-19348933D01*
X43172838Y-19354323D01*
X43172437Y-19371437D01*
X43173299Y-19379081D01*
X43173824Y-19381209D01*
X43203653Y-19442476D01*
X43205444Y-19446366D01*
X43210626Y-19458294D01*
X43213355Y-19462809D01*
X43213858Y-19463434D01*
X43234861Y-19480037D01*
X43285605Y-19520149D01*
X43285606Y-19520149D01*
X43285608Y-19520150D01*
X43374851Y-19540117D01*
X43374852Y-19540116D01*
X43374854Y-19540117D01*
X43463929Y-19519384D01*
X43519419Y-19474740D01*
X43522787Y-19472149D01*
X43529989Y-19466853D01*
X43529989Y-19466851D01*
X43533344Y-19464385D01*
X43535183Y-19462058D01*
X43535187Y-19462056D01*
X43557544Y-19415115D01*
X43559454Y-19411316D01*
X43560153Y-19409998D01*
X58959692Y-19409998D01*
X58959694Y-19410000D01*
X59522555Y-19410000D01*
X59500000Y-19494174D01*
X59500000Y-19625826D01*
X59522555Y-19710000D01*
X58959694Y-19710000D01*
X58959692Y-19710001D01*
X58965191Y-19765833D01*
X58965190Y-19765833D01*
X59025232Y-19963762D01*
X59025234Y-19963767D01*
X59122724Y-20146160D01*
X59122731Y-20146170D01*
X59253940Y-20306050D01*
X59253949Y-20306059D01*
X59413829Y-20437268D01*
X59413839Y-20437275D01*
X59596232Y-20534765D01*
X59596237Y-20534767D01*
X59794166Y-20594808D01*
X59849998Y-20600307D01*
X59850000Y-20600306D01*
X59850000Y-20037445D01*
X59934174Y-20060000D01*
X60065826Y-20060000D01*
X60150000Y-20037445D01*
X60150000Y-20600306D01*
X60150001Y-20600307D01*
X60205833Y-20594808D01*
X60403762Y-20534767D01*
X60403767Y-20534765D01*
X60586160Y-20437275D01*
X60586170Y-20437268D01*
X60746050Y-20306059D01*
X60746059Y-20306050D01*
X60877268Y-20146170D01*
X60877275Y-20146160D01*
X60974765Y-19963767D01*
X60974767Y-19963762D01*
X61034808Y-19765833D01*
X61040307Y-19710001D01*
X61040306Y-19710000D01*
X60477445Y-19710000D01*
X60500000Y-19625826D01*
X60500000Y-19494174D01*
X60477445Y-19410000D01*
X61040306Y-19410000D01*
X61040307Y-19409998D01*
X61034808Y-19354166D01*
X61034809Y-19354166D01*
X60974767Y-19156237D01*
X60974765Y-19156232D01*
X60877275Y-18973839D01*
X60877268Y-18973829D01*
X60746059Y-18813949D01*
X60746050Y-18813940D01*
X60586170Y-18682731D01*
X60586160Y-18682724D01*
X60403767Y-18585234D01*
X60403762Y-18585232D01*
X60205843Y-18525194D01*
X60205832Y-18525191D01*
X60150000Y-18519692D01*
X60150000Y-19082554D01*
X60065826Y-19060000D01*
X59934174Y-19060000D01*
X59850000Y-19082554D01*
X59850000Y-18519692D01*
X59794167Y-18525191D01*
X59794156Y-18525194D01*
X59596237Y-18585232D01*
X59596232Y-18585234D01*
X59413839Y-18682724D01*
X59413829Y-18682731D01*
X59253949Y-18813940D01*
X59253940Y-18813949D01*
X59122731Y-18973829D01*
X59122724Y-18973839D01*
X59025234Y-19156232D01*
X59025232Y-19156237D01*
X58965191Y-19354166D01*
X58959692Y-19409998D01*
X43560153Y-19409998D01*
X43563930Y-19402880D01*
X43570667Y-19395702D01*
X43573193Y-19385047D01*
X43573801Y-19382672D01*
X43574438Y-19379828D01*
X43574722Y-19378598D01*
X43575257Y-19376338D01*
X43575397Y-19375543D01*
X43580071Y-19354652D01*
X43578440Y-19348288D01*
X43579120Y-19341391D01*
X43580720Y-19329455D01*
X43578818Y-19321169D01*
X43576337Y-19296723D01*
X43576389Y-19294514D01*
X43572256Y-19285022D01*
X43566536Y-19267648D01*
X43565450Y-19262917D01*
X43560264Y-19240316D01*
X43552060Y-19230053D01*
X43542562Y-19214297D01*
X43539882Y-19210658D01*
X43536143Y-19207436D01*
X43523456Y-19194271D01*
X43503158Y-19168880D01*
X43488485Y-19161835D01*
X43477122Y-19154398D01*
X43470606Y-19150947D01*
X43468569Y-19150400D01*
X43451427Y-19144043D01*
X43420712Y-19129296D01*
X43420711Y-19129296D01*
X43420709Y-19129295D01*
X43403313Y-19129315D01*
X43389324Y-19127477D01*
X43382289Y-19127208D01*
X43382288Y-19127208D01*
X43382286Y-19127208D01*
X43379918Y-19127654D01*
X43361714Y-19129364D01*
X43329259Y-19129402D01*
X43329255Y-19129403D01*
X43314620Y-19136472D01*
X43295753Y-19142684D01*
X43292409Y-19144140D01*
X43287745Y-19147577D01*
X43272086Y-19157016D01*
X43246904Y-19169179D01*
X43246902Y-19169181D01*
X43238754Y-19179423D01*
X43220021Y-19197477D01*
X43218786Y-19198386D01*
X43218782Y-19198391D01*
X43213359Y-19208632D01*
X43203348Y-19223929D01*
X43189969Y-19240747D01*
X43189964Y-19240754D01*
X43189811Y-19241073D01*
X43176688Y-19277321D01*
X43175912Y-19279370D01*
X43175846Y-19279598D01*
X43175430Y-19281247D01*
X43174719Y-19284156D01*
X43173346Y-19289963D01*
X43173342Y-19289985D01*
X43173349Y-19289987D01*
X43173292Y-19290260D01*
X43173179Y-19290873D01*
X43173063Y-19291359D01*
X43173057Y-19291386D01*
X43173055Y-19291396D01*
X43172944Y-19291928D01*
X43172912Y-19292085D01*
X43172640Y-19293410D01*
X43172581Y-19293701D01*
X43172582Y-19293702D01*
X43172274Y-19295256D01*
X43171329Y-19300473D01*
X43171313Y-19300573D01*
X22243630Y-19300573D01*
X22286450Y-19277685D01*
X22446410Y-19146410D01*
X22577685Y-18986450D01*
X22601498Y-18941900D01*
X46672636Y-18941900D01*
X46672655Y-18944651D01*
X46678605Y-18969937D01*
X46676840Y-18991131D01*
X46685339Y-19013878D01*
X46686111Y-19016019D01*
X46694979Y-19041528D01*
X46695269Y-19041794D01*
X46695653Y-19042598D01*
X46699189Y-19045711D01*
X46699469Y-19045539D01*
X46700034Y-19046455D01*
X46700067Y-19046484D01*
X46700276Y-19046847D01*
X46709807Y-19062294D01*
X46709923Y-19062465D01*
X46709924Y-19062466D01*
X46709927Y-19062470D01*
X46709932Y-19062477D01*
X46730121Y-19087731D01*
X46730128Y-19087738D01*
X46730158Y-19087770D01*
X46751941Y-19107877D01*
X46753320Y-19108814D01*
X46761568Y-19116492D01*
X46761810Y-19116193D01*
X46776135Y-19127723D01*
X46786284Y-19143251D01*
X46809793Y-19161138D01*
X46810886Y-19162040D01*
X46812730Y-19163349D01*
X46812753Y-19163364D01*
X46812754Y-19163365D01*
X46814606Y-19164600D01*
X46815578Y-19165258D01*
X46815744Y-19165372D01*
X46815747Y-19165375D01*
X46816027Y-19165567D01*
X46816027Y-19165566D01*
X46830337Y-19175379D01*
X46832541Y-19178113D01*
X46833533Y-19178192D01*
X46855158Y-19186509D01*
X46856693Y-19187117D01*
X46857085Y-19187252D01*
X46879436Y-19195848D01*
X46882199Y-19195514D01*
X46882249Y-19195523D01*
X46884563Y-19196180D01*
X46892730Y-19197590D01*
X46892738Y-19197593D01*
X46896489Y-19197467D01*
X46919535Y-19199403D01*
X46928696Y-19201269D01*
X46928696Y-19201268D01*
X46930421Y-19201620D01*
X46932289Y-19201620D01*
X46932291Y-19201620D01*
X46960805Y-19199632D01*
X46960811Y-19199629D01*
X46965991Y-19198491D01*
X46968724Y-19198193D01*
X46975490Y-19196648D01*
X46976842Y-19196473D01*
X46979072Y-19195886D01*
X46982264Y-19195102D01*
X46983731Y-19194767D01*
X46984144Y-19194551D01*
X46988444Y-19192300D01*
X47013761Y-19183178D01*
X47018151Y-19182245D01*
X47018154Y-19182242D01*
X47018910Y-19181892D01*
X47043176Y-19168287D01*
X47046282Y-19167106D01*
X47046285Y-19167104D01*
X47046297Y-19167090D01*
X47048426Y-19165323D01*
X47051259Y-19163502D01*
X47051224Y-19163458D01*
X47058394Y-19157739D01*
X47059379Y-19157097D01*
X47060727Y-19155947D01*
X47063267Y-19153852D01*
X47064849Y-19152589D01*
X47065173Y-19152152D01*
X47065177Y-19152151D01*
X47068089Y-19148238D01*
X47086936Y-19129041D01*
X47090493Y-19126291D01*
X47090494Y-19126289D01*
X47097164Y-19118175D01*
X47105957Y-19105798D01*
X47106296Y-19105451D01*
X47106297Y-19105446D01*
X47106300Y-19105444D01*
X47111993Y-19096248D01*
X47112036Y-19096275D01*
X47112586Y-19095280D01*
X47112127Y-19095059D01*
X47116143Y-19086717D01*
X47116688Y-19085817D01*
X47117251Y-19084542D01*
X47118637Y-19081537D01*
X47119676Y-19079379D01*
X47120712Y-19074025D01*
X47129363Y-19048550D01*
X47131394Y-19044490D01*
X47131394Y-19044484D01*
X47134036Y-19033654D01*
X47134101Y-19033669D01*
X47136187Y-19021915D01*
X47136851Y-19016032D01*
X47136851Y-19000031D01*
X47137375Y-18995384D01*
X47137348Y-18994570D01*
X47137296Y-18992016D01*
X47137281Y-18990011D01*
X47137217Y-18989205D01*
X47137163Y-18989002D01*
X47137164Y-18989001D01*
X47135940Y-18984360D01*
X47132683Y-18957655D01*
X47132686Y-18957442D01*
X47132752Y-18953044D01*
X47132750Y-18953041D01*
X47130431Y-18942128D01*
X47130437Y-18942126D01*
X47127702Y-18932363D01*
X47124904Y-18924365D01*
X47118987Y-18910375D01*
X47118214Y-18908897D01*
X47117542Y-18909144D01*
X47115631Y-18903933D01*
X47115630Y-18903927D01*
X47115629Y-18903925D01*
X47115627Y-18903922D01*
X47115620Y-18903902D01*
X47115544Y-18903753D01*
X47115401Y-18903468D01*
X47114721Y-18902213D01*
X47112704Y-18898353D01*
X47108730Y-18892945D01*
X47094375Y-18870100D01*
X47094374Y-18870099D01*
X47094373Y-18870097D01*
X47089102Y-18864110D01*
X47089537Y-18863726D01*
X47081615Y-18854728D01*
X47081075Y-18855160D01*
X47077608Y-18850813D01*
X47077605Y-18850810D01*
X47077604Y-18850808D01*
X47077596Y-18850800D01*
X47055068Y-18831323D01*
X47055017Y-18831285D01*
X47055008Y-18831278D01*
X47049622Y-18827505D01*
X47027061Y-18805601D01*
X47018202Y-18793719D01*
X47018201Y-18793718D01*
X47018199Y-18793715D01*
X47012020Y-18788238D01*
X47007117Y-18783220D01*
X47005194Y-18781742D01*
X46963424Y-18761971D01*
X46956550Y-18758382D01*
X46952739Y-18756198D01*
X46938855Y-18748240D01*
X46938853Y-18748239D01*
X46933278Y-18746539D01*
X46923949Y-18742930D01*
X46922527Y-18742615D01*
X46869681Y-18742970D01*
X46861936Y-18742718D01*
X46847634Y-18741692D01*
X46845089Y-18742084D01*
X46831249Y-18743190D01*
X46831076Y-18743230D01*
X46831075Y-18743231D01*
X46831073Y-18743231D01*
X46831072Y-18743232D01*
X46781022Y-18767751D01*
X46773936Y-18770884D01*
X46770226Y-18772353D01*
X46762603Y-18775373D01*
X46761439Y-18776173D01*
X46748977Y-18783450D01*
X46748945Y-18783465D01*
X46715358Y-18826166D01*
X46710333Y-18832063D01*
X46700611Y-18842608D01*
X46699335Y-18844835D01*
X46692787Y-18854541D01*
X46692404Y-18855350D01*
X46681847Y-18903079D01*
X46679878Y-18910577D01*
X46673926Y-18930091D01*
X46673508Y-18935915D01*
X46672636Y-18941900D01*
X22601498Y-18941900D01*
X22675232Y-18803954D01*
X22735300Y-18605934D01*
X22735301Y-18605929D01*
X22748298Y-18473968D01*
X40849632Y-18473968D01*
X40861862Y-18556416D01*
X40880574Y-18585232D01*
X40911671Y-18633122D01*
X40911672Y-18633123D01*
X40989823Y-18680619D01*
X40989824Y-18680619D01*
X40989826Y-18680620D01*
X41080849Y-18689504D01*
X41166713Y-18658015D01*
X41230411Y-18592389D01*
X41235817Y-18576167D01*
X46056372Y-18576167D01*
X46060210Y-18593054D01*
X46060240Y-18593323D01*
X46060269Y-18593317D01*
X46060462Y-18594177D01*
X46060528Y-18594538D01*
X46061676Y-18599073D01*
X46061826Y-18599673D01*
X46062302Y-18601606D01*
X46062424Y-18602061D01*
X46062749Y-18603311D01*
X46067382Y-18621613D01*
X46069832Y-18624291D01*
X46070831Y-18626564D01*
X46075480Y-18637511D01*
X46075530Y-18637615D01*
X46075532Y-18637618D01*
X46088421Y-18660724D01*
X46088472Y-18660803D01*
X46103878Y-18680620D01*
X46104883Y-18681912D01*
X46111491Y-18691534D01*
X46113288Y-18694512D01*
X46118156Y-18697756D01*
X46130142Y-18707151D01*
X46134982Y-18711586D01*
X46135004Y-18711603D01*
X46135010Y-18711608D01*
X46172030Y-18734554D01*
X46174326Y-18735814D01*
X46174252Y-18735947D01*
X46182571Y-18740690D01*
X46189390Y-18745235D01*
X46214573Y-18748760D01*
X46229670Y-18752091D01*
X46232139Y-18752843D01*
X46232143Y-18752843D01*
X46232149Y-18752845D01*
X46258131Y-18756556D01*
X46259178Y-18756198D01*
X46274447Y-18757142D01*
X46279963Y-18757915D01*
X46367068Y-18730041D01*
X46433453Y-18667134D01*
X46465969Y-18581654D01*
X46458177Y-18490531D01*
X46456177Y-18484281D01*
X46450496Y-18473962D01*
X46418058Y-18415036D01*
X46418057Y-18415035D01*
X46345232Y-18359714D01*
X46345230Y-18359713D01*
X46255615Y-18341469D01*
X46255609Y-18341469D01*
X46166958Y-18363912D01*
X46166955Y-18363913D01*
X46096814Y-18422605D01*
X46059085Y-18505913D01*
X46060395Y-18561568D01*
X46056372Y-18576167D01*
X41235817Y-18576167D01*
X41259327Y-18505624D01*
X41259510Y-18503749D01*
X41259738Y-18501259D01*
X41259898Y-18499384D01*
X41260164Y-18495916D01*
X41260171Y-18495825D01*
X41260228Y-18494982D01*
X41260245Y-18494687D01*
X41260426Y-18491695D01*
X41260475Y-18490757D01*
X41260477Y-18490707D01*
X41260480Y-18490654D01*
X41260635Y-18487056D01*
X41260640Y-18486892D01*
X41260667Y-18486114D01*
X41260773Y-18481510D01*
X41260784Y-18480572D01*
X41260798Y-18478162D01*
X41260798Y-18476912D01*
X41245223Y-18398435D01*
X41207534Y-18345219D01*
X41761380Y-18345219D01*
X41761381Y-18345221D01*
X41787090Y-18432989D01*
X41848334Y-18500911D01*
X41932983Y-18535534D01*
X41933358Y-18535596D01*
X42012607Y-18533196D01*
X42012609Y-18533194D01*
X42018607Y-18533013D01*
X42057539Y-18539720D01*
X42100397Y-18556416D01*
X42113621Y-18561568D01*
X42116507Y-18562692D01*
X42119882Y-18563192D01*
X42190513Y-18561378D01*
X42273914Y-18523847D01*
X42332772Y-18453847D01*
X42355429Y-18365242D01*
X42337398Y-18275581D01*
X42335148Y-18270581D01*
X42332897Y-18265748D01*
X42315635Y-18244102D01*
X42295978Y-18201889D01*
X42294405Y-18194065D01*
X42289761Y-18170965D01*
X42289759Y-18170960D01*
X42289758Y-18170957D01*
X42286613Y-18163967D01*
X42283107Y-18158945D01*
X42242948Y-18101421D01*
X42242945Y-18101419D01*
X42242794Y-18101277D01*
X42240726Y-18098930D01*
X42235838Y-18094612D01*
X42196735Y-18072957D01*
X42192946Y-18070747D01*
X42178700Y-18062008D01*
X42172467Y-18055375D01*
X42156079Y-18050379D01*
X42155634Y-18050242D01*
X42153362Y-18049537D01*
X42150953Y-18048805D01*
X42148070Y-18047879D01*
X42139734Y-18045062D01*
X42138978Y-18045173D01*
X42135866Y-18044591D01*
X42131628Y-18043727D01*
X42129971Y-18043368D01*
X42104784Y-18038076D01*
X42097791Y-18039966D01*
X42091399Y-18039436D01*
X42065912Y-18036489D01*
X42065911Y-18036489D01*
X41978049Y-18061858D01*
X41907992Y-18124539D01*
X41881994Y-18149133D01*
X41821572Y-18187098D01*
X41821565Y-18187104D01*
X41821195Y-18187473D01*
X41821193Y-18187475D01*
X41776299Y-18254989D01*
X41761380Y-18345219D01*
X41207534Y-18345219D01*
X41192365Y-18323801D01*
X41192363Y-18323800D01*
X41192364Y-18323800D01*
X41112360Y-18279493D01*
X41112356Y-18279492D01*
X41026927Y-18274621D01*
X41021051Y-18274286D01*
X41021050Y-18274286D01*
X40936525Y-18309211D01*
X40875525Y-18377352D01*
X40850131Y-18465210D01*
X40849632Y-18473968D01*
X22748298Y-18473968D01*
X22755583Y-18400003D01*
X22755583Y-18399996D01*
X22735301Y-18194070D01*
X22735300Y-18194065D01*
X22723387Y-18154794D01*
X38155175Y-18154794D01*
X38155175Y-18154922D01*
X38155692Y-18163439D01*
X38155795Y-18170761D01*
X38156814Y-18183504D01*
X38170725Y-18233916D01*
X38171760Y-18238004D01*
X38176098Y-18256816D01*
X38176099Y-18256819D01*
X38232777Y-18328596D01*
X38314985Y-18368672D01*
X38406440Y-18369111D01*
X38406442Y-18369110D01*
X38417366Y-18363914D01*
X38489028Y-18329826D01*
X38546393Y-18258597D01*
X38546393Y-18258595D01*
X38547099Y-18257147D01*
X38549940Y-18244104D01*
X38552113Y-18234120D01*
X38552414Y-18232785D01*
X38567172Y-18169532D01*
X38567172Y-18169526D01*
X38567821Y-18164011D01*
X38569152Y-18164167D01*
X38586347Y-18112076D01*
X38636014Y-18076344D01*
X38681358Y-18072813D01*
X38700986Y-18075861D01*
X38700987Y-18075860D01*
X38711114Y-18077433D01*
X38724028Y-18073760D01*
X38729701Y-18073969D01*
X38739277Y-18070426D01*
X38752067Y-18066650D01*
X38761227Y-18064604D01*
X38762294Y-18063676D01*
X38767394Y-18061873D01*
X38770107Y-18059354D01*
X38777409Y-18056315D01*
X38781796Y-18054691D01*
X38784610Y-18051650D01*
X38785424Y-18051201D01*
X38792205Y-18047517D01*
X38792222Y-18047507D01*
X38820770Y-18027256D01*
X38820783Y-18027245D01*
X38844918Y-18003110D01*
X38844940Y-18003084D01*
X38860926Y-17981469D01*
X38860935Y-17981455D01*
X38864288Y-17976058D01*
X38864297Y-17976043D01*
X38867191Y-17971063D01*
X38867200Y-17971047D01*
X38878112Y-17948542D01*
X38878119Y-17948525D01*
X38881883Y-17938676D01*
X38881889Y-17938659D01*
X38883058Y-17935249D01*
X38883064Y-17935231D01*
X38886113Y-17925247D01*
X38886118Y-17925229D01*
X38890819Y-17904012D01*
X38890822Y-17903994D01*
X38891103Y-17902260D01*
X38891106Y-17902241D01*
X38891706Y-17897685D01*
X38892491Y-17891712D01*
X38892492Y-17891704D01*
X38892494Y-17891685D01*
X38893339Y-17880973D01*
X38893340Y-17880954D01*
X38893368Y-17859891D01*
X38893367Y-17859871D01*
X38893339Y-17859332D01*
X38893338Y-17859313D01*
X38892493Y-17848601D01*
X38892491Y-17848582D01*
X38889212Y-17827760D01*
X38889204Y-17827722D01*
X38883066Y-17805072D01*
X38883060Y-17805054D01*
X38879633Y-17795556D01*
X38879626Y-17795538D01*
X38874039Y-17782520D01*
X38874031Y-17782503D01*
X38869709Y-17773853D01*
X38869700Y-17773836D01*
X38857423Y-17753565D01*
X38857412Y-17753549D01*
X38852471Y-17746671D01*
X38852459Y-17746655D01*
X38838648Y-17730122D01*
X38838635Y-17730108D01*
X38833356Y-17724631D01*
X38833342Y-17724617D01*
X38833331Y-17724607D01*
X38833323Y-17724599D01*
X38817624Y-17710440D01*
X38817602Y-17710422D01*
X38817589Y-17710412D01*
X38799659Y-17697385D01*
X38799622Y-17697361D01*
X38795159Y-17694555D01*
X38795131Y-17694538D01*
X38772319Y-17682496D01*
X38772316Y-17682494D01*
X38772311Y-17682492D01*
X38772291Y-17682483D01*
X38769398Y-17681307D01*
X38758216Y-17676765D01*
X38758199Y-17676759D01*
X38758189Y-17676755D01*
X38758167Y-17676747D01*
X38750247Y-17674049D01*
X38750225Y-17674042D01*
X38733645Y-17669520D01*
X38733643Y-17669520D01*
X38728875Y-17669520D01*
X38711413Y-17663846D01*
X38683696Y-17664412D01*
X38683676Y-17664412D01*
X38683675Y-17664413D01*
X38680843Y-17664608D01*
X38663851Y-17665778D01*
X38663849Y-17665778D01*
X38663815Y-17665782D01*
X38651685Y-17667576D01*
X38649483Y-17667970D01*
X38649463Y-17667859D01*
X38632183Y-17671802D01*
X38571245Y-17666311D01*
X38525172Y-17626050D01*
X38524143Y-17624286D01*
X38521964Y-17620461D01*
X38518348Y-17614113D01*
X38443168Y-17562035D01*
X38443166Y-17562034D01*
X38443165Y-17562034D01*
X38352837Y-17547733D01*
X38265245Y-17574041D01*
X38197743Y-17635749D01*
X38163700Y-17720632D01*
X38165881Y-17752941D01*
X38166071Y-17762223D01*
X38165608Y-17779734D01*
X38165301Y-17784910D01*
X38165309Y-17788747D01*
X38164668Y-17805171D01*
X38165125Y-17806149D01*
X38165321Y-17809051D01*
X38170250Y-17818263D01*
X38171219Y-17825008D01*
X38174941Y-17859313D01*
X38174973Y-17859606D01*
X38175365Y-17860780D01*
X38175455Y-17861157D01*
X38175996Y-17862672D01*
X38176879Y-17865315D01*
X38177834Y-17867293D01*
X38195724Y-17894680D01*
X38197935Y-17898225D01*
X38210100Y-17918684D01*
X38223588Y-17978364D01*
X38207080Y-18024642D01*
X38203070Y-18030587D01*
X38198399Y-18036949D01*
X38175526Y-18065632D01*
X38172846Y-18071196D01*
X38169038Y-18081042D01*
X38164372Y-18113083D01*
X38162924Y-18120842D01*
X38155175Y-18154794D01*
X22723387Y-18154794D01*
X22698562Y-18072957D01*
X22675232Y-17996046D01*
X22577685Y-17813550D01*
X22571611Y-17806149D01*
X22464443Y-17675563D01*
X22446410Y-17653590D01*
X22424671Y-17635749D01*
X22286452Y-17522316D01*
X22244105Y-17499681D01*
X39210792Y-17499681D01*
X39211012Y-17500405D01*
X39210923Y-17501425D01*
X39231449Y-17598132D01*
X39231450Y-17598133D01*
X39286889Y-17669869D01*
X39287375Y-17670497D01*
X39369159Y-17711430D01*
X39460600Y-17712825D01*
X39460600Y-17712824D01*
X39460605Y-17712825D01*
X39543599Y-17674404D01*
X39601705Y-17603779D01*
X39602205Y-17602780D01*
X39603443Y-17600263D01*
X39623937Y-17511133D01*
X39623938Y-17510508D01*
X39623938Y-17509850D01*
X39623937Y-17509225D01*
X39623903Y-17488472D01*
X39618575Y-17478197D01*
X39612077Y-17440499D01*
X39612076Y-17440496D01*
X39563046Y-17363294D01*
X39485376Y-17315011D01*
X39485374Y-17315010D01*
X39394445Y-17305208D01*
X39394444Y-17305208D01*
X39394443Y-17305208D01*
X39308267Y-17335830D01*
X39308265Y-17335831D01*
X39243912Y-17400808D01*
X39243909Y-17400813D01*
X39241728Y-17407144D01*
X39227809Y-17425606D01*
X39227086Y-17426725D01*
X39226657Y-17428508D01*
X39225345Y-17430645D01*
X39225296Y-17430872D01*
X39224375Y-17432448D01*
X39223788Y-17435365D01*
X39222568Y-17437529D01*
X39222170Y-17439758D01*
X39220910Y-17442111D01*
X39220594Y-17444162D01*
X39219369Y-17446586D01*
X39217663Y-17459721D01*
X39214313Y-17475408D01*
X39213467Y-17478225D01*
X39212348Y-17483839D01*
X39212390Y-17484033D01*
X39211711Y-17488006D01*
X39211841Y-17488549D01*
X39211241Y-17492606D01*
X39211244Y-17492615D01*
X39210939Y-17494986D01*
X39211204Y-17495932D01*
X39210792Y-17499681D01*
X22244105Y-17499681D01*
X22103954Y-17424768D01*
X21905934Y-17364699D01*
X21905929Y-17364698D01*
X21700003Y-17344417D01*
X21699997Y-17344417D01*
X21494070Y-17364698D01*
X21494065Y-17364699D01*
X21296045Y-17424768D01*
X21113547Y-17522316D01*
X20953595Y-17653585D01*
X20953585Y-17653595D01*
X20822316Y-17813547D01*
X20724768Y-17996045D01*
X20664699Y-18194065D01*
X20664698Y-18194070D01*
X20644417Y-18399996D01*
X20215583Y-18399996D01*
X20195301Y-18194070D01*
X20195300Y-18194065D01*
X20158562Y-18072957D01*
X20135232Y-17996046D01*
X20037685Y-17813550D01*
X20031611Y-17806149D01*
X19924443Y-17675563D01*
X19906410Y-17653590D01*
X19884671Y-17635749D01*
X19746452Y-17522316D01*
X19563954Y-17424768D01*
X19365934Y-17364699D01*
X19365929Y-17364698D01*
X19160003Y-17344417D01*
X19159997Y-17344417D01*
X18954070Y-17364698D01*
X18954065Y-17364699D01*
X18756045Y-17424768D01*
X18573547Y-17522316D01*
X18573541Y-17522320D01*
X18462304Y-17613610D01*
X18405328Y-17635910D01*
X18346125Y-17620461D01*
X18307310Y-17573164D01*
X18300500Y-17537082D01*
X18300500Y-17185477D01*
X18319407Y-17127286D01*
X18329490Y-17115480D01*
X18464765Y-16980205D01*
X44585655Y-16980205D01*
X44585655Y-16982126D01*
X44585658Y-16982747D01*
X44585659Y-16982764D01*
X44602695Y-17063629D01*
X44656907Y-17137286D01*
X44697307Y-17158706D01*
X44737705Y-17180126D01*
X44737706Y-17180126D01*
X44737708Y-17180127D01*
X44829096Y-17183666D01*
X44912969Y-17147204D01*
X44972715Y-17077961D01*
X44977231Y-17061194D01*
X44995521Y-17025094D01*
X44999600Y-17019996D01*
X58944417Y-17019996D01*
X58944417Y-17020003D01*
X58964698Y-17225929D01*
X58964699Y-17225934D01*
X59024768Y-17423954D01*
X59122316Y-17606452D01*
X59237391Y-17746671D01*
X59253590Y-17766410D01*
X59273220Y-17782520D01*
X59413547Y-17897683D01*
X59413548Y-17897683D01*
X59413550Y-17897685D01*
X59596046Y-17995232D01*
X59732054Y-18036489D01*
X59794065Y-18055300D01*
X59794070Y-18055301D01*
X59999997Y-18075583D01*
X60000000Y-18075583D01*
X60000003Y-18075583D01*
X60205929Y-18055301D01*
X60205934Y-18055300D01*
X60211789Y-18053524D01*
X60403954Y-17995232D01*
X60586450Y-17897685D01*
X60746410Y-17766410D01*
X60877685Y-17606450D01*
X60975232Y-17423954D01*
X61035300Y-17225934D01*
X61035301Y-17225929D01*
X61055583Y-17020003D01*
X61055583Y-17019996D01*
X61035301Y-16814070D01*
X61035300Y-16814065D01*
X61014779Y-16746418D01*
X60975232Y-16616046D01*
X60877685Y-16433550D01*
X60876352Y-16431926D01*
X60746414Y-16273595D01*
X60746410Y-16273590D01*
X60734675Y-16263959D01*
X60586452Y-16142316D01*
X60403954Y-16044768D01*
X60205934Y-15984699D01*
X60205929Y-15984698D01*
X60000003Y-15964417D01*
X59999997Y-15964417D01*
X59794070Y-15984698D01*
X59794065Y-15984699D01*
X59596045Y-16044768D01*
X59413547Y-16142316D01*
X59253595Y-16273585D01*
X59253585Y-16273595D01*
X59122316Y-16433547D01*
X59024768Y-16616045D01*
X58964699Y-16814065D01*
X58964698Y-16814070D01*
X58944417Y-17019996D01*
X44999600Y-17019996D01*
X45022685Y-16991146D01*
X45050550Y-16904038D01*
X45050546Y-16904007D01*
X45037861Y-16813468D01*
X45037860Y-16813467D01*
X45037860Y-16813466D01*
X44987129Y-16737370D01*
X44987128Y-16737369D01*
X44908405Y-16690820D01*
X44824449Y-16683651D01*
X44817281Y-16683039D01*
X44817280Y-16683039D01*
X44817278Y-16683039D01*
X44731802Y-16715565D01*
X44731798Y-16715568D01*
X44715714Y-16727461D01*
X44715697Y-16727475D01*
X44713794Y-16729030D01*
X44705810Y-16735907D01*
X44705736Y-16735974D01*
X44702697Y-16738787D01*
X44701735Y-16739697D01*
X44701201Y-16740208D01*
X44700293Y-16741060D01*
X44698448Y-16742812D01*
X44696435Y-16744748D01*
X44694720Y-16746418D01*
X44692934Y-16748179D01*
X44691828Y-16749275D01*
X44689982Y-16751118D01*
X44689980Y-16751120D01*
X44643348Y-16822838D01*
X44639555Y-16832933D01*
X44638934Y-16832699D01*
X44622542Y-16870408D01*
X44606407Y-16890457D01*
X44585658Y-16979531D01*
X44585655Y-16980205D01*
X18464765Y-16980205D01*
X18608784Y-16836185D01*
X18663299Y-16808409D01*
X18723731Y-16817980D01*
X18725431Y-16818868D01*
X18756046Y-16835232D01*
X18872007Y-16870408D01*
X18954065Y-16895300D01*
X18954070Y-16895301D01*
X19159997Y-16915583D01*
X19160000Y-16915583D01*
X19160003Y-16915583D01*
X19365929Y-16895301D01*
X19365934Y-16895300D01*
X19381899Y-16890457D01*
X19563954Y-16835232D01*
X19746450Y-16737685D01*
X19906410Y-16606410D01*
X20037685Y-16446450D01*
X20135232Y-16263954D01*
X20195300Y-16065934D01*
X20195301Y-16065929D01*
X20215583Y-15860003D01*
X20215583Y-15859996D01*
X20195301Y-15654070D01*
X20195300Y-15654065D01*
X20159359Y-15535583D01*
X20135232Y-15456046D01*
X20037685Y-15273550D01*
X19998998Y-15226410D01*
X19906414Y-15113595D01*
X19906410Y-15113590D01*
X19848972Y-15066452D01*
X19756123Y-14990253D01*
X20649500Y-14990253D01*
X20649500Y-16729746D01*
X20649501Y-16729758D01*
X20661132Y-16788227D01*
X20661134Y-16788233D01*
X20705445Y-16854548D01*
X20705448Y-16854552D01*
X20771769Y-16898867D01*
X20816231Y-16907711D01*
X20830241Y-16910498D01*
X20830246Y-16910498D01*
X20830252Y-16910500D01*
X20830253Y-16910500D01*
X22569747Y-16910500D01*
X22569748Y-16910500D01*
X22628231Y-16898867D01*
X22694552Y-16854552D01*
X22738867Y-16788231D01*
X22750500Y-16729748D01*
X22750500Y-16340781D01*
X46796217Y-16340781D01*
X46803742Y-16431924D01*
X46803741Y-16431924D01*
X46850067Y-16510778D01*
X46850069Y-16510780D01*
X46850070Y-16510781D01*
X46926023Y-16561726D01*
X46963568Y-16567093D01*
X46987481Y-16573650D01*
X47059821Y-16603662D01*
X47151246Y-16601256D01*
X47232572Y-16559421D01*
X47287694Y-16486443D01*
X47305692Y-16396775D01*
X47283002Y-16308178D01*
X47224119Y-16238200D01*
X47220020Y-16235104D01*
X47215278Y-16231627D01*
X47215277Y-16231626D01*
X47215248Y-16231605D01*
X47212580Y-16229708D01*
X47211059Y-16228626D01*
X47206247Y-16225305D01*
X47206175Y-16225256D01*
X47204352Y-16224036D01*
X47204349Y-16224034D01*
X47194245Y-16218283D01*
X47178519Y-16209332D01*
X47175626Y-16207952D01*
X47155527Y-16201902D01*
X47117772Y-16190539D01*
X47106091Y-16184626D01*
X47105542Y-16185855D01*
X47095362Y-16181301D01*
X47095361Y-16181301D01*
X47095359Y-16181300D01*
X47095358Y-16181300D01*
X47005665Y-16163476D01*
X47005660Y-16163475D01*
X47005659Y-16163475D01*
X47004313Y-16163513D01*
X47004307Y-16163513D01*
X47004244Y-16163515D01*
X47000424Y-16163659D01*
X46998601Y-16163745D01*
X46994917Y-16163953D01*
X46993182Y-16164067D01*
X46989643Y-16164329D01*
X46987876Y-16164476D01*
X46984626Y-16164772D01*
X46982901Y-16164943D01*
X46982839Y-16164949D01*
X46982835Y-16164950D01*
X46979822Y-16165271D01*
X46978086Y-16165469D01*
X46977398Y-16165552D01*
X46975073Y-16165835D01*
X46975014Y-16165842D01*
X46975011Y-16165843D01*
X46973287Y-16166066D01*
X46973284Y-16166066D01*
X46973279Y-16166068D01*
X46895553Y-16192683D01*
X46828985Y-16255395D01*
X46796217Y-16340781D01*
X22750500Y-16340781D01*
X22750500Y-14990252D01*
X22748921Y-14982316D01*
X22747419Y-14974765D01*
X22738867Y-14931769D01*
X22694552Y-14865448D01*
X22694548Y-14865445D01*
X22628233Y-14821134D01*
X22628231Y-14821133D01*
X22628228Y-14821132D01*
X22628227Y-14821132D01*
X22569758Y-14809501D01*
X22569748Y-14809500D01*
X20830252Y-14809500D01*
X20830251Y-14809500D01*
X20830241Y-14809501D01*
X20771772Y-14821132D01*
X20771766Y-14821134D01*
X20705451Y-14865445D01*
X20705445Y-14865451D01*
X20661134Y-14931766D01*
X20661132Y-14931772D01*
X20649501Y-14990241D01*
X20649500Y-14990253D01*
X19756123Y-14990253D01*
X19746452Y-14982316D01*
X19563954Y-14884768D01*
X19365934Y-14824699D01*
X19365929Y-14824698D01*
X19160003Y-14804417D01*
X19159997Y-14804417D01*
X18954070Y-14824698D01*
X18954065Y-14824699D01*
X18756045Y-14884768D01*
X18573547Y-14982316D01*
X18413595Y-15113585D01*
X18413585Y-15113595D01*
X18282316Y-15273547D01*
X18184768Y-15456045D01*
X18124699Y-15654065D01*
X18124698Y-15654070D01*
X18104417Y-15859996D01*
X18104417Y-15860003D01*
X18124698Y-16065929D01*
X18124699Y-16065934D01*
X18184768Y-16263954D01*
X18184770Y-16263959D01*
X18201118Y-16294544D01*
X18211874Y-16354777D01*
X18185172Y-16409828D01*
X18183812Y-16411215D01*
X17815489Y-16779539D01*
X17759539Y-16835489D01*
X17719980Y-16904007D01*
X17719978Y-16904011D01*
X17699500Y-16980435D01*
X17699500Y-17795889D01*
X17680593Y-17854080D01*
X17631093Y-17890044D01*
X17569907Y-17890044D01*
X17520407Y-17854080D01*
X17513190Y-17842558D01*
X17497685Y-17813550D01*
X17491611Y-17806149D01*
X17384443Y-17675563D01*
X17366410Y-17653590D01*
X17344671Y-17635749D01*
X17206452Y-17522316D01*
X17023954Y-17424768D01*
X16825934Y-17364699D01*
X16825929Y-17364698D01*
X16620003Y-17344417D01*
X16619997Y-17344417D01*
X16414070Y-17364698D01*
X16414065Y-17364699D01*
X16216045Y-17424768D01*
X16033547Y-17522316D01*
X15873595Y-17653585D01*
X15873585Y-17653595D01*
X15742316Y-17813547D01*
X15644768Y-17996045D01*
X15584699Y-18194065D01*
X15584698Y-18194070D01*
X15564417Y-18399996D01*
X15564417Y-18400003D01*
X15584698Y-18605929D01*
X15584699Y-18605934D01*
X15644768Y-18803954D01*
X15742316Y-18986452D01*
X15859601Y-19129364D01*
X15873590Y-19146410D01*
X15896636Y-19165323D01*
X16033547Y-19277683D01*
X16033548Y-19277683D01*
X16033550Y-19277685D01*
X16216046Y-19375232D01*
X16347524Y-19415115D01*
X16414065Y-19435300D01*
X16414070Y-19435301D01*
X16619997Y-19455583D01*
X16620000Y-19455583D01*
X16620003Y-19455583D01*
X16825929Y-19435301D01*
X16825934Y-19435300D01*
X16870286Y-19421846D01*
X17023954Y-19375232D01*
X17206450Y-19277685D01*
X17366410Y-19146410D01*
X17497685Y-18986450D01*
X17513190Y-18957441D01*
X17557295Y-18915035D01*
X17617903Y-18906652D01*
X17671864Y-18935494D01*
X17698566Y-18990545D01*
X17699500Y-19004110D01*
X17699500Y-26034521D01*
X17680593Y-26092712D01*
X17670504Y-26104525D01*
X15315489Y-28459540D01*
X15315488Y-28459539D01*
X15259539Y-28515489D01*
X15219980Y-28584007D01*
X15219978Y-28584011D01*
X15199500Y-28660435D01*
X12700500Y-28660435D01*
X12700500Y-18399996D01*
X13024417Y-18399996D01*
X13024417Y-18400003D01*
X13044698Y-18605929D01*
X13044699Y-18605934D01*
X13104768Y-18803954D01*
X13202316Y-18986452D01*
X13319601Y-19129364D01*
X13333590Y-19146410D01*
X13356636Y-19165323D01*
X13493547Y-19277683D01*
X13493548Y-19277683D01*
X13493550Y-19277685D01*
X13676046Y-19375232D01*
X13807524Y-19415115D01*
X13874065Y-19435300D01*
X13874070Y-19435301D01*
X14079997Y-19455583D01*
X14080000Y-19455583D01*
X14080003Y-19455583D01*
X14285929Y-19435301D01*
X14285934Y-19435300D01*
X14330286Y-19421846D01*
X14483954Y-19375232D01*
X14666450Y-19277685D01*
X14826410Y-19146410D01*
X14957685Y-18986450D01*
X15055232Y-18803954D01*
X15115300Y-18605934D01*
X15115301Y-18605929D01*
X15135583Y-18400003D01*
X15135583Y-18399996D01*
X15115301Y-18194070D01*
X15115300Y-18194065D01*
X15078562Y-18072957D01*
X15055232Y-17996046D01*
X14957685Y-17813550D01*
X14951611Y-17806149D01*
X14844443Y-17675563D01*
X14826410Y-17653590D01*
X14804671Y-17635749D01*
X14666452Y-17522316D01*
X14483954Y-17424768D01*
X14285934Y-17364699D01*
X14285929Y-17364698D01*
X14080003Y-17344417D01*
X14079997Y-17344417D01*
X13874070Y-17364698D01*
X13874065Y-17364699D01*
X13676045Y-17424768D01*
X13493547Y-17522316D01*
X13333595Y-17653585D01*
X13333585Y-17653595D01*
X13202316Y-17813547D01*
X13104768Y-17996045D01*
X13044699Y-18194065D01*
X13044698Y-18194070D01*
X13024417Y-18399996D01*
X12700500Y-18399996D01*
X12700500Y-15859996D01*
X13024417Y-15859996D01*
X13024417Y-15860003D01*
X13044698Y-16065929D01*
X13044699Y-16065934D01*
X13104768Y-16263954D01*
X13202316Y-16446452D01*
X13306269Y-16573119D01*
X13333590Y-16606410D01*
X13333595Y-16606414D01*
X13493547Y-16737683D01*
X13493548Y-16737683D01*
X13493550Y-16737685D01*
X13676046Y-16835232D01*
X13792007Y-16870408D01*
X13874065Y-16895300D01*
X13874070Y-16895301D01*
X14079997Y-16915583D01*
X14080000Y-16915583D01*
X14080003Y-16915583D01*
X14285929Y-16895301D01*
X14285934Y-16895300D01*
X14301899Y-16890457D01*
X14483954Y-16835232D01*
X14666450Y-16737685D01*
X14826410Y-16606410D01*
X14957685Y-16446450D01*
X15055232Y-16263954D01*
X15115300Y-16065934D01*
X15115301Y-16065929D01*
X15135583Y-15860003D01*
X15135583Y-15859996D01*
X15564417Y-15859996D01*
X15564417Y-15860003D01*
X15584698Y-16065929D01*
X15584699Y-16065934D01*
X15644768Y-16263954D01*
X15742316Y-16446452D01*
X15846269Y-16573119D01*
X15873590Y-16606410D01*
X15873595Y-16606414D01*
X16033547Y-16737683D01*
X16033548Y-16737683D01*
X16033550Y-16737685D01*
X16216046Y-16835232D01*
X16332007Y-16870408D01*
X16414065Y-16895300D01*
X16414070Y-16895301D01*
X16619997Y-16915583D01*
X16620000Y-16915583D01*
X16620003Y-16915583D01*
X16825929Y-16895301D01*
X16825934Y-16895300D01*
X16841899Y-16890457D01*
X17023954Y-16835232D01*
X17206450Y-16737685D01*
X17366410Y-16606410D01*
X17497685Y-16446450D01*
X17595232Y-16263954D01*
X17655300Y-16065934D01*
X17655301Y-16065929D01*
X17675583Y-15860003D01*
X17675583Y-15859996D01*
X17655301Y-15654070D01*
X17655300Y-15654065D01*
X17619359Y-15535583D01*
X17595232Y-15456046D01*
X17497685Y-15273550D01*
X17458998Y-15226410D01*
X17366414Y-15113595D01*
X17366410Y-15113590D01*
X17308972Y-15066452D01*
X17206452Y-14982316D01*
X17023954Y-14884768D01*
X16825934Y-14824699D01*
X16825929Y-14824698D01*
X16620003Y-14804417D01*
X16619997Y-14804417D01*
X16414070Y-14824698D01*
X16414065Y-14824699D01*
X16216045Y-14884768D01*
X16033547Y-14982316D01*
X15873595Y-15113585D01*
X15873585Y-15113595D01*
X15742316Y-15273547D01*
X15644768Y-15456045D01*
X15584699Y-15654065D01*
X15584698Y-15654070D01*
X15564417Y-15859996D01*
X15135583Y-15859996D01*
X15115301Y-15654070D01*
X15115300Y-15654065D01*
X15079359Y-15535583D01*
X15055232Y-15456046D01*
X14957685Y-15273550D01*
X14918998Y-15226410D01*
X14826414Y-15113595D01*
X14826410Y-15113590D01*
X14768972Y-15066452D01*
X14666452Y-14982316D01*
X14483954Y-14884768D01*
X14285934Y-14824699D01*
X14285929Y-14824698D01*
X14080003Y-14804417D01*
X14079997Y-14804417D01*
X13874070Y-14824698D01*
X13874065Y-14824699D01*
X13676045Y-14884768D01*
X13493547Y-14982316D01*
X13333595Y-15113585D01*
X13333585Y-15113595D01*
X13202316Y-15273547D01*
X13104768Y-15456045D01*
X13044699Y-15654065D01*
X13044698Y-15654070D01*
X13024417Y-15859996D01*
X12700500Y-15859996D01*
X12700500Y-13205555D01*
X12701121Y-13194488D01*
X12708359Y-13130253D01*
X29374500Y-13130253D01*
X29374500Y-14869746D01*
X29374501Y-14869758D01*
X29386132Y-14928227D01*
X29386134Y-14928233D01*
X29427575Y-14990253D01*
X29430448Y-14994552D01*
X29496769Y-15038867D01*
X29541231Y-15047711D01*
X29555241Y-15050498D01*
X29555246Y-15050498D01*
X29555252Y-15050500D01*
X29555253Y-15050500D01*
X31294747Y-15050500D01*
X31294748Y-15050500D01*
X31353231Y-15038867D01*
X31419552Y-14994552D01*
X31463867Y-14928231D01*
X31475500Y-14869748D01*
X31475500Y-13849998D01*
X31924692Y-13849998D01*
X31924694Y-13850000D01*
X32487555Y-13850000D01*
X32465000Y-13934174D01*
X32465000Y-14065826D01*
X32487555Y-14150000D01*
X31924694Y-14150000D01*
X31924692Y-14150001D01*
X31930191Y-14205833D01*
X31930190Y-14205833D01*
X31990232Y-14403762D01*
X31990234Y-14403767D01*
X32087724Y-14586160D01*
X32087731Y-14586170D01*
X32218940Y-14746050D01*
X32218949Y-14746059D01*
X32378829Y-14877268D01*
X32378839Y-14877275D01*
X32561232Y-14974765D01*
X32561237Y-14974767D01*
X32759166Y-15034808D01*
X32814998Y-15040307D01*
X32815000Y-15040306D01*
X32815000Y-14477445D01*
X32899174Y-14500000D01*
X33030826Y-14500000D01*
X33115000Y-14477445D01*
X33115000Y-15040306D01*
X33115001Y-15040307D01*
X33170833Y-15034808D01*
X33368762Y-14974767D01*
X33368767Y-14974765D01*
X33551160Y-14877275D01*
X33551170Y-14877268D01*
X33711050Y-14746059D01*
X33711059Y-14746050D01*
X33842268Y-14586170D01*
X33842275Y-14586160D01*
X33899020Y-14479996D01*
X58944417Y-14479996D01*
X58944417Y-14480003D01*
X58964698Y-14685929D01*
X58964699Y-14685934D01*
X59024768Y-14883954D01*
X59122316Y-15066452D01*
X59253585Y-15226404D01*
X59253590Y-15226410D01*
X59253595Y-15226414D01*
X59413547Y-15357683D01*
X59413548Y-15357683D01*
X59413550Y-15357685D01*
X59596046Y-15455232D01*
X59733997Y-15497078D01*
X59794065Y-15515300D01*
X59794070Y-15515301D01*
X59999997Y-15535583D01*
X60000000Y-15535583D01*
X60000003Y-15535583D01*
X60205929Y-15515301D01*
X60205934Y-15515300D01*
X60403954Y-15455232D01*
X60586450Y-15357685D01*
X60746410Y-15226410D01*
X60877685Y-15066450D01*
X60975232Y-14883954D01*
X61035300Y-14685934D01*
X61035301Y-14685929D01*
X61055583Y-14480003D01*
X61055583Y-14479996D01*
X61035301Y-14274070D01*
X61035300Y-14274065D01*
X61010707Y-14192993D01*
X60975232Y-14076046D01*
X60877685Y-13893550D01*
X60806661Y-13807007D01*
X60746414Y-13733595D01*
X60746410Y-13733590D01*
X60696942Y-13692993D01*
X60586452Y-13602316D01*
X60403954Y-13504768D01*
X60205934Y-13444699D01*
X60205929Y-13444698D01*
X60000003Y-13424417D01*
X59999997Y-13424417D01*
X59794070Y-13444698D01*
X59794065Y-13444699D01*
X59596045Y-13504768D01*
X59413547Y-13602316D01*
X59253595Y-13733585D01*
X59253585Y-13733595D01*
X59122316Y-13893547D01*
X59024768Y-14076045D01*
X58964699Y-14274065D01*
X58964698Y-14274070D01*
X58944417Y-14479996D01*
X33899020Y-14479996D01*
X33939765Y-14403767D01*
X33939767Y-14403762D01*
X33999808Y-14205833D01*
X34005307Y-14150001D01*
X34005306Y-14150000D01*
X33442445Y-14150000D01*
X33465000Y-14065826D01*
X33465000Y-13934174D01*
X33442445Y-13850000D01*
X34005306Y-13850000D01*
X34005307Y-13849998D01*
X33999808Y-13794166D01*
X33999809Y-13794166D01*
X33939767Y-13596237D01*
X33939765Y-13596232D01*
X33842275Y-13413839D01*
X33842268Y-13413829D01*
X33711059Y-13253949D01*
X33711050Y-13253940D01*
X33551170Y-13122731D01*
X33551160Y-13122724D01*
X33368767Y-13025234D01*
X33368762Y-13025232D01*
X33170843Y-12965194D01*
X33170832Y-12965191D01*
X33115000Y-12959692D01*
X33115000Y-13522554D01*
X33030826Y-13500000D01*
X32899174Y-13500000D01*
X32815000Y-13522554D01*
X32815000Y-12959692D01*
X32759167Y-12965191D01*
X32759156Y-12965194D01*
X32561237Y-13025232D01*
X32561232Y-13025234D01*
X32378839Y-13122724D01*
X32378829Y-13122731D01*
X32218949Y-13253940D01*
X32218940Y-13253949D01*
X32087731Y-13413829D01*
X32087724Y-13413839D01*
X31990234Y-13596232D01*
X31990232Y-13596237D01*
X31930191Y-13794166D01*
X31924692Y-13849998D01*
X31475500Y-13849998D01*
X31475500Y-13130252D01*
X31463867Y-13071769D01*
X31419552Y-13005448D01*
X31419548Y-13005445D01*
X31353233Y-12961134D01*
X31353231Y-12961133D01*
X31353228Y-12961132D01*
X31353227Y-12961132D01*
X31294758Y-12949501D01*
X31294748Y-12949500D01*
X29555252Y-12949500D01*
X29555251Y-12949500D01*
X29555241Y-12949501D01*
X29496772Y-12961132D01*
X29496766Y-12961134D01*
X29430451Y-13005445D01*
X29430445Y-13005451D01*
X29386134Y-13071766D01*
X29386132Y-13071772D01*
X29374501Y-13130241D01*
X29374500Y-13130253D01*
X12708359Y-13130253D01*
X12711776Y-13099924D01*
X12716704Y-13078332D01*
X12746285Y-12993794D01*
X12755897Y-12973834D01*
X12803541Y-12898010D01*
X12817357Y-12880684D01*
X12880684Y-12817357D01*
X12898012Y-12803540D01*
X12973834Y-12755897D01*
X12993794Y-12746285D01*
X13078332Y-12716704D01*
X13099924Y-12711776D01*
X13194487Y-12701121D01*
X13205556Y-12700500D01*
X13265892Y-12700500D01*
X60834108Y-12700500D01*
X60894444Y-12700500D01*
X60905512Y-12701121D01*
G37*
G04 #@! TD.AperFunction*
M02*
