G04 #@! TF.GenerationSoftware,KiCad,Pcbnew,8.0.4*
G04 #@! TF.CreationDate,2024-08-03T17:02:50+02:00*
G04 #@! TF.ProjectId,koyomi-keyboard-adapter,6b6f796f-6d69-42d6-9b65-79626f617264,rev?*
G04 #@! TF.SameCoordinates,Original*
G04 #@! TF.FileFunction,Copper,L1,Top*
G04 #@! TF.FilePolarity,Positive*
%FSLAX46Y46*%
G04 Gerber Fmt 4.6, Leading zero omitted, Abs format (unit mm)*
G04 Created by KiCad (PCBNEW 8.0.4) date 2024-08-03 17:02:50*
%MOMM*%
%LPD*%
G01*
G04 APERTURE LIST*
G04 Aperture macros list*
%AMRoundRect*
0 Rectangle with rounded corners*
0 $1 Rounding radius*
0 $2 $3 $4 $5 $6 $7 $8 $9 X,Y pos of 4 corners*
0 Add a 4 corners polygon primitive as box body*
4,1,4,$2,$3,$4,$5,$6,$7,$8,$9,$2,$3,0*
0 Add four circle primitives for the rounded corners*
1,1,$1+$1,$2,$3*
1,1,$1+$1,$4,$5*
1,1,$1+$1,$6,$7*
1,1,$1+$1,$8,$9*
0 Add four rect primitives between the rounded corners*
20,1,$1+$1,$2,$3,$4,$5,0*
20,1,$1+$1,$4,$5,$6,$7,0*
20,1,$1+$1,$6,$7,$8,$9,0*
20,1,$1+$1,$8,$9,$2,$3,0*%
G04 Aperture macros list end*
G04 #@! TA.AperFunction,SMDPad,CuDef*
%ADD10RoundRect,0.140000X0.170000X-0.140000X0.170000X0.140000X-0.170000X0.140000X-0.170000X-0.140000X0*%
G04 #@! TD*
G04 #@! TA.AperFunction,ComponentPad*
%ADD11R,1.700000X1.700000*%
G04 #@! TD*
G04 #@! TA.AperFunction,ComponentPad*
%ADD12O,1.700000X1.700000*%
G04 #@! TD*
G04 #@! TA.AperFunction,SMDPad,CuDef*
%ADD13RoundRect,0.150000X0.150000X-0.512500X0.150000X0.512500X-0.150000X0.512500X-0.150000X-0.512500X0*%
G04 #@! TD*
G04 #@! TA.AperFunction,SMDPad,CuDef*
%ADD14RoundRect,0.135000X-0.185000X0.135000X-0.185000X-0.135000X0.185000X-0.135000X0.185000X0.135000X0*%
G04 #@! TD*
G04 #@! TA.AperFunction,SMDPad,CuDef*
%ADD15RoundRect,0.050000X-0.387500X-0.050000X0.387500X-0.050000X0.387500X0.050000X-0.387500X0.050000X0*%
G04 #@! TD*
G04 #@! TA.AperFunction,SMDPad,CuDef*
%ADD16RoundRect,0.050000X-0.050000X-0.387500X0.050000X-0.387500X0.050000X0.387500X-0.050000X0.387500X0*%
G04 #@! TD*
G04 #@! TA.AperFunction,HeatsinkPad*
%ADD17R,3.200000X3.200000*%
G04 #@! TD*
G04 #@! TA.AperFunction,SMDPad,CuDef*
%ADD18RoundRect,0.140000X-0.140000X-0.170000X0.140000X-0.170000X0.140000X0.170000X-0.140000X0.170000X0*%
G04 #@! TD*
G04 #@! TA.AperFunction,SMDPad,CuDef*
%ADD19R,1.200000X1.400000*%
G04 #@! TD*
G04 #@! TA.AperFunction,SMDPad,CuDef*
%ADD20RoundRect,0.140000X-0.170000X0.140000X-0.170000X-0.140000X0.170000X-0.140000X0.170000X0.140000X0*%
G04 #@! TD*
G04 #@! TA.AperFunction,SMDPad,CuDef*
%ADD21RoundRect,0.135000X-0.135000X-0.185000X0.135000X-0.185000X0.135000X0.185000X-0.135000X0.185000X0*%
G04 #@! TD*
G04 #@! TA.AperFunction,SMDPad,CuDef*
%ADD22RoundRect,0.150000X-0.650000X-0.150000X0.650000X-0.150000X0.650000X0.150000X-0.650000X0.150000X0*%
G04 #@! TD*
G04 #@! TA.AperFunction,SMDPad,CuDef*
%ADD23R,1.100000X0.200000*%
G04 #@! TD*
G04 #@! TA.AperFunction,SMDPad,CuDef*
%ADD24RoundRect,0.135000X0.185000X-0.135000X0.185000X0.135000X-0.185000X0.135000X-0.185000X-0.135000X0*%
G04 #@! TD*
G04 #@! TA.AperFunction,ViaPad*
%ADD25C,0.600000*%
G04 #@! TD*
G04 #@! TA.AperFunction,Conductor*
%ADD26C,0.200000*%
G04 #@! TD*
G04 #@! TA.AperFunction,Conductor*
%ADD27C,0.500000*%
G04 #@! TD*
G04 #@! TA.AperFunction,Conductor*
%ADD28C,0.800000*%
G04 #@! TD*
G04 APERTURE END LIST*
D10*
X41900000Y-20880000D03*
X41900000Y-19920000D03*
D11*
X21700000Y-15860000D03*
D12*
X21700000Y-18400000D03*
X19160000Y-15860000D03*
X19160000Y-18400000D03*
X16620000Y-15860000D03*
X16620000Y-18400000D03*
X14080000Y-15860000D03*
X14080000Y-18400000D03*
D10*
X39300000Y-16000000D03*
X39300000Y-15040000D03*
D13*
X52750000Y-21137500D03*
X53700000Y-21137500D03*
X54650000Y-21137500D03*
X54650000Y-18862500D03*
X52750000Y-18862500D03*
D14*
X26600000Y-15780000D03*
X26600000Y-16800000D03*
D15*
X40362500Y-25400000D03*
X40362500Y-25800000D03*
X40362500Y-26200000D03*
X40362500Y-26600000D03*
X40362500Y-27000000D03*
X40362500Y-27400000D03*
X40362500Y-27800000D03*
X40362500Y-28200000D03*
X40362500Y-28600000D03*
X40362500Y-29000000D03*
X40362500Y-29400000D03*
X40362500Y-29800000D03*
X40362500Y-30200000D03*
X40362500Y-30600000D03*
D16*
X41200000Y-31437500D03*
X41600000Y-31437500D03*
X42000000Y-31437500D03*
X42400000Y-31437500D03*
X42800000Y-31437500D03*
X43200000Y-31437500D03*
X43600000Y-31437500D03*
X44000000Y-31437500D03*
X44400000Y-31437500D03*
X44800000Y-31437500D03*
X45200000Y-31437500D03*
X45600000Y-31437500D03*
X46000000Y-31437500D03*
X46400000Y-31437500D03*
D15*
X47237500Y-30600000D03*
X47237500Y-30200000D03*
X47237500Y-29800000D03*
X47237500Y-29400000D03*
X47237500Y-29000000D03*
X47237500Y-28600000D03*
X47237500Y-28200000D03*
X47237500Y-27800000D03*
X47237500Y-27400000D03*
X47237500Y-27000000D03*
X47237500Y-26600000D03*
X47237500Y-26200000D03*
X47237500Y-25800000D03*
X47237500Y-25400000D03*
D16*
X46400000Y-24562500D03*
X46000000Y-24562500D03*
X45600000Y-24562500D03*
X45200000Y-24562500D03*
X44800000Y-24562500D03*
X44400000Y-24562500D03*
X44000000Y-24562500D03*
X43600000Y-24562500D03*
X43200000Y-24562500D03*
X42800000Y-24562500D03*
X42400000Y-24562500D03*
X42000000Y-24562500D03*
X41600000Y-24562500D03*
X41200000Y-24562500D03*
D17*
X43800000Y-28000000D03*
D10*
X45900000Y-22280000D03*
X45900000Y-21320000D03*
D18*
X48540000Y-22270000D03*
X49500000Y-22270000D03*
D19*
X37500000Y-37600000D03*
X37500000Y-39800000D03*
X39200000Y-39800000D03*
X39200000Y-37600000D03*
D10*
X47200000Y-22300000D03*
X47200000Y-21340000D03*
X40500000Y-20860000D03*
X40500000Y-19900000D03*
X38100000Y-25180000D03*
X38100000Y-24220000D03*
D18*
X52720000Y-23600000D03*
X53680000Y-23600000D03*
D20*
X45000000Y-36620000D03*
X45000000Y-37580000D03*
D14*
X46600000Y-38390000D03*
X46600000Y-39410000D03*
D21*
X45990000Y-15000000D03*
X47010000Y-15000000D03*
D20*
X49600000Y-18870000D03*
X49600000Y-19830000D03*
D22*
X28600000Y-17095000D03*
X28600000Y-18365000D03*
X28600000Y-19635000D03*
X28600000Y-20905000D03*
X35800000Y-20905000D03*
X35800000Y-19635000D03*
X35800000Y-18365000D03*
X35800000Y-17095000D03*
D10*
X43300000Y-20880000D03*
X43300000Y-19920000D03*
D18*
X52220000Y-29000000D03*
X53180000Y-29000000D03*
D11*
X50225000Y-38400000D03*
D12*
X52765000Y-38400000D03*
D23*
X24799900Y-25800000D03*
X20199900Y-25800000D03*
X24800000Y-26200100D03*
X20199800Y-26200100D03*
X24800000Y-26599900D03*
X20199800Y-26600100D03*
X24800000Y-26999900D03*
X20199800Y-27000200D03*
X24800000Y-27400000D03*
X20199800Y-27400200D03*
X24800000Y-27800000D03*
X20199800Y-27800000D03*
X24800000Y-28200100D03*
X20199800Y-28200100D03*
X24800000Y-28599800D03*
X20199800Y-28600100D03*
X24800000Y-28999900D03*
X20199800Y-29000200D03*
X24800000Y-29400000D03*
X20199800Y-29400200D03*
X24800000Y-29800000D03*
X20199800Y-29800000D03*
X24800000Y-30199800D03*
X20199800Y-30200100D03*
X24800000Y-30599800D03*
X20199800Y-30600100D03*
X24800000Y-30999900D03*
X20199800Y-31000100D03*
X24800000Y-31399900D03*
X20199800Y-31399900D03*
X24800000Y-31800000D03*
X20199800Y-31800000D03*
X24800000Y-32200000D03*
X20199800Y-32200000D03*
X24800000Y-32600100D03*
X20199800Y-32600100D03*
X24800000Y-33000100D03*
X20199800Y-33000100D03*
X24800000Y-33400200D03*
X20199800Y-33400200D03*
X24800000Y-33800000D03*
X20199800Y-33800200D03*
X24800000Y-34200000D03*
X20199800Y-34200000D03*
X24800000Y-34600100D03*
X20199800Y-34600100D03*
X24800000Y-35000100D03*
X20199800Y-35000100D03*
X24799900Y-35400000D03*
X20199800Y-35400000D03*
D21*
X45990000Y-16500000D03*
X47010000Y-16500000D03*
D10*
X49500000Y-24680000D03*
X49500000Y-23720000D03*
D11*
X30425000Y-14000000D03*
D12*
X32965000Y-14000000D03*
D10*
X35800000Y-25180000D03*
X35800000Y-24220000D03*
D14*
X31200000Y-34190000D03*
X31200000Y-35210000D03*
D20*
X43400000Y-36620000D03*
X43400000Y-37580000D03*
D11*
X60000000Y-31380000D03*
D12*
X60000000Y-33920000D03*
X60000000Y-36460000D03*
X60000000Y-39000000D03*
D20*
X35700000Y-37520000D03*
X35700000Y-38480000D03*
D21*
X40990000Y-37500000D03*
X42010000Y-37500000D03*
D24*
X33500000Y-35210000D03*
X33500000Y-34190000D03*
D18*
X41020000Y-39900000D03*
X41980000Y-39900000D03*
D11*
X60000000Y-22100000D03*
D12*
X60000000Y-19560000D03*
X60000000Y-17020000D03*
X60000000Y-14480000D03*
D25*
X45100000Y-38400000D03*
X40400000Y-35600000D03*
X50600000Y-23100000D03*
X30000000Y-35200000D03*
X30900000Y-22100000D03*
X30100000Y-22100000D03*
X50600000Y-24000000D03*
X41500000Y-34600000D03*
X38300000Y-14000000D03*
X49500000Y-21200000D03*
X42600000Y-28400000D03*
X43400000Y-27600000D03*
X43400000Y-28400000D03*
X43400000Y-26800000D03*
X29200000Y-35200000D03*
X43400000Y-29200000D03*
X28500000Y-22100000D03*
X34800000Y-37700000D03*
X44200000Y-28400000D03*
X38300000Y-15100000D03*
X45900000Y-37600000D03*
X40300000Y-14000000D03*
X45000000Y-26800000D03*
X45000000Y-28400000D03*
X36500000Y-38700000D03*
X42600000Y-26800000D03*
X45000000Y-27600000D03*
X41000000Y-35100000D03*
X50600000Y-22100000D03*
X42600000Y-29200000D03*
X28400000Y-35200000D03*
X39300000Y-14000000D03*
X44200000Y-26800000D03*
X42600000Y-27600000D03*
X50600000Y-21200000D03*
X44200000Y-29200000D03*
X40300000Y-38400000D03*
X45000000Y-29200000D03*
X44200000Y-27600000D03*
X22800000Y-34500000D03*
X40300000Y-15000000D03*
X29300000Y-22100000D03*
X40300000Y-39200000D03*
X34800000Y-38500000D03*
X34800000Y-34000000D03*
X43500000Y-35600000D03*
X48540000Y-20900000D03*
X39100000Y-24300000D03*
X42600000Y-20900000D03*
X22800000Y-29700000D03*
X49900000Y-28400000D03*
X55400000Y-26900000D03*
X23400000Y-26100000D03*
X50600000Y-28000000D03*
X23500000Y-29200000D03*
X49900000Y-31300000D03*
X27500000Y-33300000D03*
X47300000Y-36200000D03*
X21600000Y-34300000D03*
X22100000Y-25000000D03*
X56000000Y-25400000D03*
X52000000Y-27200000D03*
X17400000Y-29200000D03*
X52000000Y-29900000D03*
X22100000Y-30100000D03*
X55800000Y-26200000D03*
X22800000Y-25500000D03*
X51300000Y-27600000D03*
X18300100Y-29200000D03*
X52700100Y-26800100D03*
X16500000Y-29200000D03*
X17599800Y-30399900D03*
X50600000Y-30800000D03*
X22800000Y-33600000D03*
X22800000Y-32800000D03*
X21600000Y-32100000D03*
X35400000Y-35200000D03*
X16899800Y-29999900D03*
X51300000Y-30400000D03*
X46700000Y-33600000D03*
X18299800Y-30799900D03*
X46000000Y-35600000D03*
X46000000Y-34700000D03*
D26*
X39300000Y-37100000D02*
X39200000Y-37000000D01*
D27*
X52720000Y-22400000D02*
X52720000Y-21167500D01*
X54100000Y-22400000D02*
X52720000Y-22400000D01*
X54100000Y-22400000D02*
X59780000Y-22400000D01*
X52720000Y-23600000D02*
X52720000Y-22400000D01*
X59780000Y-22400000D02*
X60000000Y-22180000D01*
X54650000Y-21137500D02*
X54650000Y-22400000D01*
X54400000Y-22400000D02*
X54100000Y-22400000D01*
D26*
X44000000Y-31437500D02*
X44000000Y-35600000D01*
X40362500Y-25400000D02*
X41000000Y-25400000D01*
X47100000Y-22300000D02*
X48510000Y-22300000D01*
X47237500Y-25400000D02*
X47600000Y-25400000D01*
X43300000Y-21300000D02*
X43300000Y-20880000D01*
X44000000Y-35600000D02*
X43500000Y-35600000D01*
X39320000Y-25400000D02*
X39100000Y-25180000D01*
X28800000Y-34600000D02*
X29200000Y-34200000D01*
X46490000Y-39300000D02*
X46600000Y-39410000D01*
X34290000Y-34000000D02*
X34800000Y-34000000D01*
X44000000Y-36020000D02*
X43400000Y-36620000D01*
X60000000Y-28200000D02*
X60000000Y-31380000D01*
X44000000Y-31437500D02*
X44000000Y-30800000D01*
X42600000Y-18200000D02*
X41495000Y-17095000D01*
X43700000Y-30500000D02*
X41600000Y-30500000D01*
X29200000Y-34200000D02*
X34090000Y-34200000D01*
X42100000Y-21400000D02*
X42800000Y-21400000D01*
X48540000Y-23260000D02*
X48540000Y-22270000D01*
X49130000Y-18870000D02*
X49600000Y-18870000D01*
X47237500Y-29000000D02*
X52220000Y-29000000D01*
X44000000Y-35700000D02*
X44000000Y-36020000D01*
X44200000Y-36700000D02*
X44200000Y-38500000D01*
X48540000Y-20900000D02*
X48540000Y-19460000D01*
X42580000Y-20880000D02*
X41900000Y-20880000D01*
X48510000Y-22300000D02*
X48540000Y-22270000D01*
X44400000Y-22400000D02*
X44400000Y-24562500D01*
X34090000Y-34200000D02*
X34290000Y-34000000D01*
X44000000Y-36500000D02*
X44200000Y-36700000D01*
X41495000Y-17095000D02*
X39300000Y-17095000D01*
X47237500Y-25400000D02*
X47237500Y-24562500D01*
X42620000Y-20880000D02*
X42600000Y-20900000D01*
X48540000Y-19460000D02*
X49130000Y-18870000D01*
X56480000Y-24680000D02*
X60000000Y-28200000D01*
X24800000Y-34200000D02*
X25600000Y-34200000D01*
X39100000Y-25180000D02*
X38100000Y-25180000D01*
X47600000Y-25400000D02*
X48320000Y-24680000D01*
X38100000Y-25180000D02*
X35800000Y-25180000D01*
X39100000Y-24300000D02*
X39100000Y-25180000D01*
X42600000Y-20900000D02*
X42580000Y-20880000D01*
X48600000Y-22330000D02*
X48540000Y-22270000D01*
X45000000Y-39300000D02*
X46490000Y-39300000D01*
D27*
X49607500Y-18862500D02*
X49600000Y-18870000D01*
D26*
X39300000Y-17095000D02*
X38300000Y-17095000D01*
X44000000Y-30800000D02*
X43700000Y-30500000D01*
X46000000Y-23400000D02*
X47100000Y-22300000D01*
X41000000Y-25400000D02*
X41300000Y-25700000D01*
X42600000Y-20900000D02*
X42600000Y-18200000D01*
X44400000Y-22400000D02*
X43300000Y-21300000D01*
X41900000Y-21200000D02*
X42100000Y-21400000D01*
X47237500Y-25400000D02*
X46703640Y-25400000D01*
X46500000Y-25603640D02*
X46500000Y-28796360D01*
X46703640Y-29000000D02*
X47237500Y-29000000D01*
X39300000Y-16000000D02*
X39300000Y-17095000D01*
X41900000Y-20880000D02*
X41900000Y-21200000D01*
X40362500Y-25400000D02*
X39320000Y-25400000D01*
X44000000Y-24562500D02*
X44000000Y-22600000D01*
X41300000Y-25700000D02*
X41300000Y-29300000D01*
X41300000Y-29000000D02*
X40362500Y-29000000D01*
X38300000Y-17095000D02*
X35800000Y-17095000D01*
X44200000Y-38500000D02*
X45000000Y-39300000D01*
X47237500Y-24562500D02*
X48540000Y-23260000D01*
X25600000Y-34200000D02*
X26000000Y-34600000D01*
X49500000Y-24680000D02*
X56480000Y-24680000D01*
D27*
X52750000Y-18862500D02*
X49607500Y-18862500D01*
D26*
X46000000Y-24562500D02*
X46000000Y-23400000D01*
X46400000Y-24562500D02*
X47237500Y-24562500D01*
X48320000Y-24680000D02*
X49500000Y-24680000D01*
X41600000Y-30500000D02*
X41450000Y-30350000D01*
X42800000Y-21400000D02*
X44000000Y-22600000D01*
X26000000Y-34600000D02*
X28800000Y-34600000D01*
X24800000Y-33800000D02*
X24800000Y-34200000D01*
X41300000Y-29300000D02*
X41300000Y-29000000D01*
X44000000Y-35600000D02*
X44000000Y-35700000D01*
X48540000Y-20900000D02*
X48540000Y-22270000D01*
X41300000Y-30200000D02*
X41300000Y-29300000D01*
X46500000Y-28796360D02*
X46703640Y-29000000D01*
X41450000Y-30350000D02*
X41300000Y-30200000D01*
X43300000Y-20880000D02*
X42620000Y-20880000D01*
X44000000Y-35700000D02*
X44000000Y-36500000D01*
X46703640Y-25400000D02*
X46500000Y-25603640D01*
X44700000Y-30500000D02*
X45700000Y-30500000D01*
X44400000Y-31437500D02*
X44400000Y-36020000D01*
X43600000Y-25148180D02*
X43851820Y-25400000D01*
X45600000Y-22380000D02*
X45700000Y-22280000D01*
X43600000Y-22800000D02*
X42600000Y-21800000D01*
X44400000Y-31437500D02*
X44400000Y-30800000D01*
X41600000Y-21800000D02*
X40580000Y-20780000D01*
X45600000Y-25400000D02*
X45600000Y-24562500D01*
X43600000Y-24562500D02*
X43600000Y-25148180D01*
X45900000Y-30300000D02*
X45900000Y-25700000D01*
X43851820Y-25400000D02*
X45600000Y-25400000D01*
X45900000Y-25700000D02*
X45600000Y-25400000D01*
X45600000Y-24562500D02*
X45600000Y-22380000D01*
X43600000Y-24562500D02*
X43600000Y-22800000D01*
X42600000Y-21800000D02*
X41600000Y-21800000D01*
X44400000Y-30800000D02*
X44700000Y-30500000D01*
X44400000Y-36020000D02*
X45000000Y-36620000D01*
X45700000Y-30500000D02*
X45900000Y-30300000D01*
X40900000Y-36300000D02*
X38100000Y-36300000D01*
X43200000Y-31437500D02*
X43200000Y-34000000D01*
X35700000Y-37400000D02*
X37300000Y-37400000D01*
X43200000Y-34000000D02*
X40900000Y-36300000D01*
X37500000Y-36900000D02*
X37500000Y-37600000D01*
X38100000Y-36300000D02*
X37500000Y-36900000D01*
X40990000Y-37500000D02*
X40990000Y-39870000D01*
X41020000Y-39900000D02*
X39300000Y-39900000D01*
X40362500Y-30600000D02*
X39234314Y-30600000D01*
X39234314Y-30600000D02*
X38834314Y-30200000D01*
X38834314Y-30200000D02*
X24800200Y-30200000D01*
X24800200Y-30200000D02*
X24800000Y-30199800D01*
X22800000Y-29700000D02*
X22100000Y-29000000D01*
X49700000Y-28600000D02*
X49900000Y-28400000D01*
X22100000Y-29000000D02*
X20199700Y-29000000D01*
X47237500Y-28600000D02*
X49700000Y-28600000D01*
X48500000Y-26600000D02*
X47237500Y-26600000D01*
X23400000Y-26100000D02*
X22499800Y-27000200D01*
X22499800Y-27000200D02*
X20199800Y-27000200D01*
X48900000Y-26200000D02*
X48500000Y-26600000D01*
X54700000Y-26200000D02*
X48900000Y-26200000D01*
X55400000Y-26900000D02*
X54700000Y-26200000D01*
X24799900Y-25800000D02*
X24799900Y-24599900D01*
X40362500Y-25800000D02*
X24799900Y-25800000D01*
X20600000Y-24200000D02*
X20199900Y-24600100D01*
X24400000Y-24200000D02*
X20600000Y-24200000D01*
X20199900Y-24600100D02*
X20199900Y-25800000D01*
X24799900Y-24599900D02*
X24400000Y-24200000D01*
X39400000Y-30200000D02*
X39000000Y-29800000D01*
X40362500Y-30200000D02*
X39400000Y-30200000D01*
X39000000Y-29800000D02*
X24800000Y-29800000D01*
X22900000Y-28600000D02*
X20199700Y-28600000D01*
X23500000Y-29200000D02*
X22900000Y-28600000D01*
X49200000Y-28200000D02*
X47237500Y-28200000D01*
X50600000Y-28000000D02*
X50400000Y-27800000D01*
X49600000Y-27800000D02*
X49200000Y-28200000D01*
X50400000Y-27800000D02*
X49600000Y-27800000D01*
X16234314Y-33800000D02*
X20199600Y-33800000D01*
X20199600Y-33800000D02*
X20199800Y-33800200D01*
X14080000Y-18400000D02*
X14300000Y-18620000D01*
X14300000Y-31865686D02*
X16234314Y-33800000D01*
X14300000Y-18620000D02*
X14300000Y-31865686D01*
X27000000Y-33300000D02*
X26700100Y-33000100D01*
X26700100Y-33000100D02*
X24800000Y-33000100D01*
X49200100Y-30600100D02*
X47299700Y-30600100D01*
X27500000Y-33300000D02*
X27000000Y-33300000D01*
X49900000Y-31300000D02*
X49200100Y-30600100D01*
X39800000Y-29400000D02*
X39400000Y-29000000D01*
X40362500Y-29400000D02*
X39800000Y-29400000D01*
X24800100Y-29000000D02*
X39400000Y-29000000D01*
X24800000Y-28999900D02*
X24800100Y-29000000D01*
X24800000Y-27800000D02*
X40362500Y-27800000D01*
X47300000Y-36200000D02*
X47300000Y-33100000D01*
X21600000Y-33300000D02*
X21600000Y-34300000D01*
X46400000Y-32200000D02*
X46400000Y-31437500D01*
X47300000Y-33100000D02*
X46400000Y-32200000D01*
X20199800Y-32600100D02*
X20900100Y-32600100D01*
X21200000Y-32900000D02*
X21600000Y-33300000D01*
X20900100Y-32600100D02*
X21200000Y-32900000D01*
X55900000Y-25300000D02*
X48668628Y-25300000D01*
X48168628Y-25800000D02*
X47237500Y-25800000D01*
X22100000Y-25000000D02*
X20899900Y-26200100D01*
X48668628Y-25300000D02*
X48168628Y-25800000D01*
X20899900Y-26200100D02*
X20199800Y-26200100D01*
X56000000Y-25400000D02*
X55900000Y-25300000D01*
X24800200Y-28600000D02*
X24800000Y-28599800D01*
X40362500Y-28600000D02*
X24800200Y-28600000D01*
X24800000Y-26599900D02*
X40362400Y-26599900D01*
X40362400Y-26599900D02*
X40362500Y-26600000D01*
X49268628Y-27000000D02*
X48868628Y-27400000D01*
X20200300Y-27800000D02*
X18800000Y-27800000D01*
X48868628Y-27400000D02*
X47237500Y-27400000D01*
X52000000Y-27200000D02*
X51800000Y-27000000D01*
X18800000Y-27800000D02*
X17400000Y-29200000D01*
X51800000Y-27000000D02*
X49268628Y-27000000D01*
X17600100Y-33000100D02*
X20199800Y-33000100D01*
X15100000Y-24268628D02*
X15100000Y-31465686D01*
X16620000Y-18400000D02*
X16620000Y-22748628D01*
X17600000Y-33000000D02*
X17600100Y-33000100D01*
X16634314Y-33000000D02*
X17600000Y-33000000D01*
X15100000Y-31465686D02*
X16634314Y-33000000D01*
X16620000Y-22748628D02*
X15100000Y-24268628D01*
X41600000Y-31437500D02*
X41600000Y-32000000D01*
X38299900Y-30999900D02*
X24800000Y-30999900D01*
X39500000Y-32200000D02*
X38299900Y-30999900D01*
X41600000Y-32000000D02*
X41400000Y-32200000D01*
X41400000Y-32200000D02*
X39500000Y-32200000D01*
X40362400Y-26999900D02*
X40362500Y-27000000D01*
X24800000Y-26999900D02*
X40362400Y-26999900D01*
X21400100Y-29400100D02*
X20199700Y-29400100D01*
X52000000Y-29900000D02*
X51500000Y-29400000D01*
X22100000Y-30100000D02*
X21400100Y-29400100D01*
X51500000Y-29400000D02*
X47237500Y-29400000D01*
X22800000Y-25500000D02*
X21699900Y-26600100D01*
X48834314Y-25700000D02*
X48334314Y-26200000D01*
X48334314Y-26200000D02*
X47237500Y-26200000D01*
X55300000Y-25700000D02*
X48834314Y-25700000D01*
X55800000Y-26200000D02*
X55300000Y-25700000D01*
X21699900Y-26600100D02*
X20199800Y-26600100D01*
X24800100Y-26200000D02*
X40362500Y-26200000D01*
X24800000Y-26200100D02*
X24800100Y-26200000D01*
X24800200Y-30600000D02*
X24800000Y-30599800D01*
X41200000Y-31437500D02*
X41200000Y-31400000D01*
X38500000Y-30600000D02*
X24800200Y-30600000D01*
X39300000Y-31400000D02*
X38500000Y-30600000D01*
X41200000Y-31400000D02*
X39300000Y-31400000D01*
X39200000Y-29400000D02*
X24800000Y-29400000D01*
X40362500Y-29800000D02*
X39600000Y-29800000D01*
X39600000Y-29800000D02*
X39200000Y-29400000D01*
X51300000Y-27600000D02*
X51100000Y-27400000D01*
X20200300Y-28200100D02*
X19300000Y-28200100D01*
X49034314Y-27800000D02*
X47237500Y-27800000D01*
X19300000Y-28200100D02*
X18300100Y-29200000D01*
X49434314Y-27400000D02*
X49034314Y-27800000D01*
X51100000Y-27400000D02*
X49434314Y-27400000D01*
X16620000Y-15860000D02*
X16540000Y-15860000D01*
X15300000Y-23502942D02*
X14700000Y-24102942D01*
X14700000Y-24102942D02*
X14700000Y-31700000D01*
X16400200Y-33400200D02*
X20199800Y-33400200D01*
X14700000Y-31700000D02*
X16400200Y-33400200D01*
X16540000Y-15860000D02*
X15300000Y-17100000D01*
X15300000Y-17100000D02*
X15300000Y-23502942D01*
X49102942Y-26600000D02*
X48702942Y-27000000D01*
X18300000Y-27400000D02*
X20200300Y-27400000D01*
X16500000Y-29200000D02*
X18300000Y-27400000D01*
X52500000Y-26600000D02*
X49102942Y-26600000D01*
X48702942Y-27000000D02*
X47237500Y-27000000D01*
X52700100Y-26800100D02*
X52500000Y-26600000D01*
X50000000Y-30200000D02*
X47299700Y-30200000D01*
X20200000Y-30200000D02*
X17799700Y-30200000D01*
X50600000Y-30800000D02*
X50000000Y-30200000D01*
X22900000Y-33600000D02*
X22800000Y-33600000D01*
X23899900Y-32600100D02*
X23300000Y-33200000D01*
X23300000Y-33200000D02*
X22900000Y-33600000D01*
X24800000Y-32600100D02*
X23899900Y-32600100D01*
X23960000Y-15860000D02*
X21700000Y-15860000D01*
X25000000Y-16900000D02*
X23960000Y-15860000D01*
X24400000Y-23800000D02*
X25000000Y-23200000D01*
X20199800Y-31800000D02*
X16600000Y-31800000D01*
X16600000Y-31800000D02*
X15900000Y-31100000D01*
X15900000Y-31100000D02*
X15900000Y-24600000D01*
X25000000Y-23200000D02*
X25000000Y-16900000D01*
X15900000Y-24600000D02*
X16700000Y-23800000D01*
X16700000Y-23800000D02*
X24400000Y-23800000D01*
X22200000Y-31800000D02*
X22200000Y-35200000D01*
X24800000Y-31399900D02*
X22600100Y-31399900D01*
X42400000Y-32600000D02*
X39200000Y-35800000D01*
X22800000Y-35800000D02*
X31200000Y-35800000D01*
X22200000Y-35200000D02*
X22800000Y-35800000D01*
X39200000Y-35800000D02*
X31200000Y-35800000D01*
X42400000Y-31437500D02*
X42400000Y-32600000D01*
X22600100Y-31399900D02*
X22200000Y-31800000D01*
X31200000Y-35210000D02*
X31200000Y-35800000D01*
X22800000Y-32300000D02*
X23300000Y-31800000D01*
X22800000Y-32800000D02*
X22800000Y-32300000D01*
X23300000Y-31800000D02*
X24800000Y-31800000D01*
X16068628Y-34200000D02*
X12900000Y-31031372D01*
X12900000Y-17040000D02*
X14080000Y-15860000D01*
X20199800Y-34200000D02*
X16068628Y-34200000D01*
X12900000Y-31031372D02*
X12900000Y-17040000D01*
X21000000Y-23400000D02*
X16534314Y-23400000D01*
X15500000Y-24434314D02*
X15500000Y-31300000D01*
X21700000Y-22700000D02*
X21000000Y-23400000D01*
X21700000Y-18400000D02*
X21700000Y-22700000D01*
X16534314Y-23400000D02*
X15500000Y-24434314D01*
X16400000Y-32200000D02*
X20199800Y-32200000D01*
X15500000Y-31300000D02*
X16400000Y-32200000D01*
X40362500Y-28200000D02*
X24800100Y-28200000D01*
X24800100Y-28200000D02*
X24800000Y-28200100D01*
X40362500Y-27400000D02*
X24800000Y-27400000D01*
X42000000Y-32431372D02*
X39231372Y-35200000D01*
X42000000Y-31437500D02*
X42000000Y-32431372D01*
X21400100Y-31000100D02*
X20199500Y-31000100D01*
X39231372Y-35200000D02*
X33510000Y-35200000D01*
X33510000Y-35200000D02*
X33500000Y-35210000D01*
X21600000Y-31200000D02*
X21400100Y-31000100D01*
X21600000Y-32100000D02*
X21600000Y-31200000D01*
X51300000Y-30400000D02*
X50700000Y-29800000D01*
X17099700Y-29800000D02*
X20200000Y-29800000D01*
X50700000Y-29800000D02*
X47299700Y-29800000D01*
X46700000Y-33600000D02*
X46700000Y-33100000D01*
X20200000Y-30600100D02*
X18499600Y-30600100D01*
X46700000Y-33100000D02*
X46000000Y-32400000D01*
X46000000Y-32400000D02*
X46000000Y-31437500D01*
X30425000Y-14000000D02*
X28380000Y-14000000D01*
X28380000Y-14000000D02*
X26600000Y-15780000D01*
X45600000Y-33400000D02*
X46600000Y-34400000D01*
X46600000Y-34400000D02*
X46600000Y-38390000D01*
X46600000Y-38390000D02*
X50215000Y-38390000D01*
X45600000Y-31437500D02*
X45600000Y-33400000D01*
D28*
X59205000Y-15275000D02*
X60000000Y-14480000D01*
X47010000Y-15000000D02*
X47490001Y-15000000D01*
X47765001Y-15275000D02*
X59205000Y-15275000D01*
X47490001Y-15000000D02*
X47765001Y-15275000D01*
D26*
X44800000Y-31437500D02*
X44800000Y-34400000D01*
X44800000Y-34400000D02*
X46000000Y-35600000D01*
X45200000Y-33600000D02*
X45200000Y-31437500D01*
X46000000Y-34400000D02*
X45200000Y-33600000D01*
X46000000Y-34700000D02*
X46000000Y-34400000D01*
X39934314Y-24200000D02*
X39234314Y-23500000D01*
X39234314Y-23500000D02*
X28134314Y-23500000D01*
X26600000Y-18000000D02*
X27505000Y-17095000D01*
X41200000Y-24500000D02*
X40900000Y-24200000D01*
X27505000Y-17095000D02*
X28600000Y-17095000D01*
X28134314Y-23500000D02*
X26600000Y-21965686D01*
X26600000Y-21965686D02*
X26600000Y-18200000D01*
X40900000Y-24200000D02*
X39934314Y-24200000D01*
X26600000Y-18200000D02*
X26600000Y-16800000D01*
X41200000Y-24562500D02*
X41200000Y-24500000D01*
X26600000Y-18200000D02*
X26600000Y-18000000D01*
X43600000Y-31437500D02*
X43600000Y-34200000D01*
X43600000Y-34200000D02*
X42010000Y-35790000D01*
X42010000Y-35790000D02*
X42010000Y-37500000D01*
X44800000Y-21400000D02*
X44400000Y-21000000D01*
X44400000Y-21000000D02*
X44400000Y-16590000D01*
X44800000Y-24562500D02*
X44800000Y-21400000D01*
X44400000Y-16590000D02*
X45990000Y-15000000D01*
X45590000Y-19550000D02*
X45100000Y-19550000D01*
X45200000Y-21200000D02*
X45200000Y-24562500D01*
X44800000Y-20400000D02*
X44800000Y-20800000D01*
X45890000Y-19100000D02*
X45890000Y-19250000D01*
X45990000Y-16500000D02*
X44800000Y-17690000D01*
X44800000Y-19850000D02*
X44800000Y-20000000D01*
X44800000Y-20000000D02*
X44800000Y-20400000D01*
X44800000Y-17690000D02*
X44800000Y-18500000D01*
X44800000Y-20800000D02*
X45200000Y-21200000D01*
X45100000Y-18800000D02*
X45590000Y-18800000D01*
X45100000Y-19550000D02*
G75*
G03*
X44800000Y-19850000I0J-300000D01*
G01*
X45590000Y-18800000D02*
G75*
G02*
X45890000Y-19100000I0J-300000D01*
G01*
X44800000Y-18500000D02*
G75*
G03*
X45100000Y-18800000I300000J0D01*
G01*
X45890000Y-19250000D02*
G75*
G02*
X45590000Y-19550000I-300000J0D01*
G01*
X42400000Y-23400000D02*
X42000000Y-23000000D01*
X42400000Y-24562500D02*
X42400000Y-23400000D01*
X42000000Y-23000000D02*
X40434314Y-23000000D01*
X40434314Y-23000000D02*
X38339314Y-20905000D01*
X38339314Y-20905000D02*
X35800000Y-20905000D01*
X42400000Y-22200000D02*
X40800000Y-22200000D01*
X38865000Y-18365000D02*
X35800000Y-18365000D01*
X39700000Y-19200000D02*
X38865000Y-18365000D01*
X39700000Y-21100000D02*
X39700000Y-19200000D01*
X43200000Y-24562500D02*
X43200000Y-23000000D01*
X40800000Y-22200000D02*
X39700000Y-21100000D01*
X43200000Y-23000000D02*
X42400000Y-22200000D01*
X41800000Y-23400000D02*
X42000000Y-23600000D01*
X39534314Y-22665686D02*
X40268628Y-23400000D01*
X28600000Y-19635000D02*
X28665000Y-19700000D01*
X32665686Y-22665686D02*
X39534314Y-22665686D01*
X29700000Y-19700000D02*
X32665686Y-22665686D01*
X28665000Y-19700000D02*
X29700000Y-19700000D01*
X40268628Y-23400000D02*
X41800000Y-23400000D01*
X42000000Y-23600000D02*
X42000000Y-24562500D01*
X39300000Y-20100000D02*
X38835000Y-19635000D01*
X42200000Y-22600000D02*
X40600000Y-22600000D01*
X40600000Y-22600000D02*
X39300000Y-21300000D01*
X39300000Y-21300000D02*
X39300000Y-20100000D01*
X38835000Y-19635000D02*
X35800000Y-19635000D01*
X42800000Y-23200000D02*
X42200000Y-22600000D01*
X42800000Y-24562500D02*
X42800000Y-23200000D01*
X41600000Y-24562500D02*
X41600000Y-23900000D01*
X27000000Y-18900000D02*
X27500000Y-18400000D01*
X41500000Y-23800000D02*
X40100000Y-23800000D01*
X28565000Y-18400000D02*
X28600000Y-18365000D01*
X27000000Y-21800000D02*
X27000000Y-18900000D01*
X27500000Y-18400000D02*
X28565000Y-18400000D01*
X40100000Y-23800000D02*
X39400000Y-23100000D01*
X28300000Y-23100000D02*
X27000000Y-21800000D01*
X39400000Y-23100000D02*
X28300000Y-23100000D01*
X41600000Y-23900000D02*
X41500000Y-23800000D01*
D28*
X47765001Y-16225000D02*
X59205000Y-16225000D01*
X47010000Y-16500000D02*
X47490001Y-16500000D01*
X59205000Y-16225000D02*
X60000000Y-17020000D01*
X47490001Y-16500000D02*
X47765001Y-16225000D01*
G04 #@! TA.AperFunction,Conductor*
G36*
X12869501Y-31425844D02*
G01*
X15884117Y-34440460D01*
X15884119Y-34440461D01*
X15884121Y-34440463D01*
X15952636Y-34480020D01*
X15952634Y-34480020D01*
X15952638Y-34480021D01*
X15952640Y-34480022D01*
X16029066Y-34500500D01*
X16029068Y-34500500D01*
X20770323Y-34500500D01*
X20778474Y-34500100D01*
X20949799Y-34500100D01*
X20967163Y-34482735D01*
X20968707Y-34477985D01*
X21018207Y-34442021D01*
X21079393Y-34442021D01*
X21128893Y-34477985D01*
X21138853Y-34495049D01*
X21172583Y-34568907D01*
X21174623Y-34573373D01*
X21255243Y-34666414D01*
X21268873Y-34682144D01*
X21371343Y-34747997D01*
X21389947Y-34759953D01*
X21473585Y-34784511D01*
X21528035Y-34800499D01*
X21528036Y-34800499D01*
X21528039Y-34800500D01*
X21528041Y-34800500D01*
X21671959Y-34800500D01*
X21671961Y-34800500D01*
X21772610Y-34770947D01*
X21833769Y-34772694D01*
X21882222Y-34810057D01*
X21899500Y-34865937D01*
X21899500Y-35239564D01*
X21919977Y-35315985D01*
X21919979Y-35315990D01*
X21945121Y-35359538D01*
X21956311Y-35378919D01*
X21959540Y-35384511D01*
X22559540Y-35984511D01*
X22559539Y-35984511D01*
X22615489Y-36040460D01*
X22684007Y-36080019D01*
X22684011Y-36080021D01*
X22760435Y-36100499D01*
X22760437Y-36100500D01*
X22760438Y-36100500D01*
X22839562Y-36100500D01*
X31160438Y-36100500D01*
X31239562Y-36100500D01*
X37635521Y-36100500D01*
X37693712Y-36119407D01*
X37729676Y-36168907D01*
X37729676Y-36230093D01*
X37705525Y-36269504D01*
X37304525Y-36670504D01*
X37250008Y-36698281D01*
X37234521Y-36699500D01*
X36880252Y-36699500D01*
X36880251Y-36699500D01*
X36880241Y-36699501D01*
X36821772Y-36711132D01*
X36821766Y-36711134D01*
X36755451Y-36755445D01*
X36755445Y-36755451D01*
X36711134Y-36821766D01*
X36711132Y-36821772D01*
X36699501Y-36880241D01*
X36699500Y-36880253D01*
X36699500Y-37000500D01*
X36680593Y-37058691D01*
X36631093Y-37094655D01*
X36600500Y-37099500D01*
X36096105Y-37099500D01*
X36054266Y-37090224D01*
X35959489Y-37046028D01*
X35934694Y-37042764D01*
X35909901Y-37039500D01*
X35909899Y-37039500D01*
X35490103Y-37039500D01*
X35490092Y-37039501D01*
X35440513Y-37046027D01*
X35440511Y-37046027D01*
X35331686Y-37096774D01*
X35246774Y-37181686D01*
X35196029Y-37290510D01*
X35196028Y-37290511D01*
X35189500Y-37340100D01*
X35189500Y-37699895D01*
X35189501Y-37699907D01*
X35196027Y-37749486D01*
X35196027Y-37749488D01*
X35246774Y-37858313D01*
X35246775Y-37858314D01*
X35246776Y-37858316D01*
X35318812Y-37930352D01*
X35346588Y-37984867D01*
X35337017Y-38045299D01*
X35318811Y-38070358D01*
X35247190Y-38141978D01*
X35196521Y-38250638D01*
X35196519Y-38250645D01*
X35190000Y-38300161D01*
X35190000Y-38329999D01*
X35190001Y-38330000D01*
X36209999Y-38330000D01*
X36210000Y-38329999D01*
X36210000Y-38300161D01*
X36203480Y-38250645D01*
X36203478Y-38250638D01*
X36152809Y-38141978D01*
X36081189Y-38070358D01*
X36053412Y-38015841D01*
X36062983Y-37955409D01*
X36081186Y-37930353D01*
X36153224Y-37858316D01*
X36176052Y-37809361D01*
X36200161Y-37757661D01*
X36241889Y-37712913D01*
X36289885Y-37700500D01*
X36600500Y-37700500D01*
X36658691Y-37719407D01*
X36694655Y-37768907D01*
X36699500Y-37799500D01*
X36699500Y-38319746D01*
X36699501Y-38319758D01*
X36711132Y-38378227D01*
X36711134Y-38378233D01*
X36755205Y-38444189D01*
X36755448Y-38444552D01*
X36821769Y-38488867D01*
X36866231Y-38497711D01*
X36880241Y-38500498D01*
X36880246Y-38500498D01*
X36880252Y-38500500D01*
X36880253Y-38500500D01*
X38119747Y-38500500D01*
X38119748Y-38500500D01*
X38178231Y-38488867D01*
X38244552Y-38444552D01*
X38267985Y-38409481D01*
X38316034Y-38371603D01*
X38377173Y-38369201D01*
X38428046Y-38403194D01*
X38432615Y-38409482D01*
X38455805Y-38444188D01*
X38455810Y-38444193D01*
X38521963Y-38488396D01*
X38580299Y-38499999D01*
X38580303Y-38500000D01*
X39049999Y-38500000D01*
X39050000Y-38499999D01*
X39050000Y-37750001D01*
X39350000Y-37750001D01*
X39350000Y-38499999D01*
X39350001Y-38500000D01*
X39819697Y-38500000D01*
X39819700Y-38499999D01*
X39878036Y-38488396D01*
X39944189Y-38444193D01*
X39944193Y-38444189D01*
X39988396Y-38378036D01*
X39999999Y-38319700D01*
X40000000Y-38319697D01*
X40000000Y-37750001D01*
X39999999Y-37750000D01*
X39350001Y-37750000D01*
X39350000Y-37750001D01*
X39050000Y-37750001D01*
X39050000Y-37549000D01*
X39068907Y-37490809D01*
X39118407Y-37454845D01*
X39149000Y-37450000D01*
X39999999Y-37450000D01*
X40000000Y-37449999D01*
X40000000Y-36880302D01*
X39999999Y-36880299D01*
X39988396Y-36821963D01*
X39943319Y-36754502D01*
X39926710Y-36695614D01*
X39947887Y-36638210D01*
X39998761Y-36604217D01*
X40025634Y-36600500D01*
X40939563Y-36600500D01*
X40939563Y-36600499D01*
X41015989Y-36580021D01*
X41084511Y-36540460D01*
X41140460Y-36484511D01*
X41540496Y-36084475D01*
X41595013Y-36056698D01*
X41655445Y-36066269D01*
X41698710Y-36109534D01*
X41709500Y-36154479D01*
X41709500Y-36965024D01*
X41690593Y-37023215D01*
X41680504Y-37035028D01*
X41679597Y-37035934D01*
X41679596Y-37035935D01*
X41630664Y-37084867D01*
X41595933Y-37119598D01*
X41589724Y-37132915D01*
X41547995Y-37177663D01*
X41487934Y-37189337D01*
X41432482Y-37163478D01*
X41410276Y-37132915D01*
X41404066Y-37119598D01*
X41404065Y-37119597D01*
X41404065Y-37119596D01*
X41320404Y-37035935D01*
X41320402Y-37035934D01*
X41320401Y-37035933D01*
X41213175Y-36985932D01*
X41171995Y-36980511D01*
X41164316Y-36979500D01*
X40815684Y-36979500D01*
X40808005Y-36980511D01*
X40766825Y-36985932D01*
X40766824Y-36985932D01*
X40659598Y-37035933D01*
X40575933Y-37119598D01*
X40525932Y-37226824D01*
X40525932Y-37226825D01*
X40525932Y-37226827D01*
X40519500Y-37275684D01*
X40519500Y-37724316D01*
X40522814Y-37749486D01*
X40525932Y-37773174D01*
X40525932Y-37773175D01*
X40575933Y-37880401D01*
X40575934Y-37880402D01*
X40575935Y-37880404D01*
X40659596Y-37964065D01*
X40659597Y-37964065D01*
X40660504Y-37964972D01*
X40688281Y-38019489D01*
X40689500Y-38034976D01*
X40689500Y-39397953D01*
X40670593Y-39456144D01*
X40660509Y-39467950D01*
X40628460Y-39500000D01*
X40596776Y-39531684D01*
X40591808Y-39542339D01*
X40550079Y-39587087D01*
X40502083Y-39599500D01*
X40099500Y-39599500D01*
X40041309Y-39580593D01*
X40005345Y-39531093D01*
X40000500Y-39500500D01*
X40000500Y-39080253D01*
X40000498Y-39080241D01*
X39997630Y-39065826D01*
X39988867Y-39021769D01*
X39944552Y-38955448D01*
X39912714Y-38934174D01*
X39878233Y-38911134D01*
X39878231Y-38911133D01*
X39878228Y-38911132D01*
X39878227Y-38911132D01*
X39819758Y-38899501D01*
X39819748Y-38899500D01*
X38580252Y-38899500D01*
X38580251Y-38899500D01*
X38580241Y-38899501D01*
X38521772Y-38911132D01*
X38521766Y-38911134D01*
X38455451Y-38955445D01*
X38455446Y-38955450D01*
X38432013Y-38990519D01*
X38383962Y-39028397D01*
X38322824Y-39030797D01*
X38271951Y-38996803D01*
X38267384Y-38990517D01*
X38244193Y-38955810D01*
X38244189Y-38955806D01*
X38178036Y-38911603D01*
X38119700Y-38900000D01*
X37650001Y-38900000D01*
X37650000Y-38900001D01*
X37650000Y-39851000D01*
X37631093Y-39909191D01*
X37581593Y-39945155D01*
X37551000Y-39950000D01*
X36700001Y-39950000D01*
X36700000Y-39950001D01*
X36700000Y-40400500D01*
X36681093Y-40458691D01*
X36631593Y-40494655D01*
X36601000Y-40499500D01*
X13205556Y-40499500D01*
X13194471Y-40498877D01*
X13099938Y-40488225D01*
X13078326Y-40483293D01*
X13030296Y-40466487D01*
X12993801Y-40453717D01*
X12973828Y-40444098D01*
X12898012Y-40396459D01*
X12880680Y-40382638D01*
X12817361Y-40319319D01*
X12803540Y-40301987D01*
X12755901Y-40226171D01*
X12746283Y-40206202D01*
X12716705Y-40121669D01*
X12711775Y-40100073D01*
X12701121Y-40005512D01*
X12700500Y-39994444D01*
X12700500Y-39080299D01*
X36700000Y-39080299D01*
X36700000Y-39649999D01*
X36700001Y-39650000D01*
X37349999Y-39650000D01*
X37350000Y-39649999D01*
X37350000Y-38900001D01*
X37349999Y-38900000D01*
X36880299Y-38900000D01*
X36821963Y-38911603D01*
X36755810Y-38955806D01*
X36755806Y-38955810D01*
X36711603Y-39021963D01*
X36700000Y-39080299D01*
X12700500Y-39080299D01*
X12700500Y-38630001D01*
X35190000Y-38630001D01*
X35190000Y-38659838D01*
X35196519Y-38709354D01*
X35196521Y-38709361D01*
X35247190Y-38818021D01*
X35331978Y-38902809D01*
X35440638Y-38953478D01*
X35440645Y-38953480D01*
X35490161Y-38960000D01*
X35549999Y-38960000D01*
X35550000Y-38959999D01*
X35550000Y-38630001D01*
X35850000Y-38630001D01*
X35850000Y-38959999D01*
X35850001Y-38960000D01*
X35909838Y-38960000D01*
X35959354Y-38953480D01*
X35959361Y-38953478D01*
X36068021Y-38902809D01*
X36152809Y-38818021D01*
X36203478Y-38709361D01*
X36203480Y-38709354D01*
X36210000Y-38659838D01*
X36210000Y-38630001D01*
X36209999Y-38630000D01*
X35850001Y-38630000D01*
X35850000Y-38630001D01*
X35550000Y-38630001D01*
X35549999Y-38630000D01*
X35190001Y-38630000D01*
X35190000Y-38630001D01*
X12700500Y-38630001D01*
X12700500Y-35500001D01*
X19449800Y-35500001D01*
X19449800Y-35519700D01*
X19461403Y-35578036D01*
X19505606Y-35644189D01*
X19505610Y-35644193D01*
X19571763Y-35688396D01*
X19630099Y-35699999D01*
X19630103Y-35700000D01*
X20099799Y-35700000D01*
X20099800Y-35699999D01*
X20099800Y-35500001D01*
X20299800Y-35500001D01*
X20299800Y-35699999D01*
X20299801Y-35700000D01*
X20769497Y-35700000D01*
X20769500Y-35699999D01*
X20827836Y-35688396D01*
X20893989Y-35644193D01*
X20893993Y-35644189D01*
X20938196Y-35578036D01*
X20949799Y-35519700D01*
X20949800Y-35519697D01*
X20949800Y-35500001D01*
X20949799Y-35500000D01*
X20299801Y-35500000D01*
X20299800Y-35500001D01*
X20099800Y-35500001D01*
X20099799Y-35500000D01*
X19449801Y-35500000D01*
X19449800Y-35500001D01*
X12700500Y-35500001D01*
X12700500Y-35100101D01*
X19449800Y-35100101D01*
X19449800Y-35119805D01*
X19461920Y-35180738D01*
X19461920Y-35219362D01*
X19449800Y-35280294D01*
X19449800Y-35299999D01*
X19449801Y-35300000D01*
X20099799Y-35300000D01*
X20099800Y-35299999D01*
X20099800Y-35100101D01*
X20299800Y-35100101D01*
X20299800Y-35299999D01*
X20299801Y-35300000D01*
X20949799Y-35300000D01*
X20949800Y-35299999D01*
X20949800Y-35280302D01*
X20949798Y-35280292D01*
X20937679Y-35219365D01*
X20937679Y-35180735D01*
X20949798Y-35119807D01*
X20949800Y-35119797D01*
X20949800Y-35100101D01*
X20949799Y-35100100D01*
X20299801Y-35100100D01*
X20299800Y-35100101D01*
X20099800Y-35100101D01*
X20099799Y-35100100D01*
X19449801Y-35100100D01*
X19449800Y-35100101D01*
X12700500Y-35100101D01*
X12700500Y-34700101D01*
X19449800Y-34700101D01*
X19449800Y-34719800D01*
X19461931Y-34780786D01*
X19461931Y-34819414D01*
X19449800Y-34880399D01*
X19449800Y-34900099D01*
X19449801Y-34900100D01*
X20099799Y-34900100D01*
X20099800Y-34900099D01*
X20099800Y-34700101D01*
X20299800Y-34700101D01*
X20299800Y-34900099D01*
X20299801Y-34900100D01*
X20949799Y-34900100D01*
X20949800Y-34900099D01*
X20949800Y-34880402D01*
X20949799Y-34880399D01*
X20937669Y-34819414D01*
X20937669Y-34780786D01*
X20949799Y-34719800D01*
X20949800Y-34719797D01*
X20949800Y-34700101D01*
X20949799Y-34700100D01*
X20299801Y-34700100D01*
X20299800Y-34700101D01*
X20099800Y-34700101D01*
X20099799Y-34700100D01*
X19449801Y-34700100D01*
X19449800Y-34700101D01*
X12700500Y-34700101D01*
X12700500Y-31495850D01*
X12719407Y-31437659D01*
X12768907Y-31401695D01*
X12830093Y-31401695D01*
X12869501Y-31425844D01*
G37*
G04 #@! TD.AperFunction*
G04 #@! TA.AperFunction,Conductor*
G36*
X60905512Y-12701121D02*
G01*
X61000073Y-12711775D01*
X61021669Y-12716705D01*
X61106202Y-12746283D01*
X61126168Y-12755899D01*
X61164079Y-12779720D01*
X61201987Y-12803540D01*
X61219319Y-12817361D01*
X61282638Y-12880680D01*
X61296459Y-12898012D01*
X61344098Y-12973828D01*
X61353717Y-12993801D01*
X61357793Y-13005448D01*
X61383293Y-13078326D01*
X61388225Y-13099938D01*
X61398877Y-13194470D01*
X61399500Y-13205555D01*
X61399500Y-39994444D01*
X61398877Y-40005529D01*
X61388225Y-40100061D01*
X61383293Y-40121673D01*
X61353718Y-40206196D01*
X61344098Y-40226171D01*
X61296459Y-40301987D01*
X61282638Y-40319319D01*
X61219319Y-40382638D01*
X61201987Y-40396459D01*
X61126171Y-40444098D01*
X61106196Y-40453718D01*
X61021673Y-40483293D01*
X61000061Y-40488225D01*
X60905529Y-40498877D01*
X60894444Y-40499500D01*
X42410339Y-40499500D01*
X42352148Y-40480593D01*
X42316184Y-40431093D01*
X42316184Y-40369907D01*
X42340335Y-40330496D01*
X42402809Y-40268021D01*
X42453478Y-40159361D01*
X42453480Y-40159354D01*
X42460000Y-40109838D01*
X42460000Y-40050001D01*
X42459999Y-40050000D01*
X41929000Y-40050000D01*
X41870809Y-40031093D01*
X41834845Y-39981593D01*
X41830000Y-39951000D01*
X41830000Y-39390001D01*
X42130000Y-39390001D01*
X42130000Y-39749999D01*
X42130001Y-39750000D01*
X42459999Y-39750000D01*
X42460000Y-39749999D01*
X42460000Y-39690161D01*
X42453480Y-39640645D01*
X42453478Y-39640638D01*
X42402809Y-39531978D01*
X42318021Y-39447190D01*
X42209361Y-39396521D01*
X42209354Y-39396519D01*
X42159839Y-39390000D01*
X42130001Y-39390000D01*
X42130000Y-39390001D01*
X41830000Y-39390001D01*
X41829999Y-39390000D01*
X41800161Y-39390000D01*
X41750645Y-39396519D01*
X41750638Y-39396521D01*
X41641978Y-39447190D01*
X41570358Y-39518811D01*
X41515841Y-39546588D01*
X41455409Y-39537017D01*
X41430353Y-39518813D01*
X41358316Y-39446776D01*
X41358314Y-39446775D01*
X41358313Y-39446774D01*
X41347659Y-39441806D01*
X41302912Y-39400076D01*
X41290500Y-39352082D01*
X41290500Y-38034976D01*
X41309407Y-37976785D01*
X41319496Y-37964972D01*
X41320402Y-37964065D01*
X41320404Y-37964065D01*
X41404065Y-37880404D01*
X41410275Y-37867085D01*
X41452003Y-37822337D01*
X41512064Y-37810662D01*
X41567517Y-37836519D01*
X41589724Y-37867084D01*
X41595935Y-37880404D01*
X41679596Y-37964065D01*
X41679597Y-37964065D01*
X41679598Y-37964066D01*
X41786824Y-38014067D01*
X41786825Y-38014067D01*
X41786827Y-38014068D01*
X41835684Y-38020500D01*
X41835685Y-38020500D01*
X42184314Y-38020500D01*
X42184316Y-38020500D01*
X42233173Y-38014068D01*
X42340404Y-37964065D01*
X42424065Y-37880404D01*
X42474068Y-37773173D01*
X42479752Y-37730001D01*
X42890000Y-37730001D01*
X42890000Y-37759838D01*
X42896519Y-37809354D01*
X42896521Y-37809361D01*
X42947190Y-37918021D01*
X43031978Y-38002809D01*
X43140638Y-38053478D01*
X43140645Y-38053480D01*
X43190161Y-38060000D01*
X43249999Y-38060000D01*
X43250000Y-38059999D01*
X43250000Y-37730001D01*
X43249999Y-37730000D01*
X42890001Y-37730000D01*
X42890000Y-37730001D01*
X42479752Y-37730001D01*
X42480500Y-37724316D01*
X42480500Y-37275684D01*
X42474068Y-37226827D01*
X42464549Y-37206414D01*
X42424066Y-37119598D01*
X42424065Y-37119597D01*
X42424065Y-37119596D01*
X42340404Y-37035935D01*
X42340402Y-37035934D01*
X42339496Y-37035028D01*
X42311719Y-36980511D01*
X42310500Y-36965024D01*
X42310500Y-35955479D01*
X42329407Y-35897288D01*
X42339496Y-35885475D01*
X42580782Y-35644189D01*
X42846053Y-35378917D01*
X42900568Y-35351142D01*
X42961000Y-35360713D01*
X43004265Y-35403978D01*
X43014047Y-35463011D01*
X42994353Y-35599995D01*
X42994353Y-35600002D01*
X43014834Y-35742456D01*
X43066013Y-35854521D01*
X43074623Y-35873373D01*
X43145768Y-35955479D01*
X43173509Y-35987494D01*
X43171837Y-35988942D01*
X43198094Y-36032477D01*
X43192862Y-36093438D01*
X43152797Y-36139681D01*
X43143508Y-36144630D01*
X43031686Y-36196774D01*
X42946774Y-36281686D01*
X42896029Y-36390510D01*
X42896028Y-36390511D01*
X42889500Y-36440100D01*
X42889500Y-36799895D01*
X42889501Y-36799907D01*
X42896027Y-36849486D01*
X42896027Y-36849488D01*
X42946774Y-36958313D01*
X42946775Y-36958314D01*
X42946776Y-36958316D01*
X43018812Y-37030352D01*
X43046588Y-37084867D01*
X43037017Y-37145299D01*
X43018811Y-37170358D01*
X42947190Y-37241978D01*
X42896521Y-37350638D01*
X42896519Y-37350645D01*
X42890000Y-37400161D01*
X42890000Y-37429999D01*
X42890001Y-37430000D01*
X43451000Y-37430000D01*
X43509191Y-37448907D01*
X43545155Y-37498407D01*
X43550000Y-37529000D01*
X43550000Y-38059999D01*
X43550001Y-38060000D01*
X43609838Y-38060000D01*
X43659354Y-38053480D01*
X43659358Y-38053479D01*
X43758660Y-38007174D01*
X43819390Y-37999717D01*
X43872904Y-38029380D01*
X43898762Y-38084832D01*
X43899500Y-38096898D01*
X43899500Y-38539564D01*
X43919978Y-38615988D01*
X43919979Y-38615990D01*
X43928068Y-38630000D01*
X43928334Y-38630460D01*
X43959540Y-38684511D01*
X44759540Y-39484511D01*
X44759539Y-39484511D01*
X44815489Y-39540460D01*
X44884007Y-39580019D01*
X44884011Y-39580021D01*
X44960435Y-39600499D01*
X44960437Y-39600500D01*
X44960438Y-39600500D01*
X45039562Y-39600500D01*
X46007626Y-39600500D01*
X46065817Y-39619407D01*
X46097350Y-39657660D01*
X46135933Y-39740401D01*
X46135934Y-39740402D01*
X46135935Y-39740404D01*
X46219596Y-39824065D01*
X46219597Y-39824065D01*
X46219598Y-39824066D01*
X46326824Y-39874067D01*
X46326825Y-39874067D01*
X46326827Y-39874068D01*
X46375684Y-39880500D01*
X46375685Y-39880500D01*
X46824314Y-39880500D01*
X46824316Y-39880500D01*
X46873173Y-39874068D01*
X46980404Y-39824065D01*
X47064065Y-39740404D01*
X47114068Y-39633173D01*
X47120500Y-39584316D01*
X47120500Y-39235684D01*
X47114068Y-39186827D01*
X47095057Y-39146059D01*
X47064066Y-39079598D01*
X47064065Y-39079597D01*
X47064065Y-39079596D01*
X46980404Y-38995935D01*
X46967085Y-38989724D01*
X46922337Y-38947997D01*
X46910662Y-38887936D01*
X46936519Y-38832483D01*
X46967084Y-38810275D01*
X46980404Y-38804065D01*
X47064065Y-38720404D01*
X47064065Y-38720402D01*
X47064972Y-38719496D01*
X47119489Y-38691719D01*
X47134976Y-38690500D01*
X49075500Y-38690500D01*
X49133691Y-38709407D01*
X49169655Y-38758907D01*
X49174500Y-38789500D01*
X49174500Y-39269746D01*
X49174501Y-39269758D01*
X49186132Y-39328227D01*
X49186134Y-39328233D01*
X49217228Y-39374767D01*
X49230448Y-39394552D01*
X49296769Y-39438867D01*
X49338612Y-39447190D01*
X49355241Y-39450498D01*
X49355246Y-39450498D01*
X49355252Y-39450500D01*
X49355253Y-39450500D01*
X51094747Y-39450500D01*
X51094748Y-39450500D01*
X51153231Y-39438867D01*
X51219552Y-39394552D01*
X51263867Y-39328231D01*
X51275500Y-39269748D01*
X51275500Y-38249998D01*
X51724692Y-38249998D01*
X51724694Y-38250000D01*
X52287555Y-38250000D01*
X52265000Y-38334174D01*
X52265000Y-38465826D01*
X52287555Y-38550000D01*
X51724694Y-38550000D01*
X51724692Y-38550001D01*
X51730191Y-38605833D01*
X51730190Y-38605833D01*
X51790232Y-38803762D01*
X51790234Y-38803767D01*
X51887724Y-38986160D01*
X51887731Y-38986170D01*
X52018940Y-39146050D01*
X52018949Y-39146059D01*
X52178829Y-39277268D01*
X52178839Y-39277275D01*
X52361232Y-39374765D01*
X52361237Y-39374767D01*
X52559166Y-39434808D01*
X52614998Y-39440307D01*
X52615000Y-39440306D01*
X52615000Y-38877445D01*
X52699174Y-38900000D01*
X52830826Y-38900000D01*
X52915000Y-38877445D01*
X52915000Y-39440306D01*
X52915001Y-39440307D01*
X52970833Y-39434808D01*
X53168762Y-39374767D01*
X53168767Y-39374765D01*
X53351160Y-39277275D01*
X53351170Y-39277268D01*
X53511050Y-39146059D01*
X53511059Y-39146050D01*
X53642268Y-38986170D01*
X53642275Y-38986160D01*
X53715054Y-38849998D01*
X58959692Y-38849998D01*
X58959694Y-38850000D01*
X59522555Y-38850000D01*
X59500000Y-38934174D01*
X59500000Y-39065826D01*
X59522555Y-39150000D01*
X58959694Y-39150000D01*
X58959692Y-39150001D01*
X58965191Y-39205833D01*
X58965190Y-39205833D01*
X59025232Y-39403762D01*
X59025234Y-39403767D01*
X59122724Y-39586160D01*
X59122731Y-39586170D01*
X59253940Y-39746050D01*
X59253949Y-39746059D01*
X59413829Y-39877268D01*
X59413839Y-39877275D01*
X59596232Y-39974765D01*
X59596237Y-39974767D01*
X59794166Y-40034808D01*
X59849998Y-40040307D01*
X59850000Y-40040306D01*
X59850000Y-39477445D01*
X59934174Y-39500000D01*
X60065826Y-39500000D01*
X60150000Y-39477445D01*
X60150000Y-40040306D01*
X60150001Y-40040307D01*
X60205833Y-40034808D01*
X60403762Y-39974767D01*
X60403767Y-39974765D01*
X60586160Y-39877275D01*
X60586170Y-39877268D01*
X60746050Y-39746059D01*
X60746059Y-39746050D01*
X60877268Y-39586170D01*
X60877275Y-39586160D01*
X60974765Y-39403767D01*
X60974767Y-39403762D01*
X61034808Y-39205833D01*
X61040307Y-39150001D01*
X61040306Y-39150000D01*
X60477445Y-39150000D01*
X60500000Y-39065826D01*
X60500000Y-38934174D01*
X60477445Y-38850000D01*
X61040306Y-38850000D01*
X61040307Y-38849998D01*
X61034808Y-38794166D01*
X61034809Y-38794166D01*
X60974767Y-38596237D01*
X60974765Y-38596232D01*
X60877275Y-38413839D01*
X60877268Y-38413829D01*
X60746059Y-38253949D01*
X60746050Y-38253940D01*
X60586170Y-38122731D01*
X60586160Y-38122724D01*
X60403767Y-38025234D01*
X60403762Y-38025232D01*
X60205843Y-37965194D01*
X60205832Y-37965191D01*
X60150000Y-37959692D01*
X60150000Y-38522554D01*
X60065826Y-38500000D01*
X59934174Y-38500000D01*
X59850000Y-38522554D01*
X59850000Y-37959692D01*
X59794167Y-37965191D01*
X59794156Y-37965194D01*
X59596237Y-38025232D01*
X59596232Y-38025234D01*
X59413839Y-38122724D01*
X59413829Y-38122731D01*
X59253949Y-38253940D01*
X59253940Y-38253949D01*
X59122731Y-38413829D01*
X59122724Y-38413839D01*
X59025234Y-38596232D01*
X59025232Y-38596237D01*
X58965191Y-38794166D01*
X58959692Y-38849998D01*
X53715054Y-38849998D01*
X53739765Y-38803767D01*
X53739767Y-38803762D01*
X53799808Y-38605833D01*
X53805307Y-38550001D01*
X53805306Y-38550000D01*
X53242445Y-38550000D01*
X53265000Y-38465826D01*
X53265000Y-38334174D01*
X53242445Y-38250000D01*
X53805306Y-38250000D01*
X53805307Y-38249998D01*
X53799808Y-38194166D01*
X53799809Y-38194166D01*
X53739767Y-37996237D01*
X53739765Y-37996232D01*
X53642275Y-37813839D01*
X53642268Y-37813829D01*
X53511059Y-37653949D01*
X53511050Y-37653940D01*
X53351170Y-37522731D01*
X53351160Y-37522724D01*
X53168767Y-37425234D01*
X53168762Y-37425232D01*
X52970843Y-37365194D01*
X52970832Y-37365191D01*
X52915000Y-37359692D01*
X52915000Y-37922554D01*
X52830826Y-37900000D01*
X52699174Y-37900000D01*
X52615000Y-37922554D01*
X52615000Y-37359692D01*
X52559167Y-37365191D01*
X52559156Y-37365194D01*
X52361237Y-37425232D01*
X52361232Y-37425234D01*
X52178839Y-37522724D01*
X52178829Y-37522731D01*
X52018949Y-37653940D01*
X52018940Y-37653949D01*
X51887731Y-37813829D01*
X51887724Y-37813839D01*
X51790234Y-37996232D01*
X51790232Y-37996237D01*
X51730191Y-38194166D01*
X51724692Y-38249998D01*
X51275500Y-38249998D01*
X51275500Y-37530252D01*
X51263867Y-37471769D01*
X51219552Y-37405448D01*
X51159309Y-37365194D01*
X51153233Y-37361134D01*
X51153231Y-37361133D01*
X51153228Y-37361132D01*
X51153227Y-37361132D01*
X51094758Y-37349501D01*
X51094748Y-37349500D01*
X49355252Y-37349500D01*
X49355251Y-37349500D01*
X49355241Y-37349501D01*
X49296772Y-37361132D01*
X49296766Y-37361134D01*
X49230451Y-37405445D01*
X49230445Y-37405451D01*
X49186134Y-37471766D01*
X49186132Y-37471772D01*
X49174501Y-37530241D01*
X49174500Y-37530253D01*
X49174500Y-37990500D01*
X49155593Y-38048691D01*
X49106093Y-38084655D01*
X49075500Y-38089500D01*
X47134976Y-38089500D01*
X47076785Y-38070593D01*
X47064972Y-38060504D01*
X47064065Y-38059597D01*
X47064065Y-38059596D01*
X46980404Y-37975935D01*
X46980402Y-37975934D01*
X46980401Y-37975933D01*
X46957659Y-37965328D01*
X46912912Y-37923598D01*
X46900500Y-37875604D01*
X46900500Y-36719507D01*
X46919407Y-36661316D01*
X46968907Y-36625352D01*
X47030093Y-36625352D01*
X47053023Y-36636223D01*
X47089947Y-36659953D01*
X47196403Y-36691211D01*
X47228035Y-36700499D01*
X47228036Y-36700499D01*
X47228039Y-36700500D01*
X47228041Y-36700500D01*
X47371959Y-36700500D01*
X47371961Y-36700500D01*
X47510053Y-36659953D01*
X47631128Y-36582143D01*
X47725377Y-36473373D01*
X47731486Y-36459996D01*
X58944417Y-36459996D01*
X58944417Y-36460003D01*
X58964698Y-36665929D01*
X58964699Y-36665934D01*
X59024768Y-36863954D01*
X59122316Y-37046452D01*
X59253585Y-37206404D01*
X59253590Y-37206410D01*
X59253595Y-37206414D01*
X59413547Y-37337683D01*
X59413548Y-37337683D01*
X59413550Y-37337685D01*
X59596046Y-37435232D01*
X59713329Y-37470809D01*
X59794065Y-37495300D01*
X59794070Y-37495301D01*
X59999997Y-37515583D01*
X60000000Y-37515583D01*
X60000003Y-37515583D01*
X60205929Y-37495301D01*
X60205934Y-37495300D01*
X60220739Y-37490809D01*
X60403954Y-37435232D01*
X60586450Y-37337685D01*
X60746410Y-37206410D01*
X60877685Y-37046450D01*
X60975232Y-36863954D01*
X61035300Y-36665934D01*
X61035301Y-36665929D01*
X61055583Y-36460003D01*
X61055583Y-36459996D01*
X61035301Y-36254070D01*
X61035300Y-36254065D01*
X61017078Y-36193997D01*
X60975232Y-36056046D01*
X60877685Y-35873550D01*
X60877538Y-35873371D01*
X60746414Y-35713595D01*
X60746410Y-35713590D01*
X60746404Y-35713585D01*
X60586452Y-35582316D01*
X60403954Y-35484768D01*
X60205934Y-35424699D01*
X60205929Y-35424698D01*
X60000003Y-35404417D01*
X59999997Y-35404417D01*
X59794070Y-35424698D01*
X59794065Y-35424699D01*
X59596045Y-35484768D01*
X59413547Y-35582316D01*
X59253595Y-35713585D01*
X59253585Y-35713595D01*
X59122316Y-35873547D01*
X59024768Y-36056045D01*
X58964699Y-36254065D01*
X58964698Y-36254070D01*
X58944417Y-36459996D01*
X47731486Y-36459996D01*
X47785165Y-36342457D01*
X47797874Y-36254065D01*
X47805647Y-36200002D01*
X47805647Y-36199997D01*
X47785165Y-36057543D01*
X47758657Y-35999500D01*
X47725377Y-35926627D01*
X47631128Y-35817857D01*
X47631127Y-35817856D01*
X47626491Y-35812506D01*
X47628524Y-35810743D01*
X47603067Y-35768505D01*
X47600500Y-35746105D01*
X47600500Y-33919996D01*
X58944417Y-33919996D01*
X58944417Y-33920003D01*
X58964698Y-34125929D01*
X58964699Y-34125934D01*
X59024768Y-34323954D01*
X59122316Y-34506452D01*
X59202425Y-34604065D01*
X59253590Y-34666410D01*
X59253595Y-34666414D01*
X59413547Y-34797683D01*
X59413548Y-34797683D01*
X59413550Y-34797685D01*
X59596046Y-34895232D01*
X59733997Y-34937078D01*
X59794065Y-34955300D01*
X59794070Y-34955301D01*
X59999997Y-34975583D01*
X60000000Y-34975583D01*
X60000003Y-34975583D01*
X60205929Y-34955301D01*
X60205934Y-34955300D01*
X60403954Y-34895232D01*
X60586450Y-34797685D01*
X60746410Y-34666410D01*
X60877685Y-34506450D01*
X60975232Y-34323954D01*
X61035300Y-34125934D01*
X61035301Y-34125929D01*
X61055583Y-33920003D01*
X61055583Y-33919996D01*
X61035301Y-33714070D01*
X61035300Y-33714065D01*
X61007302Y-33621769D01*
X60975232Y-33516046D01*
X60877685Y-33333550D01*
X60874440Y-33329596D01*
X60746414Y-33173595D01*
X60746410Y-33173590D01*
X60680925Y-33119848D01*
X60586452Y-33042316D01*
X60403954Y-32944768D01*
X60205934Y-32884699D01*
X60205929Y-32884698D01*
X60000003Y-32864417D01*
X59999997Y-32864417D01*
X59794070Y-32884698D01*
X59794065Y-32884699D01*
X59596045Y-32944768D01*
X59413547Y-33042316D01*
X59253595Y-33173585D01*
X59253585Y-33173595D01*
X59122316Y-33333547D01*
X59024768Y-33516045D01*
X58964699Y-33714065D01*
X58964698Y-33714070D01*
X58944417Y-33919996D01*
X47600500Y-33919996D01*
X47600500Y-33060437D01*
X47600499Y-33060435D01*
X47580021Y-32984011D01*
X47580019Y-32984007D01*
X47540460Y-32915489D01*
X47484511Y-32859539D01*
X47484511Y-32859540D01*
X46729496Y-32104525D01*
X46701719Y-32050008D01*
X46700500Y-32034521D01*
X46700500Y-31025327D01*
X46700500Y-31025326D01*
X46698411Y-31014825D01*
X46705600Y-30954065D01*
X46747130Y-30909133D01*
X46807139Y-30897194D01*
X46814812Y-30898408D01*
X46825326Y-30900500D01*
X47252887Y-30900500D01*
X47254412Y-30900600D01*
X47260138Y-30900600D01*
X49034621Y-30900600D01*
X49092812Y-30919507D01*
X49104625Y-30929596D01*
X49369453Y-31194424D01*
X49397230Y-31248941D01*
X49397442Y-31278515D01*
X49394353Y-31300002D01*
X49414834Y-31442456D01*
X49468994Y-31561048D01*
X49474623Y-31573373D01*
X49567234Y-31680253D01*
X49568873Y-31682144D01*
X49689942Y-31759950D01*
X49689947Y-31759953D01*
X49796403Y-31791211D01*
X49828035Y-31800499D01*
X49828036Y-31800499D01*
X49828039Y-31800500D01*
X49828041Y-31800500D01*
X49971959Y-31800500D01*
X49971961Y-31800500D01*
X50110053Y-31759953D01*
X50231128Y-31682143D01*
X50325377Y-31573373D01*
X50385165Y-31442457D01*
X50394276Y-31379085D01*
X50421271Y-31324180D01*
X50475385Y-31295626D01*
X50520161Y-31298186D01*
X50528039Y-31300500D01*
X50528040Y-31300500D01*
X50671959Y-31300500D01*
X50671961Y-31300500D01*
X50810053Y-31259953D01*
X50931128Y-31182143D01*
X51025377Y-31073373D01*
X51083319Y-30946498D01*
X51124689Y-30901423D01*
X51184656Y-30889272D01*
X51201260Y-30892637D01*
X51216780Y-30897194D01*
X51228035Y-30900499D01*
X51228036Y-30900499D01*
X51228039Y-30900500D01*
X51228040Y-30900500D01*
X51371959Y-30900500D01*
X51371961Y-30900500D01*
X51510053Y-30859953D01*
X51631128Y-30782143D01*
X51725377Y-30673373D01*
X51785165Y-30542457D01*
X51794276Y-30479085D01*
X51821271Y-30424180D01*
X51875385Y-30395626D01*
X51920161Y-30398186D01*
X51928039Y-30400500D01*
X51928040Y-30400500D01*
X52071959Y-30400500D01*
X52071961Y-30400500D01*
X52210053Y-30359953D01*
X52331128Y-30282143D01*
X52425377Y-30173373D01*
X52485165Y-30042457D01*
X52499456Y-29943060D01*
X52505647Y-29900002D01*
X52505647Y-29899997D01*
X52485165Y-29757543D01*
X52424231Y-29624118D01*
X52417256Y-29563331D01*
X52447342Y-29510054D01*
X52472445Y-29493267D01*
X52521603Y-29470343D01*
X52558316Y-29453224D01*
X52630352Y-29381187D01*
X52684867Y-29353412D01*
X52745299Y-29362983D01*
X52770358Y-29381189D01*
X52841978Y-29452809D01*
X52950638Y-29503478D01*
X52950645Y-29503480D01*
X53000161Y-29510000D01*
X53029999Y-29510000D01*
X53030000Y-29509999D01*
X53030000Y-29150001D01*
X53330000Y-29150001D01*
X53330000Y-29509999D01*
X53330001Y-29510000D01*
X53359838Y-29510000D01*
X53409354Y-29503480D01*
X53409361Y-29503478D01*
X53518021Y-29452809D01*
X53602809Y-29368021D01*
X53653478Y-29259361D01*
X53653480Y-29259354D01*
X53660000Y-29209838D01*
X53660000Y-29150001D01*
X53659999Y-29150000D01*
X53330001Y-29150000D01*
X53330000Y-29150001D01*
X53030000Y-29150001D01*
X53030000Y-28490001D01*
X53330000Y-28490001D01*
X53330000Y-28849999D01*
X53330001Y-28850000D01*
X53659999Y-28850000D01*
X53660000Y-28849999D01*
X53660000Y-28790161D01*
X53653480Y-28740645D01*
X53653478Y-28740638D01*
X53602809Y-28631978D01*
X53518021Y-28547190D01*
X53409361Y-28496521D01*
X53409354Y-28496519D01*
X53359839Y-28490000D01*
X53330001Y-28490000D01*
X53330000Y-28490001D01*
X53030000Y-28490001D01*
X53029999Y-28490000D01*
X53000161Y-28490000D01*
X52950645Y-28496519D01*
X52950638Y-28496521D01*
X52841978Y-28547190D01*
X52770358Y-28618811D01*
X52715841Y-28646588D01*
X52655409Y-28637017D01*
X52630353Y-28618813D01*
X52558316Y-28546776D01*
X52558314Y-28546775D01*
X52558313Y-28546774D01*
X52449489Y-28496029D01*
X52449488Y-28496028D01*
X52432958Y-28493852D01*
X52399901Y-28489500D01*
X52399899Y-28489500D01*
X52040104Y-28489500D01*
X52040092Y-28489501D01*
X51990513Y-28496027D01*
X51990511Y-28496027D01*
X51881686Y-28546774D01*
X51796776Y-28631684D01*
X51791808Y-28642339D01*
X51750079Y-28687087D01*
X51702083Y-28699500D01*
X50467493Y-28699500D01*
X50409302Y-28680593D01*
X50373338Y-28631093D01*
X50373338Y-28569907D01*
X50377437Y-28559379D01*
X50383003Y-28547190D01*
X50383316Y-28546504D01*
X50424684Y-28501426D01*
X50484650Y-28489272D01*
X50501260Y-28492637D01*
X50514481Y-28496519D01*
X50528035Y-28500499D01*
X50528036Y-28500499D01*
X50528039Y-28500500D01*
X50528040Y-28500500D01*
X50671959Y-28500500D01*
X50671961Y-28500500D01*
X50810053Y-28459953D01*
X50931128Y-28382143D01*
X51025377Y-28273373D01*
X51083319Y-28146498D01*
X51124689Y-28101423D01*
X51184656Y-28089272D01*
X51201260Y-28092637D01*
X51220133Y-28098178D01*
X51228035Y-28100499D01*
X51228036Y-28100499D01*
X51228039Y-28100500D01*
X51228040Y-28100500D01*
X51371959Y-28100500D01*
X51371961Y-28100500D01*
X51510053Y-28059953D01*
X51631128Y-27982143D01*
X51725377Y-27873373D01*
X51783319Y-27746498D01*
X51824689Y-27701423D01*
X51884656Y-27689272D01*
X51901260Y-27692637D01*
X51920133Y-27698178D01*
X51928035Y-27700499D01*
X51928036Y-27700499D01*
X51928039Y-27700500D01*
X51928040Y-27700500D01*
X52071959Y-27700500D01*
X52071961Y-27700500D01*
X52210053Y-27659953D01*
X52331128Y-27582143D01*
X52425377Y-27473373D01*
X52483290Y-27346561D01*
X52524660Y-27301486D01*
X52584627Y-27289335D01*
X52601233Y-27292699D01*
X52628139Y-27300600D01*
X52628140Y-27300600D01*
X52772059Y-27300600D01*
X52772061Y-27300600D01*
X52910153Y-27260053D01*
X53031228Y-27182243D01*
X53125477Y-27073473D01*
X53185265Y-26942557D01*
X53205747Y-26800100D01*
X53205733Y-26800000D01*
X53185266Y-26657645D01*
X53177494Y-26640628D01*
X53170518Y-26579841D01*
X53200604Y-26526564D01*
X53256260Y-26501146D01*
X53267547Y-26500500D01*
X54534521Y-26500500D01*
X54592712Y-26519407D01*
X54604525Y-26529496D01*
X54869453Y-26794424D01*
X54897230Y-26848941D01*
X54897441Y-26878514D01*
X54894354Y-26899997D01*
X54894353Y-26900002D01*
X54914834Y-27042456D01*
X54974622Y-27173371D01*
X54974623Y-27173373D01*
X55068872Y-27282143D01*
X55068873Y-27282144D01*
X55169113Y-27346564D01*
X55189947Y-27359953D01*
X55296403Y-27391211D01*
X55328035Y-27400499D01*
X55328036Y-27400499D01*
X55328039Y-27400500D01*
X55328041Y-27400500D01*
X55471959Y-27400500D01*
X55471961Y-27400500D01*
X55610053Y-27359953D01*
X55731128Y-27282143D01*
X55825377Y-27173373D01*
X55885165Y-27042457D01*
X55899528Y-26942557D01*
X55905647Y-26900002D01*
X55905647Y-26899997D01*
X55888969Y-26784001D01*
X55899402Y-26723712D01*
X55943280Y-26681070D01*
X55959065Y-26674924D01*
X56010053Y-26659953D01*
X56131128Y-26582143D01*
X56225377Y-26473373D01*
X56285165Y-26342457D01*
X56305647Y-26200000D01*
X56301410Y-26170534D01*
X56285165Y-26057543D01*
X56233996Y-25945500D01*
X56227021Y-25884713D01*
X56257107Y-25831436D01*
X56270514Y-25821096D01*
X56331128Y-25782143D01*
X56425377Y-25673373D01*
X56485165Y-25542457D01*
X56505647Y-25400000D01*
X56502743Y-25379803D01*
X56513175Y-25319516D01*
X56557052Y-25276872D01*
X56617615Y-25268164D01*
X56670739Y-25295710D01*
X59670504Y-28295475D01*
X59698281Y-28349992D01*
X59699500Y-28365479D01*
X59699500Y-30230500D01*
X59680593Y-30288691D01*
X59631093Y-30324655D01*
X59600500Y-30329500D01*
X59130252Y-30329500D01*
X59130251Y-30329500D01*
X59130241Y-30329501D01*
X59071772Y-30341132D01*
X59071766Y-30341134D01*
X59005451Y-30385445D01*
X59005445Y-30385451D01*
X58961134Y-30451766D01*
X58961132Y-30451772D01*
X58949501Y-30510241D01*
X58949500Y-30510253D01*
X58949500Y-32249746D01*
X58949501Y-32249758D01*
X58961132Y-32308227D01*
X58961134Y-32308233D01*
X58994853Y-32358696D01*
X59005448Y-32374552D01*
X59071769Y-32418867D01*
X59116231Y-32427711D01*
X59130241Y-32430498D01*
X59130246Y-32430498D01*
X59130252Y-32430500D01*
X59130253Y-32430500D01*
X60869747Y-32430500D01*
X60869748Y-32430500D01*
X60928231Y-32418867D01*
X60994552Y-32374552D01*
X61038867Y-32308231D01*
X61050500Y-32249748D01*
X61050500Y-30510252D01*
X61038867Y-30451769D01*
X60994552Y-30385448D01*
X60989458Y-30382044D01*
X60928233Y-30341134D01*
X60928231Y-30341133D01*
X60928228Y-30341132D01*
X60928227Y-30341132D01*
X60869758Y-30329501D01*
X60869748Y-30329500D01*
X60869747Y-30329500D01*
X60399500Y-30329500D01*
X60341309Y-30310593D01*
X60305345Y-30261093D01*
X60300500Y-30230500D01*
X60300500Y-28160439D01*
X60300500Y-28160438D01*
X60289659Y-28119978D01*
X60289659Y-28119977D01*
X60289659Y-28119976D01*
X60280022Y-28084012D01*
X60280020Y-28084008D01*
X60240463Y-28015493D01*
X60240461Y-28015491D01*
X60240460Y-28015489D01*
X56664511Y-24439540D01*
X56640979Y-24425954D01*
X56622852Y-24415488D01*
X56622851Y-24415488D01*
X56595988Y-24399978D01*
X56519564Y-24379500D01*
X56519562Y-24379500D01*
X50031239Y-24379500D01*
X49973048Y-24360593D01*
X49959921Y-24347235D01*
X49959348Y-24347809D01*
X49953224Y-24341685D01*
X49953224Y-24341684D01*
X49881187Y-24269647D01*
X49853412Y-24215133D01*
X49862983Y-24154701D01*
X49881189Y-24129642D01*
X49952809Y-24058021D01*
X50003478Y-23949361D01*
X50003480Y-23949354D01*
X50010000Y-23899838D01*
X50010000Y-23870001D01*
X50009999Y-23870000D01*
X48990001Y-23870000D01*
X48990000Y-23870001D01*
X48990000Y-23899838D01*
X48996519Y-23949354D01*
X48996521Y-23949361D01*
X49047190Y-24058021D01*
X49118811Y-24129642D01*
X49146588Y-24184159D01*
X49137017Y-24244591D01*
X49118813Y-24269646D01*
X49046776Y-24341684D01*
X49046775Y-24341685D01*
X49040652Y-24347809D01*
X49038605Y-24345762D01*
X49000994Y-24374106D01*
X48968761Y-24379500D01*
X48359562Y-24379500D01*
X48280438Y-24379500D01*
X48233661Y-24392033D01*
X48204007Y-24399979D01*
X48135493Y-24439536D01*
X48135488Y-24439540D01*
X47707003Y-24868025D01*
X47652487Y-24895802D01*
X47592055Y-24886231D01*
X47548790Y-24842966D01*
X47538000Y-24798021D01*
X47538000Y-24727978D01*
X47556907Y-24669787D01*
X47566990Y-24657980D01*
X48684810Y-23540161D01*
X48990000Y-23540161D01*
X48990000Y-23569999D01*
X48990001Y-23570000D01*
X49349999Y-23570000D01*
X49350000Y-23569999D01*
X49350000Y-23240001D01*
X49650000Y-23240001D01*
X49650000Y-23569999D01*
X49650001Y-23570000D01*
X50009999Y-23570000D01*
X50010000Y-23569999D01*
X50010000Y-23540161D01*
X50003480Y-23490645D01*
X50003478Y-23490638D01*
X49956596Y-23390100D01*
X52239500Y-23390100D01*
X52239500Y-23809896D01*
X52239501Y-23809907D01*
X52246027Y-23859486D01*
X52246027Y-23859488D01*
X52296774Y-23968313D01*
X52296775Y-23968314D01*
X52296776Y-23968316D01*
X52381684Y-24053224D01*
X52490513Y-24103972D01*
X52540099Y-24110500D01*
X52899900Y-24110499D01*
X52949487Y-24103972D01*
X52949488Y-24103972D01*
X53022342Y-24069999D01*
X53058316Y-24053224D01*
X53130352Y-23981187D01*
X53184867Y-23953412D01*
X53245299Y-23962983D01*
X53270358Y-23981189D01*
X53341978Y-24052809D01*
X53450638Y-24103478D01*
X53450645Y-24103480D01*
X53500161Y-24110000D01*
X53529999Y-24110000D01*
X53530000Y-24109999D01*
X53530000Y-23750001D01*
X53830000Y-23750001D01*
X53830000Y-24109999D01*
X53830001Y-24110000D01*
X53859838Y-24110000D01*
X53909354Y-24103480D01*
X53909361Y-24103478D01*
X54018021Y-24052809D01*
X54102809Y-23968021D01*
X54153478Y-23859361D01*
X54153480Y-23859354D01*
X54160000Y-23809838D01*
X54160000Y-23750001D01*
X54159999Y-23750000D01*
X53830001Y-23750000D01*
X53830000Y-23750001D01*
X53530000Y-23750001D01*
X53530000Y-23090001D01*
X53830000Y-23090001D01*
X53830000Y-23449999D01*
X53830001Y-23450000D01*
X54159999Y-23450000D01*
X54160000Y-23449999D01*
X54160000Y-23390161D01*
X54153480Y-23340645D01*
X54153478Y-23340638D01*
X54102809Y-23231978D01*
X54018021Y-23147190D01*
X53909361Y-23096521D01*
X53909354Y-23096519D01*
X53859839Y-23090000D01*
X53830001Y-23090000D01*
X53830000Y-23090001D01*
X53530000Y-23090001D01*
X53529999Y-23090000D01*
X53500161Y-23090000D01*
X53450645Y-23096519D01*
X53450638Y-23096521D01*
X53341978Y-23147190D01*
X53339504Y-23149665D01*
X53335612Y-23151647D01*
X53334881Y-23152160D01*
X53334808Y-23152057D01*
X53284987Y-23177442D01*
X53224555Y-23167871D01*
X53181290Y-23124606D01*
X53170500Y-23079661D01*
X53170500Y-22949500D01*
X53189407Y-22891309D01*
X53238907Y-22855345D01*
X53269500Y-22850500D01*
X54040691Y-22850500D01*
X54459309Y-22850500D01*
X54590691Y-22850500D01*
X54709309Y-22850500D01*
X58850500Y-22850500D01*
X58908691Y-22869407D01*
X58944655Y-22918907D01*
X58949500Y-22949500D01*
X58949500Y-22969746D01*
X58949501Y-22969758D01*
X58961132Y-23028227D01*
X58961134Y-23028233D01*
X59005427Y-23094521D01*
X59005448Y-23094552D01*
X59071769Y-23138867D01*
X59113612Y-23147190D01*
X59130241Y-23150498D01*
X59130246Y-23150498D01*
X59130252Y-23150500D01*
X59130253Y-23150500D01*
X60869747Y-23150500D01*
X60869748Y-23150500D01*
X60928231Y-23138867D01*
X60994552Y-23094552D01*
X61038867Y-23028231D01*
X61050500Y-22969748D01*
X61050500Y-21230252D01*
X61038867Y-21171769D01*
X60994552Y-21105448D01*
X60994548Y-21105445D01*
X60928233Y-21061134D01*
X60928231Y-21061133D01*
X60928228Y-21061132D01*
X60928227Y-21061132D01*
X60869758Y-21049501D01*
X60869748Y-21049500D01*
X59130252Y-21049500D01*
X59130251Y-21049500D01*
X59130241Y-21049501D01*
X59071772Y-21061132D01*
X59071766Y-21061134D01*
X59005451Y-21105445D01*
X59005445Y-21105451D01*
X58961134Y-21171766D01*
X58961132Y-21171772D01*
X58949501Y-21230241D01*
X58949500Y-21230253D01*
X58949500Y-21850500D01*
X58930593Y-21908691D01*
X58881093Y-21944655D01*
X58850500Y-21949500D01*
X55202320Y-21949500D01*
X55144129Y-21930593D01*
X55108165Y-21881093D01*
X55108165Y-21819907D01*
X55113379Y-21807021D01*
X55136365Y-21760000D01*
X55140573Y-21751393D01*
X55150500Y-21683260D01*
X55150500Y-20591740D01*
X55140573Y-20523607D01*
X55134284Y-20510743D01*
X55112314Y-20465801D01*
X55089198Y-20418517D01*
X55006483Y-20335802D01*
X55004231Y-20334701D01*
X54901395Y-20284427D01*
X54874139Y-20280456D01*
X54833260Y-20274500D01*
X54466740Y-20274500D01*
X54432673Y-20279463D01*
X54398604Y-20284427D01*
X54293518Y-20335801D01*
X54293517Y-20335801D01*
X54293517Y-20335802D01*
X54244648Y-20384670D01*
X54190134Y-20412446D01*
X54129702Y-20402875D01*
X54104643Y-20384669D01*
X54056187Y-20336213D01*
X53951248Y-20284912D01*
X53883216Y-20275000D01*
X53850001Y-20275000D01*
X53850000Y-20275001D01*
X53850000Y-21188500D01*
X53831093Y-21246691D01*
X53781593Y-21282655D01*
X53751000Y-21287500D01*
X53649000Y-21287500D01*
X53590809Y-21268593D01*
X53554845Y-21219093D01*
X53550000Y-21188500D01*
X53550000Y-20275000D01*
X53516787Y-20275000D01*
X53516782Y-20275001D01*
X53448750Y-20284912D01*
X53343811Y-20336214D01*
X53295357Y-20384669D01*
X53240840Y-20412446D01*
X53180408Y-20402875D01*
X53155352Y-20384671D01*
X53106483Y-20335802D01*
X53104231Y-20334701D01*
X53001395Y-20284427D01*
X52974139Y-20280456D01*
X52933260Y-20274500D01*
X52566740Y-20274500D01*
X52532673Y-20279463D01*
X52498604Y-20284427D01*
X52393518Y-20335801D01*
X52310801Y-20418518D01*
X52259427Y-20523604D01*
X52255797Y-20548518D01*
X52249500Y-20591740D01*
X52249500Y-21683260D01*
X52259427Y-21751393D01*
X52259427Y-21751394D01*
X52259440Y-21751419D01*
X52259454Y-21751482D01*
X52261697Y-21758739D01*
X52261171Y-21758901D01*
X52269500Y-21794901D01*
X52269500Y-23268228D01*
X52260224Y-23310067D01*
X52246029Y-23340506D01*
X52246028Y-23340509D01*
X52239500Y-23390100D01*
X49956596Y-23390100D01*
X49952809Y-23381978D01*
X49868021Y-23297190D01*
X49759361Y-23246521D01*
X49759354Y-23246519D01*
X49709839Y-23240000D01*
X49650001Y-23240000D01*
X49650000Y-23240001D01*
X49350000Y-23240001D01*
X49349999Y-23240000D01*
X49290161Y-23240000D01*
X49240645Y-23246519D01*
X49240638Y-23246521D01*
X49131978Y-23297190D01*
X49047190Y-23381978D01*
X48996521Y-23490638D01*
X48996519Y-23490645D01*
X48990000Y-23540161D01*
X48684810Y-23540161D01*
X48780460Y-23444511D01*
X48797216Y-23415489D01*
X48801848Y-23407467D01*
X48820020Y-23375990D01*
X48820021Y-23375989D01*
X48840500Y-23299562D01*
X48840500Y-22801239D01*
X48859407Y-22743048D01*
X48872764Y-22729921D01*
X48872191Y-22729348D01*
X48878314Y-22723224D01*
X48878316Y-22723224D01*
X48950352Y-22651187D01*
X49004867Y-22623412D01*
X49065299Y-22632983D01*
X49090358Y-22651189D01*
X49161978Y-22722809D01*
X49270638Y-22773478D01*
X49270645Y-22773480D01*
X49320161Y-22780000D01*
X49349999Y-22780000D01*
X49350000Y-22779999D01*
X49350000Y-22420001D01*
X49650000Y-22420001D01*
X49650000Y-22779999D01*
X49650001Y-22780000D01*
X49679838Y-22780000D01*
X49729354Y-22773480D01*
X49729361Y-22773478D01*
X49838021Y-22722809D01*
X49922809Y-22638021D01*
X49973478Y-22529361D01*
X49973480Y-22529354D01*
X49980000Y-22479838D01*
X49980000Y-22420001D01*
X49979999Y-22420000D01*
X49650001Y-22420000D01*
X49650000Y-22420001D01*
X49350000Y-22420001D01*
X49350000Y-21760001D01*
X49650000Y-21760001D01*
X49650000Y-22119999D01*
X49650001Y-22120000D01*
X49979999Y-22120000D01*
X49980000Y-22119999D01*
X49980000Y-22060161D01*
X49973480Y-22010645D01*
X49973478Y-22010638D01*
X49922809Y-21901978D01*
X49838021Y-21817190D01*
X49729361Y-21766521D01*
X49729354Y-21766519D01*
X49679839Y-21760000D01*
X49650001Y-21760000D01*
X49650000Y-21760001D01*
X49350000Y-21760001D01*
X49349999Y-21760000D01*
X49320161Y-21760000D01*
X49270645Y-21766519D01*
X49270638Y-21766521D01*
X49161978Y-21817190D01*
X49090358Y-21888811D01*
X49035841Y-21916588D01*
X48975409Y-21907017D01*
X48950353Y-21888813D01*
X48878316Y-21816776D01*
X48878314Y-21816775D01*
X48872191Y-21810652D01*
X48874235Y-21808607D01*
X48845886Y-21770969D01*
X48840500Y-21738760D01*
X48840500Y-21353893D01*
X48859407Y-21295702D01*
X48866741Y-21287711D01*
X48866491Y-21287494D01*
X48882869Y-21268593D01*
X48965377Y-21173373D01*
X49025165Y-21042457D01*
X49033611Y-20983712D01*
X49045647Y-20900002D01*
X49045647Y-20899997D01*
X49025165Y-20757543D01*
X49024003Y-20754999D01*
X48965377Y-20626627D01*
X48871128Y-20517857D01*
X48871127Y-20517856D01*
X48866491Y-20512506D01*
X48868524Y-20510743D01*
X48843067Y-20468505D01*
X48840500Y-20446105D01*
X48840500Y-19980001D01*
X49090000Y-19980001D01*
X49090000Y-20009838D01*
X49096519Y-20059354D01*
X49096521Y-20059361D01*
X49147190Y-20168021D01*
X49231978Y-20252809D01*
X49340638Y-20303478D01*
X49340645Y-20303480D01*
X49390161Y-20310000D01*
X49449999Y-20310000D01*
X49450000Y-20309999D01*
X49450000Y-19980001D01*
X49750000Y-19980001D01*
X49750000Y-20309999D01*
X49750001Y-20310000D01*
X49809838Y-20310000D01*
X49859354Y-20303480D01*
X49859361Y-20303478D01*
X49968021Y-20252809D01*
X50052809Y-20168021D01*
X50103478Y-20059361D01*
X50103480Y-20059354D01*
X50110000Y-20009838D01*
X50110000Y-19980001D01*
X50109999Y-19980000D01*
X49750001Y-19980000D01*
X49750000Y-19980001D01*
X49450000Y-19980001D01*
X49449999Y-19980000D01*
X49090001Y-19980000D01*
X49090000Y-19980001D01*
X48840500Y-19980001D01*
X48840500Y-19625477D01*
X48859407Y-19567286D01*
X48869484Y-19555486D01*
X48937337Y-19487633D01*
X48991851Y-19459858D01*
X49052283Y-19469429D01*
X49095548Y-19512694D01*
X49105119Y-19573126D01*
X49097064Y-19599474D01*
X49096521Y-19600637D01*
X49096519Y-19600645D01*
X49090000Y-19650161D01*
X49090000Y-19679999D01*
X49090001Y-19680000D01*
X50109999Y-19680000D01*
X50110000Y-19679999D01*
X50110000Y-19650161D01*
X50103480Y-19600645D01*
X50103478Y-19600638D01*
X50052809Y-19491978D01*
X50042835Y-19482004D01*
X50015058Y-19427487D01*
X50024629Y-19367055D01*
X50067894Y-19323790D01*
X50112839Y-19313000D01*
X52150511Y-19313000D01*
X52208702Y-19331907D01*
X52244666Y-19381407D01*
X52249252Y-19404837D01*
X52249500Y-19408256D01*
X52249500Y-19408260D01*
X52255177Y-19447224D01*
X52259427Y-19476395D01*
X52310801Y-19581481D01*
X52310802Y-19581483D01*
X52393517Y-19664198D01*
X52425839Y-19679999D01*
X52498604Y-19715572D01*
X52498605Y-19715572D01*
X52498607Y-19715573D01*
X52566740Y-19725500D01*
X52566743Y-19725500D01*
X52933257Y-19725500D01*
X52933260Y-19725500D01*
X53001393Y-19715573D01*
X53106483Y-19664198D01*
X53189198Y-19581483D01*
X53240573Y-19476393D01*
X53250500Y-19408260D01*
X53250500Y-18316740D01*
X54149500Y-18316740D01*
X54149500Y-19408260D01*
X54156113Y-19453649D01*
X54159427Y-19476395D01*
X54210801Y-19581481D01*
X54210802Y-19581483D01*
X54293517Y-19664198D01*
X54325839Y-19679999D01*
X54398604Y-19715572D01*
X54398605Y-19715572D01*
X54398607Y-19715573D01*
X54466740Y-19725500D01*
X54466743Y-19725500D01*
X54833257Y-19725500D01*
X54833260Y-19725500D01*
X54901393Y-19715573D01*
X55006483Y-19664198D01*
X55089198Y-19581483D01*
X55140573Y-19476393D01*
X55150247Y-19409998D01*
X58959692Y-19409998D01*
X58959694Y-19410000D01*
X59522555Y-19410000D01*
X59500000Y-19494174D01*
X59500000Y-19625826D01*
X59522555Y-19710000D01*
X58959694Y-19710000D01*
X58959692Y-19710001D01*
X58965191Y-19765833D01*
X58965190Y-19765833D01*
X59025232Y-19963762D01*
X59025234Y-19963767D01*
X59122724Y-20146160D01*
X59122731Y-20146170D01*
X59253940Y-20306050D01*
X59253949Y-20306059D01*
X59413829Y-20437268D01*
X59413839Y-20437275D01*
X59596232Y-20534765D01*
X59596237Y-20534767D01*
X59794166Y-20594808D01*
X59849998Y-20600307D01*
X59850000Y-20600306D01*
X59850000Y-20037445D01*
X59934174Y-20060000D01*
X60065826Y-20060000D01*
X60150000Y-20037445D01*
X60150000Y-20600306D01*
X60150001Y-20600307D01*
X60205833Y-20594808D01*
X60403762Y-20534767D01*
X60403767Y-20534765D01*
X60586160Y-20437275D01*
X60586170Y-20437268D01*
X60746050Y-20306059D01*
X60746059Y-20306050D01*
X60877268Y-20146170D01*
X60877275Y-20146160D01*
X60974765Y-19963767D01*
X60974767Y-19963762D01*
X61034808Y-19765833D01*
X61040307Y-19710001D01*
X61040306Y-19710000D01*
X60477445Y-19710000D01*
X60500000Y-19625826D01*
X60500000Y-19494174D01*
X60477445Y-19410000D01*
X61040306Y-19410000D01*
X61040307Y-19409998D01*
X61034808Y-19354166D01*
X61034809Y-19354166D01*
X60974767Y-19156237D01*
X60974765Y-19156232D01*
X60877275Y-18973839D01*
X60877268Y-18973829D01*
X60746059Y-18813949D01*
X60746050Y-18813940D01*
X60586170Y-18682731D01*
X60586160Y-18682724D01*
X60403767Y-18585234D01*
X60403762Y-18585232D01*
X60205843Y-18525194D01*
X60205832Y-18525191D01*
X60150000Y-18519692D01*
X60150000Y-19082554D01*
X60065826Y-19060000D01*
X59934174Y-19060000D01*
X59850000Y-19082554D01*
X59850000Y-18519692D01*
X59794167Y-18525191D01*
X59794156Y-18525194D01*
X59596237Y-18585232D01*
X59596232Y-18585234D01*
X59413839Y-18682724D01*
X59413829Y-18682731D01*
X59253949Y-18813940D01*
X59253940Y-18813949D01*
X59122731Y-18973829D01*
X59122724Y-18973839D01*
X59025234Y-19156232D01*
X59025232Y-19156237D01*
X58965191Y-19354166D01*
X58959692Y-19409998D01*
X55150247Y-19409998D01*
X55150500Y-19408260D01*
X55150500Y-18316740D01*
X55140573Y-18248607D01*
X55089198Y-18143517D01*
X55006483Y-18060802D01*
X55006481Y-18060801D01*
X54901395Y-18009427D01*
X54874139Y-18005456D01*
X54833260Y-17999500D01*
X54466740Y-17999500D01*
X54432673Y-18004463D01*
X54398604Y-18009427D01*
X54293518Y-18060801D01*
X54210801Y-18143518D01*
X54159427Y-18248604D01*
X54159427Y-18248607D01*
X54149500Y-18316740D01*
X53250500Y-18316740D01*
X53240573Y-18248607D01*
X53189198Y-18143517D01*
X53106483Y-18060802D01*
X53106481Y-18060801D01*
X53001395Y-18009427D01*
X52974139Y-18005456D01*
X52933260Y-17999500D01*
X52566740Y-17999500D01*
X52532673Y-18004463D01*
X52498604Y-18009427D01*
X52393518Y-18060801D01*
X52310801Y-18143518D01*
X52259427Y-18248604D01*
X52249500Y-18316742D01*
X52249252Y-18320163D01*
X52226184Y-18376833D01*
X52174211Y-18409121D01*
X52150511Y-18412000D01*
X49915686Y-18412000D01*
X49873847Y-18402724D01*
X49859487Y-18396028D01*
X49859488Y-18396028D01*
X49842958Y-18393852D01*
X49809901Y-18389500D01*
X49809899Y-18389500D01*
X49390103Y-18389500D01*
X49390092Y-18389501D01*
X49340513Y-18396027D01*
X49340511Y-18396027D01*
X49231686Y-18446774D01*
X49231684Y-18446775D01*
X49231684Y-18446776D01*
X49146776Y-18531684D01*
X49146775Y-18531685D01*
X49140652Y-18537809D01*
X49139375Y-18536532D01*
X49098980Y-18566962D01*
X49092389Y-18568976D01*
X49014010Y-18589979D01*
X48963898Y-18618912D01*
X48963894Y-18618914D01*
X48945492Y-18629537D01*
X48355489Y-19219540D01*
X48355488Y-19219539D01*
X48299539Y-19275489D01*
X48259980Y-19344007D01*
X48259978Y-19344011D01*
X48239500Y-19420435D01*
X48239500Y-20446105D01*
X48220593Y-20504296D01*
X48213258Y-20512289D01*
X48213509Y-20512506D01*
X48208872Y-20517856D01*
X48208872Y-20517857D01*
X48182050Y-20548812D01*
X48114622Y-20626628D01*
X48054834Y-20757543D01*
X48034353Y-20899997D01*
X48034353Y-20900002D01*
X48054834Y-21042456D01*
X48085976Y-21110645D01*
X48114623Y-21173373D01*
X48190968Y-21261481D01*
X48213509Y-21287494D01*
X48211471Y-21289259D01*
X48236925Y-21331458D01*
X48239500Y-21353893D01*
X48239500Y-21738760D01*
X48220593Y-21796951D01*
X48207236Y-21810079D01*
X48207809Y-21810652D01*
X48201685Y-21816775D01*
X48201684Y-21816776D01*
X48161977Y-21856483D01*
X48116774Y-21901686D01*
X48097817Y-21942340D01*
X48056088Y-21987088D01*
X48008093Y-21999500D01*
X47731239Y-21999500D01*
X47673048Y-21980593D01*
X47659921Y-21967235D01*
X47659348Y-21967809D01*
X47653224Y-21961685D01*
X47653224Y-21961684D01*
X47581187Y-21889647D01*
X47553412Y-21835133D01*
X47562983Y-21774701D01*
X47581189Y-21749642D01*
X47652809Y-21678021D01*
X47703478Y-21569361D01*
X47703480Y-21569354D01*
X47710000Y-21519838D01*
X47710000Y-21490001D01*
X47709999Y-21490000D01*
X46690001Y-21490000D01*
X46690000Y-21490001D01*
X46690000Y-21519838D01*
X46696519Y-21569354D01*
X46696521Y-21569361D01*
X46747190Y-21678021D01*
X46818811Y-21749642D01*
X46846588Y-21804159D01*
X46837017Y-21864591D01*
X46818813Y-21889646D01*
X46778784Y-21929676D01*
X46746774Y-21961686D01*
X46696029Y-22070510D01*
X46696028Y-22070511D01*
X46689500Y-22120100D01*
X46689500Y-22244520D01*
X46670593Y-22302711D01*
X46660503Y-22314524D01*
X46579502Y-22395524D01*
X46524985Y-22423301D01*
X46464553Y-22413729D01*
X46421289Y-22370465D01*
X46410499Y-22325522D01*
X46410499Y-22100100D01*
X46403972Y-22050513D01*
X46403972Y-22050511D01*
X46353225Y-21941686D01*
X46353224Y-21941685D01*
X46353224Y-21941684D01*
X46281187Y-21869647D01*
X46253412Y-21815133D01*
X46262983Y-21754701D01*
X46281189Y-21729642D01*
X46352809Y-21658021D01*
X46403478Y-21549361D01*
X46403480Y-21549354D01*
X46410000Y-21499838D01*
X46410000Y-21470001D01*
X46409999Y-21470000D01*
X45849000Y-21470000D01*
X45790809Y-21451093D01*
X45754845Y-21401593D01*
X45750000Y-21371000D01*
X45750000Y-20840001D01*
X46050000Y-20840001D01*
X46050000Y-21169999D01*
X46050001Y-21170000D01*
X46409999Y-21170000D01*
X46410000Y-21169999D01*
X46410000Y-21160161D01*
X46690000Y-21160161D01*
X46690000Y-21189999D01*
X46690001Y-21190000D01*
X47049999Y-21190000D01*
X47050000Y-21189999D01*
X47050000Y-20860001D01*
X47350000Y-20860001D01*
X47350000Y-21189999D01*
X47350001Y-21190000D01*
X47709999Y-21190000D01*
X47710000Y-21189999D01*
X47710000Y-21160161D01*
X47703480Y-21110645D01*
X47703478Y-21110638D01*
X47652809Y-21001978D01*
X47568021Y-20917190D01*
X47459361Y-20866521D01*
X47459354Y-20866519D01*
X47409839Y-20860000D01*
X47350001Y-20860000D01*
X47350000Y-20860001D01*
X47050000Y-20860001D01*
X47049999Y-20860000D01*
X46990161Y-20860000D01*
X46940645Y-20866519D01*
X46940638Y-20866521D01*
X46831978Y-20917190D01*
X46747190Y-21001978D01*
X46696521Y-21110638D01*
X46696519Y-21110645D01*
X46690000Y-21160161D01*
X46410000Y-21160161D01*
X46410000Y-21140161D01*
X46403480Y-21090645D01*
X46403478Y-21090638D01*
X46352809Y-20981978D01*
X46268021Y-20897190D01*
X46159361Y-20846521D01*
X46159354Y-20846519D01*
X46109839Y-20840000D01*
X46050001Y-20840000D01*
X46050000Y-20840001D01*
X45750000Y-20840001D01*
X45749999Y-20840000D01*
X45690161Y-20840000D01*
X45640645Y-20846519D01*
X45640638Y-20846521D01*
X45531978Y-20897190D01*
X45497074Y-20932095D01*
X45442557Y-20959872D01*
X45382125Y-20950301D01*
X45357066Y-20932095D01*
X45129496Y-20704525D01*
X45101719Y-20650008D01*
X45100500Y-20634521D01*
X45100500Y-19949500D01*
X45119407Y-19891309D01*
X45168907Y-19855345D01*
X45199500Y-19850500D01*
X45657660Y-19850500D01*
X45789584Y-19820390D01*
X45789584Y-19820389D01*
X45789588Y-19820389D01*
X45911507Y-19761675D01*
X46017305Y-19677305D01*
X46101675Y-19571507D01*
X46160389Y-19449588D01*
X46161090Y-19446519D01*
X46175564Y-19383101D01*
X46190500Y-19317660D01*
X46190500Y-19250000D01*
X46190500Y-19202405D01*
X46190500Y-19060438D01*
X46190500Y-19032340D01*
X46186654Y-19015489D01*
X46160390Y-18900415D01*
X46160389Y-18900414D01*
X46160389Y-18900412D01*
X46101675Y-18778493D01*
X46017305Y-18672695D01*
X45911507Y-18588325D01*
X45789588Y-18529611D01*
X45789586Y-18529610D01*
X45789584Y-18529609D01*
X45657660Y-18499500D01*
X45629562Y-18499500D01*
X45199500Y-18499500D01*
X45141309Y-18480593D01*
X45105345Y-18431093D01*
X45100500Y-18400500D01*
X45100500Y-17855479D01*
X45119407Y-17797288D01*
X45129496Y-17785475D01*
X45865475Y-17049496D01*
X45919992Y-17021719D01*
X45935479Y-17020500D01*
X46164314Y-17020500D01*
X46164316Y-17020500D01*
X46213173Y-17014068D01*
X46320404Y-16964065D01*
X46402614Y-16881854D01*
X46457128Y-16854078D01*
X46517561Y-16863649D01*
X46542616Y-16881852D01*
X46641284Y-16980520D01*
X46778216Y-17059577D01*
X46930943Y-17100500D01*
X47404865Y-17100500D01*
X47404881Y-17100501D01*
X47410944Y-17100501D01*
X47569056Y-17100501D01*
X47569058Y-17100501D01*
X47721786Y-17059577D01*
X47797284Y-17015988D01*
X47858717Y-16980520D01*
X47970521Y-16868716D01*
X47970521Y-16868714D01*
X47984740Y-16854494D01*
X48039255Y-16826719D01*
X48054742Y-16825500D01*
X58854344Y-16825500D01*
X58912535Y-16844407D01*
X58948499Y-16893907D01*
X58952867Y-16934204D01*
X58944417Y-17019997D01*
X58944417Y-17020003D01*
X58964698Y-17225929D01*
X58964699Y-17225934D01*
X59024768Y-17423954D01*
X59122316Y-17606452D01*
X59184291Y-17681969D01*
X59253590Y-17766410D01*
X59253595Y-17766414D01*
X59413547Y-17897683D01*
X59413548Y-17897683D01*
X59413550Y-17897685D01*
X59596046Y-17995232D01*
X59733997Y-18037078D01*
X59794065Y-18055300D01*
X59794070Y-18055301D01*
X59999997Y-18075583D01*
X60000000Y-18075583D01*
X60000003Y-18075583D01*
X60205929Y-18055301D01*
X60205934Y-18055300D01*
X60243248Y-18043981D01*
X60403954Y-17995232D01*
X60586450Y-17897685D01*
X60746410Y-17766410D01*
X60877685Y-17606450D01*
X60975232Y-17423954D01*
X61035300Y-17225934D01*
X61035301Y-17225929D01*
X61055583Y-17020003D01*
X61055583Y-17019996D01*
X61035301Y-16814070D01*
X61035300Y-16814065D01*
X61014219Y-16744572D01*
X60975232Y-16616046D01*
X60877685Y-16433550D01*
X60859355Y-16411215D01*
X60746414Y-16273595D01*
X60746410Y-16273590D01*
X60734675Y-16263959D01*
X60586452Y-16142316D01*
X60403954Y-16044768D01*
X60205934Y-15984699D01*
X60205929Y-15984698D01*
X60000003Y-15964417D01*
X59999997Y-15964417D01*
X59858751Y-15978328D01*
X59798988Y-15965216D01*
X59779044Y-15949809D01*
X59685521Y-15856286D01*
X59685520Y-15856284D01*
X59649237Y-15820001D01*
X59621462Y-15765487D01*
X59631033Y-15705055D01*
X59649236Y-15679999D01*
X59685520Y-15643716D01*
X59685521Y-15643713D01*
X59779046Y-15550187D01*
X59833561Y-15522412D01*
X59858746Y-15521670D01*
X59973906Y-15533012D01*
X59999998Y-15535583D01*
X60000000Y-15535583D01*
X60000003Y-15535583D01*
X60205929Y-15515301D01*
X60205934Y-15515300D01*
X60242661Y-15504159D01*
X60403954Y-15455232D01*
X60586450Y-15357685D01*
X60746410Y-15226410D01*
X60877685Y-15066450D01*
X60975232Y-14883954D01*
X61035300Y-14685934D01*
X61035301Y-14685929D01*
X61055583Y-14480003D01*
X61055583Y-14479996D01*
X61035301Y-14274070D01*
X61035300Y-14274065D01*
X61010707Y-14192993D01*
X60975232Y-14076046D01*
X60877685Y-13893550D01*
X60806661Y-13807007D01*
X60766723Y-13758342D01*
X60746410Y-13733590D01*
X60704871Y-13699500D01*
X60586452Y-13602316D01*
X60403954Y-13504768D01*
X60205934Y-13444699D01*
X60205929Y-13444698D01*
X60000003Y-13424417D01*
X59999997Y-13424417D01*
X59794070Y-13444698D01*
X59794065Y-13444699D01*
X59596045Y-13504768D01*
X59413547Y-13602316D01*
X59253595Y-13733585D01*
X59253585Y-13733595D01*
X59122316Y-13893547D01*
X59024768Y-14076045D01*
X58964699Y-14274065D01*
X58964698Y-14274070D01*
X58944417Y-14479996D01*
X58944417Y-14480002D01*
X58952867Y-14565796D01*
X58939755Y-14625560D01*
X58894018Y-14666203D01*
X58854344Y-14674500D01*
X48054744Y-14674500D01*
X47996553Y-14655593D01*
X47984740Y-14645504D01*
X47970521Y-14631285D01*
X47970521Y-14631284D01*
X47858717Y-14519480D01*
X47771905Y-14469360D01*
X47771904Y-14469359D01*
X47721789Y-14440425D01*
X47721786Y-14440423D01*
X47569058Y-14399499D01*
X47410944Y-14399499D01*
X47404881Y-14399499D01*
X47404865Y-14399500D01*
X46930943Y-14399500D01*
X46778216Y-14440423D01*
X46699392Y-14485932D01*
X46641281Y-14519482D01*
X46542619Y-14618144D01*
X46488103Y-14645921D01*
X46427671Y-14636349D01*
X46402615Y-14618146D01*
X46320404Y-14535935D01*
X46320402Y-14535934D01*
X46320401Y-14535933D01*
X46213175Y-14485932D01*
X46180601Y-14481644D01*
X46164316Y-14479500D01*
X45815684Y-14479500D01*
X45799398Y-14481644D01*
X45766825Y-14485932D01*
X45766824Y-14485932D01*
X45659598Y-14535933D01*
X45575933Y-14619598D01*
X45525932Y-14726824D01*
X45525932Y-14726825D01*
X45519500Y-14775685D01*
X45519500Y-15004521D01*
X45500593Y-15062712D01*
X45490504Y-15074525D01*
X44215489Y-16349540D01*
X44215488Y-16349539D01*
X44159539Y-16405489D01*
X44119980Y-16474007D01*
X44119978Y-16474011D01*
X44099500Y-16550435D01*
X44099500Y-21039564D01*
X44117154Y-21105448D01*
X44119979Y-21115989D01*
X44153109Y-21173371D01*
X44153110Y-21173375D01*
X44153111Y-21173375D01*
X44159536Y-21184505D01*
X44159538Y-21184508D01*
X44159540Y-21184511D01*
X44470505Y-21495476D01*
X44498281Y-21549991D01*
X44499500Y-21565478D01*
X44499500Y-21835521D01*
X44480593Y-21893712D01*
X44431093Y-21929676D01*
X44369907Y-21929676D01*
X44330496Y-21905525D01*
X43766687Y-21341716D01*
X43738910Y-21287199D01*
X43748481Y-21226767D01*
X43752061Y-21220809D01*
X43753223Y-21218316D01*
X43753224Y-21218316D01*
X43803972Y-21109487D01*
X43810500Y-21059901D01*
X43810499Y-20700100D01*
X43807867Y-20680103D01*
X43803972Y-20650512D01*
X43803972Y-20650511D01*
X43753225Y-20541686D01*
X43753224Y-20541685D01*
X43753224Y-20541684D01*
X43681187Y-20469647D01*
X43653412Y-20415133D01*
X43662983Y-20354701D01*
X43681189Y-20329642D01*
X43752809Y-20258021D01*
X43803478Y-20149361D01*
X43803480Y-20149354D01*
X43810000Y-20099838D01*
X43810000Y-20070001D01*
X43809999Y-20070000D01*
X43249000Y-20070000D01*
X43190809Y-20051093D01*
X43154845Y-20001593D01*
X43150000Y-19971000D01*
X43150000Y-19440001D01*
X43450000Y-19440001D01*
X43450000Y-19769999D01*
X43450001Y-19770000D01*
X43809999Y-19770000D01*
X43810000Y-19769999D01*
X43810000Y-19740161D01*
X43803480Y-19690645D01*
X43803478Y-19690638D01*
X43752809Y-19581978D01*
X43668021Y-19497190D01*
X43559361Y-19446521D01*
X43559354Y-19446519D01*
X43509839Y-19440000D01*
X43450001Y-19440000D01*
X43450000Y-19440001D01*
X43150000Y-19440001D01*
X43149999Y-19440000D01*
X43090161Y-19440000D01*
X43040645Y-19446519D01*
X43033373Y-19448639D01*
X43032960Y-19447224D01*
X42980601Y-19453649D01*
X42927090Y-19423982D01*
X42901237Y-19368527D01*
X42900500Y-19356470D01*
X42900500Y-18160437D01*
X42900499Y-18160435D01*
X42889658Y-18119978D01*
X42880021Y-18084011D01*
X42868756Y-18064500D01*
X42840460Y-18015489D01*
X42784511Y-17959539D01*
X42784511Y-17959540D01*
X41679511Y-16854540D01*
X41646068Y-16835232D01*
X41646067Y-16835231D01*
X41646067Y-16835230D01*
X41646065Y-16835230D01*
X41629212Y-16825500D01*
X41610990Y-16814979D01*
X41610988Y-16814978D01*
X41534564Y-16794500D01*
X41534562Y-16794500D01*
X39699500Y-16794500D01*
X39641309Y-16775593D01*
X39605345Y-16726093D01*
X39600500Y-16695500D01*
X39600500Y-16517917D01*
X39619407Y-16459726D01*
X39657659Y-16428193D01*
X39668316Y-16423224D01*
X39753224Y-16338316D01*
X39803972Y-16229487D01*
X39810500Y-16179901D01*
X39810499Y-15820100D01*
X39803972Y-15770513D01*
X39803972Y-15770511D01*
X39753225Y-15661686D01*
X39753224Y-15661685D01*
X39753224Y-15661684D01*
X39681187Y-15589647D01*
X39653412Y-15535133D01*
X39662983Y-15474701D01*
X39681189Y-15449642D01*
X39752809Y-15378021D01*
X39803478Y-15269361D01*
X39803480Y-15269354D01*
X39810000Y-15219838D01*
X39810000Y-15190001D01*
X39809999Y-15190000D01*
X38790001Y-15190000D01*
X38790000Y-15190001D01*
X38790000Y-15219838D01*
X38796519Y-15269354D01*
X38796521Y-15269361D01*
X38847190Y-15378021D01*
X38918811Y-15449642D01*
X38946588Y-15504159D01*
X38937017Y-15564591D01*
X38918813Y-15589646D01*
X38878964Y-15629496D01*
X38846774Y-15661686D01*
X38796029Y-15770510D01*
X38796028Y-15770511D01*
X38789500Y-15820100D01*
X38789500Y-16179895D01*
X38789501Y-16179907D01*
X38796027Y-16229486D01*
X38796027Y-16229488D01*
X38846774Y-16338313D01*
X38846775Y-16338314D01*
X38846776Y-16338316D01*
X38931684Y-16423224D01*
X38942340Y-16428192D01*
X38987087Y-16469921D01*
X38999500Y-16517917D01*
X38999500Y-16695500D01*
X38980593Y-16753691D01*
X38931093Y-16789655D01*
X38900500Y-16794500D01*
X36828365Y-16794500D01*
X36770174Y-16775593D01*
X36744389Y-16744891D01*
X36743965Y-16745194D01*
X36740115Y-16739802D01*
X36739423Y-16738978D01*
X36739198Y-16738518D01*
X36739198Y-16738517D01*
X36656483Y-16655802D01*
X36635459Y-16645524D01*
X36551395Y-16604427D01*
X36524139Y-16600456D01*
X36483260Y-16594500D01*
X35116740Y-16594500D01*
X35082673Y-16599463D01*
X35048604Y-16604427D01*
X34943518Y-16655801D01*
X34860801Y-16738518D01*
X34809427Y-16843604D01*
X34804463Y-16877673D01*
X34799500Y-16911740D01*
X34799500Y-17278260D01*
X34804765Y-17314394D01*
X34809427Y-17346395D01*
X34847344Y-17423954D01*
X34860802Y-17451483D01*
X34943517Y-17534198D01*
X34982992Y-17553496D01*
X35048604Y-17585572D01*
X35048605Y-17585572D01*
X35048607Y-17585573D01*
X35116740Y-17595500D01*
X35116743Y-17595500D01*
X36483257Y-17595500D01*
X36483260Y-17595500D01*
X36551393Y-17585573D01*
X36656483Y-17534198D01*
X36739198Y-17451483D01*
X36739423Y-17451021D01*
X36739819Y-17450612D01*
X36743965Y-17444806D01*
X36744835Y-17445427D01*
X36781965Y-17407047D01*
X36828365Y-17395500D01*
X38260438Y-17395500D01*
X39260438Y-17395500D01*
X39339562Y-17395500D01*
X41329521Y-17395500D01*
X41387712Y-17414407D01*
X41399525Y-17424496D01*
X42270504Y-18295475D01*
X42298281Y-18349992D01*
X42299500Y-18365479D01*
X42299500Y-19356470D01*
X42280593Y-19414661D01*
X42231093Y-19450625D01*
X42169907Y-19450625D01*
X42159853Y-19446664D01*
X42159354Y-19446519D01*
X42109839Y-19440000D01*
X42050001Y-19440000D01*
X42050000Y-19440001D01*
X42050000Y-19971000D01*
X42031093Y-20029191D01*
X41981593Y-20065155D01*
X41951000Y-20070000D01*
X41390001Y-20070000D01*
X41390000Y-20070001D01*
X41390000Y-20099838D01*
X41396519Y-20149354D01*
X41396521Y-20149361D01*
X41447190Y-20258021D01*
X41518811Y-20329642D01*
X41546588Y-20384159D01*
X41537017Y-20444591D01*
X41518813Y-20469646D01*
X41477717Y-20510743D01*
X41446774Y-20541686D01*
X41396029Y-20650510D01*
X41396028Y-20650511D01*
X41389500Y-20700100D01*
X41389500Y-20925521D01*
X41370593Y-20983712D01*
X41321093Y-21019676D01*
X41259907Y-21019676D01*
X41220496Y-20995525D01*
X41039495Y-20814524D01*
X41011718Y-20760007D01*
X41010499Y-20744520D01*
X41010499Y-20680103D01*
X41010498Y-20680092D01*
X41003972Y-20630513D01*
X41003972Y-20630511D01*
X40953225Y-20521686D01*
X40953224Y-20521685D01*
X40953224Y-20521684D01*
X40881187Y-20449647D01*
X40853412Y-20395133D01*
X40862983Y-20334701D01*
X40881189Y-20309642D01*
X40952809Y-20238021D01*
X41003478Y-20129361D01*
X41003480Y-20129354D01*
X41010000Y-20079838D01*
X41010000Y-20050001D01*
X41009999Y-20050000D01*
X40449000Y-20050000D01*
X40390809Y-20031093D01*
X40354845Y-19981593D01*
X40350000Y-19951000D01*
X40350000Y-19420001D01*
X40650000Y-19420001D01*
X40650000Y-19749999D01*
X40650001Y-19750000D01*
X41009999Y-19750000D01*
X41010000Y-19749999D01*
X41010000Y-19740161D01*
X41390000Y-19740161D01*
X41390000Y-19769999D01*
X41390001Y-19770000D01*
X41749999Y-19770000D01*
X41750000Y-19769999D01*
X41750000Y-19440001D01*
X41749999Y-19440000D01*
X41690161Y-19440000D01*
X41640645Y-19446519D01*
X41640638Y-19446521D01*
X41531978Y-19497190D01*
X41447190Y-19581978D01*
X41396521Y-19690638D01*
X41396519Y-19690645D01*
X41390000Y-19740161D01*
X41010000Y-19740161D01*
X41010000Y-19720161D01*
X41003480Y-19670645D01*
X41003478Y-19670638D01*
X40952809Y-19561978D01*
X40868021Y-19477190D01*
X40759361Y-19426521D01*
X40759354Y-19426519D01*
X40709839Y-19420000D01*
X40650001Y-19420000D01*
X40650000Y-19420001D01*
X40350000Y-19420001D01*
X40349999Y-19420000D01*
X40290161Y-19420000D01*
X40240645Y-19426519D01*
X40240644Y-19426519D01*
X40141339Y-19472826D01*
X40080610Y-19480282D01*
X40027096Y-19450619D01*
X40001238Y-19395166D01*
X40000500Y-19383101D01*
X40000500Y-19160437D01*
X40000499Y-19160435D01*
X39996739Y-19146404D01*
X39980021Y-19084011D01*
X39972156Y-19070389D01*
X39940460Y-19015489D01*
X39884511Y-18959539D01*
X39884511Y-18959540D01*
X39049511Y-18124540D01*
X39030569Y-18113604D01*
X39006139Y-18099499D01*
X39006138Y-18099499D01*
X38980988Y-18084978D01*
X38904564Y-18064500D01*
X38904562Y-18064500D01*
X36828365Y-18064500D01*
X36770174Y-18045593D01*
X36744389Y-18014891D01*
X36743965Y-18015194D01*
X36740115Y-18009802D01*
X36739423Y-18008978D01*
X36739198Y-18008518D01*
X36739198Y-18008517D01*
X36656483Y-17925802D01*
X36656481Y-17925801D01*
X36551395Y-17874427D01*
X36524139Y-17870456D01*
X36483260Y-17864500D01*
X35116740Y-17864500D01*
X35082673Y-17869463D01*
X35048604Y-17874427D01*
X34943518Y-17925801D01*
X34860801Y-18008518D01*
X34809427Y-18113604D01*
X34807844Y-18124471D01*
X34799500Y-18181740D01*
X34799500Y-18548260D01*
X34806118Y-18593682D01*
X34809427Y-18616395D01*
X34847609Y-18694496D01*
X34860802Y-18721483D01*
X34943517Y-18804198D01*
X34997285Y-18830483D01*
X35048604Y-18855572D01*
X35048605Y-18855572D01*
X35048607Y-18855573D01*
X35116740Y-18865500D01*
X35116743Y-18865500D01*
X36483257Y-18865500D01*
X36483260Y-18865500D01*
X36551393Y-18855573D01*
X36656483Y-18804198D01*
X36739198Y-18721483D01*
X36739423Y-18721021D01*
X36739819Y-18720612D01*
X36743965Y-18714806D01*
X36744835Y-18715427D01*
X36781965Y-18677047D01*
X36828365Y-18665500D01*
X38699521Y-18665500D01*
X38757712Y-18684407D01*
X38769525Y-18694496D01*
X39370504Y-19295475D01*
X39398281Y-19349992D01*
X39399500Y-19365479D01*
X39399500Y-19535521D01*
X39380593Y-19593712D01*
X39331093Y-19629676D01*
X39269907Y-19629676D01*
X39230497Y-19605525D01*
X39019513Y-19394542D01*
X39019511Y-19394540D01*
X38986068Y-19375232D01*
X38986067Y-19375231D01*
X38986067Y-19375230D01*
X38986065Y-19375230D01*
X38971822Y-19367007D01*
X38950990Y-19354979D01*
X38950988Y-19354978D01*
X38874564Y-19334500D01*
X38874562Y-19334500D01*
X36828365Y-19334500D01*
X36770174Y-19315593D01*
X36744389Y-19284891D01*
X36743965Y-19285194D01*
X36740115Y-19279802D01*
X36739423Y-19278978D01*
X36739198Y-19278518D01*
X36739198Y-19278517D01*
X36656483Y-19195802D01*
X36641162Y-19188312D01*
X36551395Y-19144427D01*
X36524139Y-19140456D01*
X36483260Y-19134500D01*
X35116740Y-19134500D01*
X35082673Y-19139463D01*
X35048604Y-19144427D01*
X34943518Y-19195801D01*
X34860801Y-19278518D01*
X34809427Y-19383604D01*
X34804902Y-19414661D01*
X34799500Y-19451740D01*
X34799500Y-19818260D01*
X34804903Y-19855345D01*
X34809427Y-19886395D01*
X34855188Y-19980000D01*
X34860802Y-19991483D01*
X34943517Y-20074198D01*
X34995965Y-20099838D01*
X35048604Y-20125572D01*
X35048605Y-20125572D01*
X35048607Y-20125573D01*
X35116740Y-20135500D01*
X35116743Y-20135500D01*
X36483257Y-20135500D01*
X36483260Y-20135500D01*
X36551393Y-20125573D01*
X36656483Y-20074198D01*
X36739198Y-19991483D01*
X36739423Y-19991021D01*
X36739819Y-19990612D01*
X36743965Y-19984806D01*
X36744835Y-19985427D01*
X36781965Y-19947047D01*
X36828365Y-19935500D01*
X38669521Y-19935500D01*
X38727712Y-19954407D01*
X38739525Y-19964496D01*
X38970504Y-20195475D01*
X38998281Y-20249992D01*
X38999500Y-20265479D01*
X38999500Y-20901207D01*
X38980593Y-20959398D01*
X38931093Y-20995362D01*
X38869907Y-20995362D01*
X38830497Y-20971211D01*
X38523824Y-20664539D01*
X38511677Y-20657526D01*
X38499530Y-20650513D01*
X38499528Y-20650512D01*
X38464885Y-20630511D01*
X38455302Y-20624978D01*
X38378878Y-20604500D01*
X38378876Y-20604500D01*
X36828365Y-20604500D01*
X36770174Y-20585593D01*
X36744389Y-20554891D01*
X36743965Y-20555194D01*
X36740115Y-20549802D01*
X36739423Y-20548978D01*
X36739342Y-20548812D01*
X36739198Y-20548517D01*
X36656483Y-20465802D01*
X36638020Y-20456776D01*
X36551395Y-20414427D01*
X36524139Y-20410456D01*
X36483260Y-20404500D01*
X35116740Y-20404500D01*
X35082673Y-20409463D01*
X35048604Y-20414427D01*
X34943518Y-20465801D01*
X34860801Y-20548518D01*
X34809427Y-20653604D01*
X34804463Y-20687673D01*
X34799500Y-20721740D01*
X34799500Y-21088260D01*
X34802762Y-21110645D01*
X34809427Y-21156395D01*
X34847609Y-21234496D01*
X34860802Y-21261483D01*
X34943517Y-21344198D01*
X34974626Y-21359406D01*
X35048604Y-21395572D01*
X35048605Y-21395572D01*
X35048607Y-21395573D01*
X35116740Y-21405500D01*
X35116743Y-21405500D01*
X36483257Y-21405500D01*
X36483260Y-21405500D01*
X36551393Y-21395573D01*
X36656483Y-21344198D01*
X36739198Y-21261483D01*
X36739423Y-21261021D01*
X36739819Y-21260612D01*
X36743965Y-21254806D01*
X36744835Y-21255427D01*
X36781965Y-21217047D01*
X36828365Y-21205500D01*
X38173835Y-21205500D01*
X38232026Y-21224407D01*
X38243839Y-21234496D01*
X39205525Y-22196182D01*
X39233302Y-22250699D01*
X39223731Y-22311131D01*
X39180466Y-22354396D01*
X39135521Y-22365186D01*
X32831165Y-22365186D01*
X32772974Y-22346279D01*
X32761161Y-22336190D01*
X31324968Y-20899997D01*
X29884511Y-19459540D01*
X29884508Y-19459538D01*
X29868834Y-19450488D01*
X29868834Y-19450489D01*
X29815989Y-19419979D01*
X29815988Y-19419978D01*
X29815987Y-19419978D01*
X29739564Y-19399500D01*
X29739562Y-19399500D01*
X29660142Y-19399500D01*
X29601951Y-19380593D01*
X29571201Y-19343981D01*
X29566566Y-19334500D01*
X29539198Y-19278517D01*
X29456483Y-19195802D01*
X29441162Y-19188312D01*
X29351395Y-19144427D01*
X29324139Y-19140456D01*
X29283260Y-19134500D01*
X27916740Y-19134500D01*
X27882673Y-19139463D01*
X27848604Y-19144427D01*
X27743518Y-19195801D01*
X27660801Y-19278518D01*
X27609427Y-19383604D01*
X27604902Y-19414661D01*
X27599500Y-19451740D01*
X27599500Y-19818260D01*
X27604903Y-19855345D01*
X27609427Y-19886395D01*
X27655188Y-19980000D01*
X27660802Y-19991483D01*
X27743517Y-20074198D01*
X27795965Y-20099838D01*
X27848604Y-20125572D01*
X27848605Y-20125572D01*
X27848607Y-20125573D01*
X27916740Y-20135500D01*
X27916743Y-20135500D01*
X29283257Y-20135500D01*
X29283260Y-20135500D01*
X29351393Y-20125573D01*
X29456483Y-20074198D01*
X29482851Y-20047829D01*
X29537365Y-20020052D01*
X29597798Y-20029623D01*
X29622858Y-20047829D01*
X32205525Y-22630496D01*
X32233302Y-22685013D01*
X32223731Y-22745445D01*
X32180466Y-22788710D01*
X32135521Y-22799500D01*
X28465479Y-22799500D01*
X28407288Y-22780593D01*
X28395475Y-22770504D01*
X27329496Y-21704525D01*
X27301719Y-21650008D01*
X27300500Y-21634521D01*
X27300500Y-21055001D01*
X27600001Y-21055001D01*
X27600001Y-21088216D01*
X27609912Y-21156250D01*
X27661214Y-21261188D01*
X27743812Y-21343786D01*
X27848751Y-21395087D01*
X27916784Y-21404999D01*
X28449998Y-21404999D01*
X28450000Y-21404998D01*
X28450000Y-21055001D01*
X28750000Y-21055001D01*
X28750000Y-21404998D01*
X28750001Y-21404999D01*
X29283213Y-21404999D01*
X29283216Y-21404998D01*
X29351250Y-21395087D01*
X29456188Y-21343785D01*
X29538786Y-21261187D01*
X29590087Y-21156248D01*
X29600000Y-21088215D01*
X29600000Y-21055001D01*
X29599999Y-21055000D01*
X28750001Y-21055000D01*
X28750000Y-21055001D01*
X28450000Y-21055001D01*
X28449999Y-21055000D01*
X27600002Y-21055000D01*
X27600001Y-21055001D01*
X27300500Y-21055001D01*
X27300500Y-20721784D01*
X27600000Y-20721784D01*
X27600000Y-20754999D01*
X27600001Y-20755000D01*
X28449999Y-20755000D01*
X28450000Y-20754999D01*
X28450000Y-20405001D01*
X28750000Y-20405001D01*
X28750000Y-20754999D01*
X28750001Y-20755000D01*
X29599998Y-20755000D01*
X29599999Y-20754999D01*
X29599999Y-20721786D01*
X29599998Y-20721783D01*
X29590087Y-20653749D01*
X29538785Y-20548811D01*
X29456187Y-20466213D01*
X29351248Y-20414912D01*
X29283216Y-20405000D01*
X28750001Y-20405000D01*
X28750000Y-20405001D01*
X28450000Y-20405001D01*
X28449999Y-20405000D01*
X27916786Y-20405000D01*
X27916783Y-20405001D01*
X27848749Y-20414912D01*
X27743811Y-20466214D01*
X27661213Y-20548812D01*
X27609912Y-20653751D01*
X27600000Y-20721784D01*
X27300500Y-20721784D01*
X27300500Y-19065479D01*
X27319407Y-19007288D01*
X27329496Y-18995476D01*
X27562141Y-18762830D01*
X27616658Y-18735052D01*
X27677090Y-18744623D01*
X27702145Y-18762826D01*
X27743517Y-18804198D01*
X27797285Y-18830483D01*
X27848604Y-18855572D01*
X27848605Y-18855572D01*
X27848607Y-18855573D01*
X27916740Y-18865500D01*
X27916743Y-18865500D01*
X29283257Y-18865500D01*
X29283260Y-18865500D01*
X29351393Y-18855573D01*
X29456483Y-18804198D01*
X29539198Y-18721483D01*
X29590573Y-18616393D01*
X29600500Y-18548260D01*
X29600500Y-18181740D01*
X29590573Y-18113607D01*
X29539198Y-18008517D01*
X29456483Y-17925802D01*
X29456481Y-17925801D01*
X29351395Y-17874427D01*
X29324139Y-17870456D01*
X29283260Y-17864500D01*
X27916740Y-17864500D01*
X27882673Y-17869463D01*
X27848604Y-17874427D01*
X27743518Y-17925801D01*
X27660801Y-18008518D01*
X27643465Y-18043981D01*
X27600921Y-18087955D01*
X27554524Y-18099500D01*
X27539562Y-18099500D01*
X27460438Y-18099500D01*
X27413661Y-18112033D01*
X27384007Y-18119979D01*
X27315493Y-18159536D01*
X27315488Y-18159540D01*
X27069503Y-18405525D01*
X27014987Y-18433302D01*
X26954555Y-18423731D01*
X26911290Y-18380466D01*
X26900500Y-18335521D01*
X26900500Y-18165479D01*
X26919407Y-18107288D01*
X26929496Y-18095475D01*
X27227683Y-17797288D01*
X27547143Y-17477827D01*
X27601658Y-17450052D01*
X27662090Y-17459623D01*
X27687145Y-17477826D01*
X27743517Y-17534198D01*
X27782992Y-17553496D01*
X27848604Y-17585572D01*
X27848605Y-17585572D01*
X27848607Y-17585573D01*
X27916740Y-17595500D01*
X27916743Y-17595500D01*
X29283257Y-17595500D01*
X29283260Y-17595500D01*
X29351393Y-17585573D01*
X29456483Y-17534198D01*
X29539198Y-17451483D01*
X29590573Y-17346393D01*
X29600500Y-17278260D01*
X29600500Y-16911740D01*
X29590573Y-16843607D01*
X29586478Y-16835231D01*
X29563502Y-16788233D01*
X29539198Y-16738517D01*
X29456483Y-16655802D01*
X29435459Y-16645524D01*
X29351395Y-16604427D01*
X29324139Y-16600456D01*
X29283260Y-16594500D01*
X27916740Y-16594500D01*
X27882673Y-16599463D01*
X27848604Y-16604427D01*
X27743518Y-16655801D01*
X27660801Y-16738518D01*
X27660577Y-16738978D01*
X27660180Y-16739387D01*
X27656035Y-16745194D01*
X27655164Y-16744572D01*
X27618035Y-16782953D01*
X27571635Y-16794500D01*
X27465435Y-16794500D01*
X27389011Y-16814978D01*
X27359265Y-16832153D01*
X27353932Y-16835232D01*
X27339431Y-16843604D01*
X27320488Y-16854540D01*
X27289503Y-16885526D01*
X27234986Y-16913302D01*
X27174554Y-16903730D01*
X27131290Y-16860465D01*
X27120500Y-16815521D01*
X27120500Y-16625685D01*
X27117963Y-16606414D01*
X27114068Y-16576827D01*
X27099473Y-16545529D01*
X27064066Y-16469598D01*
X27064065Y-16469597D01*
X27064065Y-16469596D01*
X26980404Y-16385935D01*
X26967085Y-16379724D01*
X26922337Y-16337997D01*
X26910662Y-16277936D01*
X26936519Y-16222483D01*
X26967084Y-16200275D01*
X26980404Y-16194065D01*
X27064065Y-16110404D01*
X27114068Y-16003173D01*
X27120500Y-15954316D01*
X27120500Y-15725479D01*
X27139407Y-15667288D01*
X27149496Y-15655475D01*
X28475475Y-14329496D01*
X28529992Y-14301719D01*
X28545479Y-14300500D01*
X29275500Y-14300500D01*
X29333691Y-14319407D01*
X29369655Y-14368907D01*
X29374500Y-14399500D01*
X29374500Y-14869746D01*
X29374501Y-14869758D01*
X29386132Y-14928227D01*
X29386134Y-14928233D01*
X29427575Y-14990253D01*
X29430448Y-14994552D01*
X29496769Y-15038867D01*
X29541231Y-15047711D01*
X29555241Y-15050498D01*
X29555246Y-15050498D01*
X29555252Y-15050500D01*
X29555253Y-15050500D01*
X31294747Y-15050500D01*
X31294748Y-15050500D01*
X31353231Y-15038867D01*
X31419552Y-14994552D01*
X31463867Y-14928231D01*
X31475500Y-14869748D01*
X31475500Y-13849998D01*
X31924692Y-13849998D01*
X31924694Y-13850000D01*
X32487555Y-13850000D01*
X32465000Y-13934174D01*
X32465000Y-14065826D01*
X32487555Y-14150000D01*
X31924694Y-14150000D01*
X31924692Y-14150001D01*
X31930191Y-14205833D01*
X31930190Y-14205833D01*
X31990232Y-14403762D01*
X31990234Y-14403767D01*
X32087724Y-14586160D01*
X32087731Y-14586170D01*
X32218940Y-14746050D01*
X32218949Y-14746059D01*
X32378829Y-14877268D01*
X32378839Y-14877275D01*
X32561232Y-14974765D01*
X32561237Y-14974767D01*
X32759166Y-15034808D01*
X32814998Y-15040307D01*
X32815000Y-15040306D01*
X32815000Y-14477445D01*
X32899174Y-14500000D01*
X33030826Y-14500000D01*
X33115000Y-14477445D01*
X33115000Y-15040306D01*
X33115001Y-15040307D01*
X33170833Y-15034808D01*
X33368762Y-14974767D01*
X33368767Y-14974765D01*
X33551160Y-14877275D01*
X33551170Y-14877268D01*
X33572015Y-14860161D01*
X38790000Y-14860161D01*
X38790000Y-14889999D01*
X38790001Y-14890000D01*
X39149999Y-14890000D01*
X39150000Y-14889999D01*
X39150000Y-14560001D01*
X39450000Y-14560001D01*
X39450000Y-14889999D01*
X39450001Y-14890000D01*
X39809999Y-14890000D01*
X39810000Y-14889999D01*
X39810000Y-14860161D01*
X39803480Y-14810645D01*
X39803478Y-14810638D01*
X39752809Y-14701978D01*
X39668021Y-14617190D01*
X39559361Y-14566521D01*
X39559354Y-14566519D01*
X39509839Y-14560000D01*
X39450001Y-14560000D01*
X39450000Y-14560001D01*
X39150000Y-14560001D01*
X39149999Y-14560000D01*
X39090161Y-14560000D01*
X39040645Y-14566519D01*
X39040638Y-14566521D01*
X38931978Y-14617190D01*
X38847190Y-14701978D01*
X38796521Y-14810638D01*
X38796519Y-14810645D01*
X38790000Y-14860161D01*
X33572015Y-14860161D01*
X33711050Y-14746059D01*
X33711059Y-14746050D01*
X33842268Y-14586170D01*
X33842275Y-14586160D01*
X33939765Y-14403767D01*
X33939767Y-14403762D01*
X33999808Y-14205833D01*
X34005307Y-14150001D01*
X34005306Y-14150000D01*
X33442445Y-14150000D01*
X33465000Y-14065826D01*
X33465000Y-13934174D01*
X33442445Y-13850000D01*
X34005306Y-13850000D01*
X34005307Y-13849998D01*
X33999808Y-13794166D01*
X33999809Y-13794166D01*
X33939767Y-13596237D01*
X33939765Y-13596232D01*
X33842275Y-13413839D01*
X33842268Y-13413829D01*
X33711059Y-13253949D01*
X33711050Y-13253940D01*
X33551170Y-13122731D01*
X33551160Y-13122724D01*
X33368767Y-13025234D01*
X33368762Y-13025232D01*
X33170843Y-12965194D01*
X33170832Y-12965191D01*
X33115000Y-12959692D01*
X33115000Y-13522554D01*
X33030826Y-13500000D01*
X32899174Y-13500000D01*
X32815000Y-13522554D01*
X32815000Y-12959692D01*
X32759167Y-12965191D01*
X32759156Y-12965194D01*
X32561237Y-13025232D01*
X32561232Y-13025234D01*
X32378839Y-13122724D01*
X32378829Y-13122731D01*
X32218949Y-13253940D01*
X32218940Y-13253949D01*
X32087731Y-13413829D01*
X32087724Y-13413839D01*
X31990234Y-13596232D01*
X31990232Y-13596237D01*
X31930191Y-13794166D01*
X31924692Y-13849998D01*
X31475500Y-13849998D01*
X31475500Y-13130252D01*
X31463867Y-13071769D01*
X31419552Y-13005448D01*
X31419548Y-13005445D01*
X31353233Y-12961134D01*
X31353231Y-12961133D01*
X31353228Y-12961132D01*
X31353227Y-12961132D01*
X31294758Y-12949501D01*
X31294748Y-12949500D01*
X29555252Y-12949500D01*
X29555251Y-12949500D01*
X29555241Y-12949501D01*
X29496772Y-12961132D01*
X29496766Y-12961134D01*
X29430451Y-13005445D01*
X29430445Y-13005451D01*
X29386134Y-13071766D01*
X29386132Y-13071772D01*
X29374501Y-13130241D01*
X29374500Y-13130253D01*
X29374500Y-13600500D01*
X29355593Y-13658691D01*
X29306093Y-13694655D01*
X29275500Y-13699500D01*
X28340435Y-13699500D01*
X28264012Y-13719978D01*
X28197564Y-13758342D01*
X28197563Y-13758341D01*
X28195493Y-13759536D01*
X26674525Y-15280504D01*
X26620008Y-15308281D01*
X26604521Y-15309500D01*
X26375684Y-15309500D01*
X26359398Y-15311644D01*
X26326825Y-15315932D01*
X26326824Y-15315932D01*
X26219598Y-15365933D01*
X26135933Y-15449598D01*
X26085932Y-15556824D01*
X26085932Y-15556825D01*
X26085932Y-15556827D01*
X26079500Y-15605684D01*
X26079500Y-15954316D01*
X26083265Y-15982918D01*
X26085932Y-16003174D01*
X26085932Y-16003175D01*
X26135933Y-16110401D01*
X26135934Y-16110402D01*
X26135935Y-16110404D01*
X26219596Y-16194065D01*
X26219597Y-16194065D01*
X26219598Y-16194066D01*
X26232915Y-16200276D01*
X26277663Y-16242005D01*
X26289337Y-16302066D01*
X26263478Y-16357518D01*
X26232915Y-16379724D01*
X26219598Y-16385933D01*
X26135933Y-16469598D01*
X26085932Y-16576824D01*
X26085932Y-16576825D01*
X26085932Y-16576827D01*
X26079500Y-16625684D01*
X26079500Y-16974316D01*
X26082286Y-16995475D01*
X26085932Y-17023174D01*
X26085932Y-17023175D01*
X26135933Y-17130401D01*
X26135934Y-17130402D01*
X26135935Y-17130404D01*
X26219596Y-17214065D01*
X26242337Y-17224669D01*
X26287086Y-17266396D01*
X26299500Y-17314394D01*
X26299500Y-22005250D01*
X26319977Y-22081671D01*
X26319978Y-22081673D01*
X26319979Y-22081675D01*
X26353387Y-22139540D01*
X26359540Y-22150197D01*
X27949803Y-23740460D01*
X27949805Y-23740461D01*
X27949806Y-23740462D01*
X27949807Y-23740463D01*
X28018322Y-23780020D01*
X28018320Y-23780020D01*
X28018324Y-23780021D01*
X28018326Y-23780022D01*
X28094752Y-23800500D01*
X28173876Y-23800500D01*
X35229786Y-23800500D01*
X35287977Y-23819407D01*
X35323941Y-23868907D01*
X35323941Y-23930093D01*
X35319510Y-23941339D01*
X35296521Y-23990638D01*
X35296519Y-23990645D01*
X35290000Y-24040161D01*
X35290000Y-24069999D01*
X35290001Y-24070000D01*
X36309999Y-24070000D01*
X36310000Y-24069999D01*
X36310000Y-24040161D01*
X36303480Y-23990645D01*
X36303478Y-23990638D01*
X36280490Y-23941339D01*
X36273033Y-23880610D01*
X36302696Y-23827096D01*
X36358149Y-23801238D01*
X36370214Y-23800500D01*
X37529786Y-23800500D01*
X37587977Y-23819407D01*
X37623941Y-23868907D01*
X37623941Y-23930093D01*
X37619510Y-23941339D01*
X37596521Y-23990638D01*
X37596519Y-23990645D01*
X37590000Y-24040161D01*
X37590000Y-24069999D01*
X37590001Y-24070000D01*
X38151000Y-24070000D01*
X38209191Y-24088907D01*
X38245155Y-24138407D01*
X38250000Y-24169000D01*
X38250000Y-24271000D01*
X38231093Y-24329191D01*
X38181593Y-24365155D01*
X38151000Y-24370000D01*
X37590001Y-24370000D01*
X37590000Y-24370001D01*
X37590000Y-24399838D01*
X37596519Y-24449354D01*
X37596521Y-24449361D01*
X37647190Y-24558021D01*
X37718811Y-24629642D01*
X37746588Y-24684159D01*
X37737017Y-24744591D01*
X37718813Y-24769646D01*
X37646776Y-24841684D01*
X37646775Y-24841685D01*
X37640652Y-24847809D01*
X37638605Y-24845762D01*
X37600994Y-24874106D01*
X37568761Y-24879500D01*
X36331239Y-24879500D01*
X36273048Y-24860593D01*
X36259921Y-24847235D01*
X36259348Y-24847809D01*
X36253224Y-24841685D01*
X36253224Y-24841684D01*
X36181187Y-24769647D01*
X36153412Y-24715133D01*
X36162983Y-24654701D01*
X36181189Y-24629642D01*
X36252809Y-24558021D01*
X36303478Y-24449361D01*
X36303480Y-24449354D01*
X36310000Y-24399838D01*
X36310000Y-24370001D01*
X36309999Y-24370000D01*
X35290001Y-24370000D01*
X35290000Y-24370001D01*
X35290000Y-24399838D01*
X35296519Y-24449354D01*
X35296521Y-24449361D01*
X35347190Y-24558021D01*
X35418811Y-24629642D01*
X35446588Y-24684159D01*
X35437017Y-24744591D01*
X35418813Y-24769646D01*
X35346776Y-24841684D01*
X35346774Y-24841686D01*
X35296029Y-24950510D01*
X35296028Y-24950511D01*
X35292080Y-24980500D01*
X35289514Y-24999997D01*
X35289500Y-25000100D01*
X35289500Y-25359894D01*
X35293145Y-25387581D01*
X35281992Y-25447742D01*
X35237608Y-25489857D01*
X35194991Y-25499500D01*
X25199400Y-25499500D01*
X25141209Y-25480593D01*
X25105245Y-25431093D01*
X25100400Y-25400500D01*
X25100400Y-24560337D01*
X25100399Y-24560335D01*
X25079921Y-24483911D01*
X25079919Y-24483907D01*
X25040360Y-24415389D01*
X24984411Y-24359439D01*
X24984411Y-24359440D01*
X24694974Y-24070003D01*
X24667197Y-24015486D01*
X24676768Y-23955054D01*
X24694968Y-23930002D01*
X25240460Y-23384511D01*
X25265862Y-23340513D01*
X25280021Y-23315989D01*
X25300500Y-23239562D01*
X25300500Y-16860438D01*
X25280021Y-16784011D01*
X25254257Y-16739387D01*
X25240460Y-16715489D01*
X25184511Y-16659539D01*
X25184511Y-16659540D01*
X24144511Y-15619540D01*
X24144281Y-15619407D01*
X24075992Y-15579980D01*
X24075988Y-15579978D01*
X23999564Y-15559500D01*
X23999562Y-15559500D01*
X22849500Y-15559500D01*
X22791309Y-15540593D01*
X22755345Y-15491093D01*
X22750500Y-15460500D01*
X22750500Y-14990253D01*
X22750498Y-14990241D01*
X22747419Y-14974765D01*
X22738867Y-14931769D01*
X22694552Y-14865448D01*
X22686640Y-14860161D01*
X22628233Y-14821134D01*
X22628231Y-14821133D01*
X22628228Y-14821132D01*
X22628227Y-14821132D01*
X22569758Y-14809501D01*
X22569748Y-14809500D01*
X20830252Y-14809500D01*
X20830251Y-14809500D01*
X20830241Y-14809501D01*
X20771772Y-14821132D01*
X20771766Y-14821134D01*
X20705451Y-14865445D01*
X20705445Y-14865451D01*
X20661134Y-14931766D01*
X20661132Y-14931772D01*
X20649501Y-14990241D01*
X20649500Y-14990253D01*
X20649500Y-16729746D01*
X20649501Y-16729758D01*
X20661132Y-16788227D01*
X20661134Y-16788233D01*
X20705440Y-16854540D01*
X20705448Y-16854552D01*
X20771769Y-16898867D01*
X20816231Y-16907711D01*
X20830241Y-16910498D01*
X20830246Y-16910498D01*
X20830252Y-16910500D01*
X20830253Y-16910500D01*
X22569747Y-16910500D01*
X22569748Y-16910500D01*
X22628231Y-16898867D01*
X22694552Y-16854552D01*
X22738867Y-16788231D01*
X22750500Y-16729748D01*
X22750500Y-16259500D01*
X22769407Y-16201309D01*
X22818907Y-16165345D01*
X22849500Y-16160500D01*
X23794521Y-16160500D01*
X23852712Y-16179407D01*
X23864525Y-16189496D01*
X24670504Y-16995475D01*
X24698281Y-17049992D01*
X24699500Y-17065479D01*
X24699500Y-23034521D01*
X24680593Y-23092712D01*
X24670504Y-23104525D01*
X24304525Y-23470504D01*
X24250008Y-23498281D01*
X24234521Y-23499500D01*
X21564479Y-23499500D01*
X21506288Y-23480593D01*
X21470324Y-23431093D01*
X21470324Y-23369907D01*
X21494475Y-23330497D01*
X21796744Y-23028227D01*
X21940460Y-22884511D01*
X21960096Y-22850500D01*
X21980021Y-22815989D01*
X22000500Y-22739562D01*
X22000500Y-19480037D01*
X22019407Y-19421846D01*
X22068907Y-19385882D01*
X22070739Y-19385307D01*
X22103954Y-19375232D01*
X22286450Y-19277685D01*
X22446410Y-19146410D01*
X22577685Y-18986450D01*
X22675232Y-18803954D01*
X22735300Y-18605934D01*
X22735301Y-18605929D01*
X22755583Y-18400003D01*
X22755583Y-18399996D01*
X22735301Y-18194070D01*
X22735300Y-18194065D01*
X22702209Y-18084978D01*
X22675232Y-17996046D01*
X22577685Y-17813550D01*
X22571043Y-17805457D01*
X22446414Y-17653595D01*
X22446410Y-17653590D01*
X22388972Y-17606452D01*
X22286452Y-17522316D01*
X22103954Y-17424768D01*
X21905934Y-17364699D01*
X21905929Y-17364698D01*
X21700003Y-17344417D01*
X21699997Y-17344417D01*
X21494070Y-17364698D01*
X21494065Y-17364699D01*
X21296045Y-17424768D01*
X21113547Y-17522316D01*
X20953595Y-17653585D01*
X20953585Y-17653595D01*
X20822316Y-17813547D01*
X20724768Y-17996045D01*
X20664699Y-18194065D01*
X20664698Y-18194070D01*
X20644417Y-18399996D01*
X20644417Y-18400003D01*
X20664698Y-18605929D01*
X20664699Y-18605934D01*
X20724768Y-18803954D01*
X20822316Y-18986452D01*
X20907570Y-19090334D01*
X20953590Y-19146410D01*
X20953595Y-19146414D01*
X21113547Y-19277683D01*
X21113548Y-19277683D01*
X21113550Y-19277685D01*
X21296046Y-19375232D01*
X21329237Y-19385300D01*
X21379434Y-19420284D01*
X21399481Y-19478092D01*
X21399500Y-19480037D01*
X21399500Y-22534521D01*
X21380593Y-22592712D01*
X21370504Y-22604525D01*
X20904525Y-23070504D01*
X20850008Y-23098281D01*
X20834521Y-23099500D01*
X16933106Y-23099500D01*
X16874915Y-23080593D01*
X16838951Y-23031093D01*
X16838951Y-22969907D01*
X16857747Y-22939233D01*
X16856511Y-22938285D01*
X16860456Y-22933142D01*
X16860460Y-22933139D01*
X16900022Y-22864616D01*
X16920500Y-22788190D01*
X16920500Y-22709066D01*
X16920500Y-19480037D01*
X16939407Y-19421846D01*
X16988907Y-19385882D01*
X16990739Y-19385307D01*
X17023954Y-19375232D01*
X17206450Y-19277685D01*
X17366410Y-19146410D01*
X17497685Y-18986450D01*
X17595232Y-18803954D01*
X17655300Y-18605934D01*
X17655301Y-18605929D01*
X17675583Y-18400003D01*
X17675583Y-18399996D01*
X18104417Y-18399996D01*
X18104417Y-18400003D01*
X18124698Y-18605929D01*
X18124699Y-18605934D01*
X18184768Y-18803954D01*
X18282316Y-18986452D01*
X18367570Y-19090334D01*
X18413590Y-19146410D01*
X18413595Y-19146414D01*
X18573547Y-19277683D01*
X18573548Y-19277683D01*
X18573550Y-19277685D01*
X18756046Y-19375232D01*
X18870659Y-19409999D01*
X18954065Y-19435300D01*
X18954070Y-19435301D01*
X19159997Y-19455583D01*
X19160000Y-19455583D01*
X19160003Y-19455583D01*
X19365929Y-19435301D01*
X19365934Y-19435300D01*
X19391690Y-19427487D01*
X19563954Y-19375232D01*
X19746450Y-19277685D01*
X19906410Y-19146410D01*
X20037685Y-18986450D01*
X20135232Y-18803954D01*
X20195300Y-18605934D01*
X20195301Y-18605929D01*
X20215583Y-18400003D01*
X20215583Y-18399996D01*
X20195301Y-18194070D01*
X20195300Y-18194065D01*
X20162209Y-18084978D01*
X20135232Y-17996046D01*
X20037685Y-17813550D01*
X20031043Y-17805457D01*
X19906414Y-17653595D01*
X19906410Y-17653590D01*
X19848972Y-17606452D01*
X19746452Y-17522316D01*
X19563954Y-17424768D01*
X19365934Y-17364699D01*
X19365929Y-17364698D01*
X19160003Y-17344417D01*
X19159997Y-17344417D01*
X18954070Y-17364698D01*
X18954065Y-17364699D01*
X18756045Y-17424768D01*
X18573547Y-17522316D01*
X18413595Y-17653585D01*
X18413585Y-17653595D01*
X18282316Y-17813547D01*
X18184768Y-17996045D01*
X18124699Y-18194065D01*
X18124698Y-18194070D01*
X18104417Y-18399996D01*
X17675583Y-18399996D01*
X17655301Y-18194070D01*
X17655300Y-18194065D01*
X17622209Y-18084978D01*
X17595232Y-17996046D01*
X17497685Y-17813550D01*
X17491043Y-17805457D01*
X17366414Y-17653595D01*
X17366410Y-17653590D01*
X17308972Y-17606452D01*
X17206452Y-17522316D01*
X17023954Y-17424768D01*
X16825934Y-17364699D01*
X16825929Y-17364698D01*
X16620003Y-17344417D01*
X16619997Y-17344417D01*
X16414070Y-17364698D01*
X16414065Y-17364699D01*
X16216045Y-17424768D01*
X16033547Y-17522316D01*
X15873595Y-17653585D01*
X15873585Y-17653595D01*
X15776028Y-17772470D01*
X15724497Y-17805457D01*
X15663418Y-17801855D01*
X15616121Y-17763040D01*
X15600500Y-17709665D01*
X15600500Y-17265477D01*
X15619407Y-17207286D01*
X15629490Y-17195480D01*
X16016650Y-16808319D01*
X16071165Y-16780543D01*
X16131597Y-16790114D01*
X16133321Y-16791014D01*
X16216046Y-16835232D01*
X16353997Y-16877078D01*
X16414065Y-16895300D01*
X16414070Y-16895301D01*
X16619997Y-16915583D01*
X16620000Y-16915583D01*
X16620003Y-16915583D01*
X16825929Y-16895301D01*
X16825934Y-16895300D01*
X16830526Y-16893907D01*
X17023954Y-16835232D01*
X17206450Y-16737685D01*
X17366410Y-16606410D01*
X17497685Y-16446450D01*
X17595232Y-16263954D01*
X17655300Y-16065934D01*
X17655301Y-16065929D01*
X17675583Y-15860003D01*
X17675583Y-15859996D01*
X18104417Y-15859996D01*
X18104417Y-15860003D01*
X18124698Y-16065929D01*
X18124699Y-16065934D01*
X18184768Y-16263954D01*
X18282316Y-16446452D01*
X18389310Y-16576825D01*
X18413590Y-16606410D01*
X18413595Y-16606414D01*
X18573547Y-16737683D01*
X18573548Y-16737683D01*
X18573550Y-16737685D01*
X18756046Y-16835232D01*
X18893997Y-16877078D01*
X18954065Y-16895300D01*
X18954070Y-16895301D01*
X19159997Y-16915583D01*
X19160000Y-16915583D01*
X19160003Y-16915583D01*
X19365929Y-16895301D01*
X19365934Y-16895300D01*
X19370526Y-16893907D01*
X19563954Y-16835232D01*
X19746450Y-16737685D01*
X19906410Y-16606410D01*
X20037685Y-16446450D01*
X20135232Y-16263954D01*
X20195300Y-16065934D01*
X20195301Y-16065929D01*
X20215583Y-15860003D01*
X20215583Y-15859996D01*
X20195301Y-15654070D01*
X20195300Y-15654065D01*
X20175760Y-15589650D01*
X20135232Y-15456046D01*
X20037685Y-15273550D01*
X20034247Y-15269361D01*
X19906414Y-15113595D01*
X19906410Y-15113590D01*
X19848972Y-15066452D01*
X19746452Y-14982316D01*
X19563954Y-14884768D01*
X19365934Y-14824699D01*
X19365929Y-14824698D01*
X19160003Y-14804417D01*
X19159997Y-14804417D01*
X18954070Y-14824698D01*
X18954065Y-14824699D01*
X18756045Y-14884768D01*
X18573547Y-14982316D01*
X18413595Y-15113585D01*
X18413585Y-15113595D01*
X18282316Y-15273547D01*
X18184768Y-15456045D01*
X18124699Y-15654065D01*
X18124698Y-15654070D01*
X18104417Y-15859996D01*
X17675583Y-15859996D01*
X17655301Y-15654070D01*
X17655300Y-15654065D01*
X17635760Y-15589650D01*
X17595232Y-15456046D01*
X17497685Y-15273550D01*
X17494247Y-15269361D01*
X17366414Y-15113595D01*
X17366410Y-15113590D01*
X17308972Y-15066452D01*
X17206452Y-14982316D01*
X17023954Y-14884768D01*
X16825934Y-14824699D01*
X16825929Y-14824698D01*
X16620003Y-14804417D01*
X16619997Y-14804417D01*
X16414070Y-14824698D01*
X16414065Y-14824699D01*
X16216045Y-14884768D01*
X16033547Y-14982316D01*
X15873595Y-15113585D01*
X15873585Y-15113595D01*
X15742316Y-15273547D01*
X15644768Y-15456045D01*
X15584699Y-15654065D01*
X15584698Y-15654070D01*
X15564417Y-15859996D01*
X15564417Y-15860003D01*
X15584698Y-16065929D01*
X15584699Y-16065934D01*
X15642975Y-16258043D01*
X15641774Y-16319217D01*
X15618242Y-16356784D01*
X15115489Y-16859539D01*
X15059539Y-16915489D01*
X15019980Y-16984007D01*
X15019978Y-16984011D01*
X14999500Y-17060435D01*
X14999500Y-17587814D01*
X14980593Y-17646005D01*
X14931093Y-17681969D01*
X14869907Y-17681969D01*
X14831271Y-17655607D01*
X14829849Y-17657030D01*
X14826414Y-17653595D01*
X14826410Y-17653590D01*
X14768972Y-17606452D01*
X14666452Y-17522316D01*
X14483954Y-17424768D01*
X14285934Y-17364699D01*
X14285929Y-17364698D01*
X14080003Y-17344417D01*
X14079997Y-17344417D01*
X13874070Y-17364698D01*
X13874065Y-17364699D01*
X13676045Y-17424768D01*
X13493547Y-17522316D01*
X13493547Y-17522317D01*
X13362305Y-17630024D01*
X13305328Y-17652324D01*
X13246125Y-17636875D01*
X13207310Y-17589578D01*
X13200500Y-17553496D01*
X13200500Y-17205477D01*
X13219407Y-17147286D01*
X13229490Y-17135480D01*
X13528784Y-16836185D01*
X13583299Y-16808409D01*
X13643731Y-16817980D01*
X13645431Y-16818868D01*
X13657839Y-16825500D01*
X13670285Y-16832153D01*
X13676046Y-16835232D01*
X13813997Y-16877078D01*
X13874065Y-16895300D01*
X13874070Y-16895301D01*
X14079997Y-16915583D01*
X14080000Y-16915583D01*
X14080003Y-16915583D01*
X14285929Y-16895301D01*
X14285934Y-16895300D01*
X14290526Y-16893907D01*
X14483954Y-16835232D01*
X14666450Y-16737685D01*
X14826410Y-16606410D01*
X14957685Y-16446450D01*
X15055232Y-16263954D01*
X15115300Y-16065934D01*
X15115301Y-16065929D01*
X15135583Y-15860003D01*
X15135583Y-15859996D01*
X15115301Y-15654070D01*
X15115300Y-15654065D01*
X15095760Y-15589650D01*
X15055232Y-15456046D01*
X14957685Y-15273550D01*
X14954247Y-15269361D01*
X14826414Y-15113595D01*
X14826410Y-15113590D01*
X14768972Y-15066452D01*
X14666452Y-14982316D01*
X14483954Y-14884768D01*
X14285934Y-14824699D01*
X14285929Y-14824698D01*
X14080003Y-14804417D01*
X14079997Y-14804417D01*
X13874070Y-14824698D01*
X13874065Y-14824699D01*
X13676045Y-14884768D01*
X13493547Y-14982316D01*
X13333595Y-15113585D01*
X13333585Y-15113595D01*
X13202316Y-15273547D01*
X13104768Y-15456045D01*
X13044699Y-15654065D01*
X13044698Y-15654070D01*
X13024417Y-15859996D01*
X13024417Y-15860003D01*
X13044698Y-16065929D01*
X13044699Y-16065934D01*
X13104768Y-16263954D01*
X13104770Y-16263959D01*
X13121118Y-16294544D01*
X13131874Y-16354777D01*
X13105172Y-16409828D01*
X13103812Y-16411215D01*
X12869504Y-16645524D01*
X12814987Y-16673302D01*
X12754555Y-16663731D01*
X12711290Y-16620466D01*
X12700500Y-16575521D01*
X12700500Y-13205555D01*
X12701121Y-13194488D01*
X12711776Y-13099924D01*
X12716704Y-13078332D01*
X12746285Y-12993794D01*
X12755897Y-12973834D01*
X12803541Y-12898010D01*
X12817357Y-12880684D01*
X12880684Y-12817357D01*
X12898012Y-12803540D01*
X12973834Y-12755897D01*
X12993794Y-12746285D01*
X13078332Y-12716704D01*
X13099924Y-12711776D01*
X13194487Y-12701121D01*
X13205556Y-12700500D01*
X13265892Y-12700500D01*
X60834108Y-12700500D01*
X60894444Y-12700500D01*
X60905512Y-12701121D01*
G37*
G04 #@! TD.AperFunction*
G04 #@! TA.AperFunction,Conductor*
G36*
X44869504Y-34894475D02*
G01*
X45469453Y-35494424D01*
X45497230Y-35548941D01*
X45497441Y-35578514D01*
X45496896Y-35582316D01*
X45494353Y-35600002D01*
X45514834Y-35742456D01*
X45566013Y-35854521D01*
X45574623Y-35873373D01*
X45645768Y-35955479D01*
X45668873Y-35982144D01*
X45784882Y-36056698D01*
X45789947Y-36059953D01*
X45896403Y-36091211D01*
X45928035Y-36100499D01*
X45928036Y-36100499D01*
X45928039Y-36100500D01*
X45928041Y-36100500D01*
X46071959Y-36100500D01*
X46071961Y-36100500D01*
X46172610Y-36070947D01*
X46233769Y-36072694D01*
X46282222Y-36110057D01*
X46299500Y-36165937D01*
X46299500Y-37875604D01*
X46280593Y-37933795D01*
X46242341Y-37965328D01*
X46219598Y-37975933D01*
X46135933Y-38059598D01*
X46085932Y-38166824D01*
X46085932Y-38166825D01*
X46079500Y-38215685D01*
X46079500Y-38564314D01*
X46085932Y-38613174D01*
X46085932Y-38613175D01*
X46135933Y-38720401D01*
X46135934Y-38720402D01*
X46135935Y-38720404D01*
X46219596Y-38804065D01*
X46219597Y-38804065D01*
X46219598Y-38804066D01*
X46232915Y-38810276D01*
X46277663Y-38852005D01*
X46289337Y-38912066D01*
X46263478Y-38967518D01*
X46232922Y-38989721D01*
X46231850Y-38990221D01*
X46190003Y-38999500D01*
X45165479Y-38999500D01*
X45107288Y-38980593D01*
X45095475Y-38970504D01*
X44529496Y-38404525D01*
X44501719Y-38350008D01*
X44500500Y-38334521D01*
X44500500Y-38096898D01*
X44519407Y-38038707D01*
X44568907Y-38002743D01*
X44630093Y-38002743D01*
X44641340Y-38007174D01*
X44740641Y-38053479D01*
X44740645Y-38053480D01*
X44790161Y-38060000D01*
X44849999Y-38060000D01*
X44850000Y-38059999D01*
X44850000Y-37730001D01*
X45150000Y-37730001D01*
X45150000Y-38059999D01*
X45150001Y-38060000D01*
X45209838Y-38060000D01*
X45259354Y-38053480D01*
X45259361Y-38053478D01*
X45368021Y-38002809D01*
X45452809Y-37918021D01*
X45503478Y-37809361D01*
X45503480Y-37809354D01*
X45510000Y-37759838D01*
X45510000Y-37730001D01*
X45509999Y-37730000D01*
X45150001Y-37730000D01*
X45150000Y-37730001D01*
X44850000Y-37730001D01*
X44850000Y-37529000D01*
X44868907Y-37470809D01*
X44918407Y-37434845D01*
X44949000Y-37430000D01*
X45509999Y-37430000D01*
X45510000Y-37429999D01*
X45510000Y-37400161D01*
X45503480Y-37350645D01*
X45503478Y-37350638D01*
X45452809Y-37241978D01*
X45381189Y-37170358D01*
X45353412Y-37115841D01*
X45362983Y-37055409D01*
X45381186Y-37030353D01*
X45453224Y-36958316D01*
X45503972Y-36849487D01*
X45510500Y-36799901D01*
X45510499Y-36440100D01*
X45503972Y-36390513D01*
X45503972Y-36390511D01*
X45453225Y-36281686D01*
X45453224Y-36281685D01*
X45453224Y-36281684D01*
X45368316Y-36196776D01*
X45368314Y-36196775D01*
X45368313Y-36196774D01*
X45259489Y-36146029D01*
X45259488Y-36146028D01*
X45234694Y-36142764D01*
X45209901Y-36139500D01*
X45209900Y-36139500D01*
X44985479Y-36139500D01*
X44927288Y-36120593D01*
X44915475Y-36110504D01*
X44729496Y-35924525D01*
X44701719Y-35870008D01*
X44700500Y-35854521D01*
X44700500Y-34964479D01*
X44719407Y-34906288D01*
X44768907Y-34870324D01*
X44830093Y-34870324D01*
X44869504Y-34894475D01*
G37*
G04 #@! TD.AperFunction*
G04 #@! TA.AperFunction,Conductor*
G36*
X42858691Y-31356407D02*
G01*
X42894655Y-31405907D01*
X42899500Y-31436500D01*
X42899500Y-33834521D01*
X42880593Y-33892712D01*
X42870504Y-33904525D01*
X40804525Y-35970504D01*
X40750008Y-35998281D01*
X40734521Y-35999500D01*
X39664479Y-35999500D01*
X39606288Y-35980593D01*
X39570324Y-35931093D01*
X39570324Y-35869907D01*
X39594475Y-35830496D01*
X40349442Y-35075529D01*
X42640460Y-32784511D01*
X42647152Y-32772919D01*
X42654879Y-32759538D01*
X42671639Y-32730506D01*
X42680021Y-32715989D01*
X42700500Y-32639562D01*
X42700500Y-31436500D01*
X42719407Y-31378309D01*
X42768907Y-31342345D01*
X42799500Y-31337500D01*
X42800500Y-31337500D01*
X42858691Y-31356407D01*
G37*
G04 #@! TD.AperFunction*
G04 #@! TA.AperFunction,Conductor*
G36*
X38192612Y-31319307D02*
G01*
X38204425Y-31329396D01*
X39315489Y-32440460D01*
X39315491Y-32440461D01*
X39315492Y-32440462D01*
X39315493Y-32440463D01*
X39384008Y-32480020D01*
X39384006Y-32480020D01*
X39384010Y-32480021D01*
X39384012Y-32480022D01*
X39460438Y-32500500D01*
X39460440Y-32500500D01*
X41266892Y-32500500D01*
X41325083Y-32519407D01*
X41361047Y-32568907D01*
X41361047Y-32630093D01*
X41336896Y-32669504D01*
X39135897Y-34870504D01*
X39081380Y-34898281D01*
X39065893Y-34899500D01*
X35847083Y-34899500D01*
X35788892Y-34880593D01*
X35772264Y-34865331D01*
X35731128Y-34817857D01*
X35687352Y-34789724D01*
X35610057Y-34740049D01*
X35610054Y-34740047D01*
X35610053Y-34740047D01*
X35610050Y-34740046D01*
X35471964Y-34699500D01*
X35471961Y-34699500D01*
X35328039Y-34699500D01*
X35328035Y-34699500D01*
X35189949Y-34740046D01*
X35189942Y-34740049D01*
X35068876Y-34817854D01*
X35068873Y-34817856D01*
X35068872Y-34817857D01*
X35049287Y-34840460D01*
X35027736Y-34865331D01*
X34975340Y-34896927D01*
X34952917Y-34899500D01*
X34024976Y-34899500D01*
X33966785Y-34880593D01*
X33954978Y-34870509D01*
X33880404Y-34795935D01*
X33867085Y-34789724D01*
X33822337Y-34747997D01*
X33810662Y-34687936D01*
X33836519Y-34632483D01*
X33867084Y-34610275D01*
X33880404Y-34604065D01*
X33954974Y-34529494D01*
X34009489Y-34501719D01*
X34024976Y-34500500D01*
X34129563Y-34500500D01*
X34129563Y-34500499D01*
X34205989Y-34480021D01*
X34274511Y-34440460D01*
X34330460Y-34384511D01*
X34330710Y-34384260D01*
X34385185Y-34356406D01*
X34445630Y-34365891D01*
X34465640Y-34379343D01*
X34468872Y-34382143D01*
X34565982Y-34444552D01*
X34589947Y-34459953D01*
X34688420Y-34488867D01*
X34728035Y-34500499D01*
X34728036Y-34500499D01*
X34728039Y-34500500D01*
X34728041Y-34500500D01*
X34871959Y-34500500D01*
X34871961Y-34500500D01*
X35010053Y-34459953D01*
X35131128Y-34382143D01*
X35225377Y-34273373D01*
X35285165Y-34142457D01*
X35295326Y-34071782D01*
X35305647Y-34000002D01*
X35305647Y-33999997D01*
X35285165Y-33857543D01*
X35263579Y-33810277D01*
X35225377Y-33726627D01*
X35131128Y-33617857D01*
X35131127Y-33617856D01*
X35131126Y-33617855D01*
X35010057Y-33540049D01*
X35010054Y-33540047D01*
X35010053Y-33540047D01*
X35010050Y-33540046D01*
X34871964Y-33499500D01*
X34871961Y-33499500D01*
X34728039Y-33499500D01*
X34728035Y-33499500D01*
X34589949Y-33540046D01*
X34589942Y-33540049D01*
X34468876Y-33617854D01*
X34468871Y-33617858D01*
X34427736Y-33665331D01*
X34375340Y-33696927D01*
X34352917Y-33699500D01*
X34329562Y-33699500D01*
X34250438Y-33699500D01*
X34203661Y-33712033D01*
X34174007Y-33719979D01*
X34105493Y-33759536D01*
X34105487Y-33759541D01*
X34054750Y-33810277D01*
X34000233Y-33838053D01*
X33939801Y-33828481D01*
X33914747Y-33810278D01*
X33880404Y-33775935D01*
X33880402Y-33775934D01*
X33880401Y-33775933D01*
X33773175Y-33725932D01*
X33727954Y-33719979D01*
X33724316Y-33719500D01*
X33275684Y-33719500D01*
X33272046Y-33719979D01*
X33226825Y-33725932D01*
X33226824Y-33725932D01*
X33119598Y-33775933D01*
X33119596Y-33775934D01*
X33119596Y-33775935D01*
X33035935Y-33859596D01*
X33035934Y-33859597D01*
X33029811Y-33865721D01*
X33028326Y-33864236D01*
X32988690Y-33894106D01*
X32956458Y-33899500D01*
X31743542Y-33899500D01*
X31685351Y-33880593D01*
X31670465Y-33865444D01*
X31670189Y-33865721D01*
X31664065Y-33859597D01*
X31664065Y-33859596D01*
X31580404Y-33775935D01*
X31580402Y-33775934D01*
X31580401Y-33775933D01*
X31473175Y-33725932D01*
X31427954Y-33719979D01*
X31424316Y-33719500D01*
X30975684Y-33719500D01*
X30972046Y-33719979D01*
X30926825Y-33725932D01*
X30926824Y-33725932D01*
X30819598Y-33775933D01*
X30819596Y-33775934D01*
X30819596Y-33775935D01*
X30735935Y-33859596D01*
X30735934Y-33859597D01*
X30729811Y-33865721D01*
X30728326Y-33864236D01*
X30688690Y-33894106D01*
X30656458Y-33899500D01*
X29160435Y-33899500D01*
X29084018Y-33919976D01*
X29084007Y-33919981D01*
X29070029Y-33928051D01*
X29015489Y-33959539D01*
X28704524Y-34270504D01*
X28650008Y-34298281D01*
X28634521Y-34299500D01*
X26165479Y-34299500D01*
X26107288Y-34280593D01*
X26095476Y-34270504D01*
X25784510Y-33959539D01*
X25729971Y-33928050D01*
X25729968Y-33928050D01*
X25715989Y-33919979D01*
X25715985Y-33919978D01*
X25715981Y-33919976D01*
X25639565Y-33899500D01*
X25636577Y-33899107D01*
X25634628Y-33898177D01*
X25633294Y-33897820D01*
X25633360Y-33897572D01*
X25581352Y-33872765D01*
X25552158Y-33818994D01*
X25550500Y-33800954D01*
X25550500Y-33680253D01*
X25550500Y-33680252D01*
X25538867Y-33621769D01*
X25538865Y-33621767D01*
X25538143Y-33618133D01*
X25538143Y-33579503D01*
X25549999Y-33519897D01*
X25550000Y-33519897D01*
X25550000Y-33500201D01*
X25549999Y-33500200D01*
X25381722Y-33500200D01*
X25372022Y-33499724D01*
X25369748Y-33499500D01*
X24230252Y-33499500D01*
X24230251Y-33499500D01*
X24227978Y-33499724D01*
X24218278Y-33500200D01*
X24050001Y-33500200D01*
X24050000Y-33500201D01*
X24050000Y-33519900D01*
X24061856Y-33579504D01*
X24061856Y-33618132D01*
X24049500Y-33680248D01*
X24049500Y-33919751D01*
X24061621Y-33980686D01*
X24061621Y-34019314D01*
X24049500Y-34080248D01*
X24049500Y-34080252D01*
X24049500Y-34319748D01*
X24058678Y-34365891D01*
X24061886Y-34382014D01*
X24061886Y-34420642D01*
X24050000Y-34480397D01*
X24050000Y-34500099D01*
X24050001Y-34500100D01*
X24221326Y-34500100D01*
X24229477Y-34500500D01*
X24230252Y-34500500D01*
X24760438Y-34500500D01*
X24801000Y-34500500D01*
X24859191Y-34519407D01*
X24895155Y-34568907D01*
X24900000Y-34599500D01*
X24900000Y-34900099D01*
X24900001Y-34900100D01*
X25549999Y-34900100D01*
X25550000Y-34900099D01*
X25550000Y-34880402D01*
X25549999Y-34880399D01*
X25537869Y-34819414D01*
X25537775Y-34781264D01*
X25537800Y-34781135D01*
X25567434Y-34727605D01*
X25622872Y-34701716D01*
X25682940Y-34713357D01*
X25704996Y-34729967D01*
X25759540Y-34784511D01*
X25759539Y-34784511D01*
X25815489Y-34840460D01*
X25884007Y-34880019D01*
X25884011Y-34880021D01*
X25960435Y-34900499D01*
X25960437Y-34900500D01*
X25960438Y-34900500D01*
X28839563Y-34900500D01*
X28839563Y-34900499D01*
X28915989Y-34880021D01*
X28984511Y-34840460D01*
X29040460Y-34784511D01*
X29295475Y-34529496D01*
X29349992Y-34501719D01*
X29365479Y-34500500D01*
X30675024Y-34500500D01*
X30733215Y-34519407D01*
X30745021Y-34529490D01*
X30819596Y-34604065D01*
X30819597Y-34604065D01*
X30819598Y-34604066D01*
X30832915Y-34610276D01*
X30877663Y-34652005D01*
X30889337Y-34712066D01*
X30863478Y-34767518D01*
X30832915Y-34789724D01*
X30819598Y-34795933D01*
X30735933Y-34879598D01*
X30685932Y-34986824D01*
X30685932Y-34986825D01*
X30679500Y-35035685D01*
X30679500Y-35384319D01*
X30679930Y-35387585D01*
X30668776Y-35447745D01*
X30624390Y-35489859D01*
X30581776Y-35499500D01*
X22965479Y-35499500D01*
X22907288Y-35480593D01*
X22895475Y-35470504D01*
X22705265Y-35280294D01*
X24049900Y-35280294D01*
X24049900Y-35299999D01*
X24049901Y-35300000D01*
X24699899Y-35300000D01*
X24699900Y-35299999D01*
X24699900Y-35100101D01*
X24900000Y-35100101D01*
X24900000Y-35299999D01*
X24900001Y-35300000D01*
X25549899Y-35300000D01*
X25549900Y-35299999D01*
X25549900Y-35280302D01*
X25549899Y-35280301D01*
X25537828Y-35219614D01*
X25537829Y-35180983D01*
X25549999Y-35119805D01*
X25550000Y-35119797D01*
X25550000Y-35100101D01*
X25549999Y-35100100D01*
X24900001Y-35100100D01*
X24900000Y-35100101D01*
X24699900Y-35100101D01*
X24699899Y-35100100D01*
X24050001Y-35100100D01*
X24050000Y-35100101D01*
X24050000Y-35119803D01*
X24062070Y-35180485D01*
X24062070Y-35219110D01*
X24049900Y-35280294D01*
X22705265Y-35280294D01*
X22529496Y-35104525D01*
X22501719Y-35050008D01*
X22500500Y-35034521D01*
X22500500Y-34700101D01*
X24050000Y-34700101D01*
X24050000Y-34719800D01*
X24062131Y-34780786D01*
X24062131Y-34819414D01*
X24050000Y-34880399D01*
X24050000Y-34900099D01*
X24050001Y-34900100D01*
X24699999Y-34900100D01*
X24700000Y-34900099D01*
X24700000Y-34700101D01*
X24699999Y-34700100D01*
X24050001Y-34700100D01*
X24050000Y-34700101D01*
X22500500Y-34700101D01*
X22500500Y-34165937D01*
X22519407Y-34107746D01*
X22568907Y-34071782D01*
X22627389Y-34070947D01*
X22728039Y-34100500D01*
X22728041Y-34100500D01*
X22871959Y-34100500D01*
X22871961Y-34100500D01*
X23010053Y-34059953D01*
X23131128Y-33982143D01*
X23225377Y-33873373D01*
X23285165Y-33742457D01*
X23297713Y-33655180D01*
X23324707Y-33600277D01*
X23325628Y-33599341D01*
X23540460Y-33384511D01*
X23880498Y-33044472D01*
X23935013Y-33016697D01*
X23995445Y-33026268D01*
X24038710Y-33069533D01*
X24049500Y-33114478D01*
X24049500Y-33119848D01*
X24061886Y-33182114D01*
X24061886Y-33220742D01*
X24050000Y-33280497D01*
X24050000Y-33300199D01*
X24050001Y-33300200D01*
X24221326Y-33300200D01*
X24229477Y-33300600D01*
X24230252Y-33300600D01*
X24760438Y-33300600D01*
X26534621Y-33300600D01*
X26592812Y-33319507D01*
X26604624Y-33329596D01*
X26815488Y-33540459D01*
X26815493Y-33540463D01*
X26884008Y-33580020D01*
X26884006Y-33580020D01*
X26884010Y-33580021D01*
X26884012Y-33580022D01*
X26960438Y-33600500D01*
X27052917Y-33600500D01*
X27111108Y-33619407D01*
X27127733Y-33634667D01*
X27168872Y-33682143D01*
X27289947Y-33759953D01*
X27396403Y-33791211D01*
X27428035Y-33800499D01*
X27428036Y-33800499D01*
X27428039Y-33800500D01*
X27428041Y-33800500D01*
X27571959Y-33800500D01*
X27571961Y-33800500D01*
X27710053Y-33759953D01*
X27831128Y-33682143D01*
X27925377Y-33573373D01*
X27985165Y-33442457D01*
X28001819Y-33326626D01*
X28005647Y-33300002D01*
X28005647Y-33299997D01*
X27985165Y-33157543D01*
X27947592Y-33075271D01*
X27925377Y-33026627D01*
X27831128Y-32917857D01*
X27831127Y-32917856D01*
X27831126Y-32917855D01*
X27710057Y-32840049D01*
X27710054Y-32840047D01*
X27710053Y-32840047D01*
X27710050Y-32840046D01*
X27571964Y-32799500D01*
X27571961Y-32799500D01*
X27428039Y-32799500D01*
X27428035Y-32799500D01*
X27289949Y-32840046D01*
X27289942Y-32840049D01*
X27162915Y-32921685D01*
X27161776Y-32919913D01*
X27114627Y-32939830D01*
X27055033Y-32925963D01*
X27036170Y-32911199D01*
X26884611Y-32759640D01*
X26884605Y-32759636D01*
X26884603Y-32759635D01*
X26877522Y-32755547D01*
X26877520Y-32755546D01*
X26851554Y-32740555D01*
X26816088Y-32720078D01*
X26739664Y-32699600D01*
X26739662Y-32699600D01*
X25649500Y-32699600D01*
X25591309Y-32680693D01*
X25555345Y-32631193D01*
X25550500Y-32600600D01*
X25550500Y-32480353D01*
X25550498Y-32480341D01*
X25538114Y-32418083D01*
X25538114Y-32379453D01*
X25549998Y-32319707D01*
X25550000Y-32319697D01*
X25550000Y-32300001D01*
X25549999Y-32300000D01*
X25378674Y-32300000D01*
X25370523Y-32299600D01*
X25369748Y-32299600D01*
X24839562Y-32299600D01*
X23939462Y-32299600D01*
X23860338Y-32299600D01*
X23813561Y-32312133D01*
X23783907Y-32320079D01*
X23715393Y-32359636D01*
X23715388Y-32359640D01*
X23427472Y-32647555D01*
X23372956Y-32675332D01*
X23312524Y-32665760D01*
X23269259Y-32622496D01*
X23267416Y-32618678D01*
X23244686Y-32568907D01*
X23225377Y-32526627D01*
X23180338Y-32474649D01*
X23156521Y-32418291D01*
X23170379Y-32358696D01*
X23185155Y-32339815D01*
X23275213Y-32249758D01*
X23395475Y-32129496D01*
X23449991Y-32101719D01*
X23465478Y-32100500D01*
X25369744Y-32100500D01*
X25369748Y-32100500D01*
X25369751Y-32100499D01*
X25369988Y-32100476D01*
X25379689Y-32100000D01*
X25549999Y-32100000D01*
X25550000Y-32099999D01*
X25550000Y-32080302D01*
X25549999Y-32080299D01*
X25538123Y-32020593D01*
X25538124Y-31981963D01*
X25538866Y-31978232D01*
X25538867Y-31978231D01*
X25550500Y-31919748D01*
X25550500Y-31680252D01*
X25538867Y-31621769D01*
X25538369Y-31619265D01*
X25538369Y-31580635D01*
X25550498Y-31519658D01*
X25550500Y-31519646D01*
X25550500Y-31399400D01*
X25569407Y-31341209D01*
X25618907Y-31305245D01*
X25649500Y-31300400D01*
X38134421Y-31300400D01*
X38192612Y-31319307D01*
G37*
G04 #@! TD.AperFunction*
G04 #@! TA.AperFunction,Conductor*
G36*
X43042610Y-25183773D02*
G01*
X43043248Y-25182233D01*
X43052255Y-25185962D01*
X43052260Y-25185966D01*
X43107808Y-25197015D01*
X43125315Y-25200498D01*
X43125320Y-25200498D01*
X43125326Y-25200500D01*
X43125327Y-25200500D01*
X43227457Y-25200500D01*
X43285648Y-25219407D01*
X43316576Y-25258641D01*
X43316735Y-25258550D01*
X43317364Y-25259641D01*
X43318921Y-25261615D01*
X43319978Y-25264167D01*
X43319979Y-25264169D01*
X43326538Y-25275529D01*
X43354301Y-25323618D01*
X43359537Y-25332687D01*
X43359541Y-25332692D01*
X43611359Y-25584511D01*
X43667309Y-25640460D01*
X43735827Y-25680019D01*
X43735831Y-25680021D01*
X43812255Y-25700499D01*
X43812257Y-25700500D01*
X43812258Y-25700500D01*
X45434521Y-25700500D01*
X45492712Y-25719407D01*
X45504525Y-25729496D01*
X45570504Y-25795475D01*
X45598281Y-25849992D01*
X45599500Y-25865479D01*
X45599500Y-30100500D01*
X45580593Y-30158691D01*
X45531093Y-30194655D01*
X45500500Y-30199500D01*
X44660435Y-30199500D01*
X44584012Y-30219978D01*
X44545078Y-30242457D01*
X44545077Y-30242456D01*
X44515488Y-30259540D01*
X44270003Y-30505025D01*
X44215487Y-30532802D01*
X44155055Y-30523231D01*
X44129997Y-30505025D01*
X43884511Y-30259540D01*
X43854921Y-30242456D01*
X43854920Y-30242456D01*
X43815988Y-30219978D01*
X43739564Y-30199500D01*
X43739562Y-30199500D01*
X41765479Y-30199500D01*
X41707288Y-30180593D01*
X41695475Y-30170504D01*
X41629496Y-30104525D01*
X41601719Y-30050008D01*
X41600500Y-30034521D01*
X41600500Y-25660437D01*
X41600499Y-25660435D01*
X41580021Y-25584011D01*
X41580019Y-25584007D01*
X41540460Y-25515489D01*
X41484511Y-25459539D01*
X41484511Y-25459540D01*
X41381787Y-25356816D01*
X41354010Y-25302299D01*
X41363581Y-25241867D01*
X41406846Y-25198602D01*
X41467278Y-25189031D01*
X41471106Y-25189715D01*
X41525315Y-25200498D01*
X41525320Y-25200498D01*
X41525326Y-25200500D01*
X41525327Y-25200500D01*
X41674673Y-25200500D01*
X41674674Y-25200500D01*
X41747740Y-25185966D01*
X41747746Y-25185961D01*
X41756752Y-25182233D01*
X41757586Y-25184248D01*
X41803880Y-25171189D01*
X41842610Y-25183773D01*
X41843248Y-25182233D01*
X41852255Y-25185962D01*
X41852260Y-25185966D01*
X41907808Y-25197015D01*
X41925315Y-25200498D01*
X41925320Y-25200498D01*
X41925326Y-25200500D01*
X41925327Y-25200500D01*
X42074673Y-25200500D01*
X42074674Y-25200500D01*
X42147740Y-25185966D01*
X42147746Y-25185961D01*
X42156752Y-25182233D01*
X42157586Y-25184248D01*
X42203880Y-25171189D01*
X42242610Y-25183773D01*
X42243248Y-25182233D01*
X42252255Y-25185962D01*
X42252260Y-25185966D01*
X42307808Y-25197015D01*
X42325315Y-25200498D01*
X42325320Y-25200498D01*
X42325326Y-25200500D01*
X42325327Y-25200500D01*
X42474673Y-25200500D01*
X42474674Y-25200500D01*
X42547740Y-25185966D01*
X42547746Y-25185961D01*
X42556752Y-25182233D01*
X42557586Y-25184248D01*
X42603880Y-25171189D01*
X42642610Y-25183773D01*
X42643248Y-25182233D01*
X42652255Y-25185962D01*
X42652260Y-25185966D01*
X42707808Y-25197015D01*
X42725315Y-25200498D01*
X42725320Y-25200498D01*
X42725326Y-25200500D01*
X42725327Y-25200500D01*
X42874673Y-25200500D01*
X42874674Y-25200500D01*
X42947740Y-25185966D01*
X42947746Y-25185961D01*
X42956752Y-25182233D01*
X42957586Y-25184248D01*
X43003880Y-25171189D01*
X43042610Y-25183773D01*
G37*
G04 #@! TD.AperFunction*
M02*
